<!-- Generated by IcoMoon.io -->
<svg version="1.1" xmlns="http://www.w3.org/2000/svg" width="24" height="24" viewBox="0 0 24 24"><title>AAVE</title>
<path fill="#000" d="M12 0c6.627 0 12 5.373 12 12s-5.373 12-12 12c-6.627 0-12-5.373-12-12s5.373-12 12-12z"></path>
<path fill="#fff" d="M18.501 16.661l-5.014-12.123c-0.283-0.627-0.703-0.933-1.257-0.933h-0.443c-0.554 0-0.975 0.306-1.257 0.933l-2.182 5.282h-1.651c-0.493 0.004-0.894 0.401-0.898 0.898v0.011c0.004 0.493 0.405 0.894 0.898 0.898h0.887l-2.083 5.033c-0.038 0.111-0.061 0.226-0.061 0.344 0 0.283 0.088 0.504 0.245 0.677s0.382 0.256 0.665 0.256c0.187-0.004 0.367-0.061 0.516-0.172 0.161-0.111 0.271-0.271 0.359-0.455l2.293-5.687h1.59c0.493-0.004 0.894-0.401 0.898-0.898v-0.023c-0.004-0.493-0.405-0.894-0.898-0.898h-0.848l1.751-4.361 4.77 11.863c0.088 0.183 0.199 0.344 0.359 0.455 0.149 0.111 0.332 0.168 0.516 0.172 0.283 0 0.505-0.084 0.665-0.256s0.245-0.394 0.245-0.677c0.004-0.115-0.015-0.233-0.061-0.34z"></path>
</svg>
