<!-- Generated by IcoMoon.io -->
<svg version="1.1" xmlns="http://www.w3.org/2000/svg" width="24" height="24" viewBox="0 0 24 24"><title>ADA</title>
<path fill="#fff" d="M12 0c6.627 0 12 5.373 12 12s-5.373 12-12 12c-6.627 0-12-5.373-12-12s5.373-12 12-12z"></path>
<path fill="#0033ad" d="M11.945 3.582c0.314 0.016 0.583-0.225 0.605-0.539s-0.226-0.583-0.539-0.605c-0.313-0.016-0.583 0.22-0.605 0.534-0.017 0.319 0.226 0.588 0.539 0.61z"></path>
<path fill="#0033ad" d="M17.285 3.659c-0.138 0.209-0.413 0.27-0.622 0.132-0.203-0.138-0.264-0.418-0.132-0.627 0.137-0.204 0.413-0.264 0.622-0.126s0.269 0.412 0.132 0.621z"></path>
<path fill="#0033ad" d="M7.253 3.835c0.22-0.11 0.308-0.385 0.198-0.605s-0.385-0.308-0.605-0.198-0.308 0.38-0.198 0.6c0.11 0.225 0.38 0.319 0.605 0.204z"></path>
<path fill="#0033ad" d="M8.65 13.361c-0.764-0.044-1.353-0.699-1.309-1.463 0.039-0.737 0.649-1.315 1.386-1.315 0.77-0.005 1.391 0.616 1.391 1.386 0.006 0.77-0.616 1.392-1.386 1.392h-0.082z"></path>
<path fill="#0033ad" d="M1.687 11.964c0.011-0.248 0.225-0.44 0.473-0.423s0.44 0.225 0.423 0.473c-0.016 0.247-0.225 0.44-0.473 0.424-0.248-0.011-0.435-0.226-0.423-0.473z"></path>
<path fill="#0033ad" d="M8.969 5.364c0.17 0.341 0.033 0.759-0.308 0.93s-0.759 0.033-0.929-0.308c-0.171-0.341-0.033-0.759 0.308-0.93s0.759-0.033 0.93 0.308z"></path>
<path fill="#0033ad" d="M3.92 7.982c0.264 0.17 0.616 0.099 0.792-0.165 0.171-0.264 0.099-0.616-0.165-0.792-0.264-0.171-0.616-0.099-0.792 0.165s-0.099 0.622 0.165 0.792z"></path>
<path fill="#0033ad" d="M4.030 11.947c0.022-0.385 0.346-0.676 0.732-0.654s0.676 0.352 0.654 0.731c-0.022 0.385-0.346 0.677-0.732 0.655s-0.676-0.346-0.654-0.732z"></path>
<path fill="#0033ad" d="M3.997 15.951c-0.28 0.143-0.396 0.484-0.253 0.77 0.143 0.28 0.484 0.396 0.77 0.253 0.28-0.143 0.396-0.484 0.253-0.77-0.143-0.28-0.489-0.396-0.77-0.253z"></path>
<path fill="#0033ad" d="M7.82 9.621c-0.242 0.38-0.748 0.484-1.127 0.237s-0.484-0.754-0.237-1.128c0.242-0.38 0.748-0.484 1.128-0.236 0.38 0.242 0.484 0.748 0.236 1.127z"></path>
<path fill="#0033ad" d="M15.245 6.238c0.319 0.209 0.754 0.121 0.962-0.198s0.121-0.753-0.198-0.963c-0.319-0.209-0.753-0.121-0.962 0.198-0.215 0.324-0.127 0.753 0.198 0.963z"></path>
<path fill="#0033ad" d="M15.349 10.572c-0.764-0.044-1.424 0.545-1.463 1.309-0.044 0.764 0.544 1.424 1.309 1.463h0.077c0.764 0 1.386-0.622 1.386-1.392 0.005-0.731-0.572-1.342-1.309-1.38z"></path>
<path fill="#0033ad" d="M10.361 10.523c-0.528 0-1.007-0.297-1.243-0.765-0.347-0.682-0.072-1.518 0.616-1.87 0.682-0.346 1.518-0.071 1.865 0.616 0.099 0.198 0.149 0.412 0.149 0.627 0 0.77-0.622 1.392-1.386 1.392z"></path>
<path fill="#0033ad" d="M20.002 7.982c0.28-0.143 0.391-0.49 0.247-0.77s-0.489-0.39-0.77-0.248-0.391 0.484-0.253 0.764c0.148 0.28 0.49 0.396 0.776 0.253z"></path>
<path fill="#0033ad" d="M16.119 9.516c-0.203-0.401-0.038-0.891 0.363-1.094 0.401-0.198 0.891-0.039 1.094 0.363s0.039 0.891-0.363 1.094c-0.401 0.203-0.891 0.038-1.094-0.363z"></path>
<path fill="#0033ad" d="M12.797 6.403c-0.022 0.451-0.407 0.798-0.858 0.77-0.451-0.022-0.792-0.407-0.77-0.858s0.407-0.798 0.858-0.77c0.451 0.022 0.797 0.407 0.77 0.858z"></path>
<path fill="#0033ad" d="M7.517 15.511c0.401-0.203 0.566-0.693 0.363-1.094s-0.693-0.567-1.095-0.363c-0.402 0.203-0.567 0.693-0.363 1.094s0.693 0.566 1.095 0.363z"></path>
<path fill="#0033ad" d="M12.869 10.286c-0.644-0.418-0.82-1.276-0.401-1.92 0.258-0.39 0.693-0.627 1.16-0.627 0.269 0 0.533 0.077 0.759 0.226 0.644 0.418 0.82 1.276 0.401 1.919s-1.276 0.82-1.919 0.402z"></path>
<path fill="#0033ad" d="M14.882 14.175c-0.347-0.687-1.183-0.962-1.865-0.616-0.688 0.346-0.962 1.183-0.616 1.864 0.346 0.688 1.182 0.962 1.864 0.616 0.682-0.341 0.962-1.166 0.621-1.853 0-0.005 0-0.005-0.005-0.011z"></path>
<path fill="#0033ad" d="M16.18 14.312c0.242-0.38 0.748-0.484 1.127-0.237s0.484 0.754 0.236 1.128c-0.242 0.38-0.748 0.484-1.127 0.236-0.38-0.242-0.484-0.748-0.236-1.127z"></path>
<path fill="#0033ad" d="M19.969 11.991c0.022-0.385-0.269-0.709-0.654-0.731s-0.71 0.269-0.732 0.654c-0.022 0.385 0.27 0.71 0.655 0.732 0.38 0.022 0.71-0.275 0.731-0.655z"></path>
<path fill="#0033ad" d="M21.416 11.92c0.011-0.248 0.226-0.44 0.473-0.424s0.434 0.226 0.423 0.473c-0.017 0.247-0.225 0.44-0.473 0.423-0.247-0.011-0.435-0.225-0.424-0.473z"></path>
<path fill="#0033ad" d="M20.079 15.951c-0.264-0.171-0.616-0.099-0.792 0.165-0.17 0.264-0.099 0.616 0.165 0.792 0.264 0.17 0.616 0.099 0.792-0.165s0.099-0.622-0.165-0.792z"></path>
<path fill="#0033ad" d="M6.709 20.269c0.138-0.203 0.413-0.264 0.621-0.126s0.27 0.418 0.126 0.621c-0.138 0.204-0.412 0.264-0.621 0.127-0.204-0.137-0.264-0.413-0.126-0.622z"></path>
<path fill="#0033ad" d="M16.746 20.098c-0.22 0.11-0.308 0.385-0.198 0.605s0.385 0.308 0.605 0.198c0.22-0.11 0.308-0.38 0.198-0.599-0.11-0.226-0.38-0.319-0.605-0.204z"></path>
<path fill="#0033ad" d="M11.131 13.641c0.644 0.424 0.819 1.282 0.401 1.925-0.259 0.396-0.693 0.632-1.166 0.627-0.269 0-0.533-0.077-0.759-0.226-0.644-0.424-0.825-1.282-0.401-1.925s1.282-0.819 1.925-0.401z"></path>
<path fill="#0033ad" d="M8.755 17.695c-0.319-0.209-0.754-0.121-0.963 0.198s-0.121 0.754 0.198 0.963c0.319 0.209 0.754 0.121 0.963-0.198 0.214-0.319 0.126-0.754-0.198-0.963z"></path>
<path fill="#0033ad" d="M11.389 20.89c0.022-0.314 0.292-0.556 0.605-0.539 0.314 0.022 0.556 0.292 0.539 0.61-0.022 0.314-0.292 0.55-0.605 0.533-0.313-0.022-0.561-0.291-0.539-0.605z"></path>
<path fill="#0033ad" d="M12 16.76c-0.451-0.028-0.836 0.319-0.858 0.77-0.027 0.451 0.319 0.836 0.77 0.858s0.836-0.319 0.858-0.77c0.028-0.446-0.319-0.836-0.77-0.858z"></path>
<path fill="#0033ad" d="M15.036 18.575c-0.176-0.341-0.038-0.759 0.303-0.935 0.347-0.176 0.764-0.033 0.941 0.308 0.17 0.341 0.033 0.759-0.308 0.93-0.341 0.176-0.759 0.038-0.935-0.303z"></path>
</svg>
