<!-- Generated by IcoMoon.io -->
<svg version="1.1" xmlns="http://www.w3.org/2000/svg" width="24" height="24" viewBox="0 0 24 24"><title>AGIX</title>
<path fill="#1d0d4b" d="M12 0c6.627 0 12 5.373 12 12s-5.373 12-12 12c-6.627 0-12-5.373-12-12s5.373-12 12-12z"></path>
<path fill="#fff" d="M12.858 4.818c-0.042-0.030-0.071-0.074-0.082-0.125s-0.004-0.103 0.021-0.148c0.035-0.022 0.076-0.034 0.117-0.034s0.082 0.012 0.117 0.034c0.529 0.219 1.007 0.544 1.406 0.954 0.227 0.211 0.418 0.457 0.563 0.728 0.153 0.276 0.278 0.565 0.375 0.864 0.092 0.31 0.14 0.631 0.141 0.954-0.047 0.319-0.094 1.864-0.985 2.591-0.113 0.068-0.248 0.092-0.378 0.067s-0.246-0.098-0.326-0.203c-0.064-0.075-0.102-0.167-0.111-0.265s0.014-0.196 0.064-0.28c0.379-0.586 0.588-1.266 0.605-1.964s-0.16-1.387-0.511-1.991c-0.3-0.425-0.64-0.82-1.017-1.182zM11.475 18.754c0.094 0.091 0.094 0.181 0.047 0.227s-0.141 0.091-0.188 0.045c-0.529-0.219-1.007-0.544-1.406-0.954-0.227-0.21-0.417-0.455-0.563-0.727-0.153-0.275-0.278-0.564-0.375-0.863-0.093-0.31-0.14-0.631-0.141-0.955 0.047-0.318 0.094-1.864 0.985-2.591 0.113-0.068 0.248-0.092 0.378-0.066s0.246 0.097 0.325 0.203c0.068 0.075 0.106 0.172 0.106 0.273s-0.038 0.198-0.106 0.273c-0.379 0.586-0.588 1.266-0.604 1.964s0.16 1.387 0.511 1.99c0.304 0.425 0.649 0.821 1.031 1.182z"></path>
<path fill="#fff" d="M15.521 15.004c-0.068-0.873-0.413-1.701-0.985-2.363-0.579-0.582-1.243-1.072-1.969-1.455-0.633-0.35-1.23-0.763-1.781-1.231-0.453-0.426-0.764-0.982-0.89-1.591-0.112-0.629-0.032-1.277 0.229-1.86 0.313-0.648 0.762-1.222 1.317-1.681 0.031-0.028 0.053-0.065 0.061-0.106s0.004-0.083-0.014-0.121c-0.013-0.024-0.032-0.045-0.054-0.060s-0.048-0.026-0.075-0.030-0.055-0.002-0.081 0.005c-0.026 0.008-0.050 0.022-0.070 0.040-0.747 0.326-1.383 0.863-1.829 1.545-0.499 0.717-0.732 1.585-0.661 2.455 0.037 0.44 0.148 0.87 0.329 1.273 0.195 0.399 0.448 0.766 0.75 1.091 0.596 0.569 1.276 1.044 2.015 1.409 0.636 0.33 1.234 0.727 1.781 1.182 0.482 0.423 0.797 1.003 0.891 1.636 0.132 0.659 0.049 1.342-0.235 1.955-0.319 0.644-0.785 1.205-1.36 1.636-0.019 0.011-0.035 0.026-0.048 0.044s-0.022 0.038-0.026 0.059c-0.004 0.022-0.004 0.044 0 0.065s0.014 0.042 0.027 0.059c0.026 0.048 0.075 0.082 0.13 0.091s0.112-0.008 0.152-0.045c0.697-0.402 1.303-0.944 1.781-1.591 0.465-0.718 0.679-1.563 0.614-2.409z"></path>
</svg>
