<!-- Generated by IcoMoon.io -->
<svg version="1.1" xmlns="http://www.w3.org/2000/svg" width="24" height="24" viewBox="0 0 24 24"><title>ALGO</title>
<path fill="#000" d="M12 0c6.627 0 12 5.373 12 12s-5.373 12-12 12c-6.627 0-12-5.373-12-12s5.373-12 12-12z"></path>
<path fill="#fff" d="M6.658 18.050l2.041-3.534 2.041-3.522 2.028-3.534 0.336-0.56 0.149 0.56 0.622 2.327-0.697 1.207-2.041 3.522-2.029 3.534h2.439l3.099-5.364 0.498 1.829 0.946 3.534h2.19l-0.946-3.534-0.946-3.522-0.249-0.908 1.518-2.626h-2.215l-0.075-0.261-0.772-2.887-0.1-0.373h-2.128l-0.050 0.075-4.032 6.981-2.028 3.522-2.041 3.534h2.439z"></path>
</svg>
