<!-- Generated by IcoMoon.io -->
<svg version="1.1" xmlns="http://www.w3.org/2000/svg" width="24" height="24" viewBox="0 0 24 24"><title>AMP</title>
<path fill="#d9327c" d="M12 0c6.627 0 12 5.373 12 12s-5.373 12-12 12c-6.627 0-12-5.373-12-12s5.373-12 12-12z"></path>
<path fill="#fff" d="M11.491 6.329c-0.097 0.077-0.213 0.213-0.29 0.464s-0.503 1.489-1.044 3.036h3.616c-0.542-1.547-0.967-2.785-1.044-3.036s-0.193-0.387-0.29-0.464-0.232-0.135-0.483-0.135c-0.251 0-0.368 0.058-0.464 0.135zM6.153 9.829h2.456c0.6-1.76 1.122-3.23 1.199-3.5 0.155-0.464 0.406-0.87 0.793-1.16s0.851-0.425 1.334-0.425c0.483 0 0.948 0.116 1.334 0.425 0.387 0.29 0.638 0.696 0.793 1.16 0.097 0.271 0.6 1.721 1.199 3.5h2.495c0.406 0 0.735 0.329 0.735 0.735s-0.329 0.735-0.735 0.735h-11.604c-0.406 0-0.716-0.329-0.716-0.735s0.329-0.735 0.716-0.735zM6.153 12.73c-0.406 0-0.716 0.329-0.716 0.735s0.329 0.735 0.716 0.735h0.967l-0.774 2.243-0.155 0.425c-0.135 0.387 0.077 0.793 0.445 0.928 0.387 0.135 0.793-0.077 0.928-0.445l0.155-0.425 0.387-1.122c0.155-0.464 0.348-1.006 0.561-1.605h6.614c0.193 0.58 0.387 1.141 0.561 1.605l0.387 1.122 0.155 0.425c0.135 0.387 0.542 0.58 0.928 0.445s0.58-0.542 0.445-0.928l-0.155-0.425-0.774-2.243h0.967c0.406 0 0.735-0.329 0.735-0.735s-0.329-0.735-0.735-0.735h-11.642zM17.041 17.081l0.677-0.232c0 0 0 0-0.677 0.232zM17.041 17.081c-0.677 0.232-0.677 0.232-0.677 0.232l0.677-0.232zM6.888 17.081l0.677 0.232c0 0 0 0-0.677-0.232zM6.888 17.081c-0.677-0.232-0.677-0.232-0.677-0.232l0.677 0.232z"></path>
</svg>
