<!-- Generated by IcoMoon.io -->
<svg version="1.1" xmlns="http://www.w3.org/2000/svg" width="24" height="24" viewBox="0 0 24 24"><title>ANKR</title>
<path fill="#fff" d="M12 0c6.627 0 12 5.373 12 12s-5.373 12-12 12c-6.627 0-12-5.373-12-12s5.373-12 12-12z"></path>
<path fill="#245ae5" opacity="0.9" d="M13.060 4.261l5.226 2.673c0.758 0.399 1.237 1.157 1.237 2.035v1.237h-1.915v-1.237c0-0.12-0.080-0.239-0.2-0.319l-5.226-2.673c-0.080-0.040-0.199-0.040-0.319 0l-5.226 2.673c-0.12 0.040-0.199 0.16-0.199 0.319v1.237h-1.915v-1.237c0-0.838 0.479-1.636 1.237-2.035l5.226-2.673c0.638-0.319 1.396-0.319 2.075 0zM13.658 11.92c0-0.918-0.758-1.636-1.636-1.636-0.918 0-1.636 0.718-1.636 1.636s0.758 1.636 1.636 1.636c0.878 0 1.636-0.718 1.636-1.636zM17.368 15.351c0.12-0.040 0.2-0.16 0.2-0.319v-1.237h1.915v1.237c0 0.838-0.479 1.636-1.237 2.035l-5.226 2.673c-0.319 0.16-0.678 0.239-1.037 0.239s-0.718-0.080-1.037-0.239l-5.186-2.673c-0.758-0.399-1.237-1.157-1.237-2.035v-1.237h1.915v1.237c0 0.12 0.080 0.239 0.199 0.319l4.428 2.234v-2.234c-1.516-0.439-2.593-1.795-2.593-3.431 0-1.955 1.596-3.59 3.59-3.59 1.955 0 3.59 1.596 3.59 3.59 0 1.636-1.117 3.032-2.593 3.431v2.234l4.308-2.234z"></path>
</svg>
