<!-- Generated by IcoMoon.io -->
<svg version="1.1" xmlns="http://www.w3.org/2000/svg" width="24" height="24" viewBox="0 0 24 24"><title>APE</title>
<path fill="#000" d="M12 0c6.627 0 12 5.373 12 12s-5.373 12-12 12c-6.627 0-12-5.373-12-12s5.373-12 12-12z"></path>
<path fill="#fff" d="M19.96 8.826c0.078-0.155 0.129-0.297 0.181-0.595 0.078-0.453 0.129-0.776-0.026-1.086-0.052-0.091-0.078-0.129-0.246-0.259-0.044-0.040-0.095-0.083-0.153-0.134l-0-0c-0.095-0.082-0.212-0.183-0.364-0.319-0.453-0.427-0.685-0.647-0.828-0.918-0.194-0.401-0.944-0.815-1.319-0.944-0.813-0.284-1.588-0.194-2.479-0.091l-0.004 0c-0.142 0.026-0.284 0.039-0.427 0.052-0.438 0.050-0.863 0.293-1.218 0.497l-0.036 0.021c-0.052 0.029-0.101 0.057-0.148 0.084l-0 0c-0.080 0.047-0.153 0.090-0.227 0.122 0.608 0 1.254 0.091 1.746 0.388 0.828 0.504 0.996 1.539 1.047 2.496 0.013 0.272 0 0.595-0.026 0.931l-0.002 0.042c-0.038 0.74-0.081 1.564 0.3 1.678 0.336 0.091 1.306 0.517 2.444 1.099 0.039 0.013 0.103 0.013 0.142 0.013 0.386-0.050 0.677-0.424 0.859-0.66 0.007-0.009 0.014-0.017 0.020-0.026 0.22-0.284 0.31-0.556 0.362-0.724 0.057-0.172 0.074-0.283 0.095-0.423 0.003-0.018 0.005-0.036 0.008-0.056v-0.013c0.008-0.067 0.022-0.144 0.038-0.233l0-0c0.009-0.049 0.018-0.1 0.027-0.155 0.078-0.414 0.155-0.608 0.233-0.789z"></path>
<path fill="#fff" d="M16.055 12.279c0.039-0.052 0.013-0.116-0.039-0.129-0.181-0.065-0.349-0.116-0.504-0.142-0.479-0.078-0.853 0.207-0.97 0.297-0.111 0.086-0.116 0.102-0.128 0.137l-0.002 0.005-0.002 0.006-0.003 0.012c-0.025 0.088-0.057 0.202-0.202 0.396-0.263 0.376-0.454 0.497-0.595 0.586l-0.013 0.008-0.011 0.008-0.011 0.008c-0.079 0.056-0.139 0.098-0.21 0.217-0.065 0.103-0.065 0.207-0.052 0.44 0.013 0.116 0.013 0.272 0.013 0.453v0.039c0 0.22 0 0.388-0.013 0.517 0 0.052 0.052 0.104 0.104 0.078 0.006-0.007 0.016-0.010 0.026-0.013s0.019-0.006 0.026-0.013c0.065-0.039 0.129-0.065 0.297-0.091 0.931-0.142 1.073-0.168 1.203-0.259 0.168-0.104 0.181-0.22 0.194-0.491l0.001-0.014c0.013-0.244 0.029-0.562 0.245-0.929 0.065-0.103 0.142-0.246 0.22-0.388 0.031-0.055 0.061-0.109 0.091-0.161 0.129-0.23 0.241-0.429 0.336-0.576z"></path>
<path fill="#fff" d="M12.305 16.443c-0.026 0.026-0.039 0.039-0.078 0.039-0.104 0-0.168-0.026-0.207-0.078-0.091-0.116-0.078-0.349-0.065-0.491l0.401-0.103c0.026 0.22 0.039 0.517-0.052 0.634z"></path>
<path fill="#fff" d="M12.318 15.214c0-0.078 0-0.142 0.013-0.194 0.013-0.026 0.013-0.065 0.013-0.091-0.054-0.011-0.143 0.005-0.217 0.019-0.015 0.003-0.029 0.005-0.042 0.007-0.039 0.013-0.078 0.026-0.116 0.026-0.013 0.039-0.013 0.155-0.013 0.233v0.336c0.129 0 0.233 0 0.362-0.039v-0.297z"></path>
<path fill="#fff" d="M11.607 16.326c-0.013 0.207-0.078 0.453-0.272 0.491-0.091 0.013-0.129-0.013-0.155-0.039-0.129-0.116-0.142-0.479-0.129-0.737 0.091 0 0.194-0.013 0.323-0.039 0.045-0.007 0.089-0.019 0.132-0.030 0.031-0.008 0.061-0.016 0.088-0.022 0.013 0.104 0.026 0.233 0.013 0.375z"></path>
<path fill="#fff" d="M11.089 15.757l0.427-0.155c0-0.168 0-0.453 0.013-0.582l-0.272 0.013h-0.026c-0.013 0-0.026 0.013-0.026 0.013-0.013 0.013-0.039 0.052-0.052 0.155-0.013 0.155-0.039 0.388-0.065 0.556z"></path>
<path fill="#fff" d="M10.818 15.473c-0.026 0.065-0.052 0.246-0.065 0.375l-0.53-0.013c0.025-0.16 0.073-0.32 0.111-0.447l0.006-0.018 0.009-0.022c0.048-0.119 0.085-0.213 0.134-0.237 0.052-0.026 0.168-0.039 0.246 0.026 0.116 0.078 0.142 0.194 0.090 0.336z"></path>
<path fill="#fff" d="M10.482 17.206c0.052 0 0.103-0.039 0.142-0.091 0.158-0.219 0.156-0.699 0.155-0.918-0-0.014-0-0.027-0-0.039-0.116 0.013-0.362 0.052-0.582 0.103-0.013 0.246-0.026 0.75 0.142 0.905 0.039 0.026 0.078 0.052 0.142 0.039z"></path>
<path fill="#fff" d="M9.926 15.809c-0.026 0.065-0.052 0.129-0.065 0.194-0.065 0.026-0.259 0-0.453-0.039l0.129-0.841c0.22-0.065 0.478-0.078 0.53-0.013 0.082 0.082-0.049 0.441-0.122 0.642-0.007 0.021-0.014 0.040-0.020 0.056z"></path>
<path fill="#fff" d="M9.201 17.413c0.22 0.013 0.375-0.052 0.478-0.181 0.129-0.155 0.155-0.414 0.142-0.634 0-0.065 0-0.129-0.013-0.181l-0.724-0.039c-0.116 0.284-0.233 0.737-0.116 0.931 0.026 0.039 0.078 0.103 0.233 0.103z"></path>
<path fill="#fff" d="M7.663 10.663c0.065-0.129 0.116-0.207 0.168-0.272l-0.039-0.013h-0.013c-0.052-0.013-0.091-0.013-0.129-0.013-0.091 0-0.155 0.013-0.181 0.052-0.065 0.091-0.091 0.22-0.116 0.414-0.013 0.129-0.039 0.285-0.078 0.466 0 0.021-0.004 0.039-0.007 0.055-0.003 0.013-0.005 0.024-0.005 0.036-0.013 0.129-0.039 0.246-0.246 0.711-0.065 0.181-0.052 0.259-0.026 0.375 0 0.013 0.003 0.023 0.006 0.032s0.006 0.019 0.006 0.032c0.026 0.039 0.142 0.129 0.22 0.168-0.049-0.368 0.065-0.643 0.154-0.858l0.005-0.013 0.009-0.021c0.039-0.065 0.065-0.129 0.078-0.181 0.026-0.078 0.026-0.142 0.026-0.233 0-0.168 0-0.375 0.168-0.737z"></path>
<path fill="#fff" d="M9.128 6.46c0.017-0.041 0.032-0.080 0.048-0.116-0.078 0.013-0.155 0.039-0.246 0.078-0.142 0.103-0.181 0.22-0.271 0.491-0.078 0.259-0.194 0.608-0.466 1.073-0.039 0.052-0.078 0.116-0.104 0.168-0.155 0.271-0.207 0.362-0.194 0.453 0.026 0.129 0.246 0.22 0.388 0.233-0.052-0.272-0.039-0.517 0.039-0.737 0.052-0.129 0.103-0.22 0.181-0.336 0.065-0.091 0.142-0.22 0.246-0.414 0.065-0.116 0.194-0.427 0.297-0.698 0.031-0.069 0.057-0.134 0.081-0.194z"></path>
<path fill="#fff" d="M15.68 11.115c-0.649-0.178-0.597-1.106-0.546-2.023l0.003-0.046c0.004-0.088 0.008-0.176 0.012-0.261v-0c0.012-0.228 0.023-0.443 0.013-0.631-0.052-0.866-0.194-1.81-0.892-2.237-0.75-0.453-1.978-0.349-2.728-0.259-0.272 0.078-0.53 0.142-0.737 0.129-0.44-0.026-0.789-0.207-1.099-0.375l-0.009-0.005c-0.229-0.127-0.434-0.241-0.638-0.241h-0.026c-0.582 0.039-0.853 0.181-1.099 0.401-0.065 0.052-0.142 0.207-0.388 0.918-0.112 0.313-0.137 0.501-0.158 0.663-0.003 0.025-0.007 0.050-0.010 0.074-0.005 0.031-0.009 0.062-0.014 0.095-0.020 0.143-0.042 0.304-0.116 0.526-0.065 0.181-0.116 0.336-0.155 0.491-0.116 0.401-0.22 0.724-0.504 1.112-0.021 0.021-0.042 0.053-0.065 0.089-0.020 0.030-0.041 0.062-0.064 0.092l-0.018 0.030c-0.061 0.098-0.135 0.216-0.24 0.345-0.078 0.103-0.246 0.491-0.233 0.608 0.012 0.181 0.069 0.294 0.129 0.414l0.013 0.026c0.007 0.013 0.014 0.027 0.021 0.041 0.062 0.121 0.136 0.266 0.147 0.463v0.039c0.026 0.336-0.026 0.504-0.659 1.073-0.401 0.362-0.698 0.711-0.892 0.97-0.013 0.026 0 0.052 0.039 0.052h0.129c0.155 0.013 0.31 0.078 0.414 0.194 0.013 0.026 0.052 0.026 0.078 0.013 0.103-0.039 0.22-0.039 0.323-0.026 0.129 0.013 0.272 0.052 0.362 0.142 0.026 0.026 0.065 0.039 0.103 0.026 0.103-0.026 0.22-0.026 0.323 0.013 0.078 0.026 0.155 0.078 0.207 0.142 0.039 0.039 0.103 0.052 0.155 0.026 0.008-0.004 0.017-0.009 0.027-0.015 0.023-0.013 0.050-0.028 0.077-0.037 0.142-0.052 0.297-0.026 0.427 0.026 0.016 0.006 0.032 0.012 0.048 0.018 0.048 0.017 0.097 0.034 0.145 0.073 0.103 0.078 0.181 0.181 0.22 0.297 0.026 0.065 0.116 0.091 0.168 0.039 0.103-0.078 0.181-0.091 0.259-0.065 0.039 0.013 0.065 0.039 0.091 0.078 0.039 0.052 0.103 0.103 0.155 0.078 0.22-0.065 0.478-0.026 0.672 0.078 0.065 0.039 0.142 0.091 0.181 0.168v-0.039c0-0.013 0.013-0.026 0.026-0.039l0.039-0.013c0.103-0.039 0.647-0.194 0.853 0.026 0.013 0.013 0.026 0.013 0.039 0 0.026-0.026 0.052-0.052 0.065-0.052 0.142-0.078 0.375-0.091 0.53 0.052 0.026 0.026 0.078 0.013 0.103-0.013 0.013-0.026 0.026-0.039 0.052-0.052 0.052-0.052 0.129-0.065 0.207-0.065l0.297-0.013c0.078 0 0.31-0.026 0.375-0.039h0.013c0.026 0 0.065-0.013 0.103-0.026 0.011-0.002 0.022-0.004 0.034-0.006 0.134-0.025 0.287-0.053 0.406 0.006 0.129 0.065 0.116 0.207 0.103 0.336 0 0.026-0.003 0.052-0.006 0.078s-0.007 0.052-0.007 0.078v0.078c0 0.116 0 0.22-0.013 0.297l0.013 0.065v0.013c0.013 0.052 0.078 0.091 0.116 0.052 0.103-0.065 0.207-0.142 0.246-0.194v-0.013c0-0.006 0.003-0.016 0.008-0.031s0.011-0.034 0.018-0.060l0.001-0.009c0.013-0.119 0.038-0.339 0.038-0.779v-0.052c0-0.168 0-0.31-0.013-0.427l-0.001-0.014c-0.013-0.239-0.023-0.429 0.104-0.62 0.106-0.176 0.212-0.246 0.317-0.315l0.021-0.014 0.011-0.007c0.129-0.078 0.272-0.168 0.517-0.504 0.112-0.161 0.128-0.227 0.141-0.278l0.001-0.006c0.026-0.129 0.065-0.207 0.259-0.336l0.008-0.006c0.162-0.122 0.61-0.458 1.221-0.356 0.207 0.039 0.53 0.142 0.866 0.271 0.006 0 0.013 0.003 0.019 0.007s0.013 0.006 0.019 0.006h0.013c0.297 0.116 0.569 0.246 0.763 0.349 0.039 0.026 0.091 0.013 0.129-0.026 0.048-0.058 0.097-0.095 0.145-0.131 0.016-0.012 0.032-0.024 0.049-0.037 0.026-0.013 0.052-0.026 0.065-0.039 0.013 0 0.013-0.013 0.013-0.013 0.052-0.039 0.052-0.142-0.013-0.168-0.866-0.427-1.694-0.685-1.966-0.763zM9.447 11.309c-0.207 0.879-1.578 1.862-2.198 1.862h-0.039c-0.013 0-0.026 0-0.039-0.013h-0.026c-0.116-0.039-0.272-0.116-0.388-0.233-0.078-0.078-0.142-0.181-0.168-0.271 0-0.007-0.003-0.016-0.006-0.026s-0.006-0.019-0.006-0.026c-0.039-0.155-0.078-0.336 0.052-0.647 0.006-0.019 0.016-0.039 0.026-0.058s0.019-0.039 0.026-0.058c0-0.007 0.003-0.013 0.006-0.019s0.006-0.013 0.006-0.019c0.013-0.039 0.026-0.065 0.039-0.091 0.010-0.040 0.028-0.072 0.041-0.097 0.004-0.007 0.007-0.014 0.010-0.019 0-0.006 0.003-0.013 0.006-0.019s0.006-0.013 0.006-0.019c0.025-0.068 0.034-0.108 0.041-0.138 0.003-0.016 0.006-0.029 0.011-0.043 0-0.026 0.013-0.078 0.026-0.129 0.039-0.168 0.065-0.31 0.078-0.427 0.026-0.22 0.065-0.414 0.181-0.595 0.013-0.013 0.023-0.026 0.032-0.039s0.019-0.026 0.032-0.039l0.052-0.052c0.020-0.020 0.047-0.032 0.070-0.042 0.007-0.003 0.014-0.006 0.020-0.009 0.006 0 0.013-0.003 0.019-0.006s0.013-0.006 0.019-0.006c0.013-0.007 0.026-0.010 0.039-0.013s0.026-0.006 0.039-0.013c0.116-0.026 0.246-0.026 0.401-0.013 0.168 0.013 0.323 0.039 0.453 0.078 0.116 0.026 0.22 0.065 0.297 0.103 0.006 0 0.010 0.003 0.013 0.006s0.006 0.007 0.013 0.007c0.008 0.008 0.016 0.011 0.027 0.015 0.007 0.003 0.015 0.006 0.025 0.011 0.013 0.007 0.023 0.010 0.032 0.013s0.019 0.006 0.032 0.013l0.104 0.052c0.091 0.039 0.181 0.091 0.246 0.142 0.039 0.026 0.065 0.052 0.090 0.078 0.005 0.005 0.010 0.008 0.014 0.011 0.007 0.004 0.012 0.007 0.012 0.015l0.026 0.026c0.272 0.233 0.259 0.556 0.207 0.75zM10.094 7.96l-0.026 0.155c-0.065 0.362-0.207 0.853-0.724 0.983-0.504 0.116-0.621 0.142-0.97 0.168h-0.026c-0.259 0-0.763-0.168-0.853-0.569-0.051-0.255 0.061-0.447 0.237-0.748l0.008-0.014c0.016-0.031 0.036-0.063 0.058-0.097 0.014-0.022 0.030-0.046 0.045-0.071 0.245-0.404 0.339-0.704 0.414-0.943 0.004-0.013 0.008-0.027 0.013-0.040 0.078-0.246 0.142-0.44 0.31-0.608 0.039-0.039 0.078-0.078 0.129-0.103 0.016-0.016 0.036-0.027 0.058-0.039 0.014-0.008 0.030-0.016 0.045-0.026 0.026-0.013 0.052-0.023 0.078-0.032s0.052-0.019 0.078-0.032c0.116-0.039 0.246-0.052 0.362-0.052 0.246 0 0.491 0.065 0.659 0.207 0.078 0.065 0.194 0.181 0.259 0.556 0.026 0.194-0.026 0.543-0.155 1.306zM13.762 9.068c-0.153 0.264-0.241 0.415-0.384 0.534-0.31 0.259-0.659 0.31-0.957 0.31-0.15 0-0.286-0.020-0.394-0.037-0.041-0.006-0.078-0.012-0.11-0.015-0.31-0.052-0.866-0.155-1.060-0.608-0.039-0.091-0.039-0.142-0.039-0.22 0-0.065 0-0.194-0.039-0.466v-0.013c-0.013-0.129-0.026-0.271 0-0.453v-0.026c0.085-0.445 0.126-0.577 0.145-0.639 0.004-0.014 0.007-0.024 0.010-0.033 0.052-0.103 0.181-0.155 0.297-0.091 0.103 0.052 0.142 0.181 0.103 0.284-0.013 0.026-0.039 0.142-0.129 0.569v0.026c-0.024 0.109-0.014 0.195-0.003 0.301l0.003 0.022v0.013c0.039 0.31 0.039 0.44 0.039 0.517v0.052c0.039 0.091 0.116 0.142 0.207 0.194 0.065 0.026 0.129-0.026 0.116-0.091-0.091-0.478-0.091-1.034 0.090-1.384 0.065-0.116 0.168-0.297 0.272-0.478 0.013-0.013 0.026-0.039 0.026-0.052 0.006-0.006 0.010-0.013 0.013-0.019s0.007-0.013 0.013-0.019c0.052-0.078 0.090-0.142 0.129-0.207 0-0.006 0.003-0.010 0.007-0.013s0.006-0.006 0.006-0.013l0.013-0.013c0.006-0.006 0.010-0.013 0.013-0.019s0.006-0.013 0.013-0.019c0 0 0-0.013 0.013-0.013l0.013-0.013c0-0.006 0.003-0.010 0.007-0.013s0.006-0.006 0.006-0.013c0.039-0.052 0.078-0.103 0.103-0.155 0.052-0.065-0.013-0.142-0.078-0.116-0.138 0.059-0.238 0.125-0.289 0.16-0.016 0.011-0.028 0.018-0.034 0.021-0.091 0.078-0.233 0.065-0.31-0.039-0.078-0.091-0.065-0.233 0.039-0.31 0.116-0.091 0.711-0.517 1.422-0.323 0.485 0.133 0.742 0.494 0.858 0.656l0 0c0.008 0.011 0.014 0.020 0.021 0.029 0.003 0.005 0.007 0.010 0.010 0.015 0.088 0.131 0.325 0.484 0.313 0.98 0 0.375-0.155 0.659-0.453 1.164-0.015 0.025-0.029 0.049-0.042 0.072l-0.001 0.002z"></path>
<path fill="#fff" d="M8.904 16.12c-0.155 0.31-0.336 0.595-0.453 0.737-0.104-0.259-0.272-0.866-0.22-1.345v-0.039c0.013-0.155 0.052-0.284 0.129-0.401 0.052-0.078 0.181-0.116 0.323-0.116 0.104 0 0.22 0.026 0.323 0.078 0.052 0.026 0.129 0.091 0.129 0.259 0.026 0.233-0.091 0.543-0.233 0.828z"></path>
<path fill="#fff" d="M17.193 12.706c0-0.013 0-0.026-0.013-0.039-0.052-0.052-0.336-0.181-0.659-0.297-0.039-0.026-0.091-0.013-0.116 0.026-0.127 0.173-0.294 0.479-0.43 0.726l-0.001 0.002-0 0-0.026 0.047c-0.007 0.013-0.014 0.026-0.021 0.039-0.056 0.112-0.112 0.211-0.164 0.302-0.019 0.034-0.038 0.067-0.056 0.099-0.179 0.308-0.194 0.565-0.207 0.796l-0 0.006-0 0.002c-0.013 0.271-0.026 0.555-0.336 0.761-0.207 0.129-0.388 0.168-1.332 0.31-0.129 0.026-0.168 0.039-0.22 0.065-0.012 0.005-0.024 0.010-0.036 0.015-0.056 0.024-0.124 0.054-0.262 0.075-0.026 0-0.065 0.026-0.078 0.065-0.013 0-0.013 0.013-0.013 0.013-0.078 0.129-0.336 0.323-0.543 0.414-0.052 0.026-0.078 0.065-0.078 0.103-0.013 0.142-0.039 0.297-0.116 0.401-0.065 0.078-0.155 0.129-0.259 0.129h-0.026c-0.194 0-0.31-0.091-0.375-0.168 0-0.013-0.013-0.013-0.013 0-0.052 0.22-0.181 0.427-0.427 0.478-0.039 0.013-0.078 0.013-0.104 0.013-0.129 0-0.22-0.052-0.271-0.104-0.026-0.026-0.065-0.013-0.078 0.013-0.026 0.103-0.065 0.194-0.116 0.271-0.091 0.116-0.194 0.181-0.323 0.194h-0.052c-0.104 0-0.194-0.039-0.272-0.104-0.065-0.065-0.22-0.065-0.272 0.013-0.006 0.006-0.010 0.013-0.013 0.019s-0.006 0.013-0.013 0.019c-0.142 0.181-0.362 0.272-0.646 0.272h-0.013c-0.246-0.013-0.362-0.129-0.427-0.22-0.007-0.013-0.013-0.026-0.020-0.038-0.019-0.035-0.035-0.066-0.045-0.104-0.026-0.091-0.181-0.129-0.285-0.129h-0.026c-0.065-0.013-0.091-0.065-0.116-0.116 0-0.013-0.013-0.013-0.013 0 0.007 0.039 0.013 0.081 0.019 0.123s0.013 0.084 0.019 0.123c0.013 0.052 0.013 0.155-0.142 0.233-0.103 0.052-0.284 0.078-0.478 0.078-0.362 0-0.802-0.091-0.983-0.272-0.052-0.039-0.103-0.078-0.142-0.142-0.052-0.065-0.155-0.104-0.22-0.052-0.078 0.052-0.142 0.065-0.181 0.065h-0.039c-0.181-0.026-0.297-0.181-0.388-0.414-0.026-0.039-0.078-0.065-0.129-0.065-0.103 0.013-0.207 0.026-0.31 0.026-0.091 0-0.194 0-0.284-0.052s-0.142-0.129-0.181-0.22c0-0.013-0.013-0.013-0.026-0.013-0.013 0.013-0.013 0.013-0.026 0.013-0.052 0.013-0.103 0.013-0.155 0-0.013 0-0.039 0-0.065-0.013l-0.078-0.039c-0.013 0-0.026 0.013-0.026 0.026 0.517 1.19 0.841 1.914 1.591 2.315 0.323 0.168 0.802 0.233 1.759 0.336 0.685 0.078 1.215 0.078 2.095 0.078 0.84-0.013 1.086-0.039 1.254-0.078 0.271-0.065 0.414-0.116 0.569-0.181 0.034-0.012 0.068-0.025 0.103-0.038h0c0.148-0.056 0.31-0.117 0.583-0.169 0.31-0.065 0.685-0.078 1.435-0.104 0.401-0.013 0.621-0.013 0.75-0.013 0.155 0 0.155 0 0.207-0.013 0.559-0.165 0.893-0.68 1.224-1.188l0.018-0.027c0.272-0.414 0.478-0.737 0.569-1.229 0.036-0.226 0.028-0.376 0.016-0.589-0.001-0.019-0.002-0.038-0.003-0.057-0.026-0.259-0.052-0.608-0.026-1.241 0.013-0.543 0.052-0.75 0.168-0.983 0.076-0.164 0.163-0.266 0.24-0.355l0.006-0.007c0.012-0.015 0.024-0.029 0.036-0.043 0.052-0.060 0.1-0.117 0.132-0.19z"></path>
<path fill="#fff" d="M7.999 15.486c-0.039 0.323-0.065 0.763-0.013 1.332 0.013 0.155 0.039 0.323 0.065 0.491-0.039 0.026-0.181 0.065-0.414 0.052-0.336-0.013-0.672-0.091-0.776-0.207l-0.013-0.013-0.004-0.003c-0.076-0.063-0.138-0.115-0.138-0.229 0-0.039 0.013-0.078 0.052-0.142 0.026-0.026 0.052-0.065 0.078-0.116 0.019-0.028 0.041-0.058 0.065-0.090 0.043-0.058 0.092-0.125 0.142-0.207 0.22-0.362 0.297-0.478 0.401-0.621 0.006-0.006 0.010-0.013 0.013-0.019s0.006-0.013 0.013-0.019c0.045-0.053 0.089-0.119 0.151-0.21 0.028-0.041 0.059-0.087 0.095-0.139 0.016-0.024 0.031-0.047 0.046-0.070 0.058-0.088 0.109-0.166 0.161-0.227 0.091-0.129 0.155-0.194 0.194-0.233 0 0.052-0.013 0.129-0.026 0.207-0.052 0.155-0.078 0.297-0.091 0.466z"></path>
<path fill="#fff" d="M7.572 15.007c-0.013-0.116-0.026-0.22-0.078-0.336 0 0-0.013-0.026-0.013-0.039-0.006-0.006-0.010-0.013-0.013-0.019s-0.006-0.013-0.013-0.019l-0.013-0.013c-0.007-0.007-0.011-0.011-0.014-0.012s-0.006-0.001-0.011-0.001l-0.013-0.013c-0.006 0-0.010-0.003-0.013-0.007s-0.006-0.006-0.013-0.006h-0.013c-0.065-0.026-0.129-0.052-0.207-0.065h-0.065c-0.005 0-0.011 0.002-0.017 0.005-0.009 0.004-0.020 0.008-0.035 0.008-0.006 0-0.010 0.003-0.013 0.006s-0.006 0.006-0.013 0.006l-0.052 0.052v0.013l-0.078 0.116c-0.032 0.045-0.065 0.094-0.097 0.142s-0.065 0.097-0.097 0.142c-0.032 0.045-0.061 0.087-0.090 0.129l-0 0c-0.029 0.042-0.058 0.084-0.091 0.129-0.019 0.026-0.036 0.049-0.052 0.071s-0.032 0.045-0.052 0.071c0 0.006-0.003 0.010-0.006 0.013s-0.006 0.006-0.006 0.013c0.019 0.007 0.039 0.010 0.058 0.013s0.039 0.006 0.058 0.013l0 0c0.090 0.013 0.181 0.026 0.259 0.039 0.181 0.026 0.375 0.039 0.556 0.026h0.026c0.018-0.030 0.042-0.064 0.069-0.101 0.030-0.042 0.065-0.090 0.099-0.144 0.039-0.052 0.078-0.104 0.103-0.155-0.039-0.013-0.052-0.052-0.052-0.078z"></path>
<path fill="#fff" d="M6.499 16.624c0.246-0.349 0.401-0.711 0.414-0.854-0.013-0.006-0.029-0.010-0.045-0.013s-0.032-0.006-0.045-0.013c-0.517 0-0.879-0.026-1.086-0.142-0.013 0.155 0 0.414 0.052 0.595 0.008 0.055 0.025 0.109 0.043 0.167 0.012 0.038 0.024 0.077 0.034 0.118 0.078 0.246 0.168 0.491 0.272 0.504 0.026 0 0.155-0.078 0.362-0.362z"></path>
<path fill="#fff" d="M6.551 14.607c-0.091 0.142-0.181 0.272-0.272 0.401-0.026 0.032-0.048 0.065-0.071 0.097s-0.045 0.065-0.071 0.097c-0.013 0.019-0.029 0.039-0.045 0.058s-0.032 0.039-0.045 0.058c-0.039-0.006-0.074-0.016-0.11-0.026s-0.071-0.019-0.11-0.026c-0.050-0.010-0.092-0.028-0.139-0.047l-0-0c-0.014-0.006-0.028-0.012-0.042-0.017-0.006 0-0.013-0.003-0.019-0.006s-0.013-0.006-0.019-0.006c-0.006-0.006-0.013-0.016-0.019-0.026s-0.013-0.019-0.019-0.026c0.013-0.019 0.023-0.042 0.032-0.065s0.019-0.045 0.032-0.065c0.039-0.078 0.078-0.155 0.129-0.233 0.078-0.129 0.168-0.272 0.31-0.362 0.006 0 0.010-0.003 0.013-0.006s0.006-0.006 0.013-0.006c0.052-0.026 0.103-0.052 0.168-0.065h0.103c0.005 0 0.011 0.002 0.017 0.005 0.009 0.004 0.020 0.008 0.035 0.008 0 0 0.013 0 0.013 0.013 0.006 0.007 0.013 0.010 0.019 0.013s0.013 0.006 0.019 0.013c-0.026-0.013 0.026 0.039 0.026 0.026 0.026 0.078 0.039 0.116 0.052 0.194z"></path>
<path fill="#fff" d="M5.477 14.736c0.091-0.194 0.207-0.375 0.375-0.504-0.013 0-0.026-0.013-0.013-0.013-0.052-0.026-0.116-0.026-0.181-0.026-0.065-0.013-0.116-0.013-0.168 0.013-0.026 0.017-0.052 0.046-0.078 0.075-0.013 0.014-0.026 0.029-0.039 0.042-0.091 0.103-0.181 0.233-0.259 0.349-0.065 0.091-0.116 0.181-0.168 0.272 0.013 0.006 0.023 0.013 0.032 0.019s0.019 0.013 0.032 0.019c0.026 0.006 0.052 0.016 0.078 0.026s0.052 0.019 0.078 0.026c0.039 0.013 0.090 0.026 0.142 0.039 0 0 0.013-0.013 0.013-0.026l0.155-0.31z"></path>
<path fill="#fff" d="M5.594 16.43l-0.026 0.026h-0.013c-0.019 0-0.039 0.003-0.058 0.007s-0.039 0.006-0.058 0.006c-0.026 0-0.052 0.001-0.078 0.003-0.052 0.003-0.103 0.006-0.155-0.003-0.039 0-0.078-0.013-0.103-0.039-0.020-0.031-0.033-0.085-0.043-0.132-0.003-0.013-0.006-0.025-0.008-0.036-0.052-0.284-0.052-0.569-0.026-0.853 0.142 0.052 0.297 0.091 0.453 0.116-0.039 0.259 0.026 0.634 0.052 0.737 0.035 0.047 0.049 0.104 0.061 0.153 0.001 0.005 0.003 0.011 0.004 0.016z"></path>
<path fill="#fff" d="M4.779 14.645c0.103-0.181 0.22-0.349 0.349-0.504-0.065-0.065-0.142-0.116-0.22-0.129-0.012 0-0.026-0.001-0.041-0.003-0.030-0.003-0.062-0.006-0.089 0.003-0.052 0.013-0.078 0.052-0.103 0.091-0.078 0.103-0.142 0.207-0.207 0.31-0.039 0.052-0.065 0.103-0.091 0.168 0 0.015-0.008 0.029-0.018 0.046-0.007 0.013-0.016 0.028-0.021 0.045 0 0.013 0.013 0.013 0.013 0.013 0.006 0.006 0.016 0.013 0.026 0.019s0.019 0.013 0.026 0.019c0.026 0.026 0.065 0.052 0.103 0.078s0.091 0.052 0.142 0.065c0.028-0.056 0.063-0.113 0.095-0.164l0-0c0.012-0.019 0.024-0.038 0.034-0.056z"></path>
<path fill="#fff" d="M4.132 14.826c0.052 0.052 0.091 0.091 0.142 0.129 0.013 0.007 0.023 0.016 0.032 0.026s0.019 0.019 0.032 0.026v0.013c-0.052 0.22-0.091 0.453-0.091 0.685 0 0.013-0.013 0.013-0.013 0-0.065-0.271-0.142-0.711-0.103-0.879z"></path>
<path fill="#fff" d="M4.74 15.887c-0.013-0.194 0-0.388 0.026-0.582-0.038-0.010-0.070-0.026-0.104-0.045-0.012-0.006-0.025-0.013-0.038-0.020-0.039-0.013-0.078-0.026-0.103-0.039-0.039 0.194-0.065 0.401-0.052 0.595 0 0.104 0.013 0.207 0.065 0.297 0.026 0.039 0.052 0.078 0.078 0.091l0.052 0.026h0.103c-0.001-0.012-0.003-0.023-0.004-0.035-0.012-0.102-0.022-0.195-0.022-0.288z"></path>
</svg>
