<!-- Generated by IcoMoon.io -->
<svg version="1.1" xmlns="http://www.w3.org/2000/svg" width="24" height="24" viewBox="0 0 24 24"><title>APT</title>
<path fill="#000" d="M12 0c6.627 0 12 5.373 12 12s-5.373 12-12 12c-6.627 0-12-5.373-12-12s5.373-12 12-12z"></path>
<path fill="#fff" d="M17.594 8.587h-1.817c-0.21 0-0.411-0.090-0.553-0.249l-0.737-0.831c-0.111-0.124-0.266-0.197-0.433-0.197s-0.321 0.073-0.433 0.197l-0.634 0.716c-0.206 0.231-0.506 0.369-0.814 0.369h-9.946c-0.283 0.801-0.467 1.654-0.54 2.541h9.389c0.167 0 0.321-0.069 0.437-0.189l0.874-0.913c0.107-0.116 0.261-0.18 0.416-0.18h0.034c0.167 0 0.321 0.073 0.433 0.197l0.737 0.831c0.141 0.159 0.343 0.249 0.553 0.249h7.662c-0.073-0.883-0.257-1.74-0.54-2.545l-4.088 0.004z"></path>
<path fill="#fff" d="M7.37 16.48c0.167 0 0.321-0.069 0.437-0.189l0.874-0.913c0.111-0.116 0.261-0.18 0.42-0.18h0.034c0.167 0 0.326 0.073 0.433 0.193l0.737 0.831c0.141 0.159 0.343 0.249 0.553 0.249h10.387c0.39-0.806 0.673-1.667 0.844-2.571h-9.972c-0.21 0-0.411-0.090-0.553-0.249l-0.737-0.823c-0.111-0.124-0.266-0.193-0.433-0.193s-0.326 0.073-0.433 0.193l-0.634 0.716c-0.206 0.236-0.506 0.369-0.818 0.369h-6.681c0.171 0.904 0.454 1.765 0.844 2.571l4.697-0.004z"></path>
<path fill="#fff" d="M14.736 5.806c0.167 0 0.321-0.069 0.437-0.189l0.874-0.913c0.107-0.116 0.261-0.18 0.42-0.18h0.034c0.167 0 0.321 0.073 0.433 0.197l0.737 0.836c0.141 0.159 0.343 0.249 0.553 0.249h1.976c-1.881-2.503-4.872-4.118-8.241-4.118s-6.364 1.616-8.245 4.118h11.022z"></path>
<path fill="#fff" d="M8.073 19.030c-0.21 0-0.411-0.090-0.553-0.249l-0.737-0.831c-0.111-0.124-0.266-0.193-0.433-0.193s-0.326 0.073-0.433 0.193l-0.634 0.716c-0.206 0.236-0.506 0.369-0.818 0.369h-0.043c1.881 2.014 4.56 3.278 7.538 3.278s5.652-1.264 7.538-3.278l-11.425-0.004z"></path>
</svg>
