<!-- Generated by IcoMoon.io -->
<svg version="1.1" xmlns="http://www.w3.org/2000/svg" width="24" height="24" viewBox="0 0 24 24"><title>AR</title>
<path fill="#fff" d="M12 0c6.627 0 12 5.373 12 12s-5.373 12-12 12c-6.627 0-12-5.373-12-12s5.373-12 12-12z"></path>
<path fill="#222326" d="M13.423 14.674c0.015 0.054 0.028 0.1 0.058 0.13h1.64v-0.106c-0.053-0.106-0.106-0.317-0.159-0.529s-0.053-0.476-0.053-0.793v-2.645c0-0.37-0.106-0.688-0.212-0.952s-0.317-0.529-0.529-0.688c-0.264-0.212-0.529-0.317-0.846-0.423s-0.635-0.159-1.005-0.159c-0.423 0-0.793 0.053-1.111 0.159s-0.582 0.265-0.793 0.423c-0.265 0.212-0.423 0.423-0.529 0.635s-0.159 0.476-0.159 0.741h1.587c0-0.212 0.053-0.37 0.212-0.529s0.37-0.212 0.688-0.212c0.37 0 0.635 0.106 0.846 0.265 0.159 0.159 0.264 0.37 0.264 0.688v0.37h-0.899c-0.952 0-1.693 0.159-2.169 0.529-0.476 0.317-0.741 0.846-0.741 1.481 0 0.264 0.053 0.529 0.159 0.741s0.212 0.423 0.423 0.582 0.423 0.265 0.688 0.37c0.265 0.106 0.529 0.159 0.846 0.159 0.159 0 0.37 0 0.529-0.053 0.141-0.035 0.235-0.071 0.329-0.106 0.047-0.018 0.094-0.035 0.147-0.053 0.025-0.013 0.053-0.025 0.082-0.038 0.095-0.043 0.207-0.093 0.288-0.173 0.053-0.053 0.106-0.093 0.159-0.132s0.106-0.079 0.159-0.132c0 0.053 0.013 0.106 0.026 0.159s0.026 0.106 0.026 0.159c0.023 0.046 0.036 0.093 0.048 0.135zM12.37 13.64c-0.106 0.053-0.264 0.053-0.423 0.053-0.265 0-0.529-0.053-0.688-0.212s-0.212-0.317-0.212-0.529c0-0.106 0-0.265 0.053-0.37 0.039-0.118 0.108-0.177 0.183-0.243 0.026-0.023 0.054-0.047 0.081-0.074 0.106-0.106 0.265-0.159 0.423-0.212s0.37-0.053 0.635-0.053h0.793v1.058l-0.212 0.212c-0.053 0.106-0.159 0.159-0.264 0.212s-0.212 0.106-0.37 0.159z"></path>
<path fill="#222326" d="M12 3.563c-4.66 0-8.438 3.778-8.438 8.438s3.778 8.438 8.438 8.438c4.66 0 8.438-3.778 8.438-8.438s-3.778-8.438-8.438-8.438zM4.885 12c0-3.929 3.186-7.115 7.115-7.115s7.115 3.186 7.115 7.115c0 3.93-3.186 7.115-7.115 7.115s-7.115-3.185-7.115-7.115z"></path>
</svg>
