<!-- Generated by IcoMoon.io -->
<svg version="1.1" xmlns="http://www.w3.org/2000/svg" width="24" height="24" viewBox="0 0 24 24"><title>ARB</title>
<path fill="#213147" d="M12 0c6.627 0 12 5.373 12 12s-5.373 12-12 12c-6.627 0-12-5.373-12-12s5.373-12 12-12z"></path>
<path fill="#12aaff" d="M15.215 8.961c0.058-0.149 0.264-0.149 0.322 0v0.008l3.484 9.545-1.99 1.148-2.816-7.72c-0.025-0.083-0.025-0.165 0-0.239l0.999-2.741zM12.531 16.309l0.999-2.741c0.058-0.149 0.264-0.149 0.322 0l2.386 6.547-1.99 1.148-1.717-4.715c-0.025-0.082-0.025-0.165 0-0.239z"></path>
<path fill="#9dcced" d="M12.143 2.999c-0.041-0.025-0.091-0.041-0.14-0.041v-0.008c-0.050 0-0.099 0.017-0.14 0.041l-7.58 4.376c-0.083 0.050-0.14 0.149-0.14 0.248v8.76c0 0.099 0.050 0.198 0.14 0.248l3.15 1.819-0.445 1.213-3.349-1.934c-0.487-0.281-0.784-0.793-0.784-1.354v-8.752c0-0.561 0.297-1.073 0.784-1.354l7.58-4.376c0.246-0.14 0.509-0.206 0.78-0.206 0.271 0.001 0.542 0.067 0.78 0.206l7.588 4.376c0.487 0.281 0.784 0.793 0.784 1.354v8.752c0 0.561-0.297 1.073-0.784 1.354l-7.579 4.376c-0.248 0.14-0.512 0.206-0.784 0.206s-0.545-0.066-0.784-0.206l-3.433-1.982 0.983-0.902 3.095 1.787c0.041 0.025 0.091 0.041 0.14 0.041s0.099-0.016 0.14-0.041l7.58-4.376c0.082-0.049 0.14-0.149 0.14-0.248v-8.752c0-0.099-0.050-0.198-0.14-0.248l-7.58-4.376zM11.998 1.678c0.001 0 0.003 0 0.004 0h-0.008c0.001 0 0.003 0 0.004 0z"></path>
<path fill="#fff" d="M9.435 6.996h1.924l0.008-0.008c0.116 0 0.198 0.116 0.157 0.231l-4.541 12.443-1.99-1.148 4.12-11.295c0.050-0.132 0.182-0.223 0.322-0.223zM12.804 6.996h1.924v-0.008c0.116 0 0.198 0.116 0.157 0.231l-5.119 14.044-1.99-1.148 4.706-12.897c0.050-0.132 0.182-0.223 0.322-0.223z"></path>
</svg>
