<svg width="32" height="32" viewBox="0 0 32 32" fill="none" xmlns="http://www.w3.org/2000/svg">
<g clip-path="url(#clip0_22_188)">
<rect width="32" height="32" rx="16" fill="#2F3146" style="fill:#2F3146;fill:color(display-p3 0.1843 0.1922 0.2745);fill-opacity:1;"/>
<path d="M16 32C24.8366 32 32 24.8366 32 16C32 7.16344 24.8366 0 16 0C7.16344 0 0 7.16344 0 16C0 24.8366 7.16344 32 16 32Z" fill="#2F3146" style="fill:#2F3146;fill:color(display-p3 0.1843 0.1922 0.2745);fill-opacity:1;"/>
<path d="M16.02 5.53003C14.725 5.53003 13.675 10.227 13.675 16.02C13.675 21.813 14.725 26.51 16.02 26.51C17.314 26.51 18.364 21.813 18.364 16.02C18.364 10.227 17.314 5.53003 16.02 5.53003ZM16.182 25.917C16.034 26.115 15.885 25.967 15.885 25.967C15.289 25.275 14.991 23.992 14.991 23.992C13.948 20.635 14.196 13.428 14.196 13.428C14.686 7.70703 15.578 6.35503 15.881 6.05503C15.9121 6.02426 15.953 6.00547 15.9966 6.002C16.0401 5.99852 16.0835 6.01058 16.119 6.03603C16.559 6.34903 16.929 7.65303 16.929 7.65303C18.019 11.701 17.92 15.501 17.92 15.501C18.019 18.809 17.374 22.511 17.374 22.511C16.877 25.325 16.182 25.917 16.182 25.917Z" fill="white" style="fill:white;fill-opacity:1;"/>
<path d="M25.118 10.8001C24.473 9.67608 19.878 11.1031 14.851 13.9861C9.824 16.8691 6.278 20.1161 6.921 21.2401C7.566 22.3641 12.162 20.9371 17.189 18.0541C22.216 15.1711 25.762 11.9231 25.118 10.8001ZM7.515 21.0851C7.269 21.0551 7.325 20.8511 7.325 20.8511C7.627 19.9911 8.591 19.0931 8.591 19.0931C10.984 16.5181 17.36 13.1471 17.36 13.1471C22.566 10.7251 24.183 10.8271 24.593 10.9391C24.6353 10.9507 24.6722 10.977 24.6969 11.0133C24.7216 11.0495 24.7327 11.0934 24.728 11.1371C24.678 11.6741 23.728 12.6441 23.728 12.6441C20.762 15.6051 17.416 17.4121 17.416 17.4121C14.596 19.1441 11.063 20.4251 11.063 20.4251C8.375 21.3931 7.515 21.0851 7.515 21.0851Z" fill="white" style="fill:white;fill-opacity:1;"/>
<path d="M25.0949 21.277C25.7449 20.157 22.2079 16.894 17.1969 13.989C12.1869 11.085 7.59292 9.64098 6.94392 10.763C6.29392 11.886 9.83192 15.146 14.8439 18.051C19.8569 20.955 24.4459 22.399 25.0949 21.277ZM7.37492 11.196C7.27792 10.968 7.48092 10.913 7.48092 10.913C8.37792 10.743 9.63792 11.13 9.63792 11.13C13.0649 11.91 19.1759 15.738 19.1759 15.738C23.8809 19.03 24.6029 20.481 24.7109 20.892C24.7219 20.9342 24.7175 20.9789 24.6987 21.0183C24.6798 21.0576 24.6477 21.089 24.6079 21.107C24.1179 21.332 22.8029 20.997 22.8029 20.997C18.7529 19.911 15.5139 17.922 15.5139 17.922C12.6039 16.352 9.72592 13.937 9.72592 13.937C7.53892 12.095 7.37592 11.197 7.37592 11.197L7.37392 11.196H7.37492Z" fill="white" style="fill:white;fill-opacity:1;"/>
<path d="M15.995 17.229C16.6765 17.229 17.229 16.6765 17.229 15.995C17.229 15.3135 16.6765 14.761 15.995 14.761C15.3135 14.761 14.761 15.3135 14.761 15.995C14.761 16.6765 15.3135 17.229 15.995 17.229Z" fill="white" style="fill:white;fill-opacity:1;"/>
<path d="M21.0549 12.2561C21.6072 12.2561 22.0549 11.8084 22.0549 11.2561C22.0549 10.7038 21.6072 10.2561 21.0549 10.2561C20.5026 10.2561 20.0549 10.7038 20.0549 11.2561C20.0549 11.8084 20.5026 12.2561 21.0549 12.2561Z" fill="white" style="fill:white;fill-opacity:1;"/>
<path d="M9.30591 14.774C9.85819 14.774 10.3059 14.3263 10.3059 13.774C10.3059 13.2218 9.85819 12.774 9.30591 12.774C8.75362 12.774 8.30591 13.2218 8.30591 13.774C8.30591 14.3263 8.75362 14.774 9.30591 14.774Z" fill="white" style="fill:white;fill-opacity:1;"/>
<path d="M14.5391 23.856C15.0913 23.856 15.5391 23.4082 15.5391 22.856C15.5391 22.3037 15.0913 21.856 14.5391 21.856C13.9868 21.856 13.5391 22.3037 13.5391 22.856C13.5391 23.4082 13.9868 23.856 14.5391 23.856Z" fill="white" style="fill:white;fill-opacity:1;"/>
</g>
<defs>
<clipPath id="clip0_22_188">
<rect width="32" height="32" rx="16" fill="white" style="fill:white;fill-opacity:1;"/>
</clipPath>
</defs>
</svg>
