<svg width="32" height="32" viewBox="0 0 32 32" fill="none" xmlns="http://www.w3.org/2000/svg">
<g clip-path="url(#clip0_23_5540)">
<rect width="32" height="32" rx="16" fill="white" style="fill:white;fill-opacity:1;"/>
<g clip-path="url(#clip1_23_5540)">
<path d="M16.0159 31.984C24.8348 31.984 31.984 24.8348 31.984 16.0159C31.984 7.19701 24.8348 0.0478516 16.0159 0.0478516C7.19701 0.0478516 0.0478516 7.19701 0.0478516 16.0159C0.0478516 24.8348 7.19701 31.984 16.0159 31.984Z" fill="white" style="fill:white;fill-opacity:1;"/>
<path d="M17.4584 14.0564L25.0352 6.47977L22.1607 3.60559L16.0213 9.74491L9.88193 3.60559L7.00761 6.47977L14.5843 14.0564C14.9811 14.4531 15.5012 14.6516 16.0213 14.6516C16.5414 14.6516 17.0616 14.4533 17.4584 14.0564ZM28.4267 22.1503L22.2873 16.011L28.4267 9.87145L25.5523 6.99732L17.9759 14.5739C17.1823 15.3676 17.1823 16.6544 17.9759 17.448L25.5523 25.0247L28.4267 22.1503ZM16.0108 22.2873L22.1502 28.4266L25.0243 25.5524L17.4479 17.9758C16.654 17.1821 15.3675 17.1821 14.5735 17.9758L6.99707 25.5524L9.87139 28.4266L16.0108 22.2873ZM14.0562 17.4584C14.4376 17.0772 14.6516 16.5604 14.6516 16.0214C14.6516 15.4824 14.4376 14.9654 14.0562 14.5843L6.47977 7.00767L3.60547 9.88205L9.74486 16.0214L3.60547 22.1609L6.47977 25.035L14.0562 17.4584Z" fill="black" style="fill:black;fill-opacity:1;"/>
</g>
</g>
<rect x="0.5" y="0.5" width="31" height="31" rx="15.5" stroke="black" style="stroke:black;stroke-opacity:1;"/>
<defs>
<clipPath id="clip0_23_5540">
<rect width="32" height="32" rx="16" fill="white" style="fill:white;fill-opacity:1;"/>
</clipPath>
<clipPath id="clip1_23_5540">
<rect width="32" height="32" fill="white" style="fill:white;fill-opacity:1;"/>
</clipPath>
</defs>
</svg>
