<!-- Generated by IcoMoon.io -->
<svg version="1.1" xmlns="http://www.w3.org/2000/svg" width="24" height="24" viewBox="0 0 24 24"><title>AXS</title>
<path fill="#0055d5" d="M12 0c6.627 0 12 5.373 12 12s-5.373 12-12 12c-6.627 0-12-5.373-12-12s5.373-12 12-12z"></path>
<path fill="#fff" d="M6.003 7.456c0 0-1.37-1.095-1.464 1.609-0.094 2.096-0.092 6.165 0.879 8.088 0.41 0.723 0.957 0.502 1.976-0.219 0.886-0.654 4.092-3.608 5.45-4.905s4.11-5.014 4.683-2.488c0.227 1.062 0.507 1.963 0.293 4.319-0.066 0.726-0.377 1.276-1.793 0.293-1.070-0.688-2.086-1.426-2.086-1.426s-0.196-0.351-0.66 0.219c-0.364 0.456-0.548 0.568 0.036 0.914 0.586 0.346 3.547 2.389 4.683 2.707 0.937 0.272 1.472 0.267 1.5-1.574-0.005-1.462-0.089-5.646-0.621-7.428-0.402-1.11-0.993-1.615-2.269-0.367s-5.299 5.149-7.5 6.916c-1.459 1.095-2.083 2.083-2.633 0.257-0.387-1.383-0.889-5.686 0.695-4.866 0.991 0.474 1.485 0.471 1.098 0.769-0.387 0.295-1.5 1.317-1.5 1.317s-0.344 0.278-0.183 0.879c0.16 0.42 0.16 0.629 1.024-0.183s1.5-1.426 1.5-1.426 0.138-0.216 0.547 0.183c0.41 0.4 0.476 0.512 0.476 0.512s0.11 0.298 0.548-0.219c0.441-0.517 0.723-0.833-0.11-1.317-0.83-0.489-4.569-2.564-4.569-2.564z"></path>
</svg>
