<!-- Generated by IcoMoon.io -->
<svg version="1.1" xmlns="http://www.w3.org/2000/svg" width="24" height="24" viewBox="0 0 24 24"><title>BAL</title>
<path fill="#fff" d="M12 0c6.627 0 12 5.373 12 12s-5.373 12-12 12c-6.627 0-12-5.373-12-12s5.373-12 12-12z"></path>
<path fill="#000" d="M8.128 8.234c0 0.926 1.824 1.68 4.073 1.68s4.073-0.754 4.073-1.68c0-0.926-1.824-1.68-4.073-1.68s-4.073 0.754-4.073 1.68z"></path>
<path fill="#000" d="M12.221 13.15c-2.909 0-5.268-0.912-5.268-2.038 0-0.624 0.727-1.183 1.867-1.555 0.814 0.425 2.033 0.696 3.401 0.696s2.587-0.271 3.401-0.696c1.142 0.374 1.867 0.931 1.867 1.555 0.002 1.126-2.357 2.038-5.268 2.038z"></path>
<path fill="#000" d="M12.18 17.016c-3.838 0-6.948-1.109-6.948-2.594 0-0.775 0.847-1.474 2.203-1.966 1.058 0.679 2.834 1.027 4.848 1.027 1.966 0 3.703-0.425 4.771-1.075 1.279 0.487 2.074 1.166 2.074 1.915 0 1.488-3.11 2.693-6.948 2.693z"></path>
</svg>
