<!-- Generated by IcoMoon.io -->
<svg version="1.1" xmlns="http://www.w3.org/2000/svg" width="24" height="24" viewBox="0 0 24 24"><title>BAND</title>
<path fill="#4520e6" d="M12 0c6.627 0 12 5.373 12 12s-5.373 12-12 12c-6.627 0-12-5.373-12-12s5.373-12 12-12z"></path>
<path fill="#fff" d="M17.17 9.308c0-1.067-0.515-2.011-1.308-2.591l2.138-2.17-1.278 0.006-1.699 1.724c-0.315-0.108-0.651-0.164-1.001-0.164h-5.848v8.407l7.041-7.146c0.633 0.403 1.057 1.121 1.057 1.937 0 1.258-1.010 2.283-2.25 2.283h-0.186l-7.836 7.953h1.272l1.537-1.56h5.212c1.737 0 3.148-1.435 3.148-3.195 0-1.163-0.616-2.179-1.531-2.738 0.916-0.565 1.531-1.584 1.531-2.747zM9.071 12.314v-5.29h4.95c0.085 0 0.168 0.006 0.25 0.015l-5.2 5.275zM16.271 14.786c0 1.258-1.010 2.283-2.25 2.283h-4.314l4.482-4.549c1.16 0.090 2.082 1.067 2.082 2.265z"></path>
</svg>
