<!-- Generated by IcoMoon.io -->
<svg version="1.1" xmlns="http://www.w3.org/2000/svg" width="24" height="24" viewBox="0 0 24 24"><title>BCH</title>
<path fill="#8dc351" d="M12 0c6.627 0 12 5.373 12 12s-5.373 12-12 12c-6.627 0-12-5.373-12-12s5.373-12 12-12z"></path>
<path fill="#fff" d="M15.743 7.971c-0.603-1.367-1.989-1.66-3.685-1.377l-0.545-2.114-1.285 0.332 0.536 2.108c-0.338 0.085-0.685 0.158-1.029 0.256l-0.536-2.095-1.285 0.332 0.545 2.114c-0.277 0.079-2.595 0.673-2.595 0.673l0.353 1.377c0 0 0.944-0.265 0.935-0.244 0.524-0.137 0.771 0.125 0.886 0.372l1.498 5.793c0.018 0.167-0.012 0.454-0.372 0.551 0.021 0.012-0.935 0.241-0.935 0.241l0.14 1.605c0 0 2.296-0.588 2.598-0.664l0.551 2.138 1.285-0.332-0.551-2.153c0.353-0.082 0.697-0.168 1.032-0.256l0.548 2.141 1.285-0.332-0.551-2.135c1.98-0.481 3.378-1.73 3.091-3.64-0.183-1.151-1.441-2.095-2.485-2.202 0.643-0.57 0.969-1.401 0.57-2.488zM15.125 13.011c0.256 1.891-2.373 2.123-3.241 2.351l-0.755-2.829c0.871-0.228 3.563-1.188 3.996 0.478zM13.541 9.158c0.271 1.681-1.977 1.876-2.701 2.062l-0.688-2.567c0.728-0.18 2.839-1.051 3.39 0.506z"></path>
</svg>
