<!-- Generated by IcoMoon.io -->
<svg version="1.1" xmlns="http://www.w3.org/2000/svg" width="24" height="24" viewBox="0 0 24 24"><title>BIT</title>
<path fill="#c1ff3c" d="M12 0c6.627 0 12 5.373 12 12s-5.373 12-12 12c-6.627 0-12-5.373-12-12s5.373-12 12-12z"></path>
<path fill="#000" d="M19.526 11.165v-1.67h-1.67v-3.35h-1.67v3.35h-3.341v8.362h1.67v-6.691h1.67v6.691h3.341v-1.67h-1.67v-5.021h1.67zM10.33 15.35c0 0.461-0.374 0.835-0.835 0.835h-3.341v-3.35h3.341c0.461 0 0.835 0.374 0.835 0.835v1.68zM6.154 7.814h2.506c0.461 0 0.835 0.374 0.835 0.835v1.67c0 0.461-0.374 0.835-0.835 0.835h-2.506v-3.341zM10.618 11.798v-0.23c0.346-0.307 0.557-0.749 0.557-1.248v-2.026c0-1.19-0.97-2.16-2.16-2.16h-4.531v11.712h5.299c1.229 0 2.227-0.998 2.227-2.227v-1.949c0-0.864-0.566-1.622-1.392-1.872z"></path>
</svg>
