<svg width="32" height="32" viewBox="0 0 32 32" fill="none" xmlns="http://www.w3.org/2000/svg">
<g clip-path="url(#clip0_23_5547)">
<rect width="32" height="32" rx="16" fill="#E7BB41" style="fill:#E7BB41;fill:color(display-p3 0.9059 0.7333 0.2549);fill-opacity:1;"/>
<g clip-path="url(#clip1_23_5547)">
<path fill-rule="evenodd" clip-rule="evenodd" d="M16 0C24.8372 0 32 7.16282 32 16C32 24.8372 24.8372 32 16 32C7.16282 32 0 24.8372 0 16C0 7.16282 7.16282 0 16 0Z" fill="#E7BB41" style="fill:#E7BB41;fill:color(display-p3 0.9059 0.7333 0.2549);fill-opacity:1;"/>
<path d="M8.79354 16.0001L8.80508 20.2308L12.4 22.3462V24.8231L6.70123 21.4808V14.7629L8.79354 16.0001ZM8.79354 11.7693V14.2347L6.69995 12.9962V10.5308L8.79354 9.29236L10.8974 10.5308L8.79354 11.7693ZM13.9012 10.5308L15.9948 9.29236L18.0987 10.5308L15.9948 11.7693L13.9012 10.5308Z" fill="white" style="fill:white;fill-opacity:1;"/>
<path d="M10.3064 19.3539V16.877L12.4 18.1154V20.5808L10.3064 19.3539ZM13.9013 23.2334L15.9949 24.4718L18.0987 23.2334V25.6988L15.9949 26.9372L13.9013 25.6988V23.2334ZM21.1013 10.5308L23.1949 9.29236L25.2987 10.5308V12.9962L23.1949 14.2347V11.7693L21.1013 10.5308ZM23.1949 20.2308L23.2064 16.0001L25.3 14.7616V21.4795L19.6013 24.8218V22.3449L23.1949 20.2308Z" fill="white" style="fill:white;fill-opacity:1;"/>
<path d="M21.6936 19.3539L19.6 20.5808V18.1154L21.6936 16.877V19.3539Z" fill="white" style="fill:white;fill-opacity:1;"/>
<path d="M21.6936 12.6462L21.7051 15.1231L18.1 17.2385V21.4795L16.0064 22.7065L13.9128 21.4795V17.2385L10.3077 15.1231V12.6462L12.4102 11.4077L15.9936 13.5334L19.5987 11.4077L21.7026 12.6462H21.6936ZM10.3064 8.41671L15.9949 5.06287L21.6936 8.41671L19.6 9.65517L15.9949 7.52953L12.4 9.65517L10.3064 8.41671Z" fill="white" style="fill:white;fill-opacity:1;"/>
</g>
</g>
<defs>
<clipPath id="clip0_23_5547">
<rect width="32" height="32" rx="16" fill="white" style="fill:white;fill-opacity:1;"/>
</clipPath>
<clipPath id="clip1_23_5547">
<rect width="32" height="32" fill="white" style="fill:white;fill-opacity:1;"/>
</clipPath>
</defs>
</svg>
