<!-- Generated by IcoMoon.io -->
<svg version="1.1" xmlns="http://www.w3.org/2000/svg" width="24" height="24" viewBox="0 0 24 24"><title>BSV</title>
<path fill="#eab300" d="M12 0c6.627 0 12 5.373 12 12s-5.373 12-12 12c-6.627 0-12-5.373-12-12s5.373-12 12-12z"></path>
<path fill="#fff" d="M13.426 6.762c1.753 0.154 3.141 0.692 3.295 2.3 0.115 1.176-0.377 1.882-1.166 2.281 1.295 0.311 2.107 1.082 1.946 2.807-0.198 2.143-1.796 2.718-4.078 2.849v2.251h-1.357l0.001-2.221c-0.352 0-0.712-0.003-1.084-0.011v2.231h-1.356l-0.001-2.255c-0.125-0.001-0.25-0.002-0.377-0.003-0.195-0.002-0.393-0.004-0.592-0.004h-1.767l0.27-1.621c0 0 1.003 0.015 0.986 0 0.384-0.001 0.486-0.277 0.51-0.449l0.001-3.559h0.002v-0.010c-0.001 0-0.001 0-0.002 0v-2.541c-0.052-0.276-0.23-0.594-0.781-0.594 0.017-0.018-0.985 0.001-0.985 0.001v-1.45l1.871 0.001v0.007c0.277 0 0.561-0.006 0.85-0.011l0.015-0 0.001-2.229h1.357v2.185c0.362-0.008 0.727-0.014 1.083-0.014v-2.171h1.357v2.23zM11.278 15.38c1.11 0.016 3.544 0.051 3.544-1.497 0-1.578-2.327-1.526-3.469-1.5-0.129 0.003-0.244 0.005-0.337 0.005v2.989c0.075 0 0.163 0.001 0.262 0.003zM11.243 11.025c0.929 0.015 2.947 0.046 2.947-1.357 0.001-1.437-1.944-1.385-2.895-1.36-0.107 0.003-0.202 0.005-0.279 0.005v2.71c0.065-0 0.141 0.001 0.227 0.002z"></path>
</svg>
