<!-- Generated by IcoMoon.io -->
<svg version="1.1" xmlns="http://www.w3.org/2000/svg" width="24" height="24" viewBox="0 0 24 24"><title>BTT</title>
<path fill="#000" d="M12 0c6.627 0 12 5.373 12 12s-5.373 12-12 12c-6.627 0-12-5.373-12-12s5.373-12 12-12z"></path>
<path fill="#fff" d="M12.395 19.108h-0.377c-1.599 0.002-3.152-0.535-4.408-1.525-0.615-0.56-1.028-1.304-1.259-1.809-0.193-0.423-0.349-0.863-0.45-1.323-0.101-0.45-0.156-0.909-0.165-1.378v-0.239l0.028-0.403c0.041-0.433 0.124-0.861 0.248-1.277 0.126-0.423 0.296-0.832 0.505-1.221 0.212-0.403 0.468-0.782 0.762-1.13 0.313-0.376 0.667-0.714 1.056-1.010 0.377-0.285 0.781-0.532 1.213-0.735 0.424-0.196 0.867-0.347 1.322-0.45 0.452-0.101 0.914-0.157 1.378-0.165h0.239v1.221h-0.211c-1.524 0.037-3.012 0.689-4.059 1.929-0.806 0.957-1.251 2.165-1.258 3.416-0.007 0.838 0.172 1.668 0.524 2.429s0.87 1.434 1.514 1.97c0.818 0.68 1.781 1.075 2.792 1.295 0.672 0.15 1.36 0.215 2.048 0.193-0.037 0.009-0.071 0.018-0.106 0.027s-0.069 0.018-0.106 0.027h-0.009c-0.014 0.005-0.031 0.008-0.047 0.010s-0.031 0.005-0.044 0.009h-0.019c-0.064 0.018-0.138 0.037-0.211 0.046-0.018 0.004-0.033 0.007-0.048 0.009-0.017 0.002-0.034 0.005-0.053 0.010h-0.019c-0.013 0-0.027 0.002-0.041 0.005s-0.028 0.005-0.042 0.005h-0.018c-0.006 0.002-0.012 0.003-0.018 0.005l-0 0c-0.028 0.007-0.053 0.013-0.083 0.013-0.018 0-0.037 0.002-0.055 0.005s-0.037 0.005-0.055 0.005h-0.018c-0.020 0-0.037 0.003-0.053 0.005-0.014 0.002-0.027 0.004-0.040 0.004h-0.028c-0.027 0.009-0.055 0.009-0.082 0.009h-0.028c-0.037 0.009-0.064 0.009-0.101 0.009h-0.010c-0.037 0.010-0.073 0.010-0.11 0.010z"></path>
<path fill="#fff" d="M14.185 17.933c-0.453-0.016-0.904-0.065-1.35-0.147-1.892-0.34-3.518-1.497-4.114-3.241-0.726-2.122 0.386-4.418 2.498-5.115 0.403-0.135 0.824-0.203 1.249-0.202 0.542 0 1.084 0.11 1.58 0.312l0.514-1.093c-0.155-0.062-0.311-0.12-0.468-0.174-0.526-0.165-1.075-0.249-1.626-0.248-0.553 0.001-1.101 0.091-1.625 0.266-0.669 0.221-1.285 0.577-1.809 1.047-0.253 0.225-0.483 0.474-0.689 0.744-0.203 0.266-0.378 0.553-0.523 0.854-0.296 0.606-0.471 1.265-0.514 1.938-0.046 0.697 0.046 1.395 0.275 2.056 0.234 0.68 0.61 1.303 1.103 1.828 0.45 0.487 0.973 0.854 1.606 1.194 0.662 0.349 1.479 0.532 2.333 0.652 0.551 0.073 1.286 0.091 1.717 0.091 0.356-0.13 0.515-0.195 0.702-0.271l0.033-0.014c0.175-0.083 0.349-0.165 0.523-0.266 0.167-0.097 0.2-0.118 0.46-0.289l0.036-0.023c0.026-0.016 0.051-0.035 0.073-0.055-0.977 0.169-1.25 0.165-1.914 0.157l-0.070-0.001z"></path>
<path fill="#fff" d="M16.406 16.567c0.013-0.001 0.026-0.002 0.039-0.003 0.274-0.021 0.647-0.058 0.934-0.087 0.087-0.009 0.166-0.017 0.233-0.023-0.325 0.405-0.695 0.771-1.102 1.093-0.422 0.091-0.671 0.119-1.001 0.147-1.194 0.082-2.425-0.019-3.26-0.294-0.873-0.294-1.69-0.808-2.287-1.451-0.34-0.367-0.607-0.763-0.799-1.185-0.21-0.468-0.32-0.975-0.322-1.488 0-0.49 0.096-0.974 0.284-1.426s0.462-0.863 0.809-1.209c0.346-0.346 0.757-0.621 1.209-0.809s0.937-0.284 1.427-0.284c0.49 0 0.974 0.097 1.427 0.284s0.863 0.463 1.209 0.809c0.261 0.255 0.481 0.55 0.653 0.872l-1.093 0.542c-0.432-0.762-1.249-1.286-2.195-1.286-0.331-0-0.658 0.065-0.963 0.191s-0.583 0.312-0.817 0.545c-0.234 0.234-0.419 0.511-0.545 0.817s-0.191 0.633-0.191 0.963c0 1.397 1.249 2.526 2.572 2.966 0.854 0.285 1.855 0.358 2.672 0.358 0.438 0 0.827-0.025 1.109-0.042z"></path>
<path fill="#fff" d="M20.284 8.473c0.229 0.542 0.405 1.105 0.523 1.681 0.366 1.773 0.183 3.614-0.523 5.281-0.23 0.533-0.506 1.047-0.826 1.524-0.321 0.475-0.687 0.918-1.093 1.323-0.405 0.406-0.848 0.772-1.323 1.093-0.487 0.321-0.991 0.606-1.524 0.826-1.101 0.467-2.285 0.708-3.481 0.708s-2.38-0.241-3.481-0.708c-0.532-0.229-1.047-0.505-1.524-0.826-0.475-0.321-0.918-0.687-1.323-1.093-0.406-0.405-0.772-0.848-1.093-1.323-0.321-0.487-0.606-0.992-0.827-1.524-0.467-1.101-0.708-2.285-0.708-3.481s0.241-2.38 0.708-3.481c0.228-0.533 0.505-1.043 0.827-1.525 0.321-0.475 0.687-0.917 1.093-1.322 0.815-0.819 1.782-1.471 2.847-1.92 1.101-0.467 2.285-0.708 3.481-0.708s2.38 0.241 3.481 0.708c0.532 0.228 1.043 0.505 1.524 0.827 0.475 0.321 0.918 0.687 1.323 1.093 0.406 0.405 0.772 0.847 1.093 1.322 0.324 0.481 0.6 0.991 0.826 1.525zM4.221 11.963c0 4.316 3.499 7.825 7.824 7.825 4.317 0 7.825-3.509 7.825-7.825s-3.509-7.825-7.825-7.825c-4.316 0-7.824 3.508-7.824 7.825z"></path>
</svg>
