<!-- Generated by IcoMoon.io -->
<svg version="1.1" xmlns="http://www.w3.org/2000/svg" width="24" height="24" viewBox="0 0 24 24"><title>BUSD</title>
<path fill="#f0b90b" d="M12 0c6.627 0 12 5.373 12 12s-5.373 12-12 12c-6.627 0-12-5.373-12-12s5.373-12 12-12z"></path>
<path fill="#fff" d="M14.313 5.033l-2.313-2.369-5.824 5.88 2.313 2.313 5.824-5.824z"></path>
<path fill="#fff" d="M17.824 8.545l-2.313-2.369-9.336 9.391 2.313 2.313 9.336-9.336z"></path>
<path fill="#fff" d="M4.977 9.687l2.313 2.369-2.313 2.313-2.313-2.313 2.313-2.369z"></path>
<path fill="#fff" d="M21.335 12.056l-2.313-2.369-9.336 9.391 2.313 2.313 9.336-9.336z"></path>
</svg>
