<!-- Generated by IcoMoon.io -->
<svg version="1.1" xmlns="http://www.w3.org/2000/svg" width="24" height="24" viewBox="0 0 24 24"><title>CAKE</title>
<path fill="#53dee9" d="M12 0c6.627 0 12 5.373 12 12s-5.373 12-12 12c-6.627 0-12-5.373-12-12s5.373-12 12-12z"></path>
<path fill="#53dee9" d="M12 24c6.627 0 12-5.373 12-12s-5.373-12-12-12c-6.627 0-12 5.373-12 12s5.373 12 12 12z"></path>
<path fill="#633001" d="M11.964 19.969c-2.335-0.002-4.216-0.562-5.531-1.569-1.33-1.019-2.036-2.464-2.036-4.1 0-1.576 0.704-2.713 1.501-3.481 0.624-0.602 1.313-0.988 1.793-1.21-0.132-0.403-0.254-0.81-0.365-1.219-0.162-0.602-0.321-1.309-0.321-1.827 0-0.613 0.134-1.229 0.494-1.707 0.381-0.505 0.954-0.776 1.643-0.776 0.539 0 0.997 0.2 1.355 0.545 0.342 0.33 0.57 0.768 0.728 1.224 0.277 0.802 0.384 1.809 0.414 2.815h0.661c0.030-1.006 0.138-2.013 0.414-2.815 0.157-0.456 0.385-0.894 0.727-1.224 0.358-0.345 0.816-0.545 1.355-0.545 0.69 0 1.263 0.271 1.644 0.776 0.36 0.478 0.494 1.094 0.494 1.707 0 0.518-0.159 1.225-0.321 1.827-0.111 0.409-0.233 0.816-0.365 1.219 0.48 0.222 1.169 0.607 1.793 1.21 0.797 0.768 1.501 1.905 1.501 3.481 0 1.636-0.706 3.081-2.036 4.1-1.314 1.006-3.195 1.567-5.531 1.569h-0.012z"></path>
<path fill="#d1884f" d="M9.143 4.663c-1.010 0-1.475 0.761-1.475 1.814 0 0.837 0.54 2.512 0.762 3.165 0.050 0.147-0.029 0.307-0.172 0.365-0.809 0.322-3.198 1.503-3.198 4.207 0 2.848 2.428 4.996 6.905 4.999h0.011c4.477-0.003 6.905-2.151 6.905-4.999 0-2.704-2.389-3.885-3.199-4.207-0.070-0.027-0.126-0.080-0.158-0.148s-0.037-0.145-0.014-0.216c0.222-0.652 0.762-2.328 0.762-3.165 0-1.053-0.465-1.814-1.475-1.814-1.454 0-1.817 2.081-1.843 4.314-0 0.071-0.029 0.14-0.079 0.19s-0.118 0.079-0.19 0.080h-1.433c-0.148 0-0.267-0.121-0.268-0.27-0.026-2.233-0.388-4.314-1.842-4.314z"></path>
<path fill="#fedc90" d="M11.976 18.3c-3.29 0-6.91-1.779-6.915-4.082v0.011c0 2.851 2.432 4.999 6.915 4.999s6.915-2.149 6.915-4.999v-0.011c-0.006 2.302-3.626 4.082-6.915 4.082z"></path>
<path fill="#633001" d="M10.148 13.512c0 0.778-0.364 1.183-0.812 1.183s-0.812-0.405-0.812-1.183c0-0.777 0.364-1.182 0.812-1.182s0.812 0.405 0.812 1.182zM15.428 13.512c0 0.778-0.364 1.183-0.812 1.183s-0.812-0.405-0.812-1.183c0-0.777 0.364-1.182 0.812-1.182s0.812 0.405 0.812 1.182z"></path>
</svg>
