<!-- Generated by IcoMoon.io -->
<svg version="1.1" xmlns="http://www.w3.org/2000/svg" width="24" height="24" viewBox="0 0 24 24"><title>CHZ</title>
<path fill="#ff1256" d="M12 0c6.627 0 12 5.373 12 12s-5.373 12-12 12c-6.627 0-12-5.373-12-12s5.373-12 12-12z"></path>
<path fill="#fff" d="M10.705 5.613l-2.611 1.613c-0.058 0.029-0.125 0.010-0.154-0.038l-0.154-0.25c-0.192-0.317-0.096-0.739 0.221-0.931l1.018-0.624c0.173-0.106 0.202-0.346 0.058-0.49l-0.854-0.787c-0.259-0.269-0.269-0.691 0-0.96l0.211-0.211c0.038-0.038 0.115-0.038 0.154 0l2.179 2.112c0.163 0.163 0.163 0.432-0.067 0.566zM9.927 13.255c0.643 0.71 0.893 1.68 0.682 2.611l0.010-0.019c0 0-0.125 1.229-0.845 4.061-0.202 0.797 0.576 1.488 1.334 1.2 5.174-1.968 5.174-7.229 5.174-7.229 0.154-3.389-3.283-6.662-4.272-7.574-0.154-0.134-0.384-0.163-0.557-0.048l-2.698 1.728c-1.171 0.739-1.402 2.362-0.48 3.398l1.651 1.872zM10.221 8.436c0.42-0.267 0.81-0.515 1.060-0.672 0.134-0.077 0.298-0.067 0.403 0.038 5.318 5.002 2.765 8.774 0.95 10.339-0.422 0.365-1.075-0.019-0.95-0.566l0.288-1.267c0.336-1.43-0.058-2.938-1.046-4.022l-1.728-1.997c-0.355-0.413-0.269-1.037 0.192-1.325 0.269-0.171 0.557-0.353 0.831-0.528z"></path>
</svg>
