<!-- Generated by IcoMoon.io -->
<svg version="1.1" xmlns="http://www.w3.org/2000/svg" width="24" height="24" viewBox="0 0 24 24"><title>COMP</title>
<path fill="#070a0e" d="M12 0c6.627 0 12 5.373 12 12s-5.373 12-12 12c-6.627 0-12-5.373-12-12s5.373-12 12-12z"></path>
<path fill="#00d395" d="M6.932 16.024c-0.359-0.22-0.578-0.61-0.578-1.030v-2.345c0-0.278 0.227-0.504 0.505-0.503 0.089 0 0.176 0.024 0.253 0.068l5.291 3.085c0.31 0.18 0.5 0.511 0.5 0.87v2.429c0.001 0.334-0.269 0.605-0.602 0.605-0.112 0-0.222-0.031-0.317-0.089l-5.052-3.091zM14.819 11.573c0.31 0.18 0.499 0.512 0.5 0.87v4.93c0 0.145-0.078 0.28-0.205 0.35l-1.158 0.652c-0.014 0.008-0.030 0.014-0.047 0.019v-2.737c0-0.354-0.186-0.683-0.491-0.865l-4.646-2.779v-3.090c0-0.278 0.227-0.504 0.505-0.503 0.089 0 0.176 0.024 0.253 0.068l5.288 3.085zM17.135 7.932c0.311 0.18 0.502 0.512 0.502 0.871v7.2c-0.001 0.148-0.083 0.283-0.212 0.354l-1.098 0.593v-5.012c0-0.354-0.186-0.682-0.488-0.864l-4.75-2.849v-2.93c0-0.089 0.024-0.176 0.067-0.253 0.14-0.24 0.449-0.322 0.689-0.182l5.291 3.073z"></path>
</svg>
