<!-- Generated by IcoMoon.io -->
<svg version="1.1" xmlns="http://www.w3.org/2000/svg" width="24" height="24" viewBox="0 0 24 24"><title>CRO</title>
<path fill="#f7f7f7" d="M12 0c6.627 0 12 5.373 12 12s-5.373 12-12 12c-6.627 0-12-5.373-12-12s5.373-12 12-12z"></path>
<path fill="#002d74" d="M11.994 15.939l3.404-1.97-1.41-0.815-1.994 1.155-1.994-1.155v-2.298l1.982-1.155 1.994 1.155 1.422-0.827-3.404-1.97-3.416 1.97v3.939l3.416 1.97z"></path>
<path fill="#002d74" d="M11.982 3.57l-7.295 4.212v8.438l7.295 4.219 7.307-4.219v-8.438l-7.295-4.219-0.012 0.007zM17.125 14.966l-5.143 2.967-5.131-2.967v-5.933l5.143-2.967 5.131 2.967v5.933z"></path>
</svg>
