<!-- Generated by IcoMoon.io -->
<svg version="1.1" xmlns="http://www.w3.org/2000/svg" width="24" height="24" viewBox="0 0 24 24"><title>CSPR</title>
<path fill="#fff" d="M12 0c6.627 0 12 5.373 12 12s-5.373 12-12 12c-6.627 0-12-5.373-12-12s5.373-12 12-12z"></path>
<path fill="#ff473e" d="M17.713 16.621c-0.403 0-0.745 0.281-0.831 0.672l-3.206-0.153c0.012-0.061 0.018-0.122 0.018-0.183 0-0.11-0.018-0.22-0.049-0.33l1.166-0.672c0.287 0.354 0.806 0.428 1.179 0.159s0.47-0.782 0.22-1.166c-0.25-0.385-0.757-0.507-1.154-0.281s-0.55 0.727-0.342 1.136l-1.13 0.653c-0.269-0.568-0.934-0.824-1.515-0.586s-0.873 0.892-0.666 1.484l-2.101 0.507c-0.012-0.287-0.134-0.556-0.336-0.763l0.379-0.525c0.428 0.147 0.898-0.067 1.069-0.489s-0.018-0.904-0.428-1.093c-0.409-0.195-0.904-0.031-1.118 0.366s-0.079 0.898 0.305 1.136l-0.348 0.482c-0.244-0.183-0.556-0.263-0.861-0.226l-0.36-2.058c0.452-0.098 0.8-0.452 0.898-0.898 0.098-0.452-0.073-0.916-0.44-1.191-0.366-0.281-0.861-0.318-1.264-0.104l-0.91-1.777c0.195-0.098 0.354-0.25 0.47-0.434l0.757 0.202c-0.006 0.043-0.012 0.079-0.012 0.122 0 0.44 0.336 0.812 0.776 0.855s0.843-0.257 0.922-0.696c0.079-0.44-0.183-0.861-0.611-0.977-0.428-0.122-0.873 0.104-1.032 0.519l-0.715-0.189c0.098-0.232 0.116-0.489 0.055-0.733l2.107-0.971c0.391 0.489 1.099 0.592 1.612 0.226s0.647-1.069 0.305-1.594l1.344-1.313c0.165 0.104 0.354 0.171 0.544 0.183v0.58c-0.446 0.049-0.782 0.44-0.757 0.892s0.397 0.806 0.849 0.806c0.452 0 0.824-0.354 0.849-0.806s-0.305-0.843-0.757-0.892v-0.58c0.171-0.012 0.33-0.061 0.476-0.14l1.472 1.679c-0.342 0.452-0.318 1.081 0.055 1.502 0.379 0.421 1.002 0.519 1.49 0.226s0.696-0.886 0.507-1.417l0.458-0.256c0.293 0.342 0.8 0.403 1.16 0.128 0.36-0.269 0.446-0.776 0.195-1.148s-0.751-0.489-1.136-0.256-0.525 0.721-0.318 1.124l-0.434 0.244c-0.177-0.324-0.495-0.544-0.855-0.598s-0.733 0.061-0.995 0.318l-1.441-1.643c0.14-0.11 0.256-0.256 0.336-0.415l1.264 0.208c0.098 0.44 0.525 0.727 0.965 0.647 0.446-0.073 0.751-0.482 0.702-0.928s-0.44-0.782-0.886-0.757c-0.452 0.024-0.8 0.391-0.806 0.843l-1.173-0.195c0.165-0.562-0.104-1.16-0.635-1.411s-1.16-0.067-1.484 0.421c-0.324 0.489-0.238 1.142 0.202 1.533l-1.307 1.276c-0.202-0.232-0.489-0.379-0.794-0.403v-0.892c0.446-0.049 0.782-0.44 0.757-0.892s-0.391-0.8-0.843-0.8c-0.452 0-0.824 0.354-0.849 0.806s0.305 0.843 0.757 0.892v0.886c-0.403 0.031-0.763 0.269-0.953 0.623-0.189 0.36-0.183 0.788 0.018 1.142l-2.052 0.941c-0.073-0.177-0.189-0.33-0.336-0.452l0.8-1.441c0.073 0.018 0.14 0.031 0.214 0.031 0.434 0 0.794-0.324 0.849-0.751s-0.226-0.824-0.641-0.928c-0.421-0.104-0.849 0.122-1.002 0.525s0.024 0.855 0.403 1.057l-0.776 1.405c-0.47-0.281-1.063-0.202-1.447 0.189-0.379 0.391-0.446 0.983-0.159 1.447s0.849 0.672 1.368 0.507l0.922 1.802c-0.232 0.171-0.397 0.427-0.452 0.708l-0.672-0.195c0.018-0.067 0.024-0.14 0.024-0.208 0-0.434-0.324-0.794-0.751-0.843s-0.824 0.226-0.928 0.647c-0.104 0.421 0.128 0.849 0.537 0.995 0.403 0.147 0.855-0.031 1.050-0.415l0.715 0.208c0 0.018 0 0.037 0 0.055 0 0.403 0.202 0.776 0.544 0.989l-0.458 0.598c-0.336-0.299-0.849-0.281-1.166 0.043s-0.33 0.831-0.024 1.166c0.305 0.336 0.812 0.373 1.166 0.085s0.415-0.794 0.153-1.16l0.495-0.647c0.147 0.067 0.311 0.098 0.476 0.098 0.024 0 0.049 0 0.073-0.006l0.366 2.070c-0.489 0.147-0.831 0.592-0.849 1.099-0.012 0.513 0.305 0.971 0.788 1.142s1.020 0.012 1.331-0.397l1.71 0.763c-0.012 0.061-0.024 0.128-0.024 0.189 0 0.434 0.324 0.8 0.757 0.849s0.831-0.232 0.928-0.653c0.098-0.421-0.14-0.849-0.55-0.995s-0.861 0.043-1.050 0.434l-1.667-0.745c0.073-0.134 0.122-0.281 0.134-0.434l2.174-0.531c0.165 0.305 0.458 0.519 0.8 0.592 0.342 0.067 0.696-0.018 0.965-0.232l0.812 0.702c-0.189 0.415-0.024 0.904 0.379 1.111 0.403 0.214 0.898 0.073 1.13-0.318s0.122-0.892-0.25-1.148c-0.379-0.257-0.886-0.171-1.16 0.189l-0.776-0.666c0.116-0.122 0.202-0.275 0.256-0.434l3.231 0.159c0.006 0.47 0.385 0.843 0.855 0.843s0.849-0.385 0.843-0.849c0-0.458-0.379-0.837-0.849-0.837z"></path>
</svg>
