<!-- Generated by IcoMoon.io -->
<svg version="1.1" xmlns="http://www.w3.org/2000/svg" width="24" height="24" viewBox="0 0 24 24"><title>CVX</title>
<path fill="#fff" d="M12 0c6.627 0 12 5.373 12 12s-5.373 12-12 12c-6.627 0-12-5.373-12-12s5.373-12 12-12z"></path>
<path fill="#60d8a4" d="M8.475 6.6h-0.938v1.416h0.938v-1.416z"></path>
<path fill="#60d8a4" d="M7.134 7.94h-0.947v4.041h0.947v-4.041z"></path>
<path fill="#1682fe" d="M13.856 7.875h-0.938v1.416h0.938v-1.416z"></path>
<path fill="#1682fe" d="M11.166 5.25h-0.938v1.416h0.938v-1.416z"></path>
<path fill="#1682fe" d="M15.197 9.225h-0.938v1.416h0.938v-1.416z"></path>
<path fill="#ff5a5a" d="M15.197 13.322h-0.938v1.416h0.938v-1.416z"></path>
<path fill="#ff5a5a" d="M13.856 14.672h-0.938v1.416h0.938v-1.416z"></path>
<path fill="#ff5a5a" d="M11.166 17.297h-0.938v1.416h0.938v-1.416z"></path>
<path fill="#f4bb3b" d="M7.134 11.981h-0.947v4.041h0.947v-4.041z"></path>
<path fill="#f4bb3b" d="M8.475 15.947h-0.938v1.416h0.938v-1.416z"></path>
<path fill="#3a3a3a" d="M17.831 10.631v-2.691h-1.35v-1.341h-2.691v-1.35h-2.691v1.35h-2.691v1.35h-1.35v8.072h1.35v1.35h2.691v1.35h2.691v-1.35h2.691v-1.35h1.35v-2.7h-2.691v1.35h-1.35v1.35h-2.691v-1.35h-1.341v-5.381h1.35v-1.35h2.691v1.35h1.35v1.35h2.681v-0.009z"></path>
</svg>
