<!-- Generated by IcoMoon.io -->
<svg version="1.1" xmlns="http://www.w3.org/2000/svg" width="24" height="24" viewBox="0 0 24 24"><title>DAI</title>
<path fill="#f5ac37" d="M12 0c6.627 0 12 5.373 12 12s-5.373 12-12 12c-6.627 0-12-5.373-12-12s5.373-12 12-12z"></path>
<path fill="#fefefd" d="M12.907 12.865h4.56c0.097 0 0.143 0 0.15-0.128 0.037-0.464 0.037-0.93 0-1.395 0-0.090-0.045-0.127-0.143-0.127h-9.075c-0.112 0-0.143 0.037-0.143 0.143v1.335c0 0.172 0 0.172 0.18 0.172h4.47zM17.108 9.655c0.013-0.034 0.013-0.071 0-0.105-0.076-0.166-0.166-0.324-0.271-0.473-0.158-0.254-0.343-0.488-0.555-0.698-0.1-0.127-0.215-0.241-0.345-0.337-0.649-0.552-1.421-0.943-2.25-1.14-0.419-0.094-0.846-0.139-1.275-0.135h-4.027c-0.112 0-0.127 0.045-0.127 0.143v2.662c0 0.112 0 0.143 0.143 0.143h8.655c0 0 0.075-0.015 0.090-0.060h-0.036zM17.108 14.425c-0.127-0.014-0.256-0.014-0.383 0h-8.317c-0.112 0-0.15 0-0.15 0.15v2.603c0 0.12 0 0.15 0.15 0.15h3.84c0.184 0.014 0.367 0.001 0.547-0.037 0.557-0.040 1.105-0.161 1.628-0.36 0.19-0.066 0.374-0.152 0.547-0.255h0.052c0.9-0.468 1.631-1.204 2.093-2.107 0 0 0.052-0.113-0.007-0.143v-0.001zM6.75 18.678v-4.147c0-0.098 0-0.112-0.12-0.112h-1.628c-0.090 0-0.127 0-0.127-0.12v-1.425h1.74c0.097 0 0.135 0 0.135-0.128v-1.41c0-0.090 0-0.112-0.12-0.112h-1.628c-0.090 0-0.127 0-0.127-0.12v-1.32c0-0.083 0-0.105 0.12-0.105h1.612c0.112 0 0.143 0 0.143-0.143v-4.042c0-0.12 0-0.15 0.15-0.15h5.625c0.408 0.016 0.814 0.061 1.215 0.135 0.827 0.153 1.621 0.448 2.347 0.87 0.482 0.284 0.925 0.626 1.32 1.020 0.297 0.308 0.565 0.642 0.802 0.997 0.236 0.36 0.432 0.745 0.586 1.147 0.019 0.105 0.119 0.175 0.224 0.158h1.342c0.172 0 0.172 0 0.18 0.165v1.23c0 0.12-0.045 0.15-0.165 0.15h-1.035c-0.105 0-0.135 0-0.127 0.135 0.041 0.457 0.041 0.915 0 1.372 0 0.128 0 0.143 0.143 0.143h1.184c0.052 0.067 0 0.135 0 0.203 0.008 0.087 0.008 0.175 0 0.262v0.908c0 0.127-0.037 0.165-0.15 0.165h-1.418c-0.099-0.019-0.195 0.044-0.218 0.143-0.337 0.878-0.877 1.664-1.575 2.295-0.255 0.23-0.523 0.445-0.802 0.645-0.3 0.173-0.592 0.353-0.9 0.495-0.566 0.255-1.16 0.443-1.77 0.562-0.579 0.104-1.166 0.151-1.755 0.143h-5.205v-0.008l0.002-0.002z"></path>
</svg>
