<!-- Generated by IcoMoon.io -->
<svg version="1.1" xmlns="http://www.w3.org/2000/svg" width="24" height="24" viewBox="0 0 24 24"><title>DASH</title>
<path fill="#0382d1" d="M12 0c6.627 0 12 5.373 12 12s-5.373 12-12 12c-6.627 0-12-5.373-12-12s5.373-12 12-12z"></path>
<path fill="#fff" d="M8.544 5.261h6.029c5.299 0 6.24 2.899 5.491 6.979-0.509 2.736-1.757 4.829-3.888 5.808-0.96 0.451-1.853 0.691-3.984 0.691h-6.019l0.499-2.803h5.299c3.178 0 4.032-1.392 4.445-2.592 0.163-0.461 0.509-1.853 0.528-2.688 0.019-1.613-0.768-2.592-3.456-2.592h-5.443l0.499-2.803z"></path>
<path fill="#fff" d="M3.989 12.221c0.144-0.626 0.376-1.632 1.944-1.632h6.173c0 0-0.067 0.336-0.259 1.152-0.001 0.006-0.003 0.013-0.004 0.019-0.144 0.626-0.376 1.632-1.944 1.632h-6.173c0 0 0.067-0.336 0.259-1.152 0.001-0.006 0.003-0.012 0.004-0.019z"></path>
</svg>
