<!-- Generated by IcoMoon.io -->
<svg version="1.1" xmlns="http://www.w3.org/2000/svg" width="24" height="24" viewBox="0 0 24 24"><title>DGB</title>
<path fill="#06c" d="M12 0c6.627 0 12 5.373 12 12s-5.373 12-12 12c-6.627 0-12-5.373-12-12s5.373-12 12-12z"></path>
<path fill="#fff" d="M5.464 8.875h8.163c0 0 2.818-0.026 0.869 3.608 0 0-1.422 2.844-4.951 2.791l1.901-4.856c0.023-0.058 0.032-0.12 0.025-0.181s-0.027-0.121-0.062-0.173c-0.034-0.052-0.080-0.094-0.134-0.125s-0.115-0.047-0.177-0.048l-2.502-0.042-3.16 7.689c0 0 1.053 0.105 1.633 0.053l-0.316 0.79h1.49c0.041 0 0.082-0.012 0.116-0.036s0.060-0.057 0.074-0.096l0.269-0.711 0.632-0.053-0.369 0.895h1.454c0.053 0 0.106-0.016 0.15-0.046s0.078-0.073 0.098-0.123l0.406-1.043c0 0 4.424-0.737 6.425-4.319 0 0 2.686-4.16-0.474-5.635-0.616-0.282-1.274-0.46-1.949-0.527l0.369-0.911c0.011-0.027 0.016-0.056 0.013-0.086s-0.013-0.057-0.029-0.082c-0.016-0.024-0.038-0.045-0.064-0.059s-0.054-0.022-0.084-0.022h-1.364l-0.421 1.106h-0.579l0.326-0.858c0.010-0.027 0.013-0.057 0.010-0.086s-0.014-0.057-0.031-0.081c-0.016-0.024-0.038-0.044-0.064-0.058s-0.054-0.022-0.084-0.022h-1.369l-0.421 1.106h-4.255c-0.114-0-0.227 0.030-0.325 0.089s-0.179 0.142-0.233 0.243l-1.006 1.906z"></path>
</svg>
