<!-- Generated by IcoMoon.io -->
<svg version="1.1" xmlns="http://www.w3.org/2000/svg" width="24" height="24" viewBox="0 0 24 24"><title>DOGE</title>
<path fill="#988430" d="M12 0c6.627 0 12 5.373 12 12s-5.373 12-12 12c-6.627 0-12-5.373-12-12s5.373-12 12-12z"></path>
<path fill="#7a6a2a" d="M11.991 23.606c6.415 0 11.616-5.201 11.616-11.616s-5.201-11.616-11.616-11.616c-6.415 0-11.616 5.2-11.616 11.616s5.2 11.616 11.616 11.616z"></path>
<path fill="#ba9f33" d="M11.99 23.361c6.28 0 11.371-5.091 11.371-11.371s-5.091-11.371-11.371-11.371c-6.28 0-11.371 5.091-11.371 11.371s5.091 11.371 11.371 11.371z"></path>
<path fill="#cfb66c" d="M5.238 10.709l0-0c-0.068-0.062-0.134-0.124-0.202-0.192s-0.134-0.13-0.202-0.192l-0.202-0.186c-0.033-0.033-0.068-0.062-0.101-0.095l-0.095-0.095c-0.274-0.254-0.542-0.503-0.816-0.753 0.264 0.254 0.534 0.509 0.802 0.763 0.033 0.029 0.072 0.062 0.105 0.091 0.033 0.033 0.068 0.062 0.101 0.095l0.202 0.192c0.068 0.062 0.136 0.124 0.202 0.186s0.138 0.124 0.206 0.186zM1.68 10.671c0 0 0.975 0.101 1.45 0.169 0.441 0.062 1.819 0.274 1.819 0.274l-3.27-0.443zM1.68 10.671c0.274 0.023 0.548 0.052 0.821 0.082 0.14 0.014 0.274 0.029 0.408 0.043l0.206 0.023c0.068 0.010 0.134 0.019 0.202 0.029l0.816 0.13 0.408 0.068c0.134 0.023 0.268 0.049 0.408 0.072-0.134-0.014-0.274-0.033-0.408-0.053l-0.408-0.058-0.816-0.12c-0.068-0.010-0.134-0.023-0.202-0.033l-0.206-0.024c-0.134-0.014-0.274-0.033-0.408-0.049-0.274-0.033-0.548-0.068-0.821-0.111l0 0zM4.853 11.367c0 0-1.041 0.264-1.392 0.365-0.346 0.095-1.392 0.414-1.392 0.414l2.785-0.779z"></path>
<path fill="#cfb66c" d="M4.853 11.367c-0.231 0.068-0.461 0.134-0.695 0.196l-0.695 0.186c-0.231 0.068-0.461 0.134-0.691 0.202l-0.346 0.095c-0.115 0.033-0.231 0.062-0.349 0.095 0.114-0.038 0.231-0.078 0.346-0.111l0.346-0.111c0.231-0.072 0.461-0.14 0.691-0.212 0.235-0.058 0.466-0.12 0.701-0.177 0.223-0.056 0.458-0.112 0.693-0.165v-0zM2.214 12.787c0.114-0.043 1.435-0.658 1.742-0.802 0.154-0.072 0.6-0.23 0.6-0.23l-2.342 1.032z"></path>
<path fill="#cfb66c" d="M2.214 12.787c0.101-0.038 0.196-0.085 0.293-0.13l0.287-0.134 0.577-0.278c0.192-0.091 0.379-0.192 0.577-0.278 0.101-0.043 0.202-0.078 0.303-0.111l0.154-0.049c0.052-0.014 0.101-0.029 0.154-0.043-0.192 0.091-0.394 0.169-0.586 0.258-0.192 0.095-0.388 0.173-0.587 0.258l-0.586 0.258c-0.197 0.080-0.389 0.165-0.585 0.247h0zM2.342 13.324c0 0 1.196-0.701 1.608-0.926 0.216-0.12 0.913-0.466 0.913-0.466l-2.52 1.392z"></path>
<path fill="#cfb66c" d="M2.342 13.325c0.202-0.124 0.408-0.25 0.613-0.379l0.307-0.186c0.105-0.062 0.206-0.12 0.313-0.182 0.105-0.062 0.206-0.124 0.313-0.183 0.051-0.031 0.104-0.059 0.159-0.082l0.163-0.082c0.216-0.105 0.431-0.212 0.658-0.303-0.206 0.13-0.418 0.241-0.629 0.355-0.105 0.058-0.212 0.111-0.317 0.169s-0.206 0.12-0.313 0.177c-0.105 0.062-0.206 0.12-0.313 0.177l-0.317 0.173-0.639 0.346zM4.853 12.086c0 0-0.744 0.571-0.984 0.753s-0.95 0.695-0.95 0.695l1.934-1.449z"></path>
<path fill="#e2cc85" d="M9.121 16.69l-0.381-0.72 0.221-0.901 1.579-0.61-0.672-1.379 0.332-1.392 0.623-1.247 1.926-0.303 1.415-1.349 3.056 0.231 0.6 3.268-1.155 4.115-0.658 2.13-2.668 0.101-1.239-0.858-1.45-0.606-1.53-0.48z"></path>
<path fill="#f1d789" d="M13.8 16.666c0 0-0.369 0.169-0.998 0.13-0.182-0.245-1.458-0.359-1.458-0.359s-0.159-0.049-0.441 0.068c-0.283 0.115-0.551 0.101-0.802 0.163s-0.499-0.264-0.691-0.332c-0.192-0.072-0.447-0.245-0.447-0.245l-0.538-0.052-1.080-0.456-1.715-1.709-0.466 0.73-0.144 0.903 0.519 1.070 1.396 1.272 2.722 0.691 1.614-0.475 2.021-0.854 0.507-0.544z"></path>
<path fill="#f4ecb4" d="M4.129 10.628l0.346-1.047 0.412-0.676 1.326-0.111-0.398 1.161-1.109 1.973 0.46 1.761-0.815 0.408-0.251-0.384-0.202-0.882-0.014-0.99 0.245-1.214z"></path>
<path fill="#f3e19d" d="M5.616 16.595l-0.254-0.355c0 0-0.068-0.169-0.029-0.317 0.038-0.149 0.033-0.159 0.014-0.216s-0.183-0.251-0.173-0.418c0.010-0.169-0.014-0.225 0.111-0.359 0.13-0.13 0.091-0.355 0.091-0.355l0.169 0.105 0.038-0.058c0 0 0.062 0.049 0.062 0.124 0.014-0.105-0.043-0.59 0.085-0.701s0.355 0.518 0.355 0.518l-0.14-0.913-0.359-0.936-0.639-0.854-0.038-0.942v-0.082c0 0-0.293 0.451-0.375 0.806-0.058 0.245 0.082 0.542 0.052 0.893-0.023 0.35-0.052 0.322 0.033 0.461s0.293 0.423 0.212 0.629c-0.072 0.177-0.317 0.052-0.317 0.052s-0.049 0.144-0.115 0.196c-0.023-0.085-0.049-0.14-0.095-0.192-0.004 0.033-0.014 0.078-0.014 0.078s-0.043-0.134-0.086-0.303c-0.058-0.225-0.12-0.522-0.177-0.681-0.023 0.091-0.082 0.369-0.082 0.369l0.033 0.427 0.159 0.586 0.154 0.384 0.15 0.47 0.13 0.316 0.105 0.241 0.091 0.542 0.441 0.466 0.235 0.105 0.171-0.088z"></path>
<path fill="#f2e8b0" d="M4.359 9.773c0 0-0.317 0.538-0.408 1.080s-0.173 1.115-0.115 1.852c0.058 0.744 0.169 1.2 0.258 1.526 0.154 0.542 0.551 1.295 0.551 1.295l0.014-0.029c-0.067-0.127-0.12-0.26-0.159-0.398-0.052-0.206-0.072-0.45-0.12-0.561-0.043-0.111-0.115-0.206-0.15-0.342-0.033-0.13-0.038-0.336-0.14-0.489-0.043-0.062-0.095-0.225-0.111-0.388-0.019-0.245 0.010-0.518-0.014-0.744-0.043-0.375-0.072-0.629-0.033-0.825s0.241-0.753 0.365-1.196c0.082-0.284 0.033-0.522 0.182-0.769 0.15-0.245 0.241-0.46 0.274-0.61 0.038-0.136-0.396 0.598-0.396 0.598h0.001z"></path>
<path fill="#f5eec0" d="M5.86 9.558c0 0-0.163 0.049-0.241 0.134-0.078 0.082-0.111 0.15-0.216 0.287s-0.111 0.251-0.196 0.423c-0.085 0.169-0.274 0.423-0.297 0.515s-0.062 0.518-0.111 0.72c-0.043 0.202 0.049 0.451 0.049 0.451l0.111-0.023c0 0 0 0.144 0.111 0.241 0.111 0.095 0.13-0.322 0.13-0.322l0.414-1.396 0.623-0.423 0.068-0.342-0.444-0.264z"></path>
<path fill="#e6db9d" d="M6.164 10.19c0 0-0.293 0.019-0.437 0.124-0.058 0.043-0.082 0.078-0.144 0.13-0.115 0.095-0.231 0.183-0.287 0.307-0.062 0.124-0.13 0.313-0.177 0.668-0.019 0.149-0.019 0.287-0.033 0.408-0.019 0.163-0.049 0.293-0.033 0.384 0.019 0.186 0.212 0.284 0.23 0.495l0.398-0.202 0.375-1.478 0.796-0.499-0.451-0.505-0.239 0.166 0.001 0.001z"></path>
<path fill="#e5cb7a" d="M4.064 20.142c0.002-0.015 0.003-0.029 0.005-0.044 0.058-0.499 0.068-0.878 0.111-1.114 0.062-0.336 0.105-0.461 0.095-0.587-0.014-0.202-0.029-0.349-0.010-0.505 0.029-0.206 0.231-0.45 0.225-0.619-0.004-0.134-0.072-0.221-0.13-0.303s-0.105-0.149-0.105-0.149 0.398-0.274 0.394-1.377c0.008 0.002 0.016 0.006 0.023 0.010l0.196 0.557 0.134 0.163 0.515 0.959 0.662 0.643 0.979 0.658 0.614 0.668 0.062 1.781-0.802 1.041-0.131 0.238c-1.043-0.524-2-1.205-2.837-2.019l0 0z"></path>
<path fill="#d8c173" d="M6.513 21.845c0 0 0.014-0.221 0.196-0.365 0.029 0.049 0.049 0.095 0.043 0.13 0.033-0.058 0.264-0.431 0.786-0.528 0.522-0.095 0.649-0.476 0.649-0.476l1.109-1.008 1.268-1.167 1.542-0.542 0.72-0.177c0 0 0.014 0.052-0.014 0.169 0.134-0.010 0.431-0.078 0.74-0.186 0.124-0.049 0.241-0.068 0.303-0.004 0.091 0.085 0.105 0.287 0.111 0.408 0.15-0.033 0.322-0.177 0.461-0.163 0.221 0.023 0.418 0.284 0.643 0.284 0.297 0 0.431-0.183 0.639-0.326 0.124-0.085 0.303-0.192 0.404-0.264 0.241-0.177 2.788-0.955 2.788-0.955l0.893 0.058 0.144 0.959-0.077 2.507c-0.010 0.009-0.019 0.019-0.029 0.028l-4.061 2.121-5.629 0.863c-1.261-0.206-2.478-0.625-3.599-1.238l-0.029-0.128-0 0z"></path>
<path fill="#f1d789" d="M4.405 20.46c0.080-0.167 0.152-0.307 0.165-0.357 0.010 0.101 0.028 0.322 0.065 0.557-0.077-0.066-0.154-0.133-0.23-0.2v0z"></path>
<path fill="#e0cd81" d="M8.517 22.82l0.728-0.203 0.062 0.020c0 0 0.033 0.019 0.033 0.085 0.091-0.052 0.169-0.043 0.225-0.078 0.029 0.062 0.058 0.268 0.186 0.293 0.134 0.029 0.278-0.058 0.423-0.169 0.144-0.115 0.307-0.258 0.431-0.317 0.045 0.084 0.086 0.17 0.12 0.258 0.163-0.13 0.447-0.658 0.85-0.649 0.117-0.276 0.312-0.511 0.561-0.678 0.375-0.254 0.61-0.274 0.903-0.25 0.116-0.151 0.26-0.28 0.423-0.379 0.049 0.019 0.183 0.101 0.35 0.023 0.169-0.078 0.359-0.379 0.61-0.417 0.135-0.019 0.272 0.010 0.388 0.082 0 0 0.73-0.724 1.233-0.965-0.019-0.058-0.058-0.278 0.532-0.763 0.033 0.029 0.010 0.111 0.033 0.115 0.010 0 0.154-0.062 0.336-0.202 0.225-0.169 0.495-0.346 0.658-0.394 0.307-0.091 0.633 0.095 0.633 0.095 0.028-0.019 0.059-0.034 0.091-0.043 0.078-0.014 0.134-0.023 0.177-0.038-0.004 0.101 0.052 0.274 0 0.423 0.061 0.034 0.125 0.061 0.192 0.082-0.033 0.072-0.105 0.254-0.225 0.342 0.101 0.048 0.114 0.105 0.258 0.154-0.058 0.082-0.154 0.221-0.196 0.307-0.043 0.091-0.196 0.47-0.264 0.614-0.072 0.144-0.169 0.408-0.216 0.461s-0.216 0.278-0.346 0.388c0.115-0.043 0.587-0.186 0.786-0.241-0.059 0.087-0.361 0.535-0.651 0.965-1.389 0.832-2.939 1.359-4.547 1.545s-3.238 0.027-4.78-0.466l0.001-0.002z"></path>
<path fill="#dfc57c" d="M6.211 10.138c0 0-0.169 0-0.202 0.023s0.169 0.072 0.231 0.095c0.062 0.023 0.196 0.13 0.231 0.216 0.033 0.082 1.214 0.557 1.214 0.557l0.835-0.043 0.288-0.398-0.548-0.48 0.384-1.132-0.509 0.082-1.223 0.73-0.614 0.235-0.087 0.115z"></path>
<path fill="#e5cc7c" d="M8.045 10.513c0.012 0.020 0.029 0.036 0.049 0.046s0.043 0.016 0.066 0.016c0.173 0 0.332 0.043 0.398 0.13 0.111 0.14 0.418 0.587 0.418 0.587l0.734 0.264 0.047-0.864-0.802-0.557-0.913 0.336v0.043h0.002l0 0z"></path>
<path fill="#d2c281" d="M7.901 10.833c0 0 0.134 0.010 0.303-0.053s0.447-0.196 0.567-0.144c0.169 0.072 0.134 0.297 0.317 0.499 0.111 0.124 0.313 0.12 0.427 0.254s0.509 0.072 0.509 0.072l0.149 0.806-0.6 0.769-0.196 0.955h-0.811l-0.741-0.294-0.365-0.883 0.183-0.893 0.259-1.090z"></path>
<path fill="#e2c270" d="M9.47 10.872c0.020 0.006 0.041 0.010 0.062 0.010-0.023 0.019-0.072 0.062-0.052 0.173s0.082 0.251 0.029 0.336c0.042 0.046 0.073 0.1 0.091 0.159 0.033 0.095 0.043 0.183 0.258 0.196-0.031 0.019-0.060 0.042-0.085 0.068 0 0 0.149 0.13 0.225 0.25 0.078-0.003 0.283-0.067 0.283-0.067l0.043 0.029 0.091-0.038c0 0-0.085-0.033-0.023-0.241 0.058-0.182 0.111-0.173 0.115-0.186s0.043-0.206 0.043-0.284c0.029-0.101 0.052-0.408 0.052-0.408l-0.062-0.678-0.349-0.212-0.284-0.274-0.268 0.505-0.177 0.176-0.014 0.437 0.021 0.049z"></path>
<path fill="#ccb360" d="M10.311 10.305c0 0 0.062 0.177 0.086 0.313 0.008-0.026 0.013-0.054 0.014-0.082 0 0 0.049 0.268 0.058 0.379 0.020-0.004 0.038-0.010 0.043 0.010s0.049 0.235 0.038 0.355c0.081-0.133 0.193-0.245 0.326-0.326 0.078-0.049 0.169-0.101 0.264-0.105 0.15-0.004 0.258 0.095 0.437 0.095 0.431 0 0.821-0.316 1.109-0.414 0.212-0.072 0.394-0.124 0.522-0.241 0.062-0.052 0.173-0.169 0.274-0.342 0.134-0.23 0.274-0.431 0.414-0.456-0.063 0.012-0.128 0.016-0.192 0.014 0 0 0.043-0.043 0.115-0.101s0.159-0.13 0.283-0.13c0.221 0 0.332 0.033 0.456 0.033 0.124-0.004 0.196-0.033 0.196-0.033s0.13 0.091 0.423 0.091c0.293 0.004 0.489 0.029 0.643 0.043s0.668-0.043 0.816-0.038c0.096 0.004 0.191 0.027 0.278 0.068l-0.476-1.382-1.709-1.494-1.017 0.72-1.565 1.565-1.515 0.561-0.316 0.355v0.542h-0.004z"></path>
<path fill="#d5b457" d="M13.709 9.513c0 0 0.043-0.043 0.114-0.101s0.159-0.13 0.284-0.13c0.221 0 0.332 0.033 0.456 0.033 0.124-0.004 0.196-0.033 0.196-0.033s0.13 0.091 0.423 0.091c0.293 0.004 0.489 0.029 0.643 0.043s0.668-0.043 0.815-0.038c0.096 0.004 0.191 0.027 0.278 0.068l-0.216-0.623-0.25-0.476-0.715-0.783c0 0-0.858-0.505-0.864-0.509-0.004-0.004-0.297-0.082-0.297-0.082l-0.777 0.47-0.705 1.823-0.014 0.384 0.456 0.216c0.115-0.192 0.241-0.346 0.359-0.365-0.107 0.012-0.188 0.012-0.188 0.012l0 0z"></path>
<path fill="#d2b257" d="M13.699 9.643c-0.068 0.004-0.124-0.010-0.14-0.058-0.058-0.163-0.105-0.186-0.154-0.186s-0.115 0.105-0.154 0.114c-0.039 0.010-0.085-0.12-0.085-0.12l-0.043-0.019c0 0-0.25 0.163-0.427 0.355s-0.466 0.519-0.596 0.577-0.577 0.078-0.73 0.111c-0.153 0.033-0.322 0.144-0.346 0.169s0.068 0.052 0.082 0.078c0.014 0.023-0.15 0.014-0.163 0.038-0.010 0.019 0.038 0.13 0.062 0.186 0.042-0.021 0.087-0.032 0.134-0.033 0.149-0.004 0.258 0.095 0.437 0.095 0.431 0 0.821-0.316 1.109-0.414 0.212-0.072 0.394-0.124 0.522-0.241 0.062-0.052 0.173-0.169 0.274-0.342 0.074-0.118 0.146-0.229 0.218-0.311l-0 0.001z"></path>
<path fill="#d2b159" d="M7.517 19.253c0 0-0.038-0.144-0.394-0.515-0.101-0.105-0.163-0.192-0.231-0.254-0.169-0.159-0.268-0.202-0.388-0.293-0.264-0.196-0.551-0.196-0.773-0.437s-0.479-0.701-0.658-1.171c-0.177-0.47-0.225-0.619-0.225-0.633s0.049-0.105 0.111-0.091c0.062 0.014 0.062 0.134 0.078 0.163 0.031 0.048 0.066 0.092 0.105 0.134 0.091 0.105 0.221 0.23 0.287 0.418-0.014-0.159-0.068-0.336-0.068-0.336s0.342 0.216 0.633 0.441c0.293 0.225 0.414 0.303 0.499 0.447s0.287 0.522 0.384 0.633c0.097 0.111 1.421 0.528 1.421 0.528l0.63 0.47 0.313 0.685-0.245 0.384-0.47 0.101-0.763-0.342-0.244-0.331z"></path>
<path fill="#c2a44d" d="M5.821 16.892c0 0 0.159 0.254 0.548 0.495 0.35 0.212 0.903 0.404 1.396 0.519 0.283 0.068 0.567 0.12 0.821 0.124 0.685 0.010 1.157-0.186 1.742-0.25 0.317-0.033 0.705-0.058 1.109-0.154 0.518-0.124 0.825-0.264 1.243-0.461 0.303-0.14 0.581-0.245 0.806-0.379 0.317-0.186 0.548-0.394 0.816-0.456-0.033 0.091-0.068 0.254-0.332 0.423 0.14-0.004 0.332-0.014 0.332-0.014s-0.186 0.111-0.514 0.359c-0.202 0.154-0.47 0.414-0.744 0.586-0.177 0.111-0.369 0.192-0.495 0.258-0.307 0.169-0.431 0.254-0.633 0.461 0.072-0.004 0.078 0 0.078 0s-0.254 0.033-0.437 0.13c-0.038 0-0.105-0.014-0.221 0.019-0.091 0.029-0.212 0.095-0.336 0.13-0.177 0.052-0.235 0.029-0.235 0.029l0.029 0.058c0 0-0.23-0.004-0.307 0.004 0.014 0.004 0.010 0.010 0.010 0.010-0.014 0.002-0.026 0.007-0.038 0.014-0.037 0.024-0.078 0.042-0.12 0.052-0.023 0.004-0.043 0.004-0.072 0.010 0.010 0.023 0.085 0.154 0.12 0.23-0.029 0.020-0.466 0.35-0.466 0.35 0.014 0.021 0.025 0.044 0.033 0.068 0.014 0.043 0.019 0.105 0.033 0.134 0.033 0.058 0.052 0.068 0.052 0.068s-0.052 0.010-0.144 0.033c-0.078 0.019-0.173 0.052-0.307 0.072-0.041 0.005-0.083 0.009-0.124 0.010 0.019 0.043 0.105 0.206-0.052 0.394s-0.206 0.216-0.254 0.336c-0.024-0.018-0.050-0.035-0.078-0.049-0.052-0.023-0.124-0.058-0.15-0.105-0.015 0.062-0.034 0.123-0.058 0.183-0.049 0.13-0.12 0.258-0.134 0.355-0.053-0.058-0.15-0.173-0.284-0.149s-0.241 0.206-0.264 0.258c0-0.033-0.023-0.058-0.029-0.019-0.004 0.043-0.078 0.489-0.489 0.85-0.004-0.091-0.004-0.293-0.014-0.359-0.038 0.038-0.085 0.095-0.365 0.216-0.274 0.12-0.23 0.241-0.23 0.241s-0.023-0.192 0.124-0.394c0.15-0.202 0.241-0.297 0.241-0.313-0.002-0.016-0.009-0.031-0.019-0.043-0.019-0.020-0.058-0.043-0.058-0.058 0.023-0.010 0.254-0.12 0.241-0.35-0.014-0.206-0.101-0.313-0.163-0.388-0.010-0.010 0.091-0.082 0.078-0.105-0.010-0.014-0.134-0.105-0.15-0.154 0.004-0.029 0.010-0.058 0.019-0.085 0.014-0.043 0.023-0.072 0.019-0.101-0.010-0.049-0.062-0.182-0.078-0.196 0.014 0.004 0.111 0 0.111 0s-0.078-0.124-0.091-0.183c-0.014-0.058-0.043-0.212-0.058-0.241 0.033 0.004 0.115 0.010 0.115 0 0.004-0.029-0.072-0.078-0.038-0.115 0.023 0.004 0.068 0.023 0.111 0.078-0.023-0.062-0.062-0.183-0.144-0.231 0.038-0.014 0.169-0.049 0.284 0.019s0.154 0.163 0.154 0.163 0.068 0.053 0.173 0.13c0.12 0.095 0.274 0.23 0.518 0.326 0.052 0.029 0.186 0.029 0.284 0.010 0.042-0.010 0.083-0.026 0.12-0.049 0.014-0.008 0.028-0.014 0.043-0.019-0.021-0.042-0.045-0.082-0.072-0.12 0.033 0 0.072 0.004 0.072 0.004s0.023-0.053-0.082-0.154c0.023-0.023 0.053-0.038 0.053-0.078-0.033-0.004-0.091-0.052-0.105-0.072 0.019-0.014 0.049-0.058 0.082-0.072-0.029-0.023-0.101-0.12-0.134-0.13 0.032-0.012 0.062-0.026 0.091-0.043 0 0-0.163-0.043-0.216-0.078-0.053-0.038-0.13-0.105-0.177-0.124-0.049-0.020-0.134-0.029-0.169-0.068 0.033 0.010 0.085 0 0.124 0 0.029 0 0.043 0.004 0.052 0.004-0.004-0.014-0.004-0.043 0.072-0.052 0.036-0.005 0.072-0.017 0.105-0.033 0 0-0.072-0.004-0.154-0.082s-0.149-0.14-0.196-0.149c-0.049-0.010-0.14 0.033-0.196 0.029-0.078-0.010-0.111-0.048-0.111-0.048s-0.258 0.023-0.831-0.326c-0.495-0.303-0.711-0.571-0.711-0.571-0.046-0.017-0.091-0.038-0.134-0.062-0.186-0.097-0.445-0.299-0.437-0.563l-0.001 0.002z"></path>
<path fill="#caa13e" d="M12.965 5.237c0.045 0.015 0.085 0.042 0.115 0.078 0.091 0.105 0.149 0.303-0.058 0.515 0.082 0.029 0.115 0.038 0.186 0.029-0.072 0.086-0.235 0.268-0.245 0.427-0.010 0.13 0.072 0.169 0.072 0.169s-0.124 0.144-0.13 0.384c0.059-0.066 0.123-0.127 0.192-0.183 0.144-0.115 0.342-0.245 0.476-0.326-0.002 0.034 0.003 0.068 0.014 0.101 0 0 0.25-0.206 0.461-0.114 0.095 0.043 0.052 0.177 0.052 0.177s0.13-0.049 0.221 0.043c0.091 0.091 0.22 0.327 0.287 0.418 0.029 0.043 0.105 0.124 0.182 0.25 0.106 0.177 0.194 0.363 0.264 0.557 0.004-0.101 0.029-0.258 0.317-0.159 0.287 0.101 0.614 0.313 0.887 0.73s0.342 0.888 0.479 1.067c0.14 0.173 0.284 0.46 0.293 0.581s-0.043 0.509 0.245 1.559c0.082-0.326 0.206-1.051 0.206-1.051l0.068-0.639 0.078-1.977-2.064-1.715-1.614-1.171-1.051 0.101 0.066 0.15 0 0z"></path>
<path fill="#b59544" d="M16.8 8.179c0 0-0.029-0.192-0.514-0.518-0.486-0.322-0.864-0.322-1.214-0.596-0.268-0.216-0.548-0.711-0.73-0.874-0.177-0.161-0.206-0.627-0.206-0.627l0.596-0.499 0.887-1.281 0.749-0.825 0.359 0.499 0.499 0.586 0.278 1.177 0.101 1.722-0.806 1.237 0.001-0z"></path>
<path fill="#c89d3a" d="M17.401 10.243c0.015-0.261-0.018-0.523-0.095-0.773-0.128-0.398-0.408-1.105-0.538-1.37-0.052-0.293-0.014-0.317 0.043-0.35s0.268-0.154 0.384-0.577c0.116-0.423 0.476-0.437 0.476-0.437l0.221-0.163 0.336 0.841 0.293 0.759 0.091 0.581 0.068 0.495-0.159 1.047-0.786 0.711-0.334-0.765z"></path>
<path fill="#ceb052" d="M6.428 21.909v-0.022c0.016-0.010 0.031-0.023 0.043-0.038 0.014-0.019 0.023-0.043 0.033-0.048 0.019-0.010 0.111-0.038 0.159-0.029s0.177 0.062 0.245 0.058c0.14-0.004 0.303-0.111 0.561-0.062 0.388 0.072 0.48 0.336 0.705 0.485 0.154 0.105 0.313 0.058 0.336 0.058h0.052c0.010 0 0.082-0.082 0.12-0.078 0.078 0.004 0.085 0.068 0.134 0.072 0.115 0.014 0.336-0.058 0.447-0.029 0.033 0.010 0.063 0.028 0.087 0.053s0.042 0.054 0.053 0.087c0.023 0.072 0.004 0.163-0.053 0.216-0.12 0.111-0.235 0.216-0.258 0.307 0.030 0.023 0.058 0.047 0.085 0.072-0.961-0.245-1.885-0.615-2.749-1.101v-0.001z"></path>
<path fill="#cca847" d="M16.767 18.029c0 0 0.303-0.404 0.408-0.604 0.105-0.206-0.332-2.817-0.332-2.817l0.878-2.876-0.023-0.936c0 0 0.043-0.864 0.144-1.239 0.12 0.216 0.495 0.476 0.577 0.614 0.038-0.264 0.169-0.821 0.149-1.416 0.072 0.111 0.245 1.223 0.245 1.223l0.173 0.749 0.225 0.796 0.25 0.841 0.15 0.581 0.085 0.14 0.072 0.245 0.068 0.264 0.196 0.619 0.115 0.509 0.091 0.922c0.020 0.071 0.034 0.143 0.043 0.216 0.004 0.101-0.014 0.159-0.014 0.177s0.033 0.221 0.019 0.375c-0.019 0.154-0.019 0.274-0.14 0.384s-0.196 0.769-0.196 0.769l-0.216-0.144c0 0 0.043-0.196-0.058-0.375s-0.297-0.216-0.408-0.186c-0.111 0.023-0.332 0.058-0.404 0.12-0.068 0.062-0.235 0.254-0.388 0.342-0.192 0.115-0.505 0.124-0.672 0.163-0.169 0.038-0.355 0.154-0.552 0.287-0.154 0.1-0.316 0.185-0.485 0.256l-0.001 0.001z"></path>
<path fill="#c39d3c" d="M16.767 22.272c0 0 0.013 0.008 0.037 0.022 1.38-0.646 2.616-1.562 3.635-2.694-0.011-0.393-0.026-0.796-0.041-0.945-0.033-0.317-0.010-0.639-0.019-0.825s-0.115-0.946-0.163-1.142c-0.052-0.196-0.154-0.293-0.169-0.293-0.014 0.004-0.095 0.369-0.095 0.461s-0.019 0.313-0.019 0.369c-0.014-0.004-0.019-0.038-0.019-0.052-0.019 0.049-0.043 0.134-0.053 0.144s0.014-0.082 0-0.101c-0.014-0.019-0.038-0.010-0.033-0.058 0.002-0.029 0.007-0.057 0.014-0.085 0 0-0.058 0.085-0.101 0.303-0.043 0.216-0.043 0.221-0.058 0.241-0.014 0.023-0.091 0.101-0.095 0.13-0.004 0.052 0.072 0.105 0.078 0.134 0.004 0.049-0.068 0.274-0.091 0.384s-0.014 0.326-0.038 0.437c-0.019 0.101-0.038 0.159-0.105 0.202 0.049 0.010 0.095 0.023 0.095 0.023s0.068 0.287-0.105 0.532c-0.062 0.085-0.078 0.124-0.144 0.202-0.13 0.144-0.231 0.307-0.241 0.414-0.007-0.031-0.011-0.063-0.014-0.095 0 0-0.202 0.235-0.287 0.369-0.111 0.173-0.264 0.163-0.307 0.206s-0.052 0.12-0.038 0.183c-0.038 0.010-0.111 0.023-0.159 0.173-0.023 0.078-0.082 0.154-0.173 0.206s-0.202 0.068-0.258 0.082c0.049 0.014 0.068 0.014 0.091 0.029-0.029 0.049-0.163 0.124-0.313 0.221-0.149 0.091-0.221 0.225-0.258 0.313-0.038 0.082-0.095 0.134-0.186 0.144 0.038 0.023 0.095 0.078 0.124 0.095-0.043 0.010-0.115 0.010-0.245 0.12-0.136 0.113-0.183 0.146-0.245 0.155l-0.001-0z"></path>
<path fill="#d2ba6b" d="M14.065 23.172c0.074-0.052 0.155-0.095 0.24-0.127 0.303-0.12 0.623-0.144 0.749-0.182 0.12-0.038 0.216-0.091 0.365-0.12-0.004 0.034-0.007 0.066-0.011 0.096-0.441 0.139-0.89 0.25-1.344 0.334h0.001z"></path>
<path fill="#c0993a" d="M19.651 15.206c0 0-0.062 0.336-0.173 0.548s-0.23 0.505-0.23 0.505c0.001-0.066 0.009-0.132 0.023-0.196-0.14 0.082-0.48 0.278-0.576 0.365-0.091 0.082-0.245 0.225-0.284 0.293 0.091-0.268 0.186-0.509 0.202-0.619-0.14 0.101-0.792 0.639-1.132 0.994l-1.058 0.856c-0.122 0.066-0.248 0.125-0.377 0.176-0.182 0.078-0.398 0.144-0.557 0.206 0.043-0.115 0.111-0.216 0.206-0.313 0.101-0.095 0.404-0.423 0.45-0.576 0.043-0.159 0.052-0.254-0.004-0.388-0.052 0.014-0.173 0.020-0.254 0.043s-0.169 0.111-0.169 0.111 0.062-0.355 0.196-0.691c-0.101 0.004-0.274 0.033-0.274 0.033s0.241-0.404 0.653-0.685c-0.126 0.027-0.25 0.065-0.369 0.114-0.241 0.101-0.505 0.251-0.701 0.332 0.111-0.154 0.887-1.262 1.35-2.295 0.461-1.031 0.633-1.295 0.734-1.848 0.052-0.274 0.038-0.678 0.052-1.041 0.014-0.359 0.058-0.682 0.029-0.897 0.12 0.149 0.571 0.571 0.586 1.513 0.014 0.942-0.431 2.214-0.903 2.899 0.115 0.033 0.414 0.072 0.72-0.461s0.303-0.681 0.414-0.903c0.014 0.111 0.010 0.149 0.010 0.149s0.447-0.542 0.658-1.223c0.043 0.293 0.169 0.552-0.029 1.089-0.177 0.485-0.408 0.604-0.408 0.604s0.115-0.019 0.283-0.12c0.029 0.072 0.023 0.154 0.072 0.183s0.115 0.078 0.124 0.124c0.052-0.078 0.134-0.177 0.159-0.25-0.020 0.154-0.033 0.825 0.038 1.167 0.15-0.014 0.303-0.023 0.408-0.293-0.072 0.264-0.072 0.423-0.023 0.649 0.080-0.054 0.151-0.151 0.151-0.151l0 0z"></path>
<path fill="#a88f33" d="M14.606 4.503c0 0-0.15 0.062-0.404 0.062-0.221 0-0.159-0.085-0.505-0.085-0.532 0-2.39 0.307-2.716 0.303-0.212-0.004 0.714 0.091 0.714 0.091l2.367 0.033 0.476-0.038 0.177-0.36-0.109-0.006z"></path>
<path fill="#e3c571" d="M8.468 9.13c0 0-0.303 0.231-0.431 0.408s-0.196 0.293-0.342 0.437c0.034 0.001 0.068-0.003 0.101-0.014 0 0 0 0.038-0.023 0.049 0.020-0.002 0.041 0 0.060 0.007s0.037 0.018 0.051 0.032c-0.043 0.023-0.159 0.14-0.068 0.278 0.068 0.105 0.212 0.114 0.212 0.114s-0.033 0.095 0.105 0.085c0.297-0.014 0.629-0.144 0.782-0.111 0.154 0.038 0.241 0.052 0.35 0.241 0.115 0.186 0.216 0.216 0.216 0.216s0.068-0.173 0.053-0.431c0.056-0.139 0.087-0.287 0.091-0.437l-0.101-0.744-0.441-0.557-0.571 0.317-0.043 0.111v0z"></path>
<path fill="#d8b65b" d="M9.010 9.020c0 0 0.043 0.101 0.221 0.111-0.019 0.043-0.019 0.049-0.014 0.082 0.004 0.033 0.010 0.082 0.010 0.082 0.020-0.010 0.038-0.022 0.053-0.038 0.010 0.043-0.010 0.111 0 0.159 0.006 0.030 0.016 0.058 0.029 0.085 0.003-0.007 0.006-0.013 0.010-0.019 0.004-0.010 0.038 0.105 0.134 0.192-0-0.013 0.003-0.027 0.010-0.038 0.002 0.024 0.010 0.048 0.023 0.068-0.007-0.003-0.014-0.008-0.019-0.014 0 0 0.010 0.307 0.062 0.466 0.009-0.010 0.017-0.021 0.023-0.033 0-0.010-0.004 0.086-0.014 0.154-0.014 0.068-0.004 0.163-0.004 0.163 0.035-0.028 0.074-0.050 0.114-0.068 0.058-0.023 0.154-0.095 0.212-0.254 0.034-0.090 0.060-0.183 0.078-0.278 0.019 0.036 0.032 0.075 0.038 0.115 0.004 0.048 0.095 0.023 0.095 0.023l0.019-0.212 0.115-0.48 0.105-0.297 0.505-0.786 0.912-0.702 0.796 0.183 0.672-0.913-1.157-0.695-1.095 0.115-0.994 1.377-0.796 1.249-0.144 0.206z"></path>
<path fill="#d3ae4d" d="M14.746 7.028c0 0-0.068 0.014-0.264 0.115s-0.332 0.134-0.408 0.283c-0.076 0.149-0.082 0.268-0.082 0.268s0.134-0.058 0.212-0.078c0.082-0.019 0.173-0.014 0.163 0.019-0.009 0.023-0.022 0.044-0.038 0.062 0 0 0.154-0.004 0.149 0.072s-0.029 0.159-0.058 0.196c-0.029 0.038-0.149 0.095-0.163 0.14-0.033 0.091 0.014 0.095-0.004 0.169-0.014 0.072-0.078 0.212-0.287 0.456-0.216 0.245-0.307 0.418-0.307 0.418s-0.105-0.196-0.159-0.365c-0.038 0.019-0.245 0.134-0.245 0.134l-0.478-1.664 0.010-0.111c0 0 0.043-0.052 0.052-0.15-0.072-0.023-0.082-0.043-0.177-0.134s-0.173-0.202-0.332-0.278c-0.023-0.043-0.053-0.101-0.169-0.124s-0.186-0.043-0.186-0.043c0 0 0.062-0.023 0.091-0.072-0.072 0.010-0.13 0.033-0.287 0.029-0.159-0.004-0.177-0.010-0.264 0.004s-0.192 0.052-0.231-0.082c-0.043-0.033-0.134-0.004-0.212 0.111s-0.105 0.206-0.254 0.251c-0.011 0.066-0.034 0.129-0.068 0.186-0.043 0.072-0.111 0.144-0.202 0.25-0.144 0.169-0.12 0.447-0.35 0.658-0.231 0.212 0.038-0.587 0.038-0.587l0.369-0.883 1.050-1.027 1.631-0.111 0.159 0.845 0.796 0.274 0.503 0.767 0-0.001z"></path>
<path fill="#caa13e" d="M15.004 7.214l-0.686-0.988-0.48-0.369c0 0-0.342-0.629-0.365-0.648-0.019-0.014-0.342-0.049-0.548-0.062l0.038 0.095c0.045 0.015 0.085 0.042 0.115 0.078 0.091 0.105 0.149 0.303-0.058 0.515 0.082 0.029 0.115 0.038 0.186 0.029-0.072 0.086-0.235 0.268-0.245 0.427-0.010 0.13 0.072 0.169 0.072 0.169s-0.124 0.144-0.13 0.384c0.059-0.066 0.123-0.127 0.192-0.183 0.144-0.115 0.342-0.245 0.476-0.326-0.002 0.034 0.003 0.068 0.014 0.101 0 0 0.25-0.206 0.461-0.115 0.095 0.043 0.052 0.177 0.052 0.177s0.13-0.049 0.221 0.043c0.091 0.091 0.221 0.326 0.287 0.418 0.029 0.043 0.105 0.124 0.182 0.25 0.106 0.177 0.194 0.363 0.264 0.557 0.004-0.078 0.019-0.186 0.154-0.186l-0.204-0.365-0.001 0z"></path>
<path fill="#f4efc8" d="M4.729 10.022c0 0-0.049-0.12 0-0.355s0.124-0.346 0.15-0.691c0.025-0.346 0.25-0.777 0.25-0.777l0.623-0.283 0.441 0.12 0.13 0.59-0.557 0.307c0 0-0.029 0.13-0.186 0.235s-0.375 0.186-0.427 0.293c-0.031 0.065-0.054 0.135-0.068 0.206 0 0-0.159-0.033-0.254 0.072-0.101 0.107-0.097 0.202-0.101 0.284v-0z"></path>
<path fill="#ebcc73" d="M5.987 9.864c0 0-0.052 0.033-0.091 0.115-0.038-0.062-0.13-0.431-0.134-0.763s-0.024-0.414 0.053-0.529c0.077-0.114 0.378-0.235 0.335-0.441-0.043-0.196-0.221-0.278-0.441-0.221-0.154 0.038-0.268 0.365-0.427 0.528-0.12 0.124-0.264 0.105-0.303 0.173-0.052 0.091-0.004 0.182-0.019 0.241-0.004 0.019-0.052 0.124-0.14 0.251-0.177 0.254-0.476 0.614-0.515 0.936 0.014-0.183 0.004-0.186 0.052-0.388l-0.029-0.049 0.192-0.629 0.124-0.518 0.278-0.868 0.489-0.887 0.476-0.532 0.495 0.033 0.058 0.744 0.284 1.396 0.596 0.734-0.955 0.643-0.378 0.033z"></path>
<path fill="#e5c66b" d="M6.284 10.128c0 0-0.082 0.019-0.111 0.004s-0.058-0.033-0.049-0.052c0.010-0.020 0.062-0.052 0.062-0.068 0.001-0.014-0.003-0.028-0.012-0.039s-0.022-0.018-0.036-0.019c-0.045-0.006-0.058 0.023-0.058 0.023s-0.043-0.033-0.078-0.038c0.021-0.003 0.041-0.004 0.062-0.004-0.054-0.024-0.111-0.041-0.169-0.049 0.049-0.029 0.144-0.115 0.206-0.115s0.101-0.010 0.091-0.043c-0.010-0.033-0.058-0.082-0.111-0.101 0.019-0.023 0.033-0.058-0.014-0.154-0.049-0.095-0.029-0.159-0.014-0.182 0.014-0.029 0.062-0.082 0.085-0.115s0.043-0.078 0.082-0.101c0.019-0.014 0.082-0.038 0.144-0.062 0.068-0.023 0.124-0.053 0.163-0.023 0.043 0.029 0.023 0.068 0.023 0.068s0.134-0.049 0.254 0.014c0.12 0.058 0.414 0.095 0.414 0.095l0.105 0.212-0.695 0.596-0.287 0.144-0.058 0.010-0-0z"></path>
<path fill="#e6bd62" d="M7.249 9.154c0 0-0.216 0.144-0.264 0.196 0.029 0.004 0.078 0.023 0.058 0.052-0.023 0.029-0.163 0.13-0.241 0.225-0.082 0.095-0.159 0.216-0.186 0.274-0.029 0.052-0.25 0.206-0.326 0.225 0.159 0 0.48-0.196 0.6-0.196-0.004 0.058 0.033 0.124 0.101 0.13s0.264 0.043 0.528-0.12c0.264-0.159 0.177-0.278 0.287-0.355 0.212-0.14 0.297-0.264 0.414-0.342s0.177-0.095 0.177-0.095 0.004-0.058 0.038-0.052c0.010 0.001 0.018 0.005 0.026 0.011s0.013 0.014 0.017 0.022c0 0 0.202-0.144 0.461-0.183-0.006-0.003-0.011-0.008-0.014-0.014 0 0 0.019-0.010 0.023-0.019 0 0 0.014-0.019 0.023-0.010s0.023 0.082 0.043 0.111c0.043-0.019 0.124-0.202 0.124-0.202l0.196-0.561v-0.513l-0.154 0.029-1.152 0.489-0.699 0.724-0.082 0.173h0.001z"></path>
<path fill="#b6933f" d="M10.565 6.639c0.062-0.015 0.122-0.039 0.177-0.072-0.023 0.062-0.023 0.13-0.124 0.278s-0.105 0.169-0.186 0.322c-0.082 0.159-0.091 0.388-0.169 0.489 0.035-0.017 0.072-0.028 0.111-0.033 0 0-0.078 0.068-0.111 0.14s-0.091 0.221-0.235 0.313c-0.144 0.091-0.326 0.15-0.522 0.365-0.196 0.212-0.398 0.48-0.499 0.576 0.052-0.091 0.124-0.274 0.144-0.394s-0.004-0.264 0.029-0.423c0.033-0.159 0.033-0.274 0.192-0.552s0.431-1.243 0.431-1.243l0.586-0.186 0.177 0.419-0 0.001z"></path>
<path fill="#c49937" d="M10.142 6.284c0 0-0.177 0.254-0.225 0.48s-0.004 0.206-0.033 0.317c-0.017 0.067-0.017 0.138 0 0.206 0.061-0.099 0.145-0.181 0.244-0.241 0.167-0.101 0.303-0.173 0.384-0.258 0.082-0.091 0.15-0.241 0.326-0.355-0.072-0.010-0.173-0.043-0.192-0.038 0.072-0.082 0.287-0.206 0.505-0.355 0.216-0.154 0.202-0.216 0.552-0.369-0.115 0.019-0.169-0.010-0.264 0 0.038-0.082 0.173-0.12 0.307-0.254s-0.085-0.332-0.085-0.332l-1.024 0.619-0.494 0.582z"></path>
<path fill="#dfc068" d="M7.364 5.821l0.023-0.186 0.293-0.47 0.307-0.825v-1.128l-0.023-0.652 0.049-0.427 0.037-0.136 0.039-0.052 0.25 0.13 0.346 0.47 0.033 0.907-0.336 1.431-0.959 1.047-0.058-0.107z"></path>
<path fill="#a88f33" d="M8.126 1.892c0 0-0.154 0.004-0.186 0.643s-0.049 0.975-0.072 1.291c-0.023 0.317-0.078 0.509-0.105 0.695s-0.043 0.441-0.13 0.596c-0.038 0.072-0.12 0.297-0.313 0.466-0.216 0.186-0.538 0.317-0.586 0.326-0.086 0.019-0.519 0.062-0.695 0.159-0.062 0.033-0.169 0.072-0.287 0.183-0.235 0.212-0.548 0.59-0.773 1.047-0.346 0.682-0.691 2.606-0.691 2.606l0.078-0.13c0 0 0.010-0.173 0.183-0.476 0.169-0.303 0.12-0.643 0.355-1.223 0.091-0.221 0.206-0.509 0.346-0.753 0.221-0.398 0.489-0.74 0.759-0.926 0.441-0.303 0.926-0.369 0.926-0.369l0.522-0.346c0 0 0.091-0.177 0.212-0.379 0.169-0.283 0.384-0.6 0.431-1.060 0.072-0.682-0.101-1.128-0.091-1.532s0.014-0.701 0.095-0.773c0.082-0.072 0.023-0.045 0.023-0.045l-0-0z"></path>
<path fill="#c99e3d" d="M8.126 4.94c0 0 0.23-0.567 0.336-1.070 0.019-0.101 0.058-0.202 0.068-0.283 0.048-0.476 0.062-0.672 0-0.932-0.049-0.192-0.235-0.365-0.332-0.499-0.095-0.14-0.14-0.192-0.12-0.221s0.095-0.078 0.169-0.072c0.078 0.002 0.155 0.020 0.227 0.053s0.135 0.080 0.187 0.139c0.15 0.173 0.268 0.759 0.268 0.759l0.125 0.774 0.316 0.975-1.243 0.378z"></path>
<path fill="#b58634" d="M10.291 4.35c0 0-0.043 0.019-0.12 0 0.003 0.032-0.002 0.064-0.016 0.092s-0.035 0.053-0.062 0.071c-0.082-0.033-0.845 0.033-0.845 0.033s-0.355-0.062-0.466-0.532c-0.078-0.313 0.058-0.744 0.014-1.027-0.068-0.418-0.163-0.499-0.173-0.629s-0.019-0.163-0.019-0.245c-0.043-0.010-0.068-0.023-0.111-0.023-0.010-0.038 0.010-0.072-0.033-0.14 0.023 0.010 0.182 0.029 0.369 0.206 0.154 0.144 0.154 0.196 0.177 0.225 0.029 0.029 0.264 0.23 0.365 0.431s0.297 0.841 0.342 0.946c0.014 0.043 0.043 0.085 0.115 0.183 0.113 0.14 0.278 0.371 0.464 0.41l-0.001 0z"></path>
<path fill="#a88f33" d="M9.034 2.391c0.118 0.19 0.223 0.387 0.316 0.59 0.115 0.258 0.183 0.47 0.326 0.643-0.078-0.225-0.216-0.668-0.297-0.825-0.091-0.166-0.278-0.346-0.346-0.408v-0z"></path>
<path fill="#e6c367" d="M7.713 5.583c0 0-0.196 0.049-0.561 0.241-0.12 0.062-0.235 0.114-0.346 0.163-0.288 0.13-0.596 0.25-0.841 0.317 0.019 0.023 0.029 0.033 0.029 0.033s0 0.095 0.052 0.15c-0.029 0.029-0.418 0.293-0.303 1.177 0.078-0.029 0.169-0.068 0.182-0.068 0.023 0.004 0.029 0.068 0.058 0.068s0.124-0.038 0.225-0.169c-0.004 0.053-0.062 0.581 0.251 0.936 0.058-0.068 0.206-0.293 0.206-0.293l0.004-0.072c0 0 0.014-0.25 0.095-0.48s0.241-0.398 0.241-0.398l0.831-1.186-0.124-0.417 0 0z"></path>
<path fill="#dcba5a" d="M6.936 7.325c-0.038 0.027-0.080 0.048-0.124 0.062-0.014-0.049-0.033-0.216 0.082-0.379 0.134-0.196 0.427-0.451 0.509-0.653 0.052-0.13 0.029-0.456 0.495-0.874s0.648-0.561 0.648-0.561l0.753-0.379 0.926 0.365-0.46 1.804-0.357 0.845-1.421-0.268-1.051 0.037z"></path>
<path fill="#e9ce77" d="M7.479 6.835l0.177-0.221v-0.157c0 0 0.196-0.052 0.408-0.268s0.505-0.629 0.763-0.604c0.258 0.029 0.284 0.561 0.293 0.711s0.043 0.489 0.095 0.672c0.058 0.183-0.629 0.874-0.629 0.874l-0.467 0.355-0.64-1.361z"></path>
<path fill="#cdae50" d="M8.026 8.678c0 0 0.144-0.225 0.038-0.274 0.062-0.14 0.177-0.287 0.177-0.287s0.082-0.202 0.346-0.45c0.264-0.249 0.427-0.414 0.47-0.581 0.026-0.109 0.041-0.22 0.043-0.332 0.028 0.023 0.059 0.044 0.091 0.062 0.043 0.019 0.245 0.186 0.216 0.522s-0.154 0.476-0.154 0.476-0.12 0.12-0.206 0.183c-0.091 0.062-0.124 0.134-0.278 0.14 0.016-0.013 0.033-0.022 0.052-0.029 0 0-0.159-0.019-0.245 0.058s-0.267 0.317-0.358 0.389c-0.091 0.058-0.192 0.124-0.192 0.124l-0-0z"></path>
<path fill="#d2a83e" d="M14.482 4.901c-0.229-0.084-0.47-0.131-0.714-0.14-0.408-0.014-1.004 0.010-1.588 0.014-0.629 0.004-1.2-0.216-1.992-0.254-0.13-0.078-0.461-0.418-1.493 0.303 0.062-0.004 0.75-0.159 0.988 0.14 0.241 0.297 0.173 0.802 0.14 0.922-0.062 0.268-0.264 0.658-0.346 0.932s-0.062 0.418-0.12 0.61c-0.058 0.192-0.186 0.287-0.111 0.509 0.101-0.062 0.154-0.062 0.322-0.441s0.134-0.649 0.414-0.969c0.274-0.322 0.73-0.763 0.903-0.874s1.549-0.825 2.99-0.144c0.347-0.037 0.608-0.608 0.608-0.608l-0 0z"></path>
<path fill="#c29637" d="M9.274 4.637c-0.001-0.015-0.005-0.029-0.010-0.043-0.014-0.028-0.031-0.055-0.053-0.078 0 0-0.342-0.062-0.515-0.043-0.303 0.033-0.577 0.408-0.705 0.6s-0.287 0.489-0.46 0.643c0.002-0.015-0.002-0.030-0.010-0.043 0 0 0.010 0.014-0.010 0.033s-0.019 0.029-0.010 0.038l0.029 0.029c0.010 0 0.278-0.12 0.643-0.461 0.388-0.355 0.685-0.538 0.841-0.6 0.083-0.035 0.17-0.061 0.258-0.076h-0z"></path>
<path fill="#ac8132" d="M15.903 3.177c0 0-0.062 0.078-0.14 0.163-0.173 0.183-0.398 0.388-0.59 0.6-0.182 0.202-0.388 0.359-0.619 0.623s-0.499 0.557-0.567 0.643c-0.062 0.085-0.111 0.225-0.111 0.297-0.033-0.023-0.072-0.049-0.072-0.049 0.016 0.030 0.036 0.059 0.058 0.085 0.049 0.068 0.124 0.154 0.163 0.206 0.048 0.066 0.082 0.142 0.101 0.221 0.023 0.004 0.173 0.033 0.359-0.274s0.431-0.643 0.431-0.643l0.388-0.577 0.245-0.489 0.307-0.548 0.047-0.26h-0z"></path>
<path fill="#a88f33" d="M16.301 2.785c0 0-0.235 0.192-0.326 0.307s-0.307 0.418-0.307 0.418l0.078-0.010 0.394-0.349 0.154-0.274 0.008-0.091 0-0.001z"></path>
<path fill="#a67a2e" d="M16.229 18.216c0 0-0.004-0.159 0.085-0.254 0.091-0.095 0.322-0.235 0.548-0.759s0.25-0.643 0.25-0.643-0.404 0.346-0.653 0.427c0.058-0.12 0.091-0.206 0.12-0.268-0.033-0.029-0.173-0.062-0.186-0.078 0.078-0.078 0.12-0.268 0.278-0.394 0.202-0.154 0.571-0.418 0.858-0.653s0.85-0.782 0.922-0.942c0.043 0.062 0.052 0.101 0.052 0.101s-0.283 0.369-0.431 0.604c-0.13 0.202-0.12 0.317-0.12 0.317l0.268-0.115c0 0 0.078 0.287-0.274 0.724 0.154-0.058 0.216-0.023 0.303-0.072-0.144 0.091-0.342 0.216-0.528 0.557-0.183 0.342-0.431 0.74-0.85 0.988-0.408 0.262-0.643 0.458-0.643 0.458l0.001 0.001z"></path>
<path fill="#8c6228" d="M15.177 5.103c0 0-0.159 0.332-0.183 0.59-0.004 0.062-0.019 0.111-0.019 0.183-0.004 0.231 0.014 0.489-0.038 0.61-0.019-0.049-0.029-0.082-0.049-0.101-0.029 0.082-0.082 0.336-0.124 0.431-0.019-0.062-0.062-0.278-0.058-0.532s0.010-0.303 0.010-0.355c-0.010 0.078-0.062 0.183-0.082 0.245-0.029-0.052-0.062-0.12-0.101-0.177-0.023 0.038-0.052 0.095-0.078 0.124-0.004-0.023-0.014-0.086-0.019-0.173-0.004-0.101-0.010-0.231-0.004-0.258 0.010-0.052 0.091-0.258 0.264-0.447 0.206-0.225 0.418-0.658 0.48-0.792s0.326-0.691 0.326-0.691h0.202l-0.293 0.668c0 0-0.177 0.365-0.268 0.499s-0.284 0.519-0.369 0.668c0.062-0.082 0.115-0.124 0.177-0.202 0.060-0.054 0.227-0.289 0.227-0.289l-0-0z"></path>
<path fill="#cba94c" d="M16.305 2.759c-0.033 0.102-0.085 0.196-0.154 0.278-0.12 0.144-0.379 0.336-0.505 0.489-0.115 0.15-0.346 0.557-0.241 1.041 0.038-0.105 0.111-0.313 0.303-0.548s0.398-0.505 0.499-0.714c0.101-0.212 0.114-0.379 0.114-0.379l0.038-0.049-0.023-0.111-0.033-0.008h0.001z"></path>
<path fill="#a88f33" d="M20.237 15.639c0 0-0.078-0.212-0.101-0.404s0.038-0.23-0.033-0.45c-0.043-0.134-0.12-0.115-0.14-0.134s-0.033-0.221-0.029-0.332-0.004-0.254-0.023-0.316c-0.029-0.023-0.049-0.043-0.091-0.186-0.049-0.144-0.072-0.216-0.095-0.258s-0.091-0.082-0.091-0.124c0-0.085 0.078-0.13 0.078-0.154-0.004-0.049-0.062-0.010-0.078-0.023-0.019-0.023 0.049-0.163 0.023-0.183-0.010-0.010-0.078 0.072-0.095 0.049-0.020-0.023-0.043-0.254-0.078-0.408-0.033-0.149-0.068-0.258-0.072-0.303-0.004-0.043-0.268-0.796-0.332-0.979-0.052-0.154-0.095-0.311-0.13-0.47-0.019-0.091-0.033-0.278-0.043-0.258s-0.004 0.115-0.019 0.111c-0.014-0.004-0.062-0.336-0.078-0.388-0.014-0.052-0.095-0.23-0.115-0.359-0.020-0.13-0.062-0.47-0.091-0.701s-0.043-0.326-0.043-0.384c0.005-0.141-0.003-0.283-0.023-0.423-0.038-0.245-0.115-0.542-0.183-0.715-0.13-0.326-0.476-1.161-0.538-1.369 0-0.052 0.068-0.023 0.068-0.023s0.169 0.423 0.293 0.749c0.12 0.326 0.235 0.614 0.264 0.643 0.023 0.029 0.206 0.349 0.287 0.874s0.111 1.008 0.159 1.33c0.023 0.154 0.043 0.317 0.091 0.48 0.052 0.177 0.134 0.359 0.241 0.639 0.091 0.235 0.159 0.431 0.196 0.6 0.043 0.216 0.043 0.379 0.068 0.486 0.023 0.091 0.058 0.274 0.14 0.538s0.202 0.604 0.283 0.815c0.159 0.423 0.23 0.777 0.254 0.965 0.021 0.194 0.093 0.866 0.074 1.068l0-0z"></path>
<path fill="#be9c44" d="M16.315 2.736l-0.010 0.023c0 0 0.029 0.010 0.023 0.049 0 0.053-0.003 0.106-0.010 0.159-0.010 0.068-0.029 0.12-0.033 0.163 0 0.091 0.014 0.196-0.115 0.456-0.038 0.072-0.062 0.134-0.082 0.177-0.048 0.105-0.058 0.12-0.101 0.169 0.068-0.038 0.313-0.192 0.437-0.169-0.085 0.049-0.216 0.144-0.297 0.268 0.020 0.004 0.101 0.019 0.23 0 0.216-0.033 0.456-0.111 0.668-0.095 0.231 0.014 0.14-0.278 0.14-0.278l-0.267-0.586-0.505-0.355-0.080 0.019v-0z"></path>
<path fill="#a17c34" d="M17.631 7.129c0 0-0.225-0.225-0.317-0.998-0.091-0.777-0.072-1.92-0.072-1.92l-0.183-0.447c0 0-0.038-0.297-0.134-0.408s-0.283-0.297-0.369-0.388-0.183-0.216-0.241-0.235c0.029-0.049 0.159-0.322 0.658-0.326s0.653 0.274 0.705 0.375c0.052 0.101 0.287 0.538 0.375 1.37 0.082 0.831 0.085 0.893 0.072 1.181-0.010 0.159-0.062 0.528-0.154 0.922-0.083 0.334-0.175 0.707-0.342 0.876l0-0.001z"></path>
<path fill="#8c6228" d="M16.925 7.791c0.075 0.005 0.15-0.011 0.216-0.049 0.072-0.004 0.332 0.029 0.532-0.225 0.014 0.058 0.049 0.216-0.043 0.355 0.049-0.049 0.12-0.068 0.13-0.082 0.004 0.072 0.072 0.293-0.216 0.831 0.078-0.085 0.169-0.082 0.25-0.091 0.004 0.101 0.058 0.441-0.085 0.623-0.095 0.124-0.251 0.085-0.251 0.085 0.002-0.027 0.002-0.054 0-0.082-0.004-0.053-0.023-0.105-0.010-0.14-0.075-0.034-0.143-0.082-0.202-0.14-0.169-0.159-0.388-0.431-0.404-0.633-0.019-0.225 0.183-0.274 0.183-0.274-0.017-0.015-0.031-0.033-0.043-0.053-0.010-0.033-0.020-0.085-0.058-0.128z"></path>
<path fill="#92723a" d="M15.428 5.348c0 0-0.010-0.014-0.062 0.049 0.010-0.062 0.019-0.12 0.023-0.177 0.025-0.052 0.057-0.101 0.095-0.144-0.029 0.058-0.049 0.111-0.049 0.111s0.072-0.134 0.177-0.216c0.072-0.058 0.163-0.085 0.202-0.14 0.043-0.058 0.033-0.068 0.043-0.078 0 0 0.095-0.062 0.241-0.245 0.019-0.023 0.049-0.049 0.068-0.072 0.033-0.014 0.111-0.049 0.202-0.095 0.095-0.052 0.202-0.124 0.268-0.154 0.13-0.058 0.268-0.052 0.332-0.144 0.049-0.014 0.101-0.159 0.091-0.283 0.072 0.029 0.441 0.258 0.567 0.759 0.091 0.355-0.072 0.903-0.14 1.167s-0.078 0.46-0.173 0.58c-0.12 0.159-0.509 0.384-0.604 0.495-0.082 0.091-0.326 0.322-0.317 0.489 0.010 0.124 0.163 0.192 0.196 0.216s0.033 0.053 0.095 0.038c0.062-0.014 0.085-0.043 0.111-0.043 0.029 0.004 0.029 0.010 0.043 0.010 0.010-0 0.020-0.002 0.029-0.004 0 0-0.010 0.177-0.423 0.23-0.029 0.004-0.058 0.014-0.095 0.019 0.049-0.023 0.078-0.023 0.13-0.095-0.058-0.010-0.225-0.019-0.268-0.033 0.014-0.023 0.058-0.086 0.095-0.115 0.033-0.029-0.004-0.038-0.033-0.023-0.050 0.034-0.098 0.071-0.144 0.111-0.049 0.043-0.091 0.101-0.169 0.154-0.023-0.078-0.019-0.225 0.072-0.332-0.023 0.004-0.068 0.072-0.111 0.058-0.008-0.071-0.003-0.142 0.014-0.212 0.023-0.087 0.15-0.241 0.15-0.241l0.61-1.089 0.13-0.825-1.396 0.271z"></path>
<path fill="#b18e3e" d="M15.395 5.395c0 0-0.033 0.023 0.033 0.068-0.010 0.014-0.033 0.062-0.062 0.095-0.033 0.038-0.068 0.062-0.082 0.095-0.029 0.068-0.052 0.115-0.052 0.144s-0.010 0.216-0.091 0.336c-0.029 0.043-0.062 0.115-0.085 0.163-0.049 0.085-0.091 0.154-0.101 0.192-0.019 0.068-0.033 0.254-0.033 0.254s0.043-0.052 0.058-0.072c-0.023 0.049-0.049 0.101-0.086 0.14 0.023-0.019 0.091-0.068 0.206-0.169 0.159-0.134 0.408-0.359 0.711-0.538-0.091 0.033-0.169 0.033-0.231 0.043 0.049-0.049 0.485-0.561 0.715-0.61 0.014-0.018 0.021-0.040 0.019-0.062l-0.196-0.019-0.398 0.085-0.058-0.307-0.266 0.161v0z"></path>
<path fill="#543e26" d="M16.028 7.142c0 0-0.053 0.052-0.101 0.183-0.037-0.039-0.069-0.083-0.095-0.13-0.072-0.12-0.182-0.274-0.441-0.186-0.004-0.082-0.010-0.124 0-0.183 0.043-0.010 0.173-0.114 0.303-0.268 0.091-0.105 0.177-0.225 0.235-0.379 0.038-0.029 0.105-0.078 0.192-0.134 0.124-0.085 0.274-0.202 0.297-0.332-0.058 0.023-0.183 0.082-0.369 0.072 0.072-0.033 0.182-0.068 0.169-0.212 0.029-0.019 0.052-0.033 0.052-0.033-0.022-0.007-0.045-0.011-0.068-0.010-0.004-0.014-0.010-0.033-0.043-0.023s-0.038 0.010-0.043 0.023c-0.014 0.004-0.058 0-0.091 0.023s-0.124 0.101-0.159 0.114c0.014-0.023 0.033-0.058 0.033-0.058s-0.095 0.010-0.163 0.038c-0.124 0.043-0.268 0.12-0.414 0.196 0.014-0.023 0.019-0.038 0.029-0.043s0.033-0.010 0.033-0.014c0-0.004-0.010-0.038-0.004-0.052 0.044-0.092 0.095-0.181 0.154-0.264 0.068-0.091 0.082-0.221 0.082-0.221l0.297-0.15 0.835-0.192 0.542 0.033-0.068 0.375-0.32 0.654-0.274 0.596-0.313 0.365-0.287 0.21z"></path>
<path fill="#806031" d="M17.381 5.52c0 0-0.326 0.404-0.418 0.466 0.058-0.124 0.418-0.864 0.548-1.070-0.029-0.023-0.068-0.023 0.023-0.384-0.078 0.182-0.105 0.278-0.169 0.326s-0.072 0.033-0.115 0.033c0.008-0.015 0.011-0.032 0.010-0.049 0 0-0.274-0.033-0.461-0.033s-0.557 0.101-0.763 0.183c-0.163 0.068-0.254 0.068-0.313 0.111-0.058 0.049-0.091 0.101-0.12 0.115-0.023 0.014-0.134 0.049-0.159 0.085-0.023 0.038-0.062 0.082-0.062 0.091s-0.010 0.023 0.019 0.014c0.010-0.004 0.082-0.043 0.163-0.091 0.111-0.062 0.245-0.134 0.342-0.177 0.278-0.111 0.365-0.091 0.489-0.115 0.13-0.023 0.317-0.078 0.441-0.078 0.124-0.004 0.359 0 0.414 0.010-0.023 0.019-0.043 0.043-0.033 0.124 0 0.023-0.019 0.049-0.038 0.105-0.058 0.159-0.169 0.423-0.23 0.557-0.085 0.182-0.182 0.336-0.23 0.431s-0.154 0.346-0.258 0.48c-0.105 0.134-0.159 0.216-0.192 0.245s-0.268 0.202-0.25 0.264c0.043-0.014 0.313-0.115 0.509-0.336s0.235-0.355 0.388-0.476c0.153-0.12 0.274-0.322 0.346-0.489 0.060-0.155 0.047-0.204 0.122-0.342l-0.001-0z"></path>
<path fill="#b6903c" d="M10.35 8.534c0 0-0.043 0.177-0.14 0.264-0.095 0.086-0.264 0.159-0.283 0.303-0.023 0.144 0.169 0.216 0.169 0.216s-0.105 0.173-0.105 0.303c0 0.134-0.004 0.159 0.010 0.287-0.015 0.010-0.029 0.023-0.038 0.038 0 0 0.010 0.124 0.105 0.202s0.177 0.124 0.225 0.105c0.007 0.016 0.014 0.032 0.019 0.049 0 0 0.072-0.183 0.12-0.342 0.048-0.163 0.091-0.14 0.111-0.359s0.23-0.596 0.23-0.596l0.144-0.322-0.235-0.183-0.332 0.035z"></path>
<path fill="#685026" d="M10.787 8.851c-0.048 0.050-0.093 0.103-0.134 0.159-0.062 0.085-0.111 0.163-0.202 0.196s-0.149 0.033-0.144 0.124c0.006 0.091 0.091 0.13 0.14 0.177 0.052 0.049 0.095 0.13 0.072 0.221 0.029-0.014 0.082-0.029 0.13-0.134s0.388-0.744 0.388-0.744l-0.25-0z"></path>
<path fill="#d4b968" d="M12.125 7.377c0 0 0.029-0.078 0-0.134-0.029-0.058-0.206-0.078-0.293-0.144-0.091-0.068-0.202-0.115-0.293-0.085 0.014-0.033 0.068-0.105 0.023-0.12-0.043-0.014-0.202 0.058-0.245 0.091s-0.14 0.072-0.159 0.095c-0.019 0.023-0.053 0.068-0.072 0.049-0.019-0.014-0.029-0.049-0.062-0.029s-0.192 0.15-0.221 0.225c-0.029 0.076-0.095 0.245-0.293 0.437s-0.284 0.317-0.225 0.388c0.058 0.072 0.085 0.019 0.095 0.082 0.008 0.061 0.004 0.123-0.010 0.183-0.023 0.101-0.062 0.196-0.010 0.216 0.134 0.043 0.264-0.038 0.293-0.014 0.058 0.052-0.033 0.241 0.105 0.278 0.14 0.038 0.278-0.033 0.278-0.033l0.509-0.274 0.489-0.258 0.25-0.495-0.134-0.414-0.026-0.043h0.001z"></path>
<path fill="#cca849" d="M11.645 8.56c0 0-0.086-0.13 0.019-0.245s0.254-0.163 0.313-0.235c-0.011-0.014-0.026-0.024-0.043-0.029 0.039-0.069 0.098-0.125 0.169-0.159-0.029-0.029-0.068-0.052-0.111-0.052-0.095 0-0.154 0.058-0.241 0.058-0.085 0-0.095-0.043-0.095-0.043s0.144-0.014 0.13-0.078c-0.014-0.068-0.038-0.068-0.038-0.068s0.278-0.115 0.326-0.177c0.049-0.061 0.043-0.134 0.053-0.163 0.033 0 0.225-0.101 0.303-0.058s0.023 0.159 0.023 0.159c0 0 0.235-0.177 0.355-0.35 0.105 0.010 0.154-0.072 0.23-0.072 0.095 0 0.245 0.13 0.274 0.408 0.020 0.159 0.049 0.25 0.020 0.532-0.014 0.159-0.010 0.499 0.038 0.668 0.033 0.134 0.111 0.12 0.111 0.12-0.012 0.041-0.036 0.077-0.068 0.105-0.053 0.049-0.058 0.177-0.053 0.225 0.008 0.035 0.017 0.070 0.029 0.105 0 0-0.062 0.072-0.078 0.12-0.014 0.049-0.078 0.082-0.124 0.082s-0.023-0.004-0.085 0c-0.062 0.004-0.082 0.014-0.12 0s-0.068-0.029-0.052-0.154c0.014-0.124-0.48-0.414-0.48-0.414l-0.805-0.287z"></path>
<path fill="#585136" d="M10.719 9.787c0 0 0.177 0.235 0.903 0.235 0.346 0 0.466-0.033 0.538-0.053 0.078-0.019 0.369-0.134 0.662-0.48 0.264-0.313 0.206-0.441 0.206-0.441l-0.154-0.023-0.499 0.068-1.477 0.629-0.179 0.064h0.001z"></path>
<path fill="#252211" d="M11.26 9.845c0 0-0.629 0.14-0.629-0.258 0-0.388 0.388-0.796 0.485-0.868 0.101-0.072 0.342-0.154 0.342-0.154h0.581l0.111 0.293-0.049 0.633-0.841 0.353z"></path>
<path fill="#c3b378" d="M11.841 8.684c0 0-0.12-0.111-0.394 0.038s-0.495 0.461-0.509 0.744c-0.014 0.25 0.206 0.437 0.548 0.447 0.254 0.010 0.408-0.019 0.486-0.038-0.020-0.023-0.12-0.149-0.12-0.149l-0.010-1.041-0-0z"></path>
<path fill="#e6d89c" d="M11.722 8.746c0 0-0.029-0.023-0.115 0.023-0.072 0.038-0.177 0.14-0.258 0.212-0.053 0.043-0.086 0.062-0.115 0.095-0.12 0.144-0.221 0.379-0.163 0.495s0.251 0.25 0.74 0.159l-0.090-0.984 0.001-0z"></path>
<path fill="#252211" d="M11.563 8.987c0 0-0.078 0.12-0.078 0.313 0 0.196 0.111 0.509 0.518 0.532 0.313 0.019 0.522-0.45 0.749-0.633 0.173-0.14 0.278-0.144 0.278-0.144s-0.177-0.192-0.648-0.441c-0.466-0.251-0.988-0.284-1.272 0.101 0.134-0.010 0.567-0.12 0.567-0.12l0.212 0.068-0.326 0.324z"></path>
<path fill="#6f674d" d="M12.173 9.241c-0.014-0.029-0.023-0.068 0.033-0.078s0.082-0.004 0.101 0.038c0.020 0.042 0.038 0.078 0.010 0.095-0.029 0.015-0.105 0-0.144-0.056l0 0zM12.082 8.967c0 0-0.019 0.014-0.010-0.014 0.004-0.033 0.029-0.091 0.091-0.078s0.049 0.082 0.038 0.101c-0.010 0.019-0.062 0.052-0.101 0.038-0.005-0.001-0.009-0.004-0.013-0.007s-0.007-0.008-0.009-0.012c-0.002-0.005-0.003-0.010-0.002-0.015s0.002-0.010 0.005-0.014l0.001 0z"></path>
<path fill="#ac924c" d="M6.826 9.091c0 0 0.154 0.115 0.332 0.111 0.177-0.004 0.404-0.186 0.509-0.303 0.062-0.068 0.115-0.14 0.173-0.196 0.049-0.049 0.082-0.072 0.105-0.105 0.033-0.038 0.068-0.111 0.085-0.134-0.043 0.033-0.105 0.091-0.169 0.13-0.062 0.038-0.196 0.111-0.25 0.13-0.052 0.019-0.596 0.307-0.596 0.307l-0.188 0.060z"></path>
<path fill="#9f8e57" d="M7.061 7.657c0 0 0.085-0.058 0.25-0.095 0.159-0.038 0.48-0.068 0.48-0.068l0.264 0.115 0.105 0.398-0.192 0.414-0.245 0.154-0.278-0.447-0.385-0.471z"></path>
<path fill="#eac970" d="M6.715 8.012l-0.091 0.068c0 0 0.023-0.043 0.043-0.173s0.12-0.447 0.268-0.629c0.148-0.183 0.144-0.173 0.144-0.173-0.014-0.002-0.028-0.002-0.041 0.001s-0.026 0.009-0.037 0.018c0.019-0.043 0.144-0.197 0.268-0.273s0.173-0.101 0.303-0.038c0.13 0.063 0.163 0.095 0.258 0.091s0.177-0.105 0.177-0.105c0 0 0.019 0.062-0.052 0.206s-0.355 0.437-0.355 0.437l-0.59 0.404-0.293 0.166v-0z"></path>
<path fill="#d7bc6b" d="M7.152 7.608c0 0 0.427 0.058 0.557-0.062 0.004 0.014 0.019 0.014 0.019 0.023-0.001 0.007-0.005 0.014-0.010 0.019 0.014-0.002 0.028-0.004 0.043-0.004 0.017 0.005 0.035 0.008 0.053 0.010 0.014-0 0.029-0.002 0.043-0.004-0.001 0.010-0.005 0.019-0.010 0.027s-0.012 0.016-0.019 0.021c0.019 0 0.038 0.004 0.038 0.019s0.004 0.062-0.019 0.072c-0.019 0.005-0.040 0.004-0.058-0.004 0.002 0.037 0.011 0.073 0.029 0.105 0.038 0.072 0.12 0.154 0.23 0.13 0 0 0.058 0.14-0.187 0.45-0.033 0.043-0.068 0.101-0.111 0.149-0.017 0.037-0.030 0.075-0.038 0.115 0 0 0.414-0.159 0.532-0.522 0.12-0.365 0.144-0.724 0.12-1.060-0.004-0.095-0.019-0.163-0.043-0.212-0.058-0.12-0.221-0.101-0.287-0.033-0.095 0.095-0.254 0.332-0.476 0.495-0.225 0.163-0.235 0.192-0.408 0.264h0.001z"></path>
<path fill="#585136" d="M6.64 8.133c0 0-0.082 0.048-0.124 0.23-0.043 0.186 0.038 0.414 0.085 0.485s0.154 0.268 0.375 0.278c0.055-0 0.109-0.012 0.159-0.033 0.077-0.035 0.15-0.080 0.216-0.134 0.095-0.072 0.173-0.134 0.163-0.14-0.023-0.010-0.586-0.476-0.586-0.476l-0.212-0.236-0.076 0.026 0-0z"></path>
<path fill="#453a25" d="M7.171 8.905c0 0 0.115-0.010 0.183-0.052s-0.398-0.505-0.398-0.505l0.033 0.499 0.183 0.058z"></path>
<path fill="#84754b" d="M6.676 8.097c0 0-0.058 0.111-0.058 0.14-0.010 0.095 0.019 0.394 0.043 0.489 0.023 0.101 0.15 0.254 0.313 0.254 0.101 0 0.241-0.062 0.241-0.078 0-0.019-0.144-0.038-0.183-0.111-0.023-0.038-0.033-0.134-0.038-0.23-0.004-0.062-0.004-0.13 0.019-0.154 0.052-0.058 0.062-0.225 0.062-0.225l0.186-0.346h-0.245l-0.293 0.183-0.047 0.078z"></path>
<path fill="#252211" d="M6.604 8.204c0 0 0.192-0.254 0.365-0.313s0.25-0.023 0.25-0.023l-0.101 0.258-0.144 0.159 0.010 0.082c0 0-0.023 0.216 0.12 0.365s0.251 0.144 0.313 0.144 0.241-0.053 0.332-0.268c0.082-0.202 0.15-0.461-0.014-0.72-0.159-0.258-0.441-0.268-0.495-0.268s-0.482 0.021-0.637 0.584v0z"></path>
<path fill="#f7f7e7" d="M11.534 9.068c-0.072-0.033-0.004-0.235 0.068-0.297s0.163-0.134 0.322-0.144c0.058-0.004 0.114 0.033 0.105 0.072-0.014 0.072-0.115 0.173-0.206 0.245-0.126 0.099-0.208 0.161-0.289 0.124z"></path>
<path fill="#f8f6de" d="M7.651 7.967c0.052-0.004 0.12 0.038 0.134 0.095 0.014 0.062-0.033 0.186-0.134 0.186-0.082 0-0.124-0.101-0.124-0.13 0.001-0.024 0.008-0.047 0.019-0.068 0.004-0.006 0.014-0.074 0.105-0.084z"></path>
<path fill="#d4c38b" d="M6.894 8.012c0 0-0.134 0.062-0.196 0.192-0.044 0.096-0.058 0.203-0.038 0.307 0.010 0.049 0.058 0.169 0.091 0.212s0.078 0.072 0.111 0.068c0.033-0.004 0.101-0.091 0.101-0.144s0.004-0.274 0.068-0.394c0.056-0.12-0.136-0.241-0.136-0.241l-0-0z"></path>
<path fill="#e2d59d" d="M6.913 8.002c-0.023 0.014-0.062 0.033-0.052 0.058 0.010 0.023 0.091 0.038 0.12 0.095 0.033 0.058 0.033 0.12 0.023 0.15 0.025-0.012 0.048-0.029 0.068-0.049 0.043-0.049 0.095-0.114 0.14-0.114 0.029 0 0.058 0.014 0.086 0.014 0.043 0 0.085-0.014 0.091-0.058 0.010-0.058-0.082-0.111-0.134-0.101 0.010-0.038 0.023-0.095-0.019-0.134s-0.177 0.029-0.206 0.049c-0.029 0.019-0.116 0.091-0.116 0.091v-0z"></path>
<path fill="#cbac5a" d="M9.998 12.082l0.287-0.085 0.082 0.058c0 0 0.058 0.124 0.15 0.14-0.029 0.062-0.105 0.115-0.101 0.159s0.043 0.078 0.043 0.078c0 0-0.258 0.427 0.25 0.858-0.12 0.049-0.274 0.115-0.355 0.154 0.058 0.014 0.182 0.038 0.235 0.085s0.053 0.062 0.101 0.091c0.049 0.029 0.078 0.068 0.068 0.085-0.033-0.019-0.144-0.078-0.163-0.023s-0.48 0.033-0.48 0.033l-0.777 0.149c0 0 0.029-0.078-0.052-0.149-0.095-0.085-0.212 0.004-0.336-0.091-0.163-0.124-0.169-0.268-0.221-0.322 0.052-0.033 0.159-0.082 0.414-0.115-0.010-0.019-0.043-0.078-0.023-0.13 0.023-0.068 0.12-0.111 0.091-0.192 0.043-0.010 0.062-0.010 0.169-0.144 0.101-0.134 0.163-0.163 0.241-0.173s0.124 0 0.268-0.134c0.101-0.095 0.068-0.177 0.068-0.177s0.066-0.021 0.043-0.155l-0 0z"></path>
<path fill="#d6bc6f" d="M9.15 12.125c0.004-0.020 0.019-0.029 0.124-0.020s0.769-0.062 0.949-0.072c0.183-0.014 0.825-0.004 1.138 0.062s0.629 0.144 0.782 0.183c0.154 0.043 0.202 0.058 0.196 0.078-0.004 0.019-0.038 0.038-0.058 0.033-0.019-0.004-0.528-0.159-0.685-0.192s-0.701-0.12-0.998-0.115c-0.278 0.004-0.388-0.004-0.623 0.023-0.235 0.029-0.623 0.068-0.74 0.053-0.115-0.014-0.091-0.014-0.085-0.033l0 0.001z"></path>
<path fill="#dfc677" d="M10.713 13.647c0 0 0.398 0.216 0.542 0.48 0.105 0.196-0.062 0.293-0.062 0.293s0.225 0 0.196 0.124c-0.014 0.078-0.388 0.287-0.639 0.398-0.254 0.111-0.245 0.105-0.369 0.124-0.12 0.020-0.451-0.038-0.518 0.058s-0.038 0.196-0.019 0.212c0.019 0.014 0.177 0.033 0.177 0.033s-0.033 0.091-0.359 0.101c-0.326 0.010-0.408 0.033-0.427 0.068-0.019 0.033 0.062 0.014 0.212 0.038 0.149 0.023 0.359 0.038 0.359 0.038s-0.068 0.058-0.245 0.105c-0.202 0.052-0.519 0.101-0.614 0.159 0.049 0.033 0.12 0.082 0.154 0.085-0.082 0.019-0.196 0.062-0.216 0.078 0.029 0.019 0.068 0.043 0.068 0.043s-0.163 0.196-0.258 0.245c-0.095 0.049-0.643 0.303-0.831 0.254-0.47-0.124-0.528-0.639-0.643-0.678-0.173-0.058-0.254 0.058-0.408-0.023 0.068-0.049 0.105-0.078 0.177-0.111-0.078-0.038-0.48-0.293-0.48-0.293-0.042-0.092-0.089-0.181-0.14-0.268-0.078-0.134-0.192-0.313-0.278-0.47-0.186-0.346-0.196-0.505-0.365-0.701 0.029-0.038 0.13-0.033 0.13-0.033l1.416 0.466 2.51 0.073 0.653-0.932 0.277 0.033z"></path>
<path fill="#c4a859" d="M6.995 15.068c0.015 0.017 0.033 0.031 0.052 0.043 0.049 0.033 0.12 0.072 0.169 0.13 0.019-0.029 0.068-0.082 0.154 0s0.192 0.023 0.258 0.043c0.068 0.023 0.072 0.033 0.072 0.033s0.038-0.033 0.124-0.068c0.052-0.019 0.115-0.033 0.182-0.052 0.062-0.014 0.13-0.033 0.177-0.033 0.043 0.029 0.196 0.192 0.812-0.049 0.581-0.225 0.715-0.251 0.812-0.216 0.010-0.023 0.019-0.068 0.169-0.062 0-0.062-0.124-0.274-0.124-0.274l-0.685-0.235h-0.375l-1.124 0.206-0.623 0.355-0.049 0.179-0-0.001z"></path>
<path fill="#927d49" d="M6.62 14.674c0 0 0.014 0.105 0.169 0.216 0.154 0.111 0.202 0.177 0.202 0.177s0.029-0.038 0.052-0.078c0.023-0.043 0.043-0.091 0.082-0.105 0.078-0.033 0.254 0.029 0.293 0.019 0.033-0.010 0.023-0.078 0.058-0.078 0.081-0.004 0.134 0.052 0.163 0.052s0.101-0.004 0.111-0.019c0.010-0.016 0.014-0.177 0.124-0.254 0.12-0.085 0.268-0.049 0.307-0.029 0 0.029 0.004 0.101 0.082 0.105s0.085-0.010 0.154 0.014c0.068 0.023 0.15-0.004 0.186 0.111 0.033-0.010 0.111-0.019 0.091-0.13 0.038-0.029 0.072-0.049 0.154-0.163 0.020-0.029 0.052-0.062 0.078-0.105 0.068 0 0.15-0.014 0.258 0.082-0.033 0.023-0.053 0.038-0.062 0.062 0.028 0.028 0.054 0.059 0.078 0.091 0.029 0.038 0.049 0.086 0.085 0.095 0.082 0.023 0.216-0.010 0.365 0 0.144 0.010 0.264 0.062 0.317 0.095 0.019-0.010 0.019-0.014 0.068-0.004s0.085 0.014 0.033-0.049c0.029 0.014 0.062 0.043 0.091 0.014s0.052-0.072 0.134-0.082 0.111 0.004 0.144-0.082c0.043-0.105-0.105-0.105-0.105-0.105s0.068-0.062 0.144-0.144c0.091-0.085 0.196-0.196 0.221-0.332 0.043-0.25-0.202-0.283-0.202-0.283l-1.187 0.365-1.45-0.072-1.238 0.615z"></path>
<path fill="#6e6342" d="M5.554 11.247c0 0-0.038 0.049-0.062 0.163s-0.014 0.101-0.033 0.182c-0.019 0.082-0.258 0.893-0.169 1.167s0.245 0.375 0.342 0.596c0.019 0.049 0.038 0.078 0.049 0.12 0.033 0.144 0.004 0.254 0.043 0.398 0.014 0.049 0.049 0.105 0.101 0.163 0.115 0.12 0.303 0.235 0.384 0.316 0.114 0.12 0.278 0.365 0.485 0.388 0.111 0.014 0.268-0.033 0.398-0.111 0.115-0.072 0.186-0.173 0.307-0.23 0.085-0.043 0.177-0.058 0.258-0.078 0.169-0.033 0.322-0.038 0.414-0.019 0.14 0.029 0.47 0.13 0.653 0.13 0.143-0.002 0.285-0.022 0.423-0.058 0.278-0.082 0.614-0.221 0.835-0.284 0.13-0.038 0.235-0.049 0.342-0.072 0.183-0.043 0.336-0.101 0.423-0.212-0.058-0.068-0.13-0.173-0.519-0.169-0.441 0.010-0.949 0.254-1.2 0.293s-0.359 0.072-0.639-0.029c-0.274-0.102-0.283-0.169-0.283-0.169s-0.288-0.201-0.408-0.715c-0.12-0.513 0-0.887 0.313-1.243 0.082-0.091 0.062-0.173 0.062-0.173s0.206-0.278 0.15-0.538c-0.062-0.258-0.46-0.206-0.46-0.206l-2.208 0.386z"></path>
<path fill="#39331f" d="M5.886 12.111c-0.017 0.032-0.025 0.068-0.023 0.105 0.004 0.052 0.019 0.12 0.177 0.274 0.134 0.134 0.105 0.283 0.105 0.283s0.067 0.014 0.25-0.072c0.144-0.068 0.192 0.052 0.192 0.052 0.042-0.022 0.087-0.036 0.134-0.043 0.042-0.004 0.083-0.017 0.12-0.038 0 0 0.169 0.173 0.317 0.254 0.134 0.072 0.212 0.12 0.278 0.072 0.062-0.043 0.062-0.13 0.058-0.169-0.015-0.036-0.035-0.070-0.058-0.101-0.043-0.062-0.111-0.134-0.115-0.192-0.010-0.134 0.101-0.293 0.078-0.332s-0.111-0.049-0.326 0.029c-0.223 0.074-1.186-0.122-1.186-0.122l0.001-0z"></path>
<path fill="#292311" d="M6.394 12.979c0 0-0.111-0.105-0.072-0.614 0.047-0.001 0.094 0.004 0.14 0.014 0 0 0.060 0.394-0.068 0.6z"></path>
<path fill="#252211" d="M5.606 10.858c0.015-0.011 0.030-0.024 0.043-0.038-0.038 0.072-0.216 0.359-0.072 0.812 0.144 0.45 0.505 0.786 0.949 0.802s0.678-0.202 0.946-0.528c0.105-0.13 0.225-0.293 0.332-0.404 0.159-0.173 0.284-0.221 0.284-0.388 0-0.342-0.35-0.495-0.864-0.649s-0.979-0.134-1.219-0.029c-0.235 0.114-0.336 0.235-0.398 0.423l0-0z"></path>
<path fill="#3f3824" d="M7.259 13.133l0.038-0.020c0 0 0.010-0.154 0.072-0.149 0.062 0.010 0.091 0.091 0.085 0.12-0.004 0.029-0.019 0.078-0.082 0.072-0.082 0.002-0.114-0.023-0.114-0.023h0z"></path>
<path fill="#2d2815" d="M7.085 12.48c0 0 0.038-0.014 0.085 0.033 0.038 0 0.206-0.020 0.258 0.014s0.068 0.062 0.068 0.062-0.196 0.043-0.303 0c-0.109-0.037-0.109-0.109-0.109-0.109z"></path>
<path fill="#82764f" d="M7.95 12.509c0-0.010-0.105-0.082-0.216-0.105-0.020-0.004-0.023 0.010-0.038 0.010-0.010-0.004-0.014-0.033-0.014-0.033l-0.063 0.033c0 0-0.010 0.014 0.023 0.038 0.029 0.023 0.078 0.043 0.091 0.082s0.014 0.052 0.019 0.058c0.004 0.004 0.072 0 0.105-0.019s0.095-0.051 0.091-0.064l0 0z"></path>
<path fill="#2d2816" d="M6.969 12.903c0 0 0.019-0.134 0.15-0.14 0.134-0.010 0.159 0.12 0.159 0.12l-0.078 0.078c0-0.002-0.058-0.083-0.23-0.058h-0.001z"></path>
<path fill="#574f35" d="M7.814 12.326c0 0-0.072 0.078-0.231 0.101-0.014-0.019-0.043-0.058 0-0.12s0.091-0.082 0.14-0.062c0.021 0.004 0.041 0.013 0.058 0.027s0.028 0.033 0.034 0.054z"></path>
<path fill="#82764f" d="M8.107 12.422c0.004-0.019-0.010-0.023 0-0.033s0.062-0.029 0.072-0.019c0.004 0.004 0 0.019 0 0.038s0 0.038-0.010 0.052c-0.014 0.020-0.052 0.029-0.072 0.023s-0.023-0.033-0.023-0.038c0.010-0.004 0.033-0.014 0.033-0.023zM8.439 12.212c0-0.010 0.033-0.029 0.053-0.029 0.029 0 0.029 0.023 0.033 0.029 0.010 0.004 0.010-0.004 0.019 0.014s0.023 0.048 0.014 0.068c-0.010 0.019-0.049 0.033-0.058 0.029-0.014-0.010-0.056-0.097-0.060-0.111z"></path>
<path fill="#6e6342" d="M7.771 12.466c0 0 0.043 0.010 0.101 0.058-0.019 0.014-0.049 0.029-0.049 0.029s-0.004-0.045-0.052-0.087v0z"></path>
<path fill="#585136" d="M7.676 12.039c-0.010-0.010 0.029-0.033 0.052-0.029s0.033 0.020 0.058 0.023 0.029-0.010 0.038-0.019c0.009-0.010 0.043-0.004 0.049 0 0.004 0.004 0.007 0.009 0.010 0.014 0-0.007 0.002-0.015 0.006-0.021s0.008-0.012 0.014-0.017c0.007-0.005 0.016-0.009 0.025-0.011s0.018-0.001 0.027 0.001c0.004 0.014 0.023 0.062 0.019 0.072s-0.062 0.023-0.072 0.014c0.010 0.023 0.053 0.072 0.058 0.082s-0.043 0.033-0.062 0.029c-0.027-0.002-0.194-0.099-0.223-0.136l0.001-0zM7.93 11.717c-0.004-0.010-0.010-0.018-0.019-0.023-0.014-0.004-0.058 0-0.058 0.023s0.038 0.154 0.082 0.221c0.049 0.068 0.082 0.124 0.115 0.14 0.010 0.005 0.022 0.005 0.033 0.002s0.020-0.011 0.025-0.021c0.004-0.010 0.014-0.082 0.010-0.251s-0.010-0.332-0.020-0.342c-0.010-0.010-0.049-0.010-0.062 0.010s-0.101 0.212-0.105 0.241h0z"></path>
<path fill="#574f35" d="M7.757 12.711c0 0-0.068-0.043-0.134-0.014-0.062 0.029-0.058 0.144-0.058 0.144 0.014 0.005 0.029 0.007 0.044 0.006s0.029-0.007 0.042-0.015c0.043-0.029 0.097-0.078 0.107-0.12v-0z"></path>
<path fill="#82764f" d="M7.886 12.864c-0.004-0.038-0.038-0.038-0.038-0.058 0.002-0.010 0.008-0.018 0.016-0.024s0.017-0.009 0.027-0.009c0.020 0 0.038 0.023 0.062 0.038 0.023 0.014 0.058 0.038 0.062 0.068s-0.038 0.111-0.085 0.111-0.033-0.087-0.043-0.126l-0 0.001zM8.26 12.812c0 0-0.078 0.023-0.072 0s0.023-0.029 0.049-0.029c0.013-0.013 0.030-0.022 0.049-0.023 0.011-0.001 0.021 0.003 0.029 0.010 0 0 0.052-0.023 0.068-0.010s0.004 0.014 0.014 0.029c0.012 0.017 0.020 0.037 0.023 0.058 0 0.016-0.058 0.049-0.105 0.043-0.054-0.012-0.045-0.068-0.054-0.078zM8.713 12.724c0 0 0.023 0.014 0.004 0.029-0.014 0.014-0.082 0.038-0.14 0.043-0.058 0-0.111 0.010-0.111-0.010s0.049-0.058 0.078-0.068c0.006-0.007 0.013-0.013 0.022-0.017s0.018-0.006 0.027-0.006c0.023 0 0.114-0.010 0.14-0.014 0.023-0.004 0.043 0.010 0.029 0.029-0.006 0.014-0.049 0.014-0.049 0.014zM8.847 12.125c0 0-0.029 0.062-0.062 0.062-0.033-0.004-0.033-0.014-0.033-0.023 0-0.014 0.033-0.049 0.029-0.058-0.010 0-0.033 0-0.029-0.023 0-0.020 0.033-0.043 0.062-0.038 0.022-0.018 0.049-0.028 0.078-0.029 0.033 0 0.062 0.010 0.062 0.029s-0.038 0.062-0.053 0.072c-0.016 0.015-0.035 0.026-0.054 0.010v-0zM8.404 13.272c0 0-0.038 0.004-0.038 0.023 0 0.010 0.010 0.010 0.023 0.004 0.008-0 0.016-0.002 0.023-0.004 0.004 0.004 0.004 0.023 0.033 0.023 0.024-0.003 0.047-0.011 0.068-0.023 0.023-0.010 0.043-0.020 0.043-0.038-0.010-0.033-0.029-0.049-0.058-0.049-0.015-0.001-0.030 0.002-0.043 0.010 0 0-0.010-0.020-0.043 0s-0.029 0.019-0.019 0.029c0.017 0.015 0.012 0.026 0.012 0.026l-0-0.001zM8.185 13.474c0-0.010 0.049-0.029 0.062-0.023 0.014 0.004 0.052 0.078 0.052 0.085 0 0.010-0.048 0.033-0.068 0.033s-0.052-0.033-0.052-0.038c0-0.004 0.023-0.010 0.023-0.014 0.006-0.010-0.017-0.033-0.017-0.043v-0zM8.031 13.191c0.010-0.004 0.010-0.014 0.023-0.023 0.004-0.003 0.009-0.005 0.014-0.005s0.010-0 0.015 0.001c0.003-0.006 0.008-0.011 0.014-0.015s0.012-0.007 0.019-0.008c0.023-0.004 0.043 0 0.038 0.010 0 0.029 0.019 0.049 0.019 0.072s-0.014 0.052-0.062 0.072c-0.048 0.014-0.115 0.014-0.124 0.010s-0.019-0.043-0.010-0.062c0.010-0.019 0.037-0.041 0.052-0.050h0z"></path>
<path fill="#6e6342" d="M8.093 13.204c0 0-0.033 0.019-0.033 0.029-0.003 0.009-0.004 0.019-0.004 0.029 0 0.006 0.043-0.004 0.049-0.010 0.002-0.004-0.012-0.038-0.012-0.049z"></path>
<path fill="#585136" d="M7.804 13.113c0.019 0.004 0.052-0 0.078 0.010 0.019 0.010 0.033 0.029 0.014 0.053s-0.038 0.058-0.082 0.052c-0.049-0.004-0.095-0.029-0.095-0.049-0.001-0.012 0.001-0.025 0.005-0.036s0.010-0.022 0.018-0.032c0.020-0.016 0.029-0.006 0.062 0.002h0z"></path>
<path fill="#574f35" d="M7.781 13.132c0 0-0.062 0.048-0.078 0.072-0.019 0.023-0.115 0.144-0.144 0.169 0.010-0.017 0.021-0.033 0.033-0.049-0.038 0.025-0.067 0.062-0.082 0.105-0.023 0.072 0.13 0.111 0.231 0.14s0.14 0.038 0.14 0.038c-0.037-0.056-0.069-0.115-0.095-0.177-0.038-0.091-0.058-0.101-0.033-0.144 0.019-0.043 0.049-0.072 0.049-0.105-0.012-0.031-0.021-0.050-0.021-0.050z"></path>
<path fill="#252211" d="M5.567 13.286c0.014 0.003 0.029 0.003 0.043 0 0.029-0.004 0.332-0.115 0.649-0.095 0.237 0.014 0.472 0.053 0.701 0.115 0.398 0.105 0.893 0.313 1.214 0.431 0.085 0.033 0.169 0.091 0.23 0.114 0.245 0.095 0.254 0.095 0.398 0.12 0.169 0.023 0.342-0.033 0.522-0.072 0.221-0.049 0.6-0.072 0.932-0.12 0.107-0.015 0.213-0.039 0.317-0.072 0 0-0.264 0.264-0.897 0.359-0.256 0.039-0.516 0.042-0.773 0.010-0.202-0.019-0.336-0.049-0.437-0.078-0.115-0.033-0.35-0.12-0.639-0.192-0.202-0.052-0.427-0.091-0.685-0.14-0.637-0.117-1.328-0.25-1.574-0.381l0-0.001z"></path>
<path fill="#cfb66c" d="M4.853 12.086c-0.154 0.13-0.317 0.254-0.476 0.375l-0.48 0.368c-0.163 0.12-0.322 0.245-0.486 0.365s-0.326 0.235-0.499 0.346c0.154-0.13 0.317-0.25 0.48-0.369s0.332-0.234 0.489-0.355l0.48-0.369c0.165-0.12 0.324-0.245 0.491-0.361v-0zM4.004 13.445c0 0 0.173-0.144 0.388-0.346 0.268-0.25 0.596-0.571 0.701-0.629l-1.089 0.975z"></path>
<path fill="#cfb66c" d="M4.004 13.445c0.086-0.085 0.177-0.169 0.268-0.25l0.14-0.12c0.043-0.038 0.091-0.082 0.134-0.124 0.085-0.085 0.169-0.177 0.254-0.264 0.042-0.044 0.087-0.085 0.134-0.124 0.023-0.021 0.050-0.038 0.078-0.053 0.023-0.014 0.049-0.038 0.082-0.043-0.019 0.029-0.043 0.043-0.062 0.068-0.023 0.019-0.043 0.043-0.062 0.062-0.043 0.043-0.091 0.082-0.134 0.12-0.091 0.078-0.186 0.154-0.278 0.235s-0.177 0.169-0.268 0.25c-0.099 0.084-0.19 0.165-0.285 0.243v-0zM5.165 12.668c0 0-0.633 0.62-0.763 0.72l0.763-0.72z"></path>
<path fill="#cfb66c" d="M5.166 12.668c-0.057 0.066-0.118 0.128-0.183 0.186l-0.192 0.183c-0.062 0.062-0.12 0.124-0.186 0.186-0.068 0.058-0.13 0.115-0.202 0.169l0.186-0.182c0.062-0.062 0.13-0.114 0.196-0.177l0.186-0.183c0.064-0.064 0.126-0.126 0.194-0.183zM5.195 13.004c-0.058 0.163-0.127 0.322-0.206 0.476-0.163 0.326-0.408 0.734-0.515 0.942l0.72-1.418z"></path>
<path fill="#cfb66c" d="M5.194 13.004c0 0.072-0.019 0.134-0.043 0.196s-0.049 0.123-0.078 0.183c-0.029 0.058-0.062 0.12-0.095 0.177s-0.072 0.114-0.101 0.173l-0.196 0.346c-0.068 0.115-0.134 0.231-0.206 0.342 0.049-0.124 0.115-0.241 0.177-0.355 0.068-0.115 0.13-0.23 0.192-0.35 0.030-0.059 0.057-0.12 0.082-0.182 0.029-0.062 0.058-0.12 0.082-0.177 0.029-0.062 0.052-0.12 0.082-0.177 0.033-0.060 0.060-0.119 0.105-0.175h0z"></path>
<path fill="#dec270" d="M5.886 14.596c0 0-0.192 0.254-0.173 0.577 0.052-0.169 0.118-0.427 0.173-0.577zM6.068 14.851c0 0-0.068 0.691-0.124 1.031 0.080-0.393 0.095-0.36 0.124-1.031zM7.34 15.923c0 0-0.287 0.845-0.293 1.080 0.062-0.241 0.183-0.735 0.293-1.080v0.001z"></path>
<path fill="#cbaf59" d="M8.012 14.544c0 0 0.466 0.769 0.816 1.425-0.095-0.33-0.312-0.936-0.816-1.425z"></path>
<path fill="#e3c677" d="M9.264 15.676c0.256 0.452 0.487 0.918 0.691 1.396-0.039-0.33-0.144-0.895-0.691-1.396z"></path>
<path fill="#ecd592" d="M12.946 16.81c0.078-0.049 0.231-0.313 0.365-0.379 0.134-0.068 0.235-0.082 0.355-0.216 0.12-0.14 0.154-0.225 0.417-0.336 0.369-0.159 0.115-0.365 0.115-0.365 0.041-0.040 0.084-0.077 0.13-0.111 0.095-0.072 0.206-0.159 0.196-0.313-0.014-0.258-0.062-0.633-0.274-0.85 0.206-0.043 0.6-0.072 0.845-0.134 0.283-0.072 0.414-0.173 0.414-0.173s-0.163-0.278 0.101-0.557c0.264-0.28 0.48-0.447 0.639-0.759-0.183-0.023-0.461-0.12-1.171 0.15 0.038 0.018 0.075 0.039 0.111 0.062 0 0-0.437 0.12-0.596 0.254-0.278 0.235-0.313 0.427-0.614 0.571s-0.604 0.105-0.854 0.221c-0.25 0.116-0.287 0.216-0.379 0.258 0.020 0.023-0.004 0.062 0.033 0.095-0.023 0.033-0.159 0.254-0.297 0.254 0.014 0.053 0.13 0.091 0.13 0.091s-0.085 0.062-0.303 0.078c0.111 0.115 0.216 0.241 0.505 0.423-0.023 0.049-0.12 0.12-0.082 0.212 0.043 0.091 0.154 0.216 0.596 0.316-0.225 0.010-0.489 0.062-0.845 0.014-0.355-0.043-0.414-0.068-0.633-0.014 0.023 0.023 0.085 0.023 0.14 0.085-0.058 0.004-0.423-0.043-0.548 0.12-0.13 0.169-0.186 0.447-0.177 0.633-0.068 0.033-0.134 0.091-0.101 0.212s0.206 0.159 0.317 0.235c0.111 0.082 0.12 0.111 0.225 0.091 0.111-0.023 0.274-0.134 0.369-0.134s0.163 0.072 0.163 0.072 0.258-0.124 0.284-0.101c0.023 0.023 0.004 0.173 0.029 0.196 0.026 0.017 0.316-0.155 0.394-0.204h-0.001z"></path>
<path fill="#fff" opacity="0.8" d="M18.591 9.039c-1.214-3.134-4.214-3.715-4.214-3.715h-8.559l0.033 3.192h1.705v7.128h-1.738v3.186h8.322c2.006 0 3.614-2.016 3.614-2.016 2.575-3.654 0.837-7.777 0.837-7.777h0zM14.185 14.668c0 0-0.653 0.942-1.363 0.942h-1.421l-0.034-7.085h1.823c0 0 0.845 0.177 1.435 1.848 0 0 0.782 2.394-0.441 4.295z"></path>
</svg>
