<!-- Generated by IcoMoon.io -->
<svg version="1.1" xmlns="http://www.w3.org/2000/svg" width="24" height="24" viewBox="0 0 24 24"><title>DOT</title>
<path fill="#e6007a" d="M12 0c6.627 0 12 5.373 12 12s-5.373 12-12 12c-6.627 0-12-5.373-12-12s5.373-12 12-12z"></path>
<path fill="#fff" d="M11.999 6.245c1.986 0 3.596-0.936 3.596-2.091s-1.61-2.091-3.596-2.091c-1.986 0-3.596 0.936-3.596 2.091s1.61 2.091 3.596 2.091z"></path>
<path fill="#fff" d="M11.999 22.002c1.986 0 3.596-0.936 3.596-2.091s-1.61-2.091-3.596-2.091c-1.986 0-3.596 0.936-3.596 2.091s1.61 2.091 3.596 2.091z"></path>
<path fill="#fff" d="M6.988 9.14c0.993-1.72 0.986-3.582-0.014-4.16s-2.617 0.348-3.61 2.067-0.986 3.582 0.014 4.16c1.001 0.578 2.617-0.348 3.61-2.067z"></path>
<path fill="#fff" d="M20.633 17.017c0.993-1.72 0.987-3.582-0.013-4.159s-2.616 0.348-3.609 2.068c-0.993 1.72-0.987 3.582 0.013 4.159s2.616-0.348 3.609-2.068z"></path>
<path fill="#fff" d="M6.975 19.085c1.001-0.578 1.007-2.44 0.014-4.16s-2.609-2.645-3.61-2.068c-1.001 0.578-1.007 2.44-0.014 4.16s2.609 2.645 3.61 2.068z"></path>
<path fill="#fff" d="M20.62 11.208c1-0.577 1.006-2.44 0.013-4.159s-2.609-2.646-3.609-2.068c-1 0.577-1.006 2.44-0.013 4.159s2.609 2.646 3.609 2.068z"></path>
</svg>
