<svg width="32" height="32" viewBox="0 0 32 32" fill="none" xmlns="http://www.w3.org/2000/svg">
<g clip-path="url(#clip0_23_5560)">
<rect width="32" height="32" rx="16" fill="#E9983D" style="fill:#E9983D;fill:color(display-p3 0.9137 0.5961 0.2392);fill-opacity:1;"/>
<g clip-path="url(#clip1_23_5560)">
<path d="M25.3551 0.174805H6.64475C3.0715 0.174805 0.174805 3.0715 0.174805 6.64475V25.3551C0.174805 28.9284 3.0715 31.8251 6.64475 31.8251H25.3551C28.9284 31.8251 31.8251 28.9284 31.8251 25.3551V6.64475C31.8251 3.0715 28.9284 0.174805 25.3551 0.174805Z" fill="url(#paint0_linear_23_5560)" style=""/>
<path d="M20.1646 7.51917L7.8689 24.8292H11.6439L24.0034 7.51917H20.1646Z" fill="white" style="fill:white;fill-opacity:1;"/>
<path d="M12.0373 7.51917L15.655 12.6199L13.7675 15.4021L8.18359 7.51917H12.0373Z" fill="url(#paint1_linear_23_5560)" style=""/>
<path d="M20.5309 24.8306L16.52 19.189L18.4075 16.484L24.306 24.8306H20.5309Z" fill="url(#paint2_linear_23_5560)" style=""/>
<path d="M25.3551 0.174805H6.64475C3.0715 0.174805 0.174805 3.0715 0.174805 6.64475V25.3551C0.174805 28.9284 3.0715 31.8251 6.64475 31.8251H25.3551C28.9284 31.8251 31.8251 28.9284 31.8251 25.3551V6.64475C31.8251 3.0715 28.9284 0.174805 25.3551 0.174805Z" stroke="#2D2D3C" style="stroke:#2D2D3C;stroke:color(display-p3 0.1765 0.1765 0.2353);stroke-opacity:1;" stroke-width="2"/>
</g>
</g>
<defs>
<linearGradient id="paint0_linear_23_5560" x1="25.7923" y1="-4.28421" x2="18.0109" y2="28.0655" gradientUnits="userSpaceOnUse">
<stop stop-color="#2C2C3C" style="stop-color:#2C2C3C;stop-color:color(display-p3 0.1725 0.1725 0.2353);stop-opacity:1;"/>
<stop offset="1" stop-color="#1A1A26" style="stop-color:#1A1A26;stop-color:color(display-p3 0.1020 0.1020 0.1490);stop-opacity:1;"/>
</linearGradient>
<linearGradient id="paint1_linear_23_5560" x1="11.1722" y1="8.60113" x2="16.2441" y2="14.832" gradientUnits="userSpaceOnUse">
<stop stop-color="white" style="stop-color:white;stop-opacity:1;"/>
<stop offset="1" stop-color="white" stop-opacity="0.55" style="stop-color:white;stop-opacity:0.55;"/>
</linearGradient>
<linearGradient id="paint2_linear_23_5560" x1="21.3961" y1="23.5169" x2="15.1759" y2="14.9834" gradientUnits="userSpaceOnUse">
<stop stop-color="#6866F6" style="stop-color:#6866F6;stop-color:color(display-p3 0.4078 0.4000 0.9647);stop-opacity:1;"/>
<stop offset="1" stop-color="#6866F6" stop-opacity="0.36" style="stop-color:#6866F6;stop-color:color(display-p3 0.4078 0.4000 0.9647);stop-opacity:0.36;"/>
</linearGradient>
<clipPath id="clip0_23_5560">
<rect width="32" height="32" rx="16" fill="white" style="fill:white;fill-opacity:1;"/>
</clipPath>
<clipPath id="clip1_23_5560">
<rect width="32" height="32" fill="white" style="fill:white;fill-opacity:1;"/>
</clipPath>
</defs>
</svg>
