<!-- Generated by IcoMoon.io -->
<svg version="1.1" xmlns="http://www.w3.org/2000/svg" width="24" height="24" viewBox="0 0 24 24"><title>EGLD</title>
<path fill="#000" d="M12 0c6.627 0 12 5.373 12 12s-5.373 12-12 12c-6.627 0-12-5.373-12-12s5.373-12 12-12z"></path>
<path fill="#23f7dd" d="M12.701 12.019l5.862-3.059-0.979-1.835-5.372 2.136c-0.122 0.056-0.3 0.056-0.423 0l-5.372-2.136-0.979 1.835 5.862 3.059-5.862 3.059 0.979 1.835 5.372-2.136c0.122-0.056 0.3-0.056 0.423 0l5.372 2.136 0.979-1.835-5.862-3.059z"></path>
</svg>
