<!-- Generated by IcoMoon.io -->
<svg version="1.1" xmlns="http://www.w3.org/2000/svg" width="24" height="24" viewBox="0 0 24 24"><title>EOS</title>
<path fill="#000" d="M12 0c6.627 0 12 5.373 12 12s-5.373 12-12 12c-6.627 0-12-5.373-12-12s5.373-12 12-12z"></path>
<path fill="#fff" d="M11.974 2.156l-4.607 6.339-1.929 9.371 6.536 3.977 6.536-3.977-1.969-9.411-4.567-6.3zM6.501 17.434l1.457-7.127 3.308 10.041-4.764-2.914zM8.43 8.692l3.544-4.882 3.544 4.882-3.544 10.71-3.544-10.71zM12.643 20.348l3.308-10.041 1.457 7.127-4.764 2.914z"></path>
</svg>
