<!-- Generated by IcoMoon.io -->
<svg version="1.1" xmlns="http://www.w3.org/2000/svg" width="24" height="24" viewBox="0 0 24 24"><title>ETC</title>
<path fill="#328332" d="M12 0c6.627 0 12 5.373 12 12s-5.373 12-12 12c-6.627 0-12-5.373-12-12s5.373-12 12-12z"></path>
<path fill="#fff" d="M5.906 12.878c2.142 1.137 4.376 2.328 6.102 3.249l6.053-3.249c-2.192 3.256-4.018 5.966-6.053 8.966-2.039-2.993-4.29-6.296-6.102-8.966zM6.139 11.98l5.876-3.136 5.8 3.113-5.796 3.139-5.88-3.116zM12.009 7.84l-6.102 3.212 6.076-8.896 6.079 8.916-6.053-3.232z"></path>
<path fill="#adcdad" d="M12.009 16.127l6.053-3.249c-2.192 3.256-6.053 8.966-6.053 8.966v-5.717zM12.016 8.844l5.8 3.113-5.797 3.139-0.003-6.252zM12.009 7.84l-0.027-5.684 6.079 8.916-6.053-3.232z"></path>
<path fill="#aeceae" d="M6.139 11.98l5.877 0.482 5.8-0.502-5.797 3.139-5.88-3.119z"></path>
<path fill="#5b9c5b" d="M12.015 12.462l5.8-0.502-5.797 3.139-0.003-2.637z"></path>
</svg>
