<svg width="32" height="32" viewBox="0 0 32 32" fill="none" xmlns="http://www.w3.org/2000/svg">
<rect width="32" height="32" rx="16" fill="#DB5A3F" style="fill:#DB5A3F;fill:color(display-p3 0.8588 0.3529 0.2471);fill-opacity:1;"/>
<path d="M13.7656 9.46673C9.87104 10.9642 9.51429 14.7992 8.39757 16.5902C7.26763 18.4025 4.67897 19.4025 5.03297 20.3261C5.38694 21.2496 7.97869 20.2576 10.0291 20.8469C12.0553 21.4292 14.8823 24.0403 18.7768 22.5428C20.7608 21.78 22.1974 20.2099 22.858 18.3502C22.9291 18.1505 22.7962 17.937 22.5855 17.9173C22.4545 17.905 22.3288 17.9737 22.2697 18.0914C21.6721 19.2836 20.647 20.2654 19.3055 20.781C17.0908 21.6326 14.6676 20.964 13.1794 19.2873C12.8414 18.9065 12.5523 18.4731 12.3241 17.994C12.2613 17.8622 12.2017 17.7282 12.1488 17.5896C12.0956 17.4509 12.0503 17.3114 12.0088 17.1712C13.1794 16.6247 14.5301 16.0459 16.0614 15.4572C17.5629 14.8799 18.9293 14.4116 20.146 14.0371C20.9691 13.7838 21.7235 13.5731 22.4046 13.4009C22.4539 13.3886 22.5025 13.3763 22.5507 13.3643C22.6538 13.3387 22.7596 13.3938 22.7977 13.493L22.7984 13.4949C22.8209 13.5537 22.8402 13.6129 22.861 13.672C22.9957 14.0537 23.0967 14.4394 23.1634 14.826C23.1926 14.9951 23.3772 15.0872 23.5285 15.0059C24.0876 14.7052 24.599 14.412 25.056 14.1298C26.7591 13.0793 27.7032 12.1884 27.5094 11.6835C27.316 11.1783 26.0192 11.1493 24.0519 11.5098C23.4267 11.6244 22.7335 11.7784 21.9865 11.9691C21.8573 12.002 21.7266 12.0362 21.5943 12.0713C20.9656 12.2383 20.3026 12.4296 19.6121 12.6437C18.3281 13.042 16.9506 13.5192 15.5284 14.066C14.198 14.5777 12.937 15.1082 11.7806 15.6368C11.7665 13.3932 13.1206 11.2722 15.3353 10.4208C16.6765 9.90509 18.0943 9.94731 19.335 10.4331C19.4574 10.4812 19.5967 10.4479 19.6862 10.3509C19.8295 10.1953 19.7856 9.9476 19.5995 9.84657C17.8661 8.90793 15.7496 8.704 13.7656 9.46673Z" fill="white" style="fill:white;fill-opacity:1;"/>
</svg>
