<!-- Generated by IcoMoon.io -->
<svg version="1.1" xmlns="http://www.w3.org/2000/svg" width="24" height="24" viewBox="0 0 24 24"><title>FET</title>
<path fill="#202944" d="M12 0c6.627 0 12 5.373 12 12s-5.373 12-12 12c-6.627 0-12-5.373-12-12s5.373-12 12-12z"></path>
<path fill="#fff" d="M9.489 5.526h1.564v1.632h-1.564v-1.632zM5.545 5.526h1.632v1.632h-1.632v-1.632zM7.109 9.471v1.632h-1.632v-1.632h1.632zM6.701 18.447h-0.68v-0.612h0.612v0.612h0.068zM7.177 15.183h-1.632v-1.564h1.632v1.564zM10.645 18.447h-0.612v-0.612h0.612v0.612zM10.645 14.639h-0.612v-0.612h0.612v0.612zM11.121 11.171h-1.632v-1.632h1.632v1.632zM14.59 18.447h-0.612v-0.612h0.612v0.612zM14.59 14.639h-0.612v-0.612h0.612v0.612zM14.59 10.627h-0.612v-0.612h0.612v0.612zM15.134 7.159h-1.632v-1.632h1.632v1.632zM18.602 18.447h-0.612v-0.612h0.612v0.612zM18.602 14.639h-0.612v-0.612h0.612v0.612zM18.602 10.627h-0.612v-0.612h0.612v0.612zM18.602 6.683h-0.612v-0.612h0.612v0.612z"></path>
</svg>
