<!-- Generated by IcoMoon.io -->
<svg version="1.1" xmlns="http://www.w3.org/2000/svg" width="24" height="24" viewBox="0 0 24 24"><title>FLOW</title>
<path fill="#00ef8b" d="M12 0c6.627 0 12 5.373 12 12s-5.373 12-12 12c-6.627 0-12-5.373-12-12s5.373-12 12-12z"></path>
<path fill="#fff" d="M17.256 10.128h-3.384v3.384h3.384v-3.384z"></path>
<path fill="#fff" d="M10.488 14.784c0 0.696-0.576 1.272-1.272 1.272s-1.272-0.576-1.272-1.272c0-0.696 0.576-1.272 1.272-1.272h1.272v-3.384h-1.272c-2.568 0-4.656 2.088-4.656 4.656s2.088 4.656 4.656 4.656c2.568 0 4.656-2.088 4.656-4.656v-1.272h-3.384v1.272z"></path>
<path fill="#fff" d="M15.144 8.424h3.816v-3.384h-3.816c-2.568 0-4.656 2.088-4.656 4.656v0.432h3.384v-0.432c0-0.696 0.576-1.272 1.272-1.272z"></path>
<path fill="#16ff99" d="M13.872 10.128h-3.384v3.384h3.384v-3.384z"></path>
</svg>
