<!-- Generated by IcoMoon.io -->
<svg version="1.1" xmlns="http://www.w3.org/2000/svg" width="24" height="24" viewBox="0 0 24 24"><title>FLR</title>
<path fill="#e62058" d="M12 0c6.627 0 12 5.373 12 12s-5.373 12-12 12c-6.627 0-12-5.373-12-12s5.373-12 12-12z"></path>
<path fill="#fff" d="M8.483 4.972c-1.906-0.006-3.464 1.513-3.509 3.424 0 0.051 0.039 0.090 0.090 0.090h10.453c1.906 0.006 3.464-1.513 3.514-3.424 0-0.051-0.045-0.090-0.090-0.090h-10.458z"></path>
<path fill="#fff" d="M15.416 10.251h-6.933c-1.906-0.006-3.464 1.513-3.514 3.419 0 0.051 0.039 0.090 0.090 0.090h6.933c1.906 0.006 3.464-1.513 3.514-3.424 0-0.051-0.045-0.090-0.090-0.090v0.006z"></path>
<path fill="#fff" d="M8.489 17.263c0 0.975-0.788 1.765-1.76 1.765s-1.76-0.79-1.76-1.765c0-0.975 0.788-1.766 1.76-1.766s1.76 0.791 1.76 1.766z"></path>
</svg>
