<!-- Generated by IcoMoon.io -->
<svg version="1.1" xmlns="http://www.w3.org/2000/svg" width="24" height="24" viewBox="0 0 24 24"><title>FTM</title>
<path fill="#1969ff" d="M12 0c6.627 0 12 5.373 12 12s-5.373 12-12 12c-6.627 0-12-5.373-12-12s5.373-12 12-12z"></path>
<path fill="#fff" d="M11.272 3.816c0.404-0.213 1.019-0.213 1.424 0l4.125 2.175c0.244 0.128 0.377 0.32 0.401 0.517h0.004v10.932c-0.005 0.215-0.14 0.429-0.405 0.569l-4.125 2.175c-0.404 0.213-1.019 0.213-1.424 0l-4.125-2.175c-0.264-0.139-0.39-0.354-0.396-0.569-0.001-0.022-0.001-0.040-0-0.055l0-10.803c-0.001-0.015-0.001-0.030-0-0.045l0-0.028h0.002c0.018-0.2 0.146-0.386 0.395-0.517l4.125-2.175zM16.57 12.586l-3.876 2.050c-0.404 0.214-1.018 0.214-1.422 0l-3.867-2.045v4.816l3.867 2.034c0.229 0.122 0.466 0.241 0.697 0.247l0.013 0c0.231 0.001 0.455-0.117 0.682-0.228l3.904-2.071v-4.803zM6.104 17.203c0 0.419 0.048 0.694 0.144 0.889 0.079 0.161 0.199 0.284 0.416 0.433l0.012 0.008c0.048 0.033 0.1 0.067 0.164 0.107l0.076 0.047 0.232 0.141-0.333 0.555-0.26-0.158-0.044-0.027c-0.075-0.047-0.137-0.087-0.195-0.126-0.62-0.422-0.852-0.882-0.856-1.839l-0-0.029h0.643zM11.672 9.68c-0.030 0.010-0.058 0.022-0.084 0.036l-4.119 2.182c-0.004 0.002-0.008 0.005-0.012 0.007l-0.003 0.002 0.006 0.004 0.009 0.005 4.119 2.182c0.026 0.014 0.054 0.026 0.084 0.036v-4.453zM12.328 9.68v4.453c0.030-0.010 0.058-0.022 0.084-0.036l4.119-2.182c0.004-0.002 0.008-0.005 0.012-0.007l0.004-0.002-0.006-0.004-0.009-0.005-4.119-2.182c-0.026-0.014-0.054-0.026-0.084-0.036zM16.57 7.289l-3.703 1.945 3.703 1.945v-3.891zM7.406 7.289v3.891l3.703-1.945-3.703-1.945zM12.408 4.398c-0.214-0.113-0.602-0.113-0.817 0l-4.123 2.18c-0.004 0.002-0.008 0.005-0.012 0.007l-0.003 0.002 0.006 0.004 0.009 0.005 4.123 2.18c0.214 0.113 0.602 0.113 0.817 0l4.123-2.18c0.004-0.002 0.008-0.005 0.012-0.007l0.004-0.002-0.006-0.004-0.009-0.005-4.123-2.18zM17.184 4.617l0.26 0.158 0.044 0.027c0.075 0.047 0.137 0.087 0.195 0.126 0.62 0.422 0.852 0.882 0.856 1.839l0 0.029h-0.643c0-0.419-0.048-0.695-0.144-0.889-0.079-0.161-0.199-0.284-0.416-0.433l-0.012-0.009c-0.048-0.032-0.1-0.067-0.164-0.107l-0.076-0.047-0.232-0.141 0.333-0.555z"></path>
</svg>
