<!-- Generated by IcoMoon.io -->
<svg version="1.1" xmlns="http://www.w3.org/2000/svg" width="24" height="24" viewBox="0 0 24 24"><title>FXS</title>
<path fill="#000" d="M12 0c6.627 0 12 5.373 12 12s-5.373 12-12 12c-6.627 0-12-5.373-12-12s5.373-12 12-12z"></path>
<path fill="#fff" d="M6.682 5.165l-0.806 0.806 2.035 2.035-0.086 0.25c-0.106 0.326-0.154 0.605-0.154 0.96 0 1.181 0.614 2.189 1.709 2.784 0.442 0.24 1.2 0.509 2.035 0.73 1.632 0.422 1.891 0.49 2.208 0.643 0.442 0.211 0.662 0.432 0.749 0.778 0.038 0.154 0.038 0.48 0 0.643-0.106 0.394-0.432 0.778-0.845 0.989-0.557 0.288-1.526 0.374-2.256 0.182-0.269-0.067-0.653-0.259-0.845-0.413-0.394-0.326-0.701-0.883-0.835-1.536-0.019-0.106-0.038-0.192-0.038-0.192-0.010-0.010-2.285 0.211-2.294 0.23-0.010 0.010 0 0.096 0.010 0.211 0.067 0.509 0.25 1.123 0.461 1.546l0.125 0.25-1.978 1.978 1.613 1.613 2.035-2.035 0.173 0.077c0.931 0.394 2.323 0.509 3.677 0.317 0.326-0.048 0.797-0.154 1.037-0.25l0.144-0.058 1.949 1.949 1.613-1.613-1.805-1.805 0.115-0.23c0.24-0.47 0.336-0.874 0.355-1.43 0.038-1.056-0.24-1.853-0.864-2.506-0.653-0.682-1.382-1.008-3.446-1.526-1.459-0.365-2.083-0.614-2.333-0.931-0.25-0.307-0.269-0.749-0.058-1.066 0.125-0.182 0.432-0.384 0.768-0.49 0.374-0.125 1.008-0.182 1.478-0.134 0.989 0.106 1.488 0.528 1.709 1.45 0.029 0.115 0.048 0.211 0.058 0.211 0 0.010 1.613-0.048 2.093-0.077l0.278-0.010-0.019-0.192c-0.029-0.394-0.106-0.749-0.25-1.114l-0.077-0.211 0.998-1.008 0.998-0.998-1.613-1.613-2.035 2.035-0.25-0.096c-0.605-0.23-1.19-0.326-2.054-0.355-0.941-0.029-1.776 0.096-2.41 0.355l-0.24 0.096-2.035-2.035-0.806 0.806h0.010z"></path>
</svg>
