<!-- Generated by IcoMoon.io -->
<svg version="1.1" xmlns="http://www.w3.org/2000/svg" width="24" height="24" viewBox="0 0 24 24"><title>GALA</title>
<path fill="#fff" d="M12 0c6.627 0 12 5.373 12 12s-5.373 12-12 12c-6.627 0-12-5.373-12-12s5.373-12 12-12z"></path>
<path fill="#000" d="M5.058 7.394c-0.024-0.015-0.045-0.029-0.076-0.036 0.006-0.022 0.007-0.029 0.011-0.032s0.011-0.004 0.031-0.016l0.496-0.275c0.014-0.007 0.026-0.012 0.037-0.018 0.025-0.012 0.046-0.022 0.075-0.040 0.043-0.029 0.088-0.051 0.133-0.074 0.029-0.014 0.059-0.029 0.087-0.045 0.009-0.005 0.013-0.007 0.018-0.008s0.009-0.003 0.018-0.008l0.515-0.282c0.022-0.010 0.039-0.020 0.056-0.031 0.016-0.009 0.032-0.019 0.053-0.030l0.339-0.182c0.020-0.014 0.041-0.023 0.060-0.031 0.018-0.008 0.035-0.016 0.051-0.026 0.012-0.006 0.018-0.011 0.025-0.016s0.015-0.011 0.032-0.020l0.16-0.086c0.029-0.014 0.048-0.025 0.067-0.037 0.013-0.008 0.025-0.015 0.042-0.024l1.773-0.957c0.038-0.022 0.070-0.038 0.112-0.058l2.531-1.369c0.018-0.008 0.057-0.030 0.102-0.055 0.092-0.051 0.21-0.117 0.234-0.117 0.042 0 0.384 0.192 0.457 0.237l1.168 0.634c0.007 0.003 0.012 0.006 0.017 0.008 0.010 0.005 0.019 0.009 0.034 0.017 0.021 0.011 0.038 0.021 0.054 0.030s0.034 0.019 0.054 0.030l0.89 0.48c0.038 0.026 0.064 0.038 0.109 0.061l2.211 1.193c0.111 0.071 0.228 0.13 0.347 0.189 0.032 0.016 0.063 0.032 0.095 0.048l0.438 0.24c0.123 0.059 0.245 0.127 0.368 0.196 0.098 0.055 0.196 0.11 0.294 0.159l0.438 0.24c0.005 0.003 0.011 0.006 0.016 0.009 0.033 0.018 0.063 0.035 0.074 0.071-0.047 0.011-0.203 0.105-0.319 0.175-0.050 0.030-0.093 0.056-0.116 0.068l-0.432 0.246c-0.066 0.036-0.113 0.068-0.151 0.093-0.096 0.064-0.127 0.085-0.23 0.022-0.031-0.018-0.045-0.026-0.071-0.039-0.006-0.003-0.014-0.007-0.022-0.012l-1.209-0.656c-0.109-0.054-0.215-0.114-0.322-0.174s-0.213-0.12-0.322-0.174c-0.192-0.096-0.736-0.381-0.915-0.493l-2.035-1.097c-0.032-0.014-0.046-0.022-0.065-0.034-0.008-0.005-0.017-0.010-0.028-0.017-0.024-0.014-0.042-0.023-0.063-0.033-0.007-0.004-0.015-0.007-0.023-0.011-0.045-0.023-0.141-0.077-0.249-0.138-0.208-0.117-0.462-0.259-0.49-0.259l-0.749 0.4c-0.012 0.007-0.021 0.013-0.029 0.019-0.013 0.009-0.024 0.016-0.044 0.026l-1.84 0.992c-0.013 0.006-0.026 0.013-0.038 0.019-0.038 0.019-0.077 0.037-0.115 0.061-0.023 0.015-0.037 0.022-0.058 0.032-0.006 0.003-0.012 0.006-0.019 0.009-0.020 0.010-0.027 0.015-0.038 0.022-0.006 0.004-0.014 0.009-0.026 0.017l-1.475 0.797c-0.021 0.012-0.040 0.021-0.059 0.030-0.029 0.014-0.056 0.027-0.085 0.046-0.019 0.011-0.036 0.019-0.051 0.027-0.033 0.015-0.059 0.028-0.083 0.063 0.033 0.007 0.043 0.014 0.060 0.025 0.006 0.004 0.012 0.008 0.020 0.013l1.696 0.979c0.011 0.006 0.020 0.011 0.029 0.015 0.015 0.008 0.029 0.014 0.047 0.026 0.013 0.008 0.025 0.015 0.037 0.022s0.024 0.014 0.037 0.022l1.325 0.761c0.020 0.011 0.041 0.024 0.063 0.037 0.027 0.016 0.056 0.033 0.084 0.049 0.11 0.057 0.215 0.122 0.32 0.186 0.113 0.069 0.225 0.138 0.343 0.198l0.653 0.378c0.070-0.038 0.131-0.074 0.198-0.115 0.032-0.022 0.061-0.042 0.096-0.061 0.196-0.107 0.387-0.22 0.579-0.333 0.228-0.135 0.457-0.27 0.691-0.393l1.085 0.624c0.005 0.003 0.010 0.006 0.014 0.008 0.020 0.011 0.026 0.014 0.034 0.046-0.047 0.012-0.093 0.041-0.136 0.069-0.015 0.010-0.029 0.019-0.043 0.027l-0.339 0.195c-0.006 0.003-0.012 0.007-0.017 0.009-0.025 0.014-0.042 0.023-0.066 0.039-0.012 0.006-0.022 0.013-0.033 0.019-0.016 0.010-0.032 0.019-0.051 0.029l-0.509 0.288c-0.031 0.020-0.061 0.037-0.091 0.054-0.023 0.013-0.047 0.027-0.072 0.042l-0.336 0.198c-0.030 0.018-0.057 0.033-0.083 0.048s-0.053 0.030-0.083 0.048c-0.029 0.018-0.056 0.032-0.083 0.046s-0.054 0.029-0.083 0.046l-0.173 0.102c-0.013 0.008-0.031 0.019-0.052 0.032-0.131 0.081-0.398 0.246-0.45 0.246-0.042 0-0.454-0.25-0.569-0.32-0.019-0.011-0.036-0.022-0.053-0.032s-0.034-0.021-0.053-0.032l-0.986-0.566c-0.169-0.107-0.343-0.204-0.517-0.3-0.143-0.079-0.287-0.159-0.427-0.244-0.010-0.006-0.015-0.009-0.020-0.012-0.006-0.004-0.012-0.008-0.028-0.017l-0.662-0.384c-0.022-0.011-0.040-0.022-0.060-0.033-0.015-0.009-0.031-0.018-0.049-0.028l-0.109-0.061c-0.286-0.173-0.576-0.336-0.867-0.5-0.301-0.169-0.601-0.339-0.896-0.518l-1.216-0.704c-0.084-0.042-0.162-0.089-0.24-0.137-0.065-0.040-0.13-0.079-0.198-0.116-0.013-0.007-0.025-0.015-0.036-0.022z"></path>
<path fill="#000" d="M4.537 15.997c0.205 0.109 0.474 0.275 0.666 0.403 0.042 0.028 0.087 0.055 0.132 0.081l0 0c0.032 0.018 0.063 0.037 0.095 0.056 0.016 0.010 0.030 0.018 0.044 0.026 0.020 0.012 0.039 0.023 0.062 0.038 0.019 0.013 0.035 0.026 0.054 0.035 0.005 0.003 0.010 0.006 0.015 0.008s0.009 0.005 0.014 0.008l0 0c0.009 0.005 0.017 0.010 0.029 0.016l2.464 1.517c0.020 0.011 0.039 0.023 0.058 0.035 0.015 0.009 0.031 0.019 0.047 0.029l2.237 1.379c0.010 0.006 0.018 0.011 0.025 0.015s0.014 0.008 0.021 0.013c0.003 0.002 0.007 0.005 0.011 0.008l1.069 0.656c0.016 0.009 0.029 0.018 0.041 0.026 0.024 0.017 0.045 0.032 0.081 0.034v-8.351l-0.339-0.195c-0.024-0.012-0.041-0.023-0.062-0.035-0.006-0.004-0.013-0.008-0.021-0.013l-0.266-0.154c-0.186-0.098-0.365-0.206-0.545-0.315h-0c-0.186-0.112-0.372-0.224-0.565-0.325-0.017-0.009-0.029-0.016-0.041-0.023-0.014-0.009-0.029-0.017-0.051-0.028l-0.339-0.195c-0.083-0.051-0.461-0.278-0.528-0.294v1.318l1.389 0.803c0.012 0.007 0.023 0.014 0.034 0.020l0 0c0.022 0.013 0.041 0.025 0.065 0.037 0.013 0.006 0.023 0.013 0.034 0.020 0.021 0.013 0.040 0.025 0.072 0.032v5.654c-0.18-0.121-0.369-0.233-0.557-0.344-0.065-0.039-0.131-0.077-0.195-0.116l-0.605-0.374c-0.128-0.087-0.262-0.166-0.395-0.244-0.123-0.072-0.245-0.145-0.363-0.223-0.014-0.010-0.026-0.016-0.037-0.022s-0.022-0.013-0.037-0.022l-0.534-0.33c-0.058-0.032-0.099-0.058-0.154-0.096-0.108-0.073-0.222-0.141-0.335-0.209-0.091-0.054-0.181-0.109-0.27-0.166-0.027-0.018-0.052-0.032-0.077-0.046s-0.050-0.029-0.077-0.046c-0.212-0.143-0.435-0.275-0.655-0.406-0.086-0.051-0.172-0.102-0.257-0.154-0.026-0.016-0.048-0.032-0.070-0.048l-0.234-0.144v-6.787c-0.045-0.029-0.090-0.054-0.141-0.083s-0.090-0.051-0.141-0.083l-0.72-0.41c-0.026-0.014-0.049-0.028-0.071-0.042l-0-0c-0.025-0.016-0.049-0.031-0.076-0.044v8.102z"></path>
<path fill="#000" d="M12.393 12.017v3.209l0.426-0.24c0.098-0.051 0.191-0.108 0.285-0.165l0-0c0.094-0.057 0.187-0.114 0.285-0.165l0.010-0.005h0c0.028-0.015 0.041-0.022 0.064-0.040 0.017-0.011 0.034-0.019 0.051-0.026 0.009-0.004 0.017-0.008 0.026-0.012v-1.891c0.038-0.010 0.051-0.016 0.080-0.035 0.018-0.012 0.032-0.019 0.047-0.026h0c0.009-0.005 0.019-0.009 0.029-0.015 0.057-0.033 0.113-0.068 0.17-0.103l0-0c0.093-0.058 0.186-0.115 0.281-0.163 0.159-0.078 0.313-0.172 0.465-0.265l0-0c0.046-0.028 0.093-0.056 0.139-0.084 0.034-0.019 0.064-0.037 0.097-0.057 0.016-0.009 0.032-0.019 0.050-0.030l0.301-0.17c0.016-0.010 0.026-0.016 0.037-0.022 0.006-0.004 0.013-0.008 0.021-0.013 0.005-0.003 0.010-0.006 0.016-0.010 0.067-0.034 0.132-0.074 0.197-0.115h0c0.062-0.039 0.125-0.078 0.191-0.112l0.147-0.086c0.017-0.011 0.034-0.018 0.051-0.026 0.005-0.002 0.010-0.004 0.014-0.007 0.004-0.002 0.007-0.004 0.011-0.005l0.982-0.57c0.107-0.056 0.21-0.118 0.313-0.18l0-0c0.096-0.058 0.193-0.116 0.292-0.169l0.304-0.179c0.038-0.022 0.075-0.044 0.112-0.065l0.001-0c0.064-0.037 0.127-0.073 0.191-0.114 0.019-0.011 0.037-0.021 0.054-0.031 0.032-0.018 0.062-0.035 0.093-0.055l0.16-0.090v5.475c-0.032 0.007-0.048 0.017-0.069 0.031-0.008 0.005-0.017 0.011-0.027 0.017l-0.282 0.173c-0.010 0.006-0.018 0.012-0.027 0.018l-0 0c-0.018 0.012-0.035 0.024-0.059 0.039-0.021 0.012-0.039 0.024-0.055 0.035l-0 0c-0.013 0.009-0.026 0.017-0.041 0.026-0.018 0.010-0.031 0.018-0.045 0.027s-0.027 0.018-0.045 0.027l-0.285 0.17c-0.128 0.074-0.252 0.152-0.376 0.23s-0.248 0.157-0.376 0.23l-0.749 0.464c-0.018 0.011-0.031 0.019-0.045 0.027s-0.027 0.016-0.045 0.027c-0.183 0.123-0.372 0.236-0.561 0.348l-0 0c-0.159 0.094-0.318 0.188-0.472 0.289-0.038 0.026-0.076 0.049-0.115 0.072-0.024 0.014-0.047 0.028-0.071 0.043l-0.938 0.576c-0.029 0.016-0.061 0.035-0.090 0.054-0.139 0.091-0.282 0.176-0.424 0.261s-0.285 0.17-0.424 0.261l-0.381 0.234v1.344c0.048-0.012 0.117-0.058 0.173-0.095 0.019-0.013 0.036-0.024 0.051-0.033 0.032-0.020 0.063-0.038 0.094-0.056 0.044-0.026 0.088-0.051 0.133-0.081 0.107-0.072 0.219-0.138 0.331-0.203s0.224-0.131 0.331-0.203c0.008-0.005 0.016-0.010 0.024-0.015s0.017-0.011 0.025-0.016c0.021-0.014 0.041-0.027 0.063-0.040l0.566-0.349c0.019-0.011 0.036-0.022 0.053-0.032s0.034-0.021 0.053-0.032l3.014-1.856c0.042-0.026 0.077-0.048 0.112-0.070l2.013-1.238c0.038-0.026 0.077-0.048 0.115-0.067v-8.089c-0.040 0.009-0.056 0.021-0.078 0.035-0.010 0.007-0.020 0.014-0.034 0.022-0.042 0.022-0.070 0.038-0.109 0.061l-0.669 0.387c-0.103 0.055-0.202 0.116-0.301 0.176-0.121 0.074-0.241 0.148-0.368 0.211l-1.789 1.030c-0.047 0.026-0.088 0.052-0.13 0.077-0.029 0.018-0.059 0.036-0.091 0.054l-0.33 0.192c-0.234 0.118-0.573 0.32-0.787 0.454-0.019 0.013-0.037 0.022-0.054 0.030s-0.035 0.018-0.054 0.030l-0.726 0.422c-0.019 0.009-0.024 0.013-0.032 0.019h-0c-0.005 0.004-0.012 0.008-0.025 0.016l-0.227 0.125c-0.067 0.035-0.13 0.074-0.194 0.114s-0.126 0.078-0.194 0.114c-0.017 0.008-0.025 0.014-0.032 0.020s-0.013 0.009-0.025 0.016l-0.227 0.125c-0.058 0.029-0.153 0.088-0.255 0.151-0.161 0.1-0.339 0.211-0.414 0.227z"></path>
</svg>
