<!-- Generated by IcoMoon.io -->
<svg version="1.1" xmlns="http://www.w3.org/2000/svg" width="24" height="24" viewBox="0 0 24 24"><title>GNO</title>
<path fill="#000" d="M12 0c6.627 0 12 5.373 12 12s-5.373 12-12 12c-6.627 0-12-5.373-12-12s5.373-12 12-12z"></path>
<path fill="#fff" d="M6.18 5.892c3.371-3.213 8.71-3.087 11.923 0.284 0.209 0.221 0.41 0.449 0.591 0.69l-6.695 6.699-6.695-6.699c0.185-0.241 0.382-0.469 0.591-0.69 0.091-0.095 0.185-0.189 0.284-0.284zM17.189 6.815c-1.38-1.388-3.217-2.149-5.189-2.149s-3.809 0.761-5.189 2.149l5.189 5.189 5.189-5.189z"></path>
<path fill="#fff" d="M19.219 7.627l-1.36 1.36c1.096 1.313 0.923 3.269-0.39 4.365-1.151 0.962-2.823 0.962-3.974 0l-1.494 1.494-1.49-1.49c-1.313 1.096-3.269 0.923-4.365-0.39-0.962-1.151-0.962-2.823 0-3.974l-0.698-0.698-0.662-0.666c-0.8 1.317-1.222 2.831-1.222 4.373 0 4.66 3.777 8.438 8.437 8.438s8.438-3.777 8.438-8.438c0.004-1.542-0.422-3.056-1.218-4.373z"></path>
<path fill="#fff" d="M17.212 9.634c0.296 0.382 0.457 0.856 0.457 1.341s-0.162 0.958-0.457 1.341c-0.741 0.958-2.117 1.135-3.075 0.394l3.075-3.075z"></path>
<path fill="#fff" d="M9.863 12.713c-0.382 0.296-0.856 0.457-1.341 0.457s-0.954-0.162-1.341-0.453c-0.958-0.741-1.136-2.121-0.394-3.079l3.075 3.075z"></path>
</svg>
