<!-- Generated by IcoMoon.io -->
<svg version="1.1" xmlns="http://www.w3.org/2000/svg" width="24" height="24" viewBox="0 0 24 24"><title>GRT</title>
<path fill="#6747ed" d="M12 0c6.627 0 12 5.373 12 12s-5.373 12-12 12c-6.627 0-12-5.373-12-12s5.373-12 12-12z"></path>
<path fill="#fff" d="M11.825 13.55c1.775 0 3.2-1.425 3.2-3.2s-1.425-3.2-3.2-3.2c-1.775 0-3.2 1.425-3.2 3.2s1.425 3.2 3.2 3.2zM11.825 5.55c2.65 0 4.8 2.15 4.8 4.8s-2.15 4.8-4.8 4.8c-2.65 0-4.8-2.15-4.8-4.8s2.15-4.8 4.8-4.8zM16.4 15.4c0.325 0.325 0.325 0.825 0 1.125l-3.2 3.2c-0.325 0.325-0.825 0.325-1.125 0-0.325-0.325-0.325-0.825 0-1.125l3.2-3.2c0.3-0.325 0.825-0.325 1.125 0zM18.25 6.35c0 0.45-0.35 0.8-0.8 0.8s-0.8-0.35-0.8-0.8c0-0.45 0.35-0.8 0.8-0.8 0.425 0 0.8 0.35 0.8 0.8z"></path>
</svg>
