<!-- Generated by IcoMoon.io -->
<svg version="1.1" xmlns="http://www.w3.org/2000/svg" width="24" height="24" viewBox="0 0 24 24"><title>GT</title>
<path fill="#fff" d="M12 0c6.627 0 12 5.373 12 12s-5.373 12-12 12c-6.627 0-12-5.373-12-12s5.373-12 12-12z"></path>
<path fill="#d35756" d="M20.438 7.702l-5.467 2.873v3.332l1.88-1.001v1.932l-5.299 3.060-4.258-2.46c-0.316-0.183-0.579-0.446-0.762-0.762s-0.279-0.676-0.279-1.041v-4.917l4.395-2.538c0.275-0.159 0.586-0.242 0.904-0.242s0.629 0.084 0.904 0.242l4.395 2.538 2.69-1.554-6.847-3.953c-0.348-0.2-0.742-0.306-1.143-0.306s-0.795 0.105-1.143 0.306l-6.845 3.954v8.020c0 0.367 0.096 0.727 0.28 1.044s0.447 0.581 0.764 0.764l6.946 4.010 6.936-4.004c0.32-0.185 0.587-0.451 0.771-0.771s0.282-0.684 0.282-1.054v-3.7l0.896-0.476v-3.297h0z"></path>
</svg>
