<!-- Generated by IcoMoon.io -->
<svg version="1.1" xmlns="http://www.w3.org/2000/svg" width="24" height="24" viewBox="0 0 24 24"><title>GUSD</title>
<path fill="#00dcfa" d="M12 0c6.627 0 12 5.373 12 12s-5.373 12-12 12c-6.627 0-12-5.373-12-12s5.373-12 12-12z"></path>
<path fill="#fff" d="M14.534 3.75c-2.902 0-5.368 2.232-5.678 5.105-2.875 0.31-5.106 2.776-5.106 5.678 0.001 1.516 0.603 2.97 1.675 4.042s2.525 1.675 4.041 1.676c2.902 0 5.378-2.232 5.678-5.105 2.874-0.311 5.106-2.776 5.106-5.678-0.001-1.516-0.603-2.97-1.675-4.042s-2.525-1.675-4.041-1.676zM18.91 10.107c-0.143 0.938-0.581 1.805-1.252 2.476s-1.538 1.109-2.476 1.252v-3.727h3.727zM5.089 13.893c0.141-0.939 0.579-1.809 1.249-2.481s1.539-1.113 2.478-1.256v3.727h-3.728v0.010zM13.844 15.183c-0.155 1.050-0.682 2.009-1.486 2.703s-1.83 1.074-2.892 1.073c-1.061 0.001-2.087-0.38-2.891-1.073s-1.331-1.652-1.486-2.702l8.755-0.001zM13.893 10.107v3.776h-3.786v-3.776h3.786zM18.91 8.817h-8.755c0.155-1.050 0.682-2.009 1.486-2.703s1.83-1.074 2.892-1.073c1.061-0.001 2.087 0.38 2.891 1.073s1.331 1.653 1.486 2.703z"></path>
</svg>
