<svg width="32" height="32" viewBox="0 0 32 32" fill="none" xmlns="http://www.w3.org/2000/svg">
<rect width="32" height="32" rx="16" fill="#FDFBF7" style="fill:#FDFBF7;fill:color(display-p3 0.9922 0.9843 0.9686);fill-opacity:1;"/>
<g clip-path="url(#clip0_25_54)">
<path fill-rule="evenodd" clip-rule="evenodd" d="M23.8559 11.5026L22.3632 8.96357L25.2555 8.96467C25.3325 8.96467 25.4233 9.01422 25.4648 9.08028C25.5107 9.15295 25.7453 9.52401 26.0282 9.96884C26.3664 10.5017 26.77 11.1393 27.0012 11.5026H23.8559ZM18.5061 26.88C18.436 27 18.3451 27 18.3152 27H17.133C16.5074 27 15.7864 26.9989 15.3562 26.9989L19.9516 19.0999C20.0712 18.8962 19.9942 18.6375 19.7815 18.5241C19.7159 18.4888 19.6423 18.4701 19.5675 18.4701L11.7361 18.48L10.1778 15.898H21.5858C21.587 15.898 21.5881 15.898 21.5893 15.898C21.5904 15.898 21.5916 15.898 21.5927 15.898C21.5996 15.898 21.6054 15.8958 21.6111 15.8958C21.6364 15.8947 21.6617 15.8914 21.687 15.8859C21.7054 15.8815 21.725 15.876 21.7422 15.8694C21.7514 15.8661 21.7618 15.8617 21.771 15.8584C21.8595 15.8221 21.9331 15.7582 21.9802 15.6767L23.8605 12.3482H26.9655L18.5061 26.88ZM14.5926 26.5794C14.4926 26.4219 14.3626 26.2171 14.2212 25.9947C13.7463 25.2438 13.1379 24.2826 13.0689 24.1769C13.0459 24.1417 13.0356 24.0547 13.0838 23.971C13.1943 23.7816 15.2734 20.1944 15.7806 19.3201L18.8177 19.3168L14.5926 26.5794ZM9.4142 21.6367L7.90425 19.0691L9.4257 16.3385L10.9517 18.8676C10.478 19.7231 9.73735 21.0565 9.4142 21.6367ZM7.3879 22.0364C6.6197 22.0364 5.85495 22.0364 5.7434 22.0364C5.66865 22.0364 5.5778 21.9858 5.5364 21.9208L5.04535 21.1457C4.6946 20.5929 4.24725 19.8872 4 19.4974H7.1441L8.6368 22.0364C8.31135 22.0364 7.8502 22.0364 7.3879 22.0364ZM12.4939 4.12112C12.564 4 12.6549 4 12.6837 4H15.6541L11.0461 11.899C11.0426 11.9056 11.0403 11.9122 11.0369 11.9199C11.03 11.9331 11.0242 11.9463 11.0184 11.9606C11.0138 11.9739 11.0093 11.9871 11.0058 12.0014C11.0024 12.0157 10.9989 12.0267 10.9966 12.0399C10.9943 12.0553 10.992 12.0708 10.992 12.0873C10.992 12.0939 10.9897 12.1005 10.9897 12.1082C10.9897 12.1137 10.9908 12.1181 10.992 12.1236C10.992 12.139 10.9943 12.1544 10.9966 12.1699C10.9978 12.1831 11.0001 12.1952 11.0035 12.2084C11.0069 12.2216 11.0115 12.2348 11.0161 12.248C11.0207 12.2612 11.0254 12.2733 11.0311 12.2866C11.0369 12.2998 11.0437 12.3108 11.0506 12.3218C11.0575 12.3328 11.0644 12.3449 11.0736 12.3559C11.0817 12.3669 11.0909 12.378 11.1013 12.3879C11.1104 12.3978 11.1196 12.4077 11.13 12.4176C11.1403 12.4275 11.1507 12.4341 11.1622 12.4429C11.1748 12.4517 11.1875 12.4605 11.2001 12.4682C11.2047 12.4715 11.2094 12.4748 11.2139 12.4781C11.2185 12.4815 11.2243 12.4815 11.2301 12.4848C11.2531 12.4958 11.2772 12.5057 11.3014 12.5123C11.3106 12.5145 11.3186 12.5178 11.3278 12.52C11.36 12.5277 11.3934 12.5321 11.4279 12.5321C11.4279 12.5321 11.4279 12.5321 11.429 12.5321H11.4301H11.6256C11.6268 12.5321 11.6279 12.5321 11.6279 12.5321L19.2628 12.5222C19.4652 12.858 19.8424 13.4911 20.1632 14.0295C20.4093 14.4435 20.614 14.7849 20.775 15.0535H9.41305C9.40845 15.0535 9.40385 15.0546 9.3981 15.0557C9.23825 15.0568 9.0922 15.1427 9.0163 15.277L7.1349 18.6529H4.03565C5.3892 16.3241 12.403 4.27526 12.4939 4.12112ZM16.4131 4.43051L16.6891 4.86543C17.1733 5.63067 17.8575 6.7108 17.93 6.82311C17.953 6.85835 17.9633 6.94533 17.915 7.02901L15.2194 11.6777L12.1834 11.681L16.4131 4.43051ZM21.5847 9.36105L23.0946 11.9298L21.5548 14.6549C21.3708 14.3488 21.143 13.9657 20.9291 13.6067C20.5059 12.8977 20.1978 12.3813 20.0241 12.0928C20.3542 11.518 21.2213 9.99526 21.5847 9.36105Z" fill="black" style="fill:black;fill-opacity:1;"/>
</g>
<defs>
<clipPath id="clip0_25_54">
<rect width="23" height="23" fill="white" style="fill:white;fill-opacity:1;" transform="translate(4 4)"/>
</clipPath>
</defs>
</svg>
