<!-- Generated by IcoMoon.io -->
<svg version="1.1" xmlns="http://www.w3.org/2000/svg" width="24" height="24" viewBox="0 0 24 24"><title>HT</title>
<path fill="#282e5b" d="M12 0c6.627 0 12 5.373 12 12s-5.373 12-12 12c-6.627 0-12-5.373-12-12s5.373-12 12-12z"></path>
<path fill="#fff" d="M13.74 8.754c0-2.419-1.166-4.503-2.059-5.185 0 0-0.062-0.037-0.062 0.062-0.074 4.676-2.444 5.954-3.758 7.654-3.014 3.945-0.211 8.261 2.642 9.055 1.6 0.447-0.372-0.794-0.62-3.399-0.298-3.163 3.858-5.57 3.858-8.187z"></path>
<path fill="#fff" d="M15.303 10.354c-0.012-0.012-0.037-0.012-0.062 0 0 0 0 0-0.012 0.012-0.050 0.583-0.695 1.848-1.501 3.002-2.741 3.92-1.178 5.805-0.298 6.822 0.509 0.595 0 0 1.278-0.608 0.099-0.050 2.481-1.315 2.741-4.18 0.26-2.791-1.513-4.54-2.146-5.049z"></path>
</svg>
