<!-- Generated by IcoMoon.io -->
<svg version="1.1" xmlns="http://www.w3.org/2000/svg" width="24" height="24" viewBox="0 0 24 24"><title>ICP</title>
<path fill="#fff" d="M12 0c6.627 0 12 5.373 12 12s-5.373 12-12 12c-6.627 0-12-5.373-12-12s5.373-12 12-12z"></path>
<path fill="#000" d="M16.856 7.293c-1.045 0-2.19 0.57-3.397 1.693-0.57 0.528-1.071 1.103-1.437 1.557 0 0 0.585 0.674 1.228 1.401 0.35-0.439 0.847-1.035 1.427-1.573 1.071-1.003 1.772-1.207 2.174-1.207 1.505 0 2.728 1.265 2.728 2.827 0 1.547-1.223 2.811-2.728 2.827-0.073 0-0.157-0.010-0.261-0.031 0.439 0.204 0.915 0.35 1.359 0.35 2.759 0 3.303-1.907 3.334-2.043 0.078-0.35 0.125-0.716 0.125-1.092-0.005-2.597-2.043-4.708-4.552-4.708z"></path>
<path fill="#000" d="M7.214 16.689c1.045 0 2.19-0.57 3.397-1.693 0.57-0.528 1.071-1.103 1.437-1.557 0 0-0.585-0.674-1.228-1.401-0.35 0.439-0.847 1.035-1.427 1.573-1.071 0.993-1.777 1.207-2.174 1.207-1.505 0-2.728-1.265-2.728-2.827 0-1.547 1.223-2.811 2.728-2.827 0.073 0 0.157 0.010 0.261 0.031-0.439-0.204-0.915-0.35-1.359-0.35-2.759-0.005-3.303 1.902-3.334 2.043-0.078 0.35-0.125 0.716-0.125 1.092 0 2.597 2.038 4.708 4.552 4.708z"></path>
<path fill="#29abe2" d="M9.315 10.412c-0.303-0.293-1.777-1.489-3.188-1.531-2.519-0.063-3.256 1.766-3.324 2.001 0.486-2.048 2.284-3.58 4.416-3.59 1.74 0 3.501 1.709 4.803 3.25l0.005-0.005c0 0 0.585 0.674 1.228 1.4 0 0 0.732 0.862 1.505 1.62 0.303 0.293 1.772 1.474 3.182 1.515 2.587 0.073 3.303-1.86 3.339-2.007-0.476 2.064-2.278 3.601-4.421 3.611-1.74 0-3.501-1.709-4.808-3.25 0 0.005-0.005 0.005-0.005 0.010 0 0-0.585-0.674-1.228-1.4 0.005 0-0.726-0.868-1.505-1.625z"></path>
</svg>
