<!-- Generated by IcoMoon.io -->
<svg version="1.1" xmlns="http://www.w3.org/2000/svg" width="24" height="24" viewBox="0 0 24 24"><title>ILV</title>
<path fill="#000" d="M12 0c6.627 0 12 5.373 12 12s-5.373 12-12 12c-6.627 0-12-5.373-12-12s5.373-12 12-12z"></path>
<path fill="#000" d="M12 22.973c6.060 0 10.973-4.913 10.973-10.973s-4.913-10.973-10.973-10.973c-6.060 0-10.973 4.913-10.973 10.973s4.913 10.973 10.973 10.973z"></path>
<path fill="#000" d="M12 23.645c-3.216 0-6.125-1.306-8.237-3.408-2.102-2.102-3.408-5.021-3.408-8.237s1.306-6.125 3.408-8.237c2.112-2.112 5.021-3.408 8.237-3.408s6.125 1.306 8.237 3.408c2.112 2.112 3.408 5.021 3.408 8.237s-1.306 6.125-3.408 8.237c-2.112 2.112-5.021 3.408-8.237 3.408zM4.358 19.642c1.958 1.958 4.656 3.168 7.642 3.168s5.683-1.21 7.642-3.168c1.958-1.958 3.168-4.656 3.168-7.642s-1.21-5.683-3.168-7.642c-1.958-1.958-4.656-3.168-7.642-3.168s-5.683 1.21-7.642 3.168c-1.958 1.958-3.168 4.656-3.168 7.642s1.21 5.683 3.168 7.642z"></path>
<path fill="#fff" d="M12 6.47c-0.086 2.458-0.086 5.098 0 7.555 0.077-2.467 0.077-5.098 0-7.555zM9.283 19.45l0.010 0.019c0.029-0.010 0.048-0.019 0.077-0.038 0.48-0.269 1.008-0.461 1.526-0.643 0.662-0.221 1.354-0.24 2.026-0.058 0.586 0.163 1.152 0.384 1.69 0.662 0.038 0.019 0.067 0.058 0.106 0.048-0.010-0.010-0.010-0.019-0.019-0.029-0.845-0.653-1.69-1.296-2.534-1.949-0.115-0.096-0.221-0.086-0.326 0.010-0.845 0.672-1.699 1.325-2.544 1.968l-0.010 0.010zM8.784 10.147c-0.058 0.077-0.029 0.125 0.029 0.182 0.202 0.221 0.326 0.47 0.413 0.758 0.096 0.346 0.144 0.701 0.163 1.056 0.029 0.547 0.019 1.104 0.010 1.651-0.010 0.73-0.019 1.469-0.010 2.198 0.010 0.816-0.106 1.594-0.365 2.362-0.096 0.298-0.202 0.605-0.346 0.912 0.019-0.010 0.048-0.019 0.067-0.029 0.739-0.595 1.469-1.2 2.246-1.747 0.096-0.077 0.096-0.163 0.038-0.259-0.067-0.096-0.125-0.182-0.202-0.269-0.202-0.25-0.278-0.528-0.288-0.835-0.010-0.413-0.019-0.816-0.019-1.219-0.019-1.507-0.010-3.014-0.029-4.522-0.029-1.939-0.029-3.859-0.038-5.798v-0.067h-0.029c-0.086 0.768-0.173 1.536-0.317 2.294-0.23 1.19-0.566 2.323-1.315 3.312l-0.010 0.019zM13.536 8.035c-0.029 1.728 0 3.456-0.029 5.184-0.019 0.893-0.010 1.795-0.010 2.698 0 0.461-0.096 0.874-0.422 1.21-0.029 0.038-0.058 0.077-0.086 0.106-0.077 0.106-0.058 0.192 0.058 0.269 0.739 0.528 1.45 1.104 2.15 1.68 0.038 0.029 0.067 0.067 0.125 0.067-0.24-0.528-0.394-1.075-0.528-1.622-0.058-0.211-0.096-0.432-0.115-0.653-0.048-0.538-0.038-1.075-0.048-1.622-0.019-0.922-0.010-1.853-0.010-2.784 0-0.317 0.019-0.634 0.058-0.95 0.058-0.422 0.154-0.835 0.422-1.181 0.173-0.23 0.173-0.23 0.010-0.461-0.586-0.835-0.902-1.776-1.123-2.765-0.192-0.883-0.298-1.776-0.394-2.688h-0.038c-0.019 1.171-0.019 2.333-0.029 3.504l0.010 0.010z"></path>
</svg>
