<!-- Generated by IcoMoon.io -->
<svg version="1.1" xmlns="http://www.w3.org/2000/svg" width="24" height="24" viewBox="0 0 24 24"><title>IMX</title>
<path fill="#000" d="M12 0c6.627 0 12 5.373 12 12s-5.373 12-12 12c-6.627 0-12-5.373-12-12s5.373-12 12-12z"></path>
<path fill="#fff" d="M6.57 17.625h-1.508l4.623-5.347c0.149-0.169 0.149-0.427 0-0.595l-4.583-5.308h1.448l4.613 5.347c0.119 0.159 0.139 0.387 0.010 0.536-1.21 1.399-4.603 5.367-4.603 5.367z"></path>
<path fill="#fff" d="M18.822 6.375h-1.448l-5.833 6.796c-0.149 0.169-0.159 0.437-0.010 0.605l0.159 0.198 3.125 3.651h1.508l-3.383-3.938c-0.149-0.179-0.139-0.436 0.010-0.605l5.873-6.706z"></path>
<path fill="#fff" d="M14.011 13.28c-0.030 0.139 0 0.298 0.099 0.407 0.843 0.982 3.373 3.938 3.373 3.938h1.369l-4.315-4.99-0.387 0.427c-0.060 0.060-0.109 0.139-0.139 0.218z"></path>
<path fill="#fff" d="M7.701 6.375h1.389c0 0 2.49 2.976 3.383 3.889 0.149 0.149 0.119 0.337-0.010 0.486-0.476 0.566-0.486 0.575-0.486 0.575l-4.276-4.95z"></path>
<path fill="#fff" d="M13.257 9.827l2.966-3.452h-1.409l-1.548 1.806-0.446 0.526c-0.149 0.169-0.159 0.427-0.010 0.605 0.109 0.129 0.446 0.516 0.446 0.516z"></path>
<path fill="#fff" d="M7.711 17.625l2.966-3.452 0.437 0.516c0.149 0.178 0.139 0.437-0.010 0.605l-0.446 0.526-1.548 1.806h-1.399z"></path>
</svg>
