<!-- Generated by IcoMoon.io -->
<svg version="1.1" xmlns="http://www.w3.org/2000/svg" width="24" height="24" viewBox="0 0 24 24"><title>INCH</title>
<path fill="#fff" d="M12 0c6.627 0 12 5.373 12 12s-5.373 12-12 12c-6.627 0-12-5.373-12-12s5.373-12 12-12z"></path>
<path fill="#94a6c3" d="M12.231 6.366c0 0 0.852-0.043 1.63 0.118-1.305 2.211-3.469 1.567-3.634 1.517-0.006-0.002-0.010-0.003-0.010-0.003 1.734-0.34 2.014-1.633 2.014-1.633zM16.538 15.319c-0.325 1.147-1.031 2.16-1.971 2.896 2.205-1.25 3.513-3.41 3.117-5.715-0.529-2.999-3.586-4.528-3.762-4.602 0.617 2.029-0.751 3.16-1.676 3.175-0.514 0-1.205 0.338-1.205 0.338l-0.706 1.734-0.295 0.161 0.396-1.043c0 0-1.189 0.633-1.278 0.69s-0.398 0.675-0.633 1.323c-0.123-0.385-0.389-0.628-0.435-0.67-0.003-0.003-0.005-0.005-0.006-0.006 0.002 0.007 0.006 0.025 0.012 0.052 0.059 0.25 0.303 1.276 0.21 1.609-0.103 0.383-0.751 0.721-0.751 0.721l1.132 0.25 0.645-0.809 0.131-1.089 0.31-0.295c0 0 0.854-0.219 0.837 0.577 0 0.246-0.178 0.345-0.418 0.48-0.132 0.074-0.283 0.158-0.433 0.283-0.25 0.207-0.575 0.514-0.736 0.721l0.544 0.295c0 0 0.59-0.176 1.338-0.97 0.766-0.809 0.222-1.499 0.222-1.499l1.162-1.882 1.058-0.146 1.867 1.807 0.058 2.175c-0.206 0.434-0.528 1.138-0.782 1.697-0.143 0.314-0.265 0.582-0.334 0.73 1.074-0.706 1.882-1.794 2.235-3.044 0.028-0.119 0.161-0.192 0.307-0.265 0.018-0.010 0.036-0.020 0.055-0.030 0.090-0.049 0.182-0.098 0.195-0.146 0.058-0.338 0.088-0.675 0.088-1.013 0-0.058-0.118-0.192-0.222-0.28-0.118-0.118-0.234-0.234-0.249-0.353-0.134-1.293-0.751-2.512-1.706-3.41l0.103-0.103c0.985 0.91 1.603 2.16 1.749 3.498 0 0.073 0.103 0.176 0.207 0.265v0c0.131 0.131 0.265 0.265 0.265 0.396 0 0.353-0.030 0.706-0.088 1.043-0.024 0.104-0.141 0.173-0.268 0.247-0.018 0.011-0.036 0.021-0.055 0.032-0.017 0.011-0.035 0.023-0.054 0.035-0.080 0.051-0.168 0.107-0.181 0.142z"></path>
<path fill="#1b314f" d="M16.493 5.41c0 0 0.736 0.030 1.499 0.118-1.721-1.353-3.352-1.749-4.675-1.749-1.822 0-3.057 0.751-3.132 0.794l0.575-0.912c0 0-2.293-0.222-3.102 2.205-0.207-0.514-0.396-1.265-0.396-1.265s-1.192 1.046-0.633 2.78c-1.368-0.499-3.321-1.192-3.397-1.205-0.103-0.015-0.134 0.030-0.134 0.030s-0.030 0.043 0.058 0.118c0.164 0.129 3.251 2.409 3.929 2.85-0.146 0.529-0.146 0.779 0 1.028 0.207 0.338 0.219 0.514 0.192 0.764-0.030 0.249-0.295 2.412-0.353 2.676s-0.675 1.205-0.648 1.484c0.030 0.28 0.411 1.469 0.751 1.603 0.249 0.088 0.867 0.28 1.278 0.28 0.146 0 0.28-0.030 0.338-0.088 0.249-0.219 0.323-0.265 0.499-0.265 0.015 0 0.030 0 0.043 0 0.073 0 0.161 0.015 0.265 0.015 0.234 0 0.544-0.045 0.764-0.25 0.323-0.323 0.882-0.764 1.058-0.97 0.222-0.28 0.338-0.66 0.28-1.043-0.045-0.353 0.146-0.663 0.368-0.97 0.28-0.368 0.794-1.028 0.794-1.028 1.016 0.761 1.648 1.923 1.648 3.216 0 2.293-1.998 4.145-4.468 4.145-0.383 0-0.748-0.043-1.116-0.131 1.131 0.396 2.087 0.529 2.868 0.529 1.661 0 2.543-0.602 2.543-0.602s-0.307 0.398-0.809 0.852c0.015 0 0.015 0 0.015 0 2.749-0.383 4.087-2.646 4.087-2.646s-0.103 0.736-0.234 1.235c3.657-2.749 3.039-6.189 3.024-6.305 0.030 0.043 0.398 0.484 0.587 0.721 0.59-6.058-4.365-8.014-4.365-8.014zM10.863 15.085c-0.058 0.073-0.307 0.295-0.484 0.456s-0.368 0.323-0.514 0.471c-0.058 0.058-0.176 0.088-0.353 0.088-0.058 0-0.118 0-0.161 0-0.030 0-0.058 0-0.088 0s-0.045 0-0.058 0c-0.045 0-0.088 0-0.134 0 0.222-0.295 0.867-0.97 1.089-1.116 0.265-0.176 0.398-0.353 0.234-0.66-0.161-0.31-0.587-0.234-0.587-0.234s0.25-0.103 0.471-0.103c-0.28-0.073-0.633 0-0.794 0.161-0.176 0.161-0.146 0.736-0.219 1.101-0.073 0.383-0.323 0.575-0.706 0.927-0.207 0.192-0.353 0.25-0.471 0.25-0.25-0.043-0.544-0.119-0.751-0.192-0.146-0.192-0.368-0.824-0.426-1.089 0.043-0.146 0.219-0.456 0.307-0.633 0.176-0.338 0.28-0.529 0.31-0.706 0.058-0.25 0.249-1.794 0.322-2.439 0.192 0.25 0.456 0.663 0.396 0.927 0.426-0.602 0.118-1.192-0.030-1.426-0.131-0.234-0.307-0.706-0.161-1.205s0.675-1.882 0.675-1.882c0 0 0.176 0.31 0.426 0.249 0.249-0.058 2.263-3.087 2.263-3.087s0.544 1.189-0.030 2.059c-0.587 0.867-1.162 1.028-1.162 1.028s0.809 0.146 1.557-0.398c0.307 0.721 0.602 1.469 0.617 1.573-0.045 0.103-0.633 1.515-0.691 1.603-0.030 0.030-0.234 0.088-0.383 0.118-0.249 0.073-0.396 0.118-0.456 0.161-0.103 0.088-0.575 1.381-0.794 2.013-0.265 0.073-0.529 0.222-0.721 0.514 0.103-0.073 0.426-0.118 0.663-0.146 0.207-0.015 0.837 0.323 1.001 0.955 0 0.015 0 0.015 0 0.030 0.033 0.232-0.040 0.454-0.159 0.63zM9.482 15.261c0.134-0.191 0.118-0.514 0.134-0.617s0.043-0.295 0.161-0.323c0.118-0.030 0.398 0.015 0.398 0.219 0 0.192-0.207 0.234-0.353 0.368-0.106 0.101-0.312 0.323-0.34 0.353zM15.346 12.451c0.146-0.748 0.161-1.396 0.118-1.925 0.572 0.764 0.925 1.691 1.028 2.646 0.015 0.119 0.131 0.234 0.249 0.353 0.103 0.088 0.222 0.207 0.222 0.28 0 0.338-0.030 0.675-0.088 1.016-0.015 0.043-0.146 0.118-0.249 0.176-0.146 0.073-0.28 0.146-0.308 0.265-0.323 1.132-1.016 2.132-1.94 2.838 1.366-1.426 2.026-3.78 0.968-5.647zM14.421 18.23c0.955-0.736 1.691-1.764 2.014-2.926 0.015-0.043 0.146-0.118 0.234-0.176 0.146-0.073 0.295-0.161 0.323-0.28 0.058-0.338 0.088-0.691 0.088-1.043 0-0.131-0.134-0.265-0.265-0.396-0.073-0.088-0.192-0.192-0.192-0.265-0.118-1.074-0.544-2.087-1.205-2.926-0.295-1.764-1.469-2.308-1.499-2.323 0.030 0.045 0.794 1.147 0.265 2.439-0.544 1.308-1.94 1.104-2.059 1.116-0.118 0-0.572 0.587-1.147 1.676-0.073-0.030-0.383-0.103-0.736-0.043 0.265-0.736 0.663-1.779 0.736-1.867 0.030-0.030 0.249-0.088 0.398-0.131 0.28-0.073 0.411-0.118 0.456-0.176 0.030-0.045 0.176-0.383 0.323-0.736 0.134 0 0.471-0.030 0.499-0.045 0.030-0.030 0.31-0.748 0.31-0.837 0-0.073-0.575-1.499-0.794-2.044 0.103-0.118 0.207-0.265 0.307-0.426 3.014 0.325 5.368 2.883 5.368 5.983 0 2.381-1.396 4.455-3.425 5.426z"></path>
<path fill="#1b314f" d="M11.070 6.807c0.338-0.398 0.207-0.985 0.207-0.985l-0.985 1.457c-0.015 0 0.35 0.015 0.779-0.471z"></path>
<path fill="#1b314f" d="M7.761 14.76l0.118-0.587c0 0-0.486 0.852-0.529 0.97-0.045 0.134 0.030 0.368 0.219 0.353 0.192-0.015 0.426-0.295 0.426-0.499 0-0.265-0.234-0.237-0.234-0.237z"></path>
<path fill="#1b314f" d="M10.127 9.264c0.517 0.103 0.663 0.706 0.383 1.028-0.28 0.307-0.985 0.748-1.396 0.854-0.088 0.338-0.839 0.192-0.559-0.882 0 0 0.131 0.517 0.265 0.471 0.131-0.045 1.63-2.397 1.63-2.397s-0.189 0.617-0.323 0.925z"></path>
<path fill="#ffd923" d="M9.23 10.864l0.764-1.308c0 0 0.441 0.222 0.219 0.575-0.277 0.411-0.983 0.733-0.983 0.733z"></path>
<path fill="#d82122" d="M8.835 6.864c0 0-0.265-1.895 1.058-2.689-0.005 0.002-0.015 0.006-0.029 0.011-0.28 0.106-2.234 0.847-1.029 2.678z"></path>
<path fill="#d82122" d="M11.685 5.131c1.016-0.383 2.427-0.587 4.617-0.176-0.97-0.484-1.983-0.733-2.996-0.748-0.383 0-0.736 0.030-1.058 0.088-1.147 0.207-2.089 1.028-2.412 2.132 0 0 0.234-0.368 0.794-0.751 0.204-0.28 0.529-0.721 0.834-1.089 0.088 0.192 0.192 0.426 0.222 0.544z"></path>
<path fill="#d82122" d="M20.447 12.232c-0.663-1.779-1.603-3.294-3.674-4.66-1.998-1.323-4.145-1.22-4.264-1.205h-0.030c0.073-0.030 0.146-0.045 0.219-0.058 0.456-0.146 1.043-0.265 1.633-0.338 1.56-0.224 3.132 0.305 4.206 1.439l0.030 0.030c1.22 1.293 1.852 2.908 1.88 4.791z"></path>
<path fill="#d82122" d="M18.683 16.922c-0.222 0.295-0.471 0.602-0.764 0.897 1.895-3.647 0.088-6.983 0.015-7.114 0.124 0.124 0.246 0.259 0.358 0.383l0.025 0.028c1.454 1.615 1.631 4.042 0.365 5.806z"></path>
<path fill="#d82122" d="M8.202 7.777c-1.683-0.057-1.169-1.977-1.119-2.165 0.001-0.004 0.002-0.007 0.003-0.010 0 0.015 0.116 1.573 1.116 2.175z"></path>
<path fill="#fff" d="M7.718 8.306c0.088 0.073 0.176 0.207 0.073 0.398-0.058 0.103-0.146 0.088-0.28 0.030-0.176-0.088-1.235-0.706-2.19-1.338 1.089 0.383 2.19 0.794 2.366 0.882 0 0 0.015 0.015 0.030 0.028z"></path>
</svg>
