<!-- Generated by IcoMoon.io -->
<svg version="1.1" xmlns="http://www.w3.org/2000/svg" width="24" height="24" viewBox="0 0 24 24"><title>INJ</title>
<path fill="#fff" d="M12 0c6.627 0 12 5.373 12 12s-5.373 12-12 12c-6.627 0-12-5.373-12-12s5.373-12 12-12z"></path>
<path fill="#000" d="M2.91 4.146c0.15-0.186 0.306-0.366 0.462-0.546 0.006-0.006 0.024-0.012 0.030-0.018 0.012-0.018 0.036-0.030 0.054-0.048l0.012-0.018c0.108-0.102 0.228-0.21 0.36-0.312 0.48-0.36 0.972-0.636 1.494-0.822 1.68-0.588 3.546-0.228 5.010 1.158 2.046 1.914 1.86 5.004 0.228 7.056-2.064 3.060-5.604 7.326-0.702 11.148 0.882 0.69 1.536 1.254 4.314 2.058-1.818 0.336-3.504 0.228-5.376-0.246-1.326-0.75-3.414-2.352-4.122-4.518-1.074-3.282 1.89-8.196 3.318-10.086 1.962-2.616-1.212-5.448-3.558-2.286-1.212 1.65-3.354 6.312-2.61 9.774 0.432 1.962 1.014 3.39 3.312 5.358-0.426-0.252-0.84-0.534-1.242-0.858-5.334-4.974-4.716-12.666-0.984-16.794z"></path>
<path fill="#000" d="M21.090 19.854c-0.15 0.186-0.306 0.366-0.462 0.546-0.006 0.006-0.024 0.012-0.030 0.018-0.012 0.018-0.036 0.030-0.054 0.048l-0.012 0.018c-0.108 0.102-0.228 0.21-0.36 0.306-0.48 0.36-0.972 0.636-1.494 0.822-1.68 0.588-3.546 0.228-5.010-1.158-2.046-1.914-1.86-5.004-0.228-7.056 2.064-3.060 5.604-7.326 0.702-11.148-0.882-0.69-1.536-1.254-4.314-2.058 1.818-0.336 3.504-0.228 5.376 0.246 1.326 0.75 3.414 2.352 4.122 4.518 1.074 3.282-1.89 8.196-3.318 10.086-1.962 2.616 1.212 5.448 3.558 2.286 1.224-1.65 3.366-6.312 2.622-9.774-0.432-1.962-1.014-3.39-3.312-5.358 0.426 0.252 0.84 0.534 1.242 0.858 5.322 4.98 4.704 12.672 0.972 16.8z"></path>
</svg>
