<!-- Generated by IcoMoon.io -->
<svg version="1.1" xmlns="http://www.w3.org/2000/svg" width="24" height="24" viewBox="0 0 24 24"><title>JST</title>
<path fill="#b41514" d="M12 0c6.627 0 12 5.373 12 12s-5.373 12-12 12c-6.627 0-12-5.373-12-12s5.373-12 12-12z"></path>
<path fill="#fff" d="M4.973 5.472c0.127 3.72 3.18 6.696 6.931 6.696s6.804-2.976 6.931-6.696h-2.378c-0.125 2.407-2.117 4.32-4.553 4.32s-4.428-1.913-4.553-4.32h-2.378z"></path>
<path fill="#fff" d="M11.011 8.441c0.264 0.177 0.575 0.271 0.893 0.271 0.426 0 0.835-0.169 1.137-0.471s0.471-0.711 0.471-1.137c0-0.318-0.094-0.629-0.271-0.893s-0.428-0.471-0.722-0.592c-0.294-0.122-0.617-0.154-0.929-0.091s-0.598 0.215-0.823 0.44c-0.225 0.225-0.378 0.511-0.44 0.823s-0.030 0.635 0.091 0.929c0.122 0.294 0.328 0.545 0.592 0.722z"></path>
<path fill="#fff" d="M11.011 19.529c0.264 0.177 0.575 0.271 0.893 0.271 0.426 0 0.835-0.169 1.137-0.471s0.471-0.711 0.471-1.137c0-0.318-0.094-0.629-0.271-0.893s-0.428-0.471-0.722-0.592c-0.294-0.122-0.617-0.154-0.929-0.091s-0.598 0.215-0.823 0.44c-0.225 0.225-0.378 0.511-0.44 0.823s-0.030 0.635 0.091 0.929c0.122 0.294 0.328 0.545 0.592 0.722z"></path>
<path fill="#fff" d="M5.328 15.504v-2.232h13.152v2.232h-13.152z"></path>
</svg>
