<svg width="32" height="32" viewBox="0 0 32 32" fill="none" xmlns="http://www.w3.org/2000/svg">
<rect width="32" height="32" rx="16" fill="#1E1E1E" style="fill:#1E1E1E;fill:color(display-p3 0.1176 0.1176 0.1176);fill-opacity:1;"/>
<g clip-path="url(#clip0_25_62)">
<path d="M29.9981 16.0372C29.9981 17.8723 29.6368 19.6895 28.9348 21.3849C28.2328 23.0804 27.2039 24.6209 25.9068 25.9185C24.6097 27.2162 23.0699 28.2455 21.3751 28.9478C19.6804 29.6501 17.864 30.0115 16.0296 30.0115C14.1952 30.0115 12.3788 29.6501 10.684 28.9478C8.98931 28.2455 7.44943 27.2162 6.15233 25.9185C4.85523 24.6209 3.82631 23.0804 3.12433 21.3849C2.42234 19.6895 2.06103 17.8723 2.06104 16.0372C2.06104 12.331 3.53272 8.77655 6.15233 6.15585C8.77194 3.53516 12.3249 2.06287 16.0296 2.06287C19.7343 2.06287 23.2872 3.53516 25.9068 6.15585C28.5264 8.77655 29.9981 12.331 29.9981 16.0372Z" fill="#1E1E1E" style="fill:#1E1E1E;fill:color(display-p3 0.1176 0.1176 0.1176);fill-opacity:1;"/>
<path fill-rule="evenodd" clip-rule="evenodd" d="M16.0419 4.54984C9.70698 4.54984 4.57 9.69706 4.57 16.0495C4.57 22.402 9.70698 27.5491 16.0419 27.5491C22.3769 27.5491 27.5138 22.402 27.5138 16.0495C27.5138 9.69934 22.3769 4.54984 16.0419 4.54984ZM3.40674 16.0495C3.40674 9.05293 9.0647 3.38379 16.0419 3.38379C23.0193 3.38379 28.6773 9.05532 28.6773 16.0495C28.6773 23.0461 23.0192 28.7154 16.0419 28.7154C9.0647 28.7154 3.40674 23.0461 3.40674 16.0495Z" fill="#EE8280" style="fill:#EE8280;fill:color(display-p3 0.9333 0.5098 0.5020);fill-opacity:1;"/>
<path fill-rule="evenodd" clip-rule="evenodd" d="M21.03 13.0318L17.8427 12.8988L20.0086 10.548L19.1362 9.67582L16.7888 11.84L16.6608 8.64502H15.4301L15.2975 11.84L12.9524 9.66883L12.0823 10.5434L14.2436 12.8965L11.054 13.0224V14.2585L14.2412 14.3914L12.0753 16.7421L12.9477 17.6144L15.2579 15.4828L15.3603 20.6601L13.5154 20.7954V21.9451L15.3882 22.0874L15.4231 23.8855H16.6538L16.6911 22.0897L18.5825 21.9451V20.7954L16.719 20.6601L16.8237 15.4851L19.1316 17.619L20.0017 16.7468L17.8427 14.3937L21.03 14.2655L21.03 13.0318Z" fill="#EE8280" style="fill:#EE8280;fill:color(display-p3 0.9333 0.5098 0.5020);fill-opacity:1;"/>
</g>
<defs>
<clipPath id="clip0_25_62">
<rect width="28" height="28" fill="white" style="fill:white;fill-opacity:1;" transform="translate(2 2)"/>
</clipPath>
</defs>
</svg>
