<!-- Generated by IcoMoon.io -->
<svg version="1.1" xmlns="http://www.w3.org/2000/svg" width="24" height="24" viewBox="0 0 24 24"><title>KCS</title>
<path fill="#54ab92" d="M12 0c6.627 0 12 5.373 12 12s-5.373 12-12 12c-6.627 0-12-5.373-12-12s5.373-12 12-12z"></path>
<path fill="#fff" d="M10.125 12l3.9 3.975 2.475-2.475c0.45-0.45 1.125-0.45 1.5 0 0.45 0.45 0.45 1.2 0 1.65l-3.225 3.3c-0.45 0.45-1.125 0.45-1.575 0l-4.65-4.8v2.85c0 0.6-0.525 1.125-1.125 1.125s-1.125-0.525-1.125-1.125v-9c0-0.6 0.525-1.125 1.125-1.125s1.125 0.525 1.125 1.125v2.85l4.65-4.8c0.45-0.45 1.125-0.45 1.575 0l3.225 3.3c0.45 0.45 0.45 1.2 0 1.65s-1.125 0.45-1.5 0l-2.475-2.55-3.9 4.050zM14.025 10.875c0.6 0 1.125 0.525 1.125 1.125s-0.525 1.125-1.125 1.125c-0.6 0-1.125-0.525-1.125-1.125s0.525-1.125 1.125-1.125z"></path>
</svg>
