<!-- Generated by IcoMoon.io -->
<svg version="1.1" xmlns="http://www.w3.org/2000/svg" width="24" height="24" viewBox="0 0 24 24"><title>KLAY</title>
<path fill="#fff" d="M12 0c6.627 0 12 5.373 12 12s-5.373 12-12 12c-6.627 0-12-5.373-12-12s5.373-12 12-12z"></path>
<path fill="#000" d="M19.835 21.456l-7.813-7.896-7.922 7.956c1.575 1.049 4.040 2.84 7.843 2.86s6.853-1.87 7.883-2.909l0.010-0.010zM21.458 4.080l-7.922 7.896c2.654 2.642 5.268 5.314 7.892 7.975 4.11-5.244 3.733-10.647 0.030-15.881v0.010zM2.485 19.833l6.862-18.256-9.625 9.677c-0.495 2.82 0.97 6.402 2.763 8.579zM6.1 16.241c0.495-0.129 11.408-11.33 13.755-13.655-1.218-1.623-5.397-3.028-7.486-2.959l-6.268 16.614z"></path>
</svg>
