<!-- Generated by IcoMoon.io -->
<svg version="1.1" xmlns="http://www.w3.org/2000/svg" width="24" height="24" viewBox="0 0 24 24"><title>KSM</title>
<path fill="#000" d="M12 0c6.627 0 12 5.373 12 12s-5.373 12-12 12c-6.627 0-12-5.373-12-12s5.373-12 12-12z"></path>
<path fill="#fff" d="M19.525 7.414c-0.254-0.2-0.557-0.474-1.108-0.542-0.518-0.068-1.045 0.278-1.401 0.508s-1.030 0.903-1.309 1.108c-0.278 0.205-0.991 0.396-2.139 1.084s-5.649 3.579-5.649 3.579l1.172 0.015-5.225 2.69h0.522l-0.752 0.571c0 0 0.664 0.176 1.221-0.176v0.161c0 0 6.221-2.451 7.422-1.816l-0.732 0.215c0.063 0 1.245 0.078 1.245 0.078 0.029 0.245 0.111 0.48 0.241 0.689s0.304 0.387 0.511 0.522c0.713 0.469 0.727 0.727 0.727 0.727s-0.371 0.151-0.371 0.342c0 0 0.547-0.166 1.055-0.151 0.322 0.012 0.642 0.063 0.952 0.151 0 0-0.039-0.205-0.532-0.342s-0.981-0.674-1.221-0.967c-0.147-0.186-0.242-0.408-0.277-0.642s-0.009-0.474 0.077-0.695c0.171-0.444 0.767-0.689 1.997-1.323 1.45-0.752 1.782-1.309 1.987-1.743s0.508-1.299 0.679-1.704c0.215-0.522 0.479-0.801 0.698-0.967s1.196-0.532 1.196-0.532-0.747-0.649-0.986-0.84z"></path>
</svg>
