<!-- Generated by IcoMoon.io -->
<svg version="1.1" xmlns="http://www.w3.org/2000/svg" width="24" height="24" viewBox="0 0 24 24"><title>LTC</title>
<path fill="#345d9d" d="M12 0c6.627 0 12 5.373 12 12s-5.373 12-12 12c-6.627 0-12-5.373-12-12s5.373-12 12-12z"></path>
<path fill="#fff" d="M11.947 12.279l-1.249 4.213h6.683c0.044-0.002 0.088 0.006 0.13 0.021s0.080 0.039 0.112 0.069c0.032 0.030 0.058 0.067 0.077 0.107s0.028 0.084 0.030 0.128v0.11l-0.581 2.005c-0.026 0.095-0.083 0.178-0.162 0.236s-0.176 0.088-0.274 0.083h-10.228l1.714-5.84-1.918 0.581 0.436-1.337 1.918-0.581 2.412-8.194c0.027-0.094 0.084-0.177 0.163-0.235s0.175-0.088 0.273-0.085h2.586c0.044-0.002 0.088 0.006 0.13 0.021s0.080 0.039 0.112 0.069c0.032 0.030 0.058 0.067 0.077 0.107s0.029 0.084 0.030 0.128v0.11l-2.034 6.915 1.918-0.581-0.407 1.395-1.947 0.552z"></path>
</svg>
