<!-- Generated by IcoMoon.io -->
<svg version="1.1" xmlns="http://www.w3.org/2000/svg" width="24" height="24" viewBox="0 0 24 24"><title>LUNC</title>
<path fill="#172852" d="M12 0c6.627 0 12 5.373 12 12s-5.373 12-12 12c-6.627 0-12-5.373-12-12s5.373-12 12-12z"></path>
<path fill="#fe6e09" d="M19.835 10.564c0-0.019-0.006-0.032-0.006-0.051-0.045-0.229-0.096-0.46-0.159-0.676 0-0.013-0.006-0.019-0.006-0.032-0.032-0.108-0.064-0.21-0.096-0.319 0-0.006-0.006-0.019-0.006-0.026-0.076-0.217-0.153-0.433-0.249-0.645 0-0.006-0.006-0.006-0.006-0.013-0.045-0.102-0.089-0.204-0.14-0.3 0 0 0-0.006-0.006-0.006-0.051-0.102-0.102-0.204-0.159-0.3 0 0 0-0.006-0.006-0.006-0.057-0.102-0.115-0.204-0.172-0.3l-0.006-0.006c-0.057-0.089-0.115-0.178-0.172-0.268-0.006-0.013-0.013-0.019-0.019-0.032-0.121-0.185-0.255-0.363-0.395-0.542-0.006-0.013-0.019-0.019-0.026-0.032-0.076-0.089-0.147-0.178-0.23-0.268-0.076-0.083-0.153-0.166-0.23-0.249 0-0.006-0.006-0.006-0.006-0.013-0.070-0.077-0.14-0.147-0.217-0.217-0.013-0.013-0.019-0.019-0.032-0.032-0.076-0.070-0.153-0.14-0.229-0.21-0.006-0.006-0.019-0.013-0.026-0.026-0.076-0.070-0.159-0.14-0.242-0.204-0.006-0.006-0.013-0.013-0.026-0.019-0.089-0.070-0.178-0.14-0.268-0.204 0 0-0.006 0-0.006-0.006-0.089-0.064-0.185-0.134-0.274-0.191 0 0 0 0-0.006 0-0.185-0.127-0.383-0.242-0.579-0.351-0.006-0.006-0.013-0.006-0.025-0.013-0.096-0.051-0.191-0.102-0.287-0.147-0.013-0.006-0.025-0.013-0.038-0.019-0.204-0.096-0.407-0.191-0.618-0.268-0.013-0.006-0.025-0.006-0.038-0.013-0.108-0.045-0.223-0.083-0.332-0.115h-0.006c-0.102-0.032-0.21-0.064-0.312-0.096-0.013 0-0.019-0.006-0.032-0.006-0.115-0.032-0.229-0.064-0.344-0.089h-0.006c-0.108-0.025-0.217-0.051-0.332-0.070-0.006 0-0.013 0-0.019-0.006-0.115-0.019-0.229-0.038-0.351-0.057-0.185-0.025-0.363-0.045-0.554-0.057 0.032 0 0.064 0.006 0.089 0.006 0.070 0.006 0.147 0.013 0.21 0.019 0.070 0.006 0.134 0.019 0.198 0.026s0.128 0.019 0.185 0.032h0.006c0.057 0.013 0.121 0.019 0.178 0.032h0.006c0.057 0.013 0.108 0.026 0.166 0.038 0.006 0 0.006 0 0.013 0 0.051 0.013 0.102 0.026 0.153 0.038 0.006 0 0.006 0 0.013 0.006 0.045 0.013 0.096 0.032 0.14 0.045 0.006 0 0.013 0.006 0.019 0.006 0.045 0.013 0.089 0.032 0.128 0.051 0.006 0 0.013 0.006 0.019 0.006 0.038 0.019 0.076 0.032 0.115 0.051 0.006 0.006 0.013 0.006 0.025 0.013 0.038 0.019 0.070 0.038 0.108 0.051 0.006 0.006 0.019 0.013 0.025 0.013 0.032 0.019 0.064 0.038 0.096 0.057 0.013 0.006 0.019 0.013 0.032 0.019 0.025 0.019 0.057 0.038 0.083 0.057 0.013 0.006 0.026 0.019 0.038 0.026 0.025 0.019 0.051 0.038 0.070 0.057 0.013 0.013 0.025 0.026 0.045 0.038 0.019 0.019 0.038 0.032 0.057 0.051s0.038 0.038 0.057 0.051c0.013 0.013 0.032 0.026 0.045 0.045 0.032 0.032 0.064 0.070 0.089 0.102 0.045 0.051 0.268 0.344 0.395 0.849 0.147 0.613 0.121 1.244 0.261 1.856 0.025 0.102 0.051 0.204 0.077 0.3 0.006 0.026 0.013 0.051 0.019 0.077 0.019 0.076 0.045 0.153 0.064 0.223 0.006 0.025 0.013 0.045 0.019 0.070 0.72 2.316 2.153 3.413 4.083 4.886 0.064-0.414 0.102-0.836 0.102-1.269 0-0.491-0.045-0.97-0.128-1.442l-0.005 0.011z"></path>
<path fill="#ffd53e" d="M12.765 13.996c-3.465-1.55-5.631-4.702-5.759-7.872-0.006-0.134-0.166-0.198-0.268-0.115-1.675 1.474-2.726 3.643-2.707 6.054 0.038 4.3 3.522 7.822 7.816 7.904 3.465 0.064 6.44-2.086 7.599-5.129 0.045-0.121-0.064-0.242-0.185-0.21-2.019 0.511-4.325 0.338-6.504-0.638l0.007 0.006z"></path>
<path fill="#ffd53e" d="M19.886 10.902c-0.28-0.651-0.28-0.651-7.835-3.388-3.803-1.378-4.51-2.705-1.758-3.305 0.134-0.032 0.268-0.057 0.407-0.077 0.42-0.070 0.854-0.102 1.293-0.102 4.026 0 7.358 2.992 7.893 6.871z"></path>
</svg>
