<!-- Generated by IcoMoon.io -->
<svg version="1.1" xmlns="http://www.w3.org/2000/svg" width="24" height="24" viewBox="0 0 24 24"><title>MAGIC</title>
<path fill="#dc2626" d="M12 0c6.627 0 12 5.373 12 12s-5.373 12-12 12c-6.627 0-12-5.373-12-12s5.373-12 12-12z"></path>
<path fill="#fff" d="M19.164 11.736l-2.16-0.73c-0.797-0.269-1.382-0.931-1.546-1.747l-0.912-4.474c-0.029-0.115-0.125-0.192-0.24-0.192s-0.221 0.086-0.24 0.192l-0.912 4.474c-0.163 0.816-0.758 1.478-1.546 1.747l-2.16 0.73c-0.096 0.029-0.163 0.125-0.163 0.23s0.067 0.202 0.163 0.23l2.16 0.73c0.797 0.269 1.382 0.931 1.546 1.747l0.912 4.474c0.029 0.115 0.125 0.192 0.24 0.192s0.221-0.086 0.24-0.192l0.912-4.474c0.163-0.816 0.758-1.478 1.546-1.747l2.16-0.73c0.096-0.029 0.163-0.125 0.163-0.23s-0.067-0.202-0.163-0.23z"></path>
<path fill="#fff" d="M7.577 7.637l0.758 0.259c0.278 0.096 0.49 0.326 0.547 0.614l0.317 1.574c0.010 0.038 0.038 0.067 0.086 0.067 0.038 0 0.077-0.029 0.086-0.067l0.317-1.574c0.058-0.288 0.269-0.518 0.547-0.614l0.758-0.259c0.029-0.010 0.058-0.048 0.058-0.086s-0.029-0.067-0.058-0.086l-0.758-0.259c-0.278-0.096-0.49-0.326-0.547-0.614l-0.317-1.574c-0.010-0.038-0.038-0.067-0.086-0.067-0.038 0-0.077 0.029-0.086 0.067l-0.317 1.574c-0.058 0.288-0.269 0.518-0.547 0.614l-0.758 0.259c-0.029 0.010-0.058 0.048-0.058 0.086s0.029 0.067 0.058 0.086z"></path>
<path fill="#fff" d="M8.335 15.048l1.018 0.346c0.048 0.010 0.077 0.058 0.077 0.106s-0.029 0.086-0.077 0.106l-1.018 0.346c-0.374 0.125-0.653 0.442-0.73 0.826l-0.432 2.112c-0.010 0.048-0.058 0.086-0.115 0.086s-0.106-0.029-0.115-0.086l-0.432-2.112c-0.077-0.384-0.355-0.701-0.73-0.826l-1.018-0.346c-0.048-0.010-0.077-0.058-0.077-0.106s0.029-0.086 0.077-0.106l1.018-0.346c0.374-0.125 0.653-0.442 0.73-0.826l0.432-2.112c0.010-0.058 0.058-0.096 0.115-0.096s0.106 0.038 0.115 0.096l0.432 2.112c0.077 0.384 0.355 0.701 0.73 0.826z"></path>
</svg>
