<!-- Generated by IcoMoon.io -->
<svg version="1.1" xmlns="http://www.w3.org/2000/svg" width="24" height="24" viewBox="0 0 24 24"><title>MANA</title>
<path fill="#ff7458" d="M12 0c6.627 0 12 5.373 12 12s-5.373 12-12 12c-6.627 0-12-5.373-12-12s5.373-12 12-12z"></path>
<path fill="#000" d="M8.502 7.8v9h7.5l-7.5-9z"></path>
<path fill="#fff" d="M1.002 16.8h7.5v-9l-7.5 9z"></path>
<path fill="#fc9965" d="M2.4 19.2c0.684 0.906 1.494 1.716 2.4 2.4h14.4c0.906-0.684 1.716-1.494 2.4-2.4h-19.2z"></path>
<path fill="#ff2d55" d="M4.8 21.6c2.004 1.506 4.5 2.4 7.2 2.4s5.196-0.894 7.2-2.4h-14.4z"></path>
<path fill="#000" d="M16.098 12.6v6.6h5.502l-5.502-6.6z"></path>
<path fill="#ffbc5b" d="M16.098 16.8h-15.096c0.372 0.858 0.846 1.662 1.398 2.4h13.704v-2.4h-0.006z"></path>
<path fill="#fff" d="M10.602 19.2h5.496v-6.6l-5.496 6.6z"></path>
<path fill="#ffc95b" d="M10.002 4.5c0 0.828-0.672 1.5-1.5 1.5s-1.5-0.672-1.5-1.5 0.672-1.5 1.5-1.5c0.828 0 1.5 0.672 1.5 1.5z"></path>
<path fill="#ffc95b" d="M19.098 7.8c0 1.657-1.343 3-3 3s-3-1.343-3-3c0-1.657 1.343-3 3-3s3 1.343 3 3z"></path>
</svg>
