<!-- Generated by IcoMoon.io -->
<svg version="1.1" xmlns="http://www.w3.org/2000/svg" width="24" height="24" viewBox="0 0 24 24"><title>MASK</title>
<path fill="#1c68f3" d="M12 0c6.627 0 12 5.373 12 12s-5.373 12-12 12c-6.627 0-12-5.373-12-12s5.373-12 12-12z"></path>
<path fill="#fff" d="M18.608 9.318v3.654h-11.538c0.481 2.212 2.5 3.846 4.904 3.846 1.971 0 3.702-1.106 4.519-2.74h2.163v3.029c0 0.721-0.577 1.298-1.346 1.298h-10.673c-0.721 0-1.346-0.577-1.346-1.298v-7.788h13.317zM15.195 14.029c-0.721 1.010-1.875 1.683-3.221 1.683s-2.548-0.673-3.221-1.683h6.442zM9.137 10.183c-1.058 0-1.923 0.769-2.067 1.731h1.154c0.144-0.385 0.481-0.673 0.913-0.673s0.769 0.288 0.913 0.673h1.106c-0.144-1.010-1.010-1.731-2.019-1.731zM14.81 10.183c-1.058 0-1.923 0.769-2.067 1.731h1.154c0.144-0.385 0.481-0.673 0.913-0.673s0.769 0.288 0.914 0.673h1.154c-0.192-1.010-1.058-1.731-2.067-1.731zM17.262 5.279c0.721 0 1.346 0.577 1.346 1.298v1.587h-13.317v-1.587c0-0.721 0.577-1.298 1.346-1.298h10.625z"></path>
</svg>
