<!-- Generated by IcoMoon.io -->
<svg version="1.1" xmlns="http://www.w3.org/2000/svg" width="24" height="24" viewBox="0 0 24 24"><title>MATIC</title>
<path fill="#8247e5" d="M12 0c6.627 0 12 5.373 12 12s-5.373 12-12 12c-6.627 0-12-5.373-12-12s5.373-12 12-12z"></path>
<path fill="#fff" d="M12.353 17.165c0.306-0.178 0.504-0.521 0.527-0.913l-0.025-2.856 0.036-1.908-0.047-2.818c0.002-0.354 0.199-0.697 0.527-0.913l1.934-1.065c0.306-0.179 0.72-0.193 1.063 0.005l1.903 1.099c0.305 0.176 0.521 0.504 0.536 0.918l0.007 2.186c-0.002 0.354-0.199 0.697-0.527 0.913l-1.934 1.065c-0.306 0.178-0.72 0.193-1.063-0.005l-1.256-0.725 0.002 1.93 1.294 0.747c0.304 0.176 0.697 0.199 1.063 0.005l3.547-2.012c0.306-0.179 0.504-0.521 0.527-0.913l-0.025-4.175c0.024-0.392-0.193-0.72-0.497-0.896l-3.577-2.065c-0.304-0.176-0.697-0.199-1.063-0.005l-3.568 2.050c-0.306 0.179-0.504 0.521-0.527 0.913l0.009 2.796 0.002 1.93 0.009 2.796c-0.002 0.354-0.199 0.697-0.527 0.913l-1.896 1.087c-0.306 0.178-0.72 0.193-1.063-0.005l-1.903-1.099c-0.304-0.176-0.521-0.504-0.536-0.918l-0.029-2.148c0.002-0.354 0.199-0.697 0.527-0.913l1.896-1.087c0.306-0.179 0.72-0.193 1.063 0.005l1.218 0.703-0.002-1.93-1.256-0.725c-0.305-0.176-0.697-0.199-1.063-0.005l-3.568 2.050c-0.306 0.178-0.504 0.521-0.527 0.913l0.009 4.115c-0.002 0.354 0.193 0.72 0.536 0.918l3.615 2.087c0.304 0.176 0.697 0.199 1.063 0.005l3.568-2.050z"></path>
</svg>
