<!-- Generated by IcoMoon.io -->
<svg version="1.1" xmlns="http://www.w3.org/2000/svg" width="24" height="24" viewBox="0 0 24 24"><title>MINA</title>
<path fill="#000" d="M12 0c6.627 0 12 5.373 12 12s-5.373 12-12 12c-6.627 0-12-5.373-12-12s5.373-12 12-12z"></path>
<path fill="#fff" d="M11.955 18.391c-0.237 0.007-0.469-0.077-0.646-0.235s-0.288-0.378-0.308-0.614l-0.102-0.841c-1.022-0.291-1.62-1.047-1.775-2.248l-0.919-7.084c-0.198-0.032-0.398-0.046-0.598-0.043-0.295-0.002-0.59 0.036-0.875 0.113v10.744h-1.808v-8.636c0-1.172 0.525-1.999 1.485-2.344v-0.557c0-0.644 0.39-1.076 0.972-1.076s0.946 0.362 1.040 1.022l0.072 0.516c1.047 0.296 1.667 1.139 1.845 2.507l0.849 6.829c0.508 0.098 1.031 0.098 1.539 0l0.849-6.828c0.178-1.369 0.798-2.212 1.845-2.508l0.071-0.516c0.094-0.657 0.463-1.022 1.040-1.022s0.972 0.432 0.972 1.076v0.557c0.959 0.344 1.484 1.172 1.484 2.344v8.636h-1.806v-10.745c-0.285-0.078-0.579-0.116-0.875-0.113-0.2-0.003-0.4 0.011-0.598 0.043l-0.919 7.085c-0.151 1.179-0.764 1.953-1.775 2.248l-0.102 0.843c-0.016 0.239-0.125 0.461-0.304 0.62s-0.413 0.24-0.652 0.227zM11.229 16.783l0.092 0.724c0.011 0.158 0.084 0.306 0.202 0.411s0.274 0.159 0.432 0.151c0.079 0.006 0.159-0.005 0.234-0.030s0.144-0.066 0.203-0.119c0.059-0.053 0.107-0.117 0.141-0.189s0.053-0.149 0.057-0.229l0.092-0.725c-0.481 0.079-0.972 0.079-1.453 0v0.005zM17.502 17.867h1.163v-8.32c0-0.993-0.401-1.679-1.163-1.998v10.318zM5.242 17.867h1.167v-10.318c-0.762 0.32-1.163 1.005-1.163 1.998l-0.004 8.32zM8.539 7.457l0.9 6.955c0.13 1.006 0.604 1.657 1.412 1.941l-0.837-6.7c-0.15-1.181-0.634-1.902-1.475-2.196zM15.372 7.457c-0.841 0.293-1.328 1.015-1.478 2.197l-0.833 6.695c0.807-0.284 1.282-0.935 1.411-1.941l0.9-6.951zM6.73 7.101c0.286-0.070 0.58-0.104 0.875-0.102 0.185-0.002 0.369 0.009 0.553 0.033l-0.056-0.402c-0.070-0.492-0.313-0.742-0.721-0.742s-0.65 0.289-0.65 0.754v0.459zM16.306 6.999c0.295-0.002 0.588 0.033 0.875 0.102v-0.455c0-0.465-0.249-0.754-0.65-0.754s-0.651 0.249-0.721 0.742l-0.056 0.402c0.183-0.024 0.368-0.035 0.553-0.033v-0.004z"></path>
</svg>
