<!-- Generated by IcoMoon.io -->
<svg version="1.1" xmlns="http://www.w3.org/2000/svg" width="24" height="24" viewBox="0 0 24 24"><title>MIOTA</title>
<path fill="#000" d="M12 0c6.627 0 12 5.373 12 12s-5.373 12-12 12c-6.627 0-12-5.373-12-12s5.373-12 12-12z"></path>
<path fill="#fff" d="M17.34 4.087c0 0.6-0.48 1.080-1.080 1.080-0.592 0-1.080-0.487-1.080-1.080 0-0.6 0.48-1.080 1.080-1.080 0.593 0 1.080 0.488 1.080 1.080z"></path>
<path fill="#fff" d="M18.555 19.312c0 0.6-0.48 1.080-1.080 1.080s-1.080-0.488-1.080-1.080c0-0.6 0.48-1.080 1.080-1.080s1.080 0.488 1.080 1.080z"></path>
<path fill="#fff" d="M16.575 7.859c0.502 0 0.907-0.405 0.907-0.908s-0.405-0.908-0.907-0.908c-0.503 0-0.908 0.405-0.908 0.908s0.405 0.908 0.908 0.908z"></path>
<path fill="#fff" d="M19.89 7.304c0 0.503-0.405 0.908-0.908 0.908s-0.907-0.405-0.907-0.908c0-0.503 0.405-0.908 0.907-0.908s0.908 0.405 0.908 0.908z"></path>
<path fill="#fff" d="M16.26 10.154c0.428 0 0.773-0.345 0.773-0.773s-0.345-0.772-0.773-0.772c-0.427 0-0.772 0.345-0.772 0.772s0.345 0.773 0.772 0.773z"></path>
<path fill="#fff" d="M19.447 9.704c0 0.428-0.345 0.772-0.773 0.772s-0.773-0.345-0.773-0.772c0-0.428 0.345-0.772 0.773-0.772s0.773 0.345 0.773 0.772z"></path>
<path fill="#fff" d="M20.602 11.227c0.428 0 0.773-0.345 0.773-0.772s-0.345-0.773-0.773-0.773c-0.428 0-0.773 0.345-0.773 0.773s0.345 0.772 0.773 0.772z"></path>
<path fill="#fff" d="M18.638 11.654c0 0.375-0.3 0.675-0.675 0.675s-0.675-0.3-0.675-0.675c0-0.375 0.3-0.675 0.675-0.675s0.675 0.3 0.675 0.675z"></path>
<path fill="#fff" d="M15.547 11.999c0.375 0 0.675-0.3 0.675-0.675s-0.3-0.675-0.675-0.675c-0.375 0-0.675 0.3-0.675 0.675s0.3 0.675 0.675 0.675z"></path>
<path fill="#fff" d="M20.587 12.404c0 0.375-0.3 0.675-0.675 0.675s-0.675-0.3-0.675-0.675c0-0.375 0.3-0.675 0.675-0.675s0.675 0.3 0.675 0.675z"></path>
<path fill="#fff" d="M16.995 13.732c0.322 0 0.577-0.255 0.577-0.577s-0.262-0.577-0.577-0.577c-0.323 0-0.578 0.255-0.578 0.577 0 0.315 0.262 0.577 0.578 0.577z"></path>
<path fill="#fff" d="M19.523 13.882c0 0.323-0.255 0.578-0.578 0.578-0.315 0-0.578-0.255-0.578-0.578s0.255-0.577 0.578-0.577c0.315 0 0.578 0.263 0.578 0.577z"></path>
<path fill="#fff" d="M14.602 13.387c0.322 0 0.578-0.255 0.578-0.577 0-0.315-0.263-0.578-0.578-0.578-0.322 0-0.578 0.255-0.578 0.578s0.263 0.577 0.578 0.577z"></path>
<path fill="#fff" d="M16.418 14.197c0 0.263-0.21 0.48-0.48 0.48-0.263 0-0.48-0.217-0.48-0.48s0.21-0.48 0.48-0.48c0.263 0 0.48 0.217 0.48 0.48z"></path>
<path fill="#fff" d="M16.763 16.004c0.232 0 0.427-0.188 0.427-0.42s-0.188-0.42-0.427-0.42c-0.233 0-0.428 0.188-0.428 0.42s0.188 0.42 0.428 0.42z"></path>
<path fill="#fff" d="M16.087 15.929c0 0.188-0.15 0.345-0.345 0.345-0.188 0-0.345-0.15-0.345-0.345 0-0.188 0.15-0.345 0.345-0.345 0.188 0 0.345 0.15 0.345 0.345z"></path>
<path fill="#fff" d="M14.835 15.269c0.232 0 0.428-0.188 0.428-0.42s-0.188-0.42-0.428-0.42c-0.232 0-0.428 0.188-0.428 0.42s0.188 0.42 0.428 0.42z"></path>
<path fill="#fff" d="M14.003 13.867c0 0.263-0.21 0.48-0.48 0.48-0.263 0-0.48-0.217-0.48-0.48s0.217-0.48 0.48-0.48c0.263 0 0.48 0.217 0.48 0.48z"></path>
<path fill="#fff" d="M13.508 10.732c0.27 0 0.48-0.217 0.48-0.48s-0.217-0.48-0.48-0.48c-0.27 0-0.48 0.217-0.48 0.48s0.218 0.48 0.48 0.48z"></path>
<path fill="#fff" d="M14.145 8.617c0 0.233-0.195 0.42-0.428 0.42-0.24 0-0.428-0.188-0.428-0.42s0.195-0.42 0.428-0.42c0.24 0 0.428 0.188 0.428 0.42z"></path>
<path fill="#fff" d="M14.183 7.649c0.195 0 0.345-0.158 0.345-0.345s-0.157-0.345-0.345-0.345c-0.195 0-0.345 0.158-0.345 0.345 0 0.195 0.158 0.345 0.345 0.345z"></path>
<path fill="#fff" d="M13.8 6.577c0 0.233-0.195 0.42-0.428 0.42-0.24 0-0.428-0.188-0.428-0.42s0.195-0.42 0.428-0.42c0.24 0 0.428 0.188 0.428 0.42z"></path>
<path fill="#fff" d="M17.865 15.404c0.27 0 0.48-0.217 0.48-0.48s-0.217-0.48-0.48-0.48c-0.263 0-0.48 0.217-0.48 0.48s0.218 0.48 0.48 0.48z"></path>
<path fill="#fff" d="M12.75 5.962c0 0.263-0.21 0.48-0.48 0.48-0.263 0-0.48-0.217-0.48-0.48s0.21-0.48 0.48-0.48c0.263 0 0.48 0.218 0.48 0.48z"></path>
<path fill="#fff" d="M12.6 8.482c0.262 0 0.48-0.217 0.48-0.48s-0.218-0.48-0.48-0.48c-0.27 0-0.48 0.217-0.48 0.48s0.217 0.48 0.48 0.48z"></path>
<path fill="#fff" d="M12.638 9.847c0 0.322-0.255 0.578-0.577 0.578-0.315 0-0.578-0.255-0.578-0.578s0.255-0.577 0.578-0.577c0.315 0 0.577 0.262 0.577 0.577z"></path>
<path fill="#fff" d="M10.305 10.424c0.375 0 0.675-0.3 0.675-0.675s-0.3-0.675-0.675-0.675c-0.375 0-0.675 0.3-0.675 0.675s0.3 0.675 0.675 0.675z"></path>
<path fill="#fff" d="M9.030 10.109c0 0.428-0.345 0.773-0.772 0.773s-0.772-0.345-0.772-0.773c0-0.427 0.345-0.772 0.772-0.772s0.772 0.345 0.772 0.772z"></path>
<path fill="#fff" d="M6.022 11.977c0.503 0 0.907-0.405 0.907-0.908s-0.405-0.907-0.908-0.907c-0.503 0-0.907 0.405-0.907 0.907s0.405 0.908 0.907 0.908z"></path>
<path fill="#fff" d="M4.785 12.749c0 0.6-0.48 1.080-1.080 1.080-0.592 0-1.080-0.488-1.080-1.080 0-0.6 0.48-1.080 1.080-1.080s1.080 0.488 1.080 1.080z"></path>
<path fill="#fff" d="M5.115 9.727c0.502 0 0.908-0.405 0.908-0.908s-0.405-0.907-0.907-0.907c-0.503 0-0.907 0.405-0.907 0.907s0.405 0.908 0.907 0.908z"></path>
<path fill="#fff" d="M8.123 7.859c0 0.428-0.345 0.772-0.772 0.772s-0.772-0.345-0.772-0.772c0-0.428 0.345-0.772 0.772-0.772s0.772 0.345 0.772 0.772z"></path>
<path fill="#fff" d="M7.020 6.592c0.428 0 0.772-0.345 0.772-0.772s-0.345-0.772-0.772-0.772c-0.428 0-0.772 0.345-0.772 0.772s0.345 0.772 0.772 0.772z"></path>
<path fill="#fff" d="M9.742 5.459c0 0.375-0.3 0.675-0.675 0.675s-0.675-0.3-0.675-0.675c0-0.375 0.3-0.675 0.675-0.675s0.675 0.3 0.675 0.675z"></path>
<path fill="#fff" d="M10.822 6.134c0.322 0 0.577-0.255 0.577-0.577s-0.262-0.577-0.577-0.577c-0.322 0-0.577 0.255-0.577 0.577s0.262 0.577 0.577 0.577z"></path>
<path fill="#fff" d="M11.73 7.589c0 0.322-0.255 0.577-0.578 0.577-0.315 0-0.577-0.255-0.577-0.577s0.255-0.577 0.577-0.577c0.315 0 0.578 0.255 0.578 0.577z"></path>
<path fill="#fff" d="M9.397 8.189c0.375 0 0.675-0.3 0.675-0.675s-0.3-0.675-0.675-0.675c-0.375 0-0.675 0.3-0.675 0.675s0.3 0.675 0.675 0.675z"></path>
<path fill="#fff" d="M7.83 12.959c0 0.188-0.15 0.345-0.345 0.345-0.188 0-0.345-0.15-0.345-0.345 0-0.188 0.15-0.345 0.345-0.345 0.188 0 0.345 0.15 0.345 0.345z"></path>
<path fill="#fff" d="M8.873 13.132c0.232 0 0.428-0.188 0.428-0.42s-0.188-0.42-0.428-0.42c-0.232 0-0.428 0.188-0.428 0.42s0.188 0.42 0.428 0.42z"></path>
<path fill="#fff" d="M10.875 12.074c0 0.263-0.21 0.48-0.48 0.48-0.262 0-0.48-0.217-0.48-0.48s0.21-0.48 0.48-0.48c0.262 0 0.48 0.217 0.48 0.48z"></path>
<path fill="#fff" d="M10.762 14.099c0.322 0 0.578-0.255 0.578-0.578s-0.262-0.578-0.578-0.578c-0.322 0-0.577 0.255-0.577 0.578 0 0.315 0.262 0.578 0.577 0.578z"></path>
<path fill="#fff" d="M9.39 13.979c0 0.263-0.21 0.48-0.48 0.48-0.263 0-0.48-0.217-0.48-0.48s0.217-0.48 0.48-0.48c0.262 0 0.48 0.217 0.48 0.48z"></path>
<path fill="#fff" d="M7.275 14.444c0.233 0 0.428-0.188 0.428-0.42s-0.188-0.42-0.428-0.42c-0.233 0-0.428 0.188-0.428 0.42s0.188 0.42 0.428 0.42z"></path>
<path fill="#fff" d="M7.77 15.292c0 0.263-0.21 0.48-0.48 0.48-0.262 0-0.48-0.217-0.48-0.48s0.21-0.48 0.48-0.48c0.262 0 0.48 0.217 0.48 0.48z"></path>
<path fill="#fff" d="M9.262 16.019c0.322 0 0.578-0.255 0.578-0.578s-0.262-0.577-0.578-0.577c-0.322 0-0.577 0.255-0.577 0.577 0 0.315 0.262 0.578 0.577 0.578z"></path>
<path fill="#fff" d="M12.232 15.097c0 0.375-0.3 0.675-0.675 0.675s-0.675-0.3-0.675-0.675c0-0.375 0.3-0.675 0.675-0.675s0.675 0.3 0.675 0.675z"></path>
<path fill="#fff" d="M12.908 17.444c0.428 0 0.773-0.345 0.773-0.773s-0.345-0.773-0.773-0.773c-0.428 0-0.773 0.345-0.773 0.773s0.345 0.773 0.773 0.773z"></path>
<path fill="#fff" d="M10.748 17.002c0 0.375-0.3 0.675-0.675 0.675s-0.675-0.3-0.675-0.675c0-0.375 0.3-0.675 0.675-0.675s0.675 0.3 0.675 0.675z"></path>
<path fill="#fff" d="M8.467 18.982c0.375 0 0.675-0.3 0.675-0.675s-0.3-0.675-0.675-0.675c-0.375 0-0.675 0.3-0.675 0.675s0.3 0.675 0.675 0.675z"></path>
<path fill="#fff" d="M10.575 19.904c0 0.428-0.345 0.773-0.772 0.773s-0.772-0.345-0.772-0.773c0-0.427 0.345-0.773 0.772-0.773s0.772 0.345 0.772 0.773z"></path>
<path fill="#fff" d="M13.35 20.984c0.503 0 0.907-0.405 0.907-0.907s-0.405-0.908-0.907-0.908c-0.503 0-0.908 0.405-0.908 0.908s0.405 0.907 0.908 0.907z"></path>
<path fill="#fff" d="M12.172 18.599c0 0.427-0.345 0.773-0.772 0.773s-0.772-0.345-0.772-0.773c0-0.428 0.345-0.773 0.772-0.773s0.772 0.345 0.772 0.773z"></path>
<path fill="#fff" d="M14.835 19.064c0.503 0 0.908-0.405 0.908-0.907s-0.405-0.908-0.908-0.908c-0.503 0-0.908 0.405-0.908 0.908s0.405 0.907 0.908 0.907z"></path>
<path fill="#fff" d="M8.235 16.754c0 0.323-0.255 0.578-0.577 0.578-0.315 0-0.577-0.255-0.577-0.578s0.255-0.578 0.577-0.578c0.315 0 0.577 0.255 0.577 0.578z"></path>
</svg>
