<!-- Generated by IcoMoon.io -->
<svg version="1.1" xmlns="http://www.w3.org/2000/svg" width="24" height="24" viewBox="0 0 24 24"><title>MKR</title>
<path fill="#000" d="M12 0c6.627 0 12 5.373 12 12s-5.373 12-12 12c-6.627 0-12-5.373-12-12s5.373-12 12-12z"></path>
<path fill="#fff" d="M6.094 15.6v-5.648l4.283 3.224v2.424h1.093v-2.652c-0-0.099-0.023-0.196-0.067-0.284s-0.108-0.165-0.187-0.224l-5.194-3.911c-0.095-0.071-0.208-0.113-0.326-0.124s-0.236 0.012-0.342 0.065c-0.106 0.053-0.195 0.134-0.257 0.235s-0.096 0.216-0.096 0.335v6.56h1.094zM17.939 15.6v-5.648l-4.283 3.224v2.424h-1.093v-2.652c0-0.099 0.023-0.196 0.067-0.284s0.108-0.165 0.187-0.224l5.194-3.909c0.095-0.070 0.207-0.113 0.325-0.124s0.236 0.012 0.342 0.065c0.106 0.053 0.195 0.134 0.258 0.234s0.096 0.216 0.097 0.334v6.56h-1.094z"></path>
</svg>
