<!-- Generated by IcoMoon.io -->
<svg version="1.1" xmlns="http://www.w3.org/2000/svg" width="24" height="24" viewBox="0 0 24 24"><title>NEAR</title>
<path fill="#fff" d="M12 0c6.627 0 12 5.373 12 12s-5.373 12-12 12c-6.627 0-12-5.373-12-12s5.373-12 12-12z"></path>
<path fill="#000" d="M15.955 6.108l-2.739 4.064c-0.189 0.277 0.175 0.612 0.437 0.379l2.695-2.345c0.073-0.058 0.175-0.015 0.175 0.087v7.327c0 0.102-0.131 0.146-0.189 0.073l-8.158-9.76c-0.262-0.32-0.641-0.495-1.063-0.495h-0.291c-0.758 0-1.384 0.626-1.384 1.398v10.314c0 0.772 0.626 1.398 1.398 1.398 0.481 0 0.932-0.248 1.195-0.67l2.739-4.064c0.189-0.277-0.175-0.612-0.437-0.379l-2.695 2.331c-0.073 0.058-0.175 0.015-0.175-0.087v-7.313c0-0.102 0.131-0.146 0.189-0.073l8.158 9.76c0.262 0.32 0.655 0.495 1.063 0.495h0.291c0.772 0 1.398-0.626 1.398-1.398v-10.314c0-0.772-0.626-1.398-1.398-1.398-0.495 0-0.947 0.248-1.209 0.67z"></path>
</svg>
