<!-- Generated by IcoMoon.io -->
<svg version="1.1" xmlns="http://www.w3.org/2000/svg" width="24" height="24" viewBox="0 0 24 24"><title>NEXO</title>
<path fill="#fff" d="M12 0c6.627 0 12 5.373 12 12s-5.373 12-12 12c-6.627 0-12-5.373-12-12s5.373-12 12-12z"></path>
<path fill="#3ca9e5" d="M8.393 5.616l7.354 4.244v4.329l-11.247-6.493 3.604-2.080c0.044-0.024 0.094-0.036 0.144-0.036s0.1 0.012 0.144 0.036z"></path>
<path fill="#1a4199" d="M15.747 5.531l3.607 2.080c0.043 0.026 0.080 0.063 0.105 0.107s0.039 0.094 0.041 0.144v8.488l-3.753-2.161v-8.658z"></path>
<path fill="#2853c3" d="M15.747 5.531l-3.75 2.164 3.75 2.164v-4.329z"></path>
<path fill="#2853c3" d="M19.497 16.354l-3.605 2.080c-0.046 0.027-0.098 0.041-0.152 0.041s-0.105-0.014-0.152-0.041l-7.351-4.244v-4.335l11.259 6.5z"></path>
<path fill="#60beff" d="M4.5 7.696v8.488c-0 0.052 0.013 0.104 0.038 0.15s0.062 0.084 0.107 0.111l3.604 2.080v-8.67l-3.75-2.159z"></path>
<path fill="#3ca9e5" d="M8.25 18.518l3.747-2.165-3.747-2.165v4.329z"></path>
</svg>
