<svg width="32" height="32" viewBox="0 0 32 32" fill="none" xmlns="http://www.w3.org/2000/svg">
<rect width="32" height="32" rx="16" fill="#020417" style="fill:#020417;fill:color(display-p3 0.0078 0.0157 0.0902);fill-opacity:1;"/>
<path d="M24.6623 18.3327C24.6641 19.1643 24.5009 19.988 24.1824 20.7562C23.865 21.5245 23.3988 22.2224 22.8106 22.8097C22.2229 23.3981 21.5246 23.8643 20.7559 24.1815C19.9896 24.4997 19.168 24.6632 18.3382 24.6627H18.3076C16.9724 24.6627 15.6471 24.2274 14.5729 23.4362C13.7767 22.845 13.1297 22.0759 12.6836 21.1902C12.2375 20.3045 12.0046 19.3267 12.0035 18.335V13.668C12.0031 13.4493 12.0461 13.2326 12.1299 13.0306C12.2137 12.8286 12.3367 12.6452 12.4918 12.4909C12.6461 12.3364 12.8295 12.2138 13.0313 12.1302C13.2331 12.0466 13.4494 12.0036 13.6679 12.0037C13.8863 12.0038 14.1026 12.047 14.3044 12.1308C14.5061 12.2146 14.6893 12.3374 14.8435 12.4921C15.1571 12.8062 15.3306 13.2239 15.3318 13.6674V18.3333C15.331 18.7277 15.4086 19.1183 15.5599 19.4826C15.7113 19.8468 15.9335 20.1773 16.2135 20.455C16.6329 20.8741 17.1676 21.1588 17.7494 21.2727C18.3324 21.3886 18.9318 21.3292 19.4818 21.1021C20.0299 20.8756 20.4984 20.4913 20.8276 19.998C21.1594 19.5039 21.3353 18.9286 21.3365 18.3333V9.00151C21.336 8.78298 21.3788 8.56652 21.4624 8.36461C21.546 8.16269 21.6688 7.97932 21.8235 7.82504C22.017 7.63178 22.255 7.48918 22.5167 7.40985C22.7784 7.33053 23.0556 7.31694 23.3238 7.37027C23.592 7.4236 23.8429 7.54222 24.0543 7.71563C24.2657 7.88904 24.4311 8.11189 24.5359 8.36445C24.62 8.56739 24.6623 8.7821 24.6623 9.00151V18.3327ZM11.5465 11.5445C11.2668 11.8226 11.0449 12.1534 10.8938 12.5178C10.7426 12.8822 10.6652 13.2729 10.6659 13.6674V22.9986C10.6664 23.2172 10.6236 23.4337 10.5399 23.6357C10.4562 23.8376 10.3333 24.0209 10.1782 24.175C9.55 24.8044 8.45353 24.8044 7.82471 24.175C7.66985 24.0208 7.54708 23.8375 7.46349 23.6355C7.37989 23.4336 7.33712 23.2171 7.33765 22.9986V13.668C7.33895 12.1505 7.88502 10.6839 8.87647 9.53504C9.46158 8.85801 10.1835 8.31265 10.9947 7.9349C11.8059 7.55714 12.6879 7.35557 13.5827 7.34345C14.4774 7.33133 15.3646 7.50895 16.1857 7.86461C17.0068 8.22026 17.7432 8.74587 18.3465 9.40681L18.3559 9.39563L18.3647 9.42916C18.99 10.12 19.4548 10.9406 19.7259 11.8321L19.7518 11.9174C19.9171 12.4868 20.0006 13.0756 20.0012 13.6674V18.3327C20.0008 18.6615 19.9032 18.9829 19.7205 19.2563C19.5378 19.5297 19.2783 19.7429 18.9747 19.8692C18.7765 19.9515 18.5671 19.9903 18.3559 19.9927V19.9956C18.3476 19.9956 18.34 19.9933 18.3318 19.9933C18.2259 19.9933 18.1194 19.9862 18.0135 19.965C17.9528 19.9522 17.8929 19.9357 17.8341 19.9156V19.9074C17.7941 19.8944 17.7529 19.888 17.7141 19.8721C17.4104 19.7458 17.1508 19.5325 16.9682 19.259C16.7855 18.9854 16.6879 18.664 16.6876 18.335V14.1097H16.6865V13.6668C16.6857 13.0712 16.508 12.4892 16.1757 11.9948C15.8435 11.5005 15.3718 11.116 14.8206 10.8903C14.4559 10.7373 14.0637 10.6606 13.6682 10.665C13.274 10.6644 12.8835 10.7419 12.5194 10.8929C12.1552 11.044 11.8246 11.265 11.5465 11.5445ZM25.1194 6.88092C24.8414 6.60165 24.511 6.38012 24.147 6.22909C23.7831 6.07806 23.3929 6.00052 22.9988 6.00092H22.9976C22.6037 6.00109 22.2138 6.07913 21.8501 6.23056C21.4865 6.38199 21.1564 6.60381 20.8788 6.88328C20.6002 7.16125 20.3793 7.49153 20.2286 7.85514C20.078 8.21875 20.0007 8.60853 20.0012 9.0021V9.33916C19.0457 7.94404 17.6564 6.90339 16.0489 6.3788C14.4414 5.8542 12.7056 5.87501 11.1112 6.43798C9.61582 6.96554 8.32168 7.94535 7.40824 9.24151C6.49083 10.5349 5.99866 12.0817 6 13.6674V22.9986C6 23.8003 6.31236 24.5539 6.87941 25.1209C7.15741 25.4006 7.48815 25.6224 7.85246 25.7733C8.21677 25.9243 8.60742 26.0014 9.00177 26.0003C9.3961 26.0013 9.78672 25.9241 10.151 25.7732C10.5153 25.6222 10.8461 25.4005 11.1241 25.1209C11.4038 24.8429 11.6255 24.5121 11.7764 24.1478C11.9274 23.7835 12.0046 23.3929 12.0035 22.9986V22.6639C12.9595 24.0576 14.3485 25.097 15.9552 25.6211C17.562 26.1452 19.2967 26.1247 20.8906 25.5627C22.3856 25.035 23.6793 24.0552 24.5924 22.7592C25.5091 21.4664 26.001 19.9205 26 18.3356V9.00092C26.0003 8.60685 25.9226 8.21661 25.7715 7.85267C25.6204 7.48873 25.3988 7.15828 25.1194 6.88034V6.88092Z" fill="url(#paint0_linear_22_170)" style=""/>
<defs>
<linearGradient id="paint0_linear_22_170" x1="5.11765" y1="25.8527" x2="25.8853" y2="3.60445" gradientUnits="userSpaceOnUse">
<stop offset="0.05" stop-color="white" style="stop-color:white;stop-opacity:1;"/>
<stop offset="0.38" stop-color="#A9B3F9" style="stop-color:#A9B3F9;stop-color:color(display-p3 0.6627 0.7020 0.9765);stop-opacity:1;"/>
<stop offset="1" stop-color="#7EA3F8" style="stop-color:#7EA3F8;stop-color:color(display-p3 0.4941 0.6392 0.9725);stop-opacity:1;"/>
</linearGradient>
</defs>
</svg>
