<svg width="32" height="32" viewBox="0 0 32 32" fill="none" xmlns="http://www.w3.org/2000/svg">
<rect width="32" height="32" rx="16" fill="#1F0B46" style="fill:#1F0B46;fill:color(display-p3 0.1216 0.0431 0.2745);fill-opacity:1;"/>
<g clip-path="url(#clip0_25_81)">
<path d="M25.9999 9.16724C24.4905 9.62661 23.0468 10.2172 21.603 10.8407C13.4655 14.5485 8.01867 20.1266 9.46242 23.3094C9.75773 23.9 10.2171 24.3922 10.8405 24.6875C12.7765 25.6719 14.9749 26 17.1077 25.6063C19.2405 25.2125 21.2093 24.1625 22.6859 22.5547C24.1624 20.9469 25.114 18.9125 25.3437 16.7469C25.5734 14.5813 25.114 12.3829 24.0312 10.5125L25.9999 9.16724Z" fill="#570DF5" style="fill:#570DF5;fill:color(display-p3 0.3412 0.0510 0.9608);fill-opacity:1;"/>
<path d="M23.3422 9.46248C21.8656 7.3953 19.6344 5.95155 17.1406 5.42655C14.6469 4.90155 12.0219 5.36092 9.85624 6.67342C7.6578 8.01873 6.0828 10.0859 5.39374 12.5469C4.67186 14.975 4.93436 17.6 6.11561 19.8312C8.01874 17.075 12.2515 13.8922 17.6328 11.4969C19.4703 10.7094 21.3734 10.0203 23.3422 9.46248Z" fill="#570DF5" style="fill:#570DF5;fill:color(display-p3 0.3412 0.0510 0.9608);fill-opacity:1;"/>
</g>
<defs>
<clipPath id="clip0_25_81">
<rect width="21" height="21" fill="white" style="fill:white;fill-opacity:1;" transform="translate(5 5)"/>
</clipPath>
</defs>
</svg>
