<!-- Generated by IcoMoon.io -->
<svg version="1.1" xmlns="http://www.w3.org/2000/svg" width="24" height="24" viewBox="0 0 24 24"><title>OCEAN</title>
<path fill="#fff" d="M12 0c6.627 0 12 5.373 12 12s-5.373 12-12 12c-6.627 0-12-5.373-12-12s5.373-12 12-12z"></path>
<path fill="#141414" d="M5.721 11.685c0 0.18-0.053 0.355-0.153 0.504s-0.241 0.266-0.407 0.335c-0.166 0.069-0.348 0.087-0.524 0.052s-0.338-0.121-0.465-0.248-0.213-0.289-0.249-0.465c-0.035-0.176-0.017-0.359 0.052-0.524s0.185-0.308 0.334-0.407c0.149-0.1 0.325-0.153 0.504-0.153 0.241 0 0.471 0.096 0.642 0.266s0.266 0.401 0.266 0.642zM20.143 11.685c0 0.18-0.053 0.355-0.153 0.504s-0.241 0.266-0.407 0.335-0.348 0.087-0.525 0.052c-0.176-0.035-0.338-0.121-0.465-0.248s-0.213-0.289-0.248-0.465c-0.035-0.176-0.017-0.359 0.052-0.525s0.185-0.308 0.335-0.407c0.149-0.1 0.325-0.153 0.504-0.153 0.24 0.001 0.47 0.096 0.64 0.266s0.265 0.401 0.265 0.641zM12.932 15.266c0 0.18-0.053 0.355-0.153 0.504s-0.241 0.266-0.407 0.335c-0.166 0.069-0.348 0.087-0.525 0.052s-0.338-0.122-0.465-0.248c-0.127-0.127-0.213-0.289-0.248-0.465s-0.017-0.359 0.052-0.525c0.069-0.166 0.185-0.308 0.335-0.407s0.325-0.153 0.504-0.153c0.241 0 0.471 0.096 0.641 0.266s0.266 0.401 0.266 0.641zM9.302 13.498c0 0.179-0.053 0.355-0.153 0.504s-0.242 0.266-0.407 0.334c-0.166 0.069-0.348 0.087-0.524 0.052s-0.338-0.122-0.465-0.248c-0.127-0.127-0.213-0.289-0.248-0.465s-0.017-0.359 0.052-0.524c0.069-0.166 0.185-0.308 0.334-0.407s0.325-0.153 0.504-0.153c0.241 0 0.472 0.096 0.642 0.266s0.266 0.401 0.266 0.642zM16.513 13.498c0 0.18-0.052 0.355-0.152 0.505s-0.241 0.266-0.407 0.335c-0.166 0.069-0.349 0.087-0.525 0.052s-0.338-0.121-0.465-0.248c-0.127-0.127-0.214-0.289-0.249-0.465s-0.017-0.359 0.052-0.525 0.186-0.308 0.335-0.407c0.15-0.1 0.325-0.153 0.505-0.152 0.24 0.001 0.47 0.096 0.64 0.266s0.265 0.4 0.266 0.64zM5.426 14.433c-0 0.121-0.036 0.24-0.104 0.341s-0.163 0.179-0.275 0.226c-0.112 0.046-0.235 0.058-0.354 0.035s-0.228-0.082-0.314-0.168c-0.086-0.086-0.144-0.195-0.168-0.314s-0.011-0.242 0.035-0.354c0.047-0.112 0.125-0.208 0.226-0.275s0.219-0.103 0.341-0.103c0.081 0 0.16 0.016 0.235 0.047s0.142 0.076 0.199 0.133 0.102 0.125 0.133 0.199c0.031 0.074 0.047 0.154 0.047 0.235zM19.849 14.433c-0 0.121-0.036 0.24-0.104 0.341s-0.163 0.179-0.275 0.226c-0.112 0.046-0.235 0.058-0.354 0.035s-0.228-0.082-0.314-0.168c-0.086-0.086-0.144-0.195-0.168-0.314s-0.011-0.242 0.035-0.354c0.047-0.112 0.125-0.208 0.226-0.275s0.22-0.103 0.341-0.103c0.163 0 0.319 0.065 0.433 0.18s0.18 0.271 0.18 0.433zM12.638 18.062c0 0.121-0.036 0.24-0.103 0.341s-0.163 0.18-0.275 0.226c-0.112 0.047-0.235 0.059-0.354 0.035s-0.228-0.082-0.314-0.168c-0.086-0.086-0.144-0.195-0.168-0.314s-0.011-0.242 0.035-0.354c0.046-0.112 0.125-0.208 0.226-0.275s0.22-0.103 0.341-0.103c0.162 0 0.318 0.065 0.433 0.18s0.18 0.271 0.18 0.433zM9.008 16.246c0 0.121-0.036 0.24-0.103 0.341s-0.163 0.179-0.275 0.226c-0.112 0.046-0.235 0.058-0.354 0.035s-0.228-0.082-0.314-0.168-0.144-0.195-0.168-0.314c-0.024-0.119-0.011-0.242 0.035-0.354s0.125-0.208 0.226-0.275c0.101-0.067 0.22-0.103 0.341-0.103 0.080 0 0.16 0.016 0.235 0.047s0.142 0.076 0.199 0.133c0.057 0.057 0.102 0.125 0.133 0.199s0.047 0.154 0.046 0.235zM16.219 16.246c0 0.121-0.036 0.24-0.103 0.341s-0.163 0.18-0.275 0.226c-0.112 0.047-0.236 0.059-0.355 0.035s-0.229-0.082-0.314-0.168c-0.086-0.086-0.144-0.195-0.168-0.314s-0.011-0.243 0.035-0.355c0.047-0.112 0.125-0.208 0.226-0.275s0.22-0.103 0.341-0.103c0.162 0 0.317 0.065 0.432 0.18s0.179 0.27 0.179 0.432zM5.132 16.591c0 0.063-0.019 0.125-0.054 0.178s-0.085 0.094-0.144 0.118c-0.059 0.024-0.123 0.031-0.185 0.018s-0.119-0.043-0.164-0.088c-0.045-0.045-0.075-0.102-0.088-0.164s-0.006-0.127 0.018-0.185 0.065-0.109 0.118-0.144c0.053-0.035 0.115-0.054 0.178-0.054 0.085 0 0.167 0.034 0.227 0.094s0.094 0.142 0.094 0.227zM19.555 16.591c0 0.063-0.019 0.125-0.054 0.178s-0.085 0.094-0.144 0.118c-0.059 0.024-0.123 0.031-0.185 0.018s-0.119-0.043-0.164-0.088c-0.045-0.045-0.075-0.102-0.088-0.164s-0.006-0.127 0.018-0.185c0.024-0.059 0.065-0.109 0.118-0.144s0.115-0.054 0.178-0.054c0.085 0 0.167 0.034 0.227 0.094s0.094 0.142 0.094 0.227zM12.343 20.221c0 0.063-0.019 0.125-0.054 0.178s-0.085 0.094-0.144 0.118c-0.059 0.024-0.123 0.031-0.185 0.018s-0.119-0.043-0.164-0.088-0.075-0.102-0.088-0.164c-0.012-0.062-0.006-0.127 0.018-0.185s0.065-0.109 0.118-0.144c0.053-0.035 0.115-0.054 0.178-0.054 0.085 0 0.167 0.034 0.227 0.094s0.094 0.142 0.094 0.227zM8.713 18.406c0 0.063-0.019 0.125-0.054 0.178s-0.085 0.094-0.144 0.118c-0.059 0.024-0.123 0.031-0.185 0.018s-0.119-0.043-0.164-0.088c-0.045-0.045-0.075-0.102-0.088-0.164s-0.006-0.127 0.018-0.185c0.024-0.059 0.065-0.109 0.118-0.144s0.115-0.054 0.178-0.054c0.085 0 0.167 0.034 0.227 0.094s0.094 0.142 0.094 0.227zM15.925 18.406c0 0.063-0.019 0.125-0.054 0.178s-0.085 0.094-0.144 0.118c-0.059 0.024-0.123 0.031-0.185 0.018s-0.119-0.043-0.164-0.088c-0.045-0.045-0.075-0.102-0.088-0.164s-0.006-0.127 0.018-0.185c0.024-0.059 0.065-0.109 0.118-0.144s0.115-0.054 0.178-0.054c0.085 0 0.167 0.034 0.227 0.094s0.094 0.142 0.094 0.227zM13.226 4.695c0 0.243-0.072 0.48-0.207 0.681s-0.326 0.359-0.551 0.452-0.471 0.117-0.709 0.070c-0.238-0.047-0.456-0.164-0.628-0.336s-0.288-0.39-0.335-0.628c-0.047-0.238-0.023-0.485 0.070-0.709s0.25-0.416 0.452-0.55c0.202-0.135 0.439-0.206 0.682-0.206 0.325 0 0.637 0.13 0.867 0.36s0.359 0.542 0.359 0.867zM13.226 8.323c0 0.243-0.072 0.48-0.207 0.681s-0.326 0.359-0.551 0.452c-0.224 0.093-0.471 0.117-0.709 0.070s-0.456-0.164-0.628-0.336c-0.172-0.172-0.288-0.39-0.336-0.628s-0.023-0.485 0.070-0.709c0.093-0.224 0.25-0.416 0.452-0.55s0.439-0.207 0.682-0.206c0.325 0 0.637 0.129 0.867 0.359s0.359 0.542 0.359 0.867zM13.226 11.905c0 0.243-0.072 0.48-0.207 0.681s-0.326 0.359-0.551 0.452c-0.224 0.093-0.471 0.117-0.709 0.070s-0.456-0.164-0.628-0.336c-0.172-0.172-0.288-0.39-0.336-0.628s-0.023-0.485 0.070-0.709c0.093-0.224 0.25-0.416 0.452-0.55s0.439-0.207 0.682-0.206c0.161 0 0.321 0.032 0.47 0.094s0.284 0.152 0.398 0.266 0.204 0.25 0.266 0.398c0.062 0.149 0.093 0.309 0.093 0.47zM20.438 8.323c0 0.243-0.072 0.48-0.207 0.681s-0.326 0.359-0.55 0.452c-0.224 0.093-0.471 0.117-0.709 0.070s-0.456-0.164-0.628-0.336c-0.172-0.172-0.288-0.39-0.336-0.628s-0.023-0.485 0.070-0.709c0.093-0.224 0.25-0.416 0.452-0.55s0.439-0.207 0.681-0.207c0.325 0 0.637 0.129 0.867 0.359s0.359 0.542 0.359 0.867zM6.015 8.323c0 0.243-0.071 0.48-0.206 0.682s-0.326 0.359-0.55 0.453c-0.224 0.093-0.471 0.118-0.709 0.070s-0.457-0.164-0.628-0.335c-0.172-0.171-0.289-0.39-0.336-0.628s-0.023-0.485 0.069-0.709c0.093-0.224 0.25-0.416 0.452-0.551s0.439-0.207 0.682-0.207c0.325 0 0.637 0.129 0.867 0.359s0.359 0.541 0.36 0.866zM9.645 6.508c0 0.243-0.071 0.48-0.206 0.682s-0.326 0.359-0.55 0.453c-0.224 0.093-0.471 0.118-0.709 0.071s-0.457-0.163-0.628-0.335c-0.172-0.171-0.289-0.39-0.337-0.627s-0.024-0.484 0.069-0.709c0.093-0.224 0.249-0.416 0.451-0.551s0.439-0.207 0.681-0.208c0.325 0 0.637 0.129 0.867 0.359s0.359 0.542 0.359 0.867zM9.643 10.091c0 0.243-0.072 0.48-0.207 0.681s-0.326 0.359-0.55 0.452c-0.224 0.093-0.471 0.117-0.709 0.070s-0.456-0.164-0.628-0.336c-0.172-0.172-0.288-0.39-0.336-0.628s-0.023-0.485 0.070-0.709c0.093-0.224 0.25-0.416 0.452-0.55s0.439-0.207 0.681-0.207c0.325 0 0.637 0.129 0.867 0.359s0.359 0.542 0.359 0.867zM16.857 6.51c0 0.243-0.072 0.48-0.207 0.681s-0.326 0.359-0.55 0.452c-0.224 0.093-0.471 0.117-0.709 0.070s-0.456-0.164-0.628-0.336-0.288-0.39-0.336-0.628c-0.047-0.238-0.023-0.485 0.070-0.709s0.25-0.416 0.452-0.55c0.202-0.135 0.439-0.207 0.681-0.207 0.325 0 0.637 0.129 0.867 0.359s0.359 0.542 0.359 0.867zM16.857 10.091c0 0.243-0.072 0.48-0.207 0.681s-0.326 0.359-0.55 0.452c-0.224 0.093-0.471 0.117-0.709 0.070s-0.456-0.164-0.628-0.336-0.288-0.39-0.336-0.628c-0.047-0.238-0.023-0.485 0.070-0.709s0.25-0.416 0.452-0.55c0.202-0.135 0.439-0.207 0.681-0.207 0.325 0 0.637 0.129 0.867 0.359s0.359 0.542 0.359 0.867z"></path>
</svg>
