<!-- Generated by IcoMoon.io -->
<svg version="1.1" xmlns="http://www.w3.org/2000/svg" width="24" height="24" viewBox="0 0 24 24"><title>OKB</title>
<path fill="#000" d="M12 0c6.627 0 12 5.373 12 12s-5.373 12-12 12c-6.627 0-12-5.373-12-12s5.373-12 12-12z"></path>
<path fill="#fff" d="M14.471 16.805c0 0.664-0.002 1.328 0.001 1.992 0.002 0.323 0.099 0.427 0.413 0.428 1.311 0.003 2.622 0.003 3.933 0 0.319-0.001 0.445-0.125 0.446-0.437 0.003-1.302 0.003-2.605 0-3.907-0.001-0.332-0.124-0.448-0.458-0.448-1.302-0.002-2.605-0.002-3.907-0-0.341 0-0.425 0.084-0.427 0.432-0.004 0.647-0.001 1.294-0.001 1.941zM9.492 16.818c0-0.655 0.002-1.311-0.001-1.966-0.002-0.357-0.066-0.419-0.429-0.419-1.285-0.001-2.57-0.001-3.855 0-0.388 0-0.471 0.081-0.471 0.471-0.002 1.285-0.002 2.57 0 3.855 0.001 0.369 0.091 0.465 0.456 0.466 1.294 0.003 2.587 0.003 3.881-0 0.329-0.001 0.417-0.092 0.418-0.415 0.003-0.664 0.001-1.328 0.001-1.992zM11.982 14.321c0.673 0 1.345 0.003 2.018-0.001 0.292-0.002 0.358-0.064 0.358-0.348 0.003-1.345 0.003-2.691-0.001-4.036-0.001-0.272-0.090-0.364-0.356-0.365-1.337-0.003-2.674-0.003-4.011 0-0.297 0.001-0.386 0.094-0.386 0.391-0.002 1.328-0.002 2.656-0 3.985 0 0.315 0.060 0.373 0.385 0.374 0.664 0.003 1.328 0.001 1.992 0.001zM16.856 9.453c0.664 0 1.328 0.002 1.991-0.001 0.323-0.002 0.415-0.092 0.416-0.418 0.003-1.293 0.003-2.586 0-3.879-0.001-0.328-0.090-0.419-0.415-0.419-1.336-0.002-2.672-0.002-4.009 0-0.305 0.001-0.368 0.064-0.369 0.363-0.002 1.319-0.002 2.638 0 3.957 0.001 0.333 0.064 0.395 0.393 0.397 0.664 0.003 1.327 0.001 1.991 0.001zM7.128 9.453c0.664 0 1.328 0.002 1.992-0.001 0.309-0.002 0.371-0.060 0.371-0.361 0.003-1.328 0.003-2.655 0-3.983-0.001-0.315-0.061-0.372-0.386-0.373-1.319-0.002-2.638-0.002-3.957 0-0.328 0.001-0.411 0.086-0.412 0.419-0.002 1.302-0.002 2.604-0 3.906 0 0.322 0.069 0.39 0.4 0.392 0.664 0.004 1.328 0.001 1.992 0.001z"></path>
</svg>
