<!-- Generated by IcoMoon.io -->
<svg version="1.1" xmlns="http://www.w3.org/2000/svg" width="24" height="24" viewBox="0 0 24 24"><title>ONE</title>
<path fill="#fff" d="M12 0c6.627 0 12 5.373 12 12s-5.373 12-12 12c-6.627 0-12-5.373-12-12s5.373-12 12-12z"></path>
<path fill="#000" d="M15.998 4.965c-0.803-0.001-1.574 0.317-2.143 0.884s-0.89 1.337-0.892 2.14v3.353c-0.313 0.021-0.632 0.034-0.963 0.034s-0.649 0.013-0.963 0.032v-3.42c-0.013-0.796-0.338-1.556-0.906-2.114s-1.332-0.872-2.128-0.872c-0.796 0-1.561 0.313-2.128 0.872s-0.893 1.318-0.906 2.114v8.014c0.013 0.796 0.338 1.556 0.906 2.114s1.332 0.872 2.128 0.872 1.561-0.313 2.128-0.872c0.568-0.559 0.893-1.318 0.906-2.114v-3.353c0.313-0.021 0.632-0.034 0.963-0.034s0.649-0.013 0.963-0.032v3.419c0.013 0.796 0.338 1.556 0.906 2.114s1.332 0.872 2.128 0.872 1.561-0.313 2.128-0.872c0.568-0.559 0.893-1.318 0.906-2.114v-8.014c-0.002-0.803-0.323-1.572-0.891-2.139s-1.339-0.885-2.142-0.885zM8.002 6.204c0.474-0 0.929 0.188 1.264 0.522s0.525 0.789 0.526 1.263v3.551c-0.888 0.129-1.755 0.374-2.578 0.729-0.357 0.157-0.693 0.357-1 0.597v-4.877c0.001-0.473 0.19-0.927 0.525-1.262s0.789-0.523 1.262-0.523zM9.793 16.003c0 0.475-0.189 0.93-0.524 1.266s-0.791 0.524-1.266 0.524-0.93-0.189-1.266-0.524c-0.336-0.336-0.524-0.791-0.524-1.266v-0.804c0-0.71 0.563-1.383 1.505-1.802 0.664-0.287 1.362-0.491 2.076-0.607v3.212zM15.998 17.788c-0.474 0-0.929-0.188-1.264-0.522s-0.525-0.789-0.526-1.263v-3.551c0.888-0.129 1.755-0.374 2.578-0.729 0.357-0.157 0.693-0.357 1-0.597v4.877c-0.001 0.473-0.19 0.927-0.525 1.262s-0.789 0.523-1.262 0.523zM16.283 10.59c-0.664 0.287-1.362 0.491-2.076 0.607v-3.208c0-0.475 0.189-0.93 0.524-1.266s0.791-0.524 1.266-0.524 0.93 0.189 1.266 0.524c0.336 0.336 0.524 0.791 0.524 1.266v0.804c0 0.707-0.563 1.38-1.505 1.797z"></path>
</svg>
