<!-- Generated by IcoMoon.io -->
<svg version="1.1" xmlns="http://www.w3.org/2000/svg" width="24" height="24" viewBox="0 0 24 24"><title>OP</title>
<path fill="#ff0420" d="M12 0c6.627 0 12 5.373 12 12s-5.373 12-12 12c-6.627 0-12-5.373-12-12s5.373-12 12-12z"></path>
<path fill="#fff" d="M6.489 14.7c0.456 0.336 1.042 0.504 1.757 0.504 0.864 0 1.555-0.197 2.069-0.6 0.518-0.408 0.878-1.027 1.090-1.848 0.13-0.504 0.235-1.027 0.326-1.56 0.029-0.192 0.043-0.35 0.043-0.475 0-0.418-0.106-0.778-0.317-1.080-0.211-0.307-0.499-0.538-0.864-0.686-0.365-0.158-0.782-0.235-1.243-0.235-1.699 0-2.755 0.826-3.163 2.477-0.144 0.61-0.254 1.128-0.331 1.56-0.029 0.192-0.043 0.35-0.043 0.485 0 0.629 0.226 1.118 0.677 1.459zM9.23 13.61c-0.235 0.197-0.518 0.298-0.854 0.298-0.576 0-0.869-0.274-0.864-0.83 0-0.134 0.014-0.259 0.038-0.379 0.11-0.586 0.216-1.075 0.326-1.478 0.101-0.413 0.269-0.715 0.504-0.912 0.24-0.197 0.528-0.298 0.864-0.298 0.571 0 0.854 0.274 0.854 0.821 0 0.134-0.014 0.264-0.038 0.389-0.072 0.422-0.178 0.912-0.317 1.478-0.101 0.413-0.274 0.715-0.514 0.912z"></path>
<path fill="#fff" d="M12.038 15.055c0.038 0.043 0.086 0.062 0.154 0.062h1.224c0.062 0 0.12-0.019 0.173-0.062 0.058-0.043 0.086-0.096 0.101-0.163l0.413-1.973h1.214c0.787 0 1.406-0.163 1.858-0.494 0.461-0.331 0.763-0.84 0.912-1.531 0.034-0.163 0.053-0.322 0.053-0.47 0-0.523-0.206-0.922-0.614-1.2-0.403-0.274-0.936-0.413-1.603-0.413h-2.395c-0.062 0-0.12 0.019-0.173 0.062-0.058 0.043-0.091 0.096-0.101 0.163l-1.243 5.856c-0.010 0.062 0 0.115 0.029 0.163zM16.037 11.469c-0.187 0.139-0.403 0.206-0.658 0.206h-1.032l0.341-1.613h1.080c0.245 0 0.422 0.048 0.523 0.144 0.101 0.091 0.154 0.226 0.154 0.398 0 0.077-0.010 0.168-0.029 0.269-0.062 0.259-0.187 0.456-0.379 0.595z"></path>
</svg>
