<svg width="32" height="32" viewBox="0 0 32 32" fill="none" xmlns="http://www.w3.org/2000/svg">
<rect width="32" height="32" rx="16" fill="#3C1B67" style="fill:#3C1B67;fill:color(display-p3 0.2353 0.1059 0.4039);fill-opacity:1;"/>
<path d="M25.9624 8.93551C25.7402 8.078 25.0253 7.22049 23.7382 6.26586C22.7057 5.50548 21.6093 5.06885 20.7351 5.06885C20.5601 5.06885 20.4018 5.0846 20.2425 5.11697C19.8453 5.19747 19.4961 5.48885 19.273 5.92636C19.0026 6.44436 18.9396 7.13999 19.1137 7.56087C19.1776 7.69037 19.2564 7.85225 19.3518 7.9975C18.51 8.5155 18.0331 8.66076 17.9692 8.67738C20.162 9.42201 21.989 10.9752 23.1335 12.9973L23.1493 12.803C23.1965 12.2693 23.3558 11.6542 23.578 11.0233C23.8003 11.088 24.0225 11.1204 24.2457 11.1204C24.8337 11.1204 25.3421 10.878 25.6597 10.4405C25.9791 10.0039 26.1059 9.42114 25.9624 8.93551Z" fill="#5A328D" style="fill:#5A328D;fill:color(display-p3 0.3529 0.1961 0.5529);fill-opacity:1;"/>
<path d="M23.6752 10.5542C25.1207 10.9585 25.7087 9.82622 25.518 9.06584C25.3115 8.30546 24.6439 7.52845 23.4687 6.65519C22.2927 5.78106 21.101 5.4258 20.3388 5.58768C19.5758 5.74956 19.3536 6.93082 19.5443 7.38407C19.6239 7.5617 19.7989 7.8207 20.0369 8.11208C19.7351 8.32208 19.4489 8.48396 19.2109 8.63008C20.6731 9.29334 21.9436 10.3293 22.8973 11.6235C23.0085 11.1869 23.1677 10.7984 23.3104 10.4589C23.4206 10.4729 23.5475 10.5052 23.6752 10.5542Z" fill="url(#paint0_radial_22_71)" style=""/>
<path d="M15.3969 26.4103C20.3022 26.4103 24.2791 22.3608 24.2791 17.3654C24.2791 12.37 20.3022 8.32129 15.3969 8.32129C10.4916 8.32129 6.51465 12.3708 6.51465 17.3663C6.51465 22.3617 10.4916 26.4103 15.3969 26.4103Z" fill="url(#paint1_radial_22_71)" style=""/>
<path opacity="0.6" d="M24.7875 8.32123C23.58 7.02709 22.5632 6.68671 21.3399 6.41196C20.3862 6.18533 20.6408 5.63495 21.8011 5.7487C21.2446 5.55445 20.7204 5.50633 20.3389 5.58683C19.5759 5.7487 19.3537 6.92996 19.5444 7.38322C19.6241 7.56085 19.7991 7.81985 20.0371 8.11123C19.6083 8.4026 19.2426 8.61261 18.9407 8.77448C19.0833 8.83923 19.2583 8.91973 19.4648 9.03349C20.0047 9.32486 20.5927 9.81049 20.5927 9.81049C19.7028 9.03349 19.8936 8.67823 21.1168 7.8041C21.4983 7.52935 22.1975 7.56172 22.8485 7.90122C23.4995 8.24073 24.2625 9.09824 24.2625 9.09824L23.5318 10.5219C23.5791 10.5385 23.6272 10.5542 23.6745 10.5709C24.1356 10.7004 24.5005 10.668 24.7866 10.5543C25.1209 10.3434 25.995 9.63112 24.7875 8.32123Z" fill="#A48897" style="fill:#A48897;fill:color(display-p3 0.6431 0.5333 0.5922);fill-opacity:1;"/>
<path d="M21.3233 7.18811C21.6409 7.31761 22.0539 7.54424 22.5623 7.88374C23.166 8.288 23.6902 8.74125 24.0244 9.09738C23.4679 9.84201 23.103 10.8614 22.8808 11.5728C22.9919 11.7347 23.1188 11.8965 23.2308 12.0584C23.3419 11.6542 23.5327 11.0548 23.7873 10.4563C23.8512 10.4729 23.9299 10.4729 24.0095 10.4729C24.2003 10.4729 24.4225 10.4405 24.5976 10.2953C24.7244 10.1981 24.8679 10.0205 24.8522 9.69676C24.8522 9.38963 24.6142 9.00113 24.1215 8.53212C23.7715 8.19262 23.2955 7.81987 22.8187 7.48036C21.4519 6.55811 20.499 6.2991 20.0703 6.73573C19.7841 7.02711 19.8156 7.38324 19.911 7.64224C19.4026 7.98174 18.9739 8.225 18.6877 8.38687C18.8785 8.45162 19.0535 8.53212 19.2442 8.6135C19.75 8.337 20.4815 7.86799 21.3233 7.18811ZM24.3263 9.50251C24.3735 9.58301 24.3902 9.66438 24.3902 9.71251C24.3902 9.85776 24.3429 9.90676 24.3105 9.93914C24.2467 9.98726 24.1198 10.0196 24.0087 10.0196C24.104 9.82539 24.2152 9.66351 24.3263 9.50251ZM20.4019 7.09099C20.4491 7.04286 20.5769 7.01048 20.7834 7.04286C20.6241 7.17236 20.4658 7.28524 20.3065 7.39899C20.2908 7.28524 20.3065 7.17236 20.4019 7.09099Z" fill="#5A328D" style="fill:#5A328D;fill:color(display-p3 0.3529 0.1961 0.5529);fill-opacity:1;"/>
<path d="M15.3968 7.78662C10.201 7.78662 5.99048 12.0742 5.99048 17.3653C5.99048 22.6565 10.201 26.9441 15.3968 26.9441C20.5926 26.9441 24.8032 22.6565 24.8032 17.3653C24.8032 12.075 20.5769 7.78662 15.3968 7.78662ZM15.3968 26.4103C10.4871 26.4103 6.51461 22.3651 6.51461 17.3653C6.51461 12.3655 10.4871 8.32038 15.3968 8.32038C20.3065 8.32038 24.279 12.3655 24.279 17.3653C24.2782 22.3651 20.2907 26.4103 15.3968 26.4103Z" fill="#5A328D" style="fill:#5A328D;fill:color(display-p3 0.3529 0.1961 0.5529);fill-opacity:1;"/>
<path opacity="0.6" d="M15.3969 26.4103C20.3022 26.4103 24.2791 22.3608 24.2791 17.3654C24.2791 12.37 20.3022 8.32129 15.3969 8.32129C10.4916 8.32129 6.51465 12.3708 6.51465 17.3663C6.51465 22.3617 10.4916 26.4103 15.3969 26.4103Z" fill="url(#paint2_linear_22_71)" style=""/>
<path opacity="0.6" d="M15.3328 25.3096C10.487 24.5168 7.19786 19.8732 7.99237 14.9381C8.34238 12.7541 9.42214 10.8929 10.9482 9.5498C8.723 10.8614 7.07099 13.1426 6.62561 15.926C5.84685 20.861 9.13601 25.5047 13.9661 26.2975C16.6672 26.7507 19.273 25.8932 21.1954 24.2106C19.4961 25.2125 17.4302 25.65 15.3328 25.3096Z" fill="#A48897" style="fill:#A48897;fill:color(display-p3 0.6431 0.5333 0.5922);fill-opacity:1;"/>
<path opacity="0.6" d="M16.8108 8.4508C14.5708 8.07892 12.3938 8.59605 10.614 9.74494C10.5825 9.77732 10.5501 9.80969 10.5501 9.80969C11.2335 9.38881 12.2345 9.01693 12.2345 9.01693C9.66023 10.5377 8.86572 12.2693 8.86572 12.2693C9.86673 10.2953 12.8059 8.90406 15.1098 8.80693C17.4137 8.7098 18.9231 9.40544 20.7658 10.9105C22.6086 12.4312 23.7216 15.5375 23.6096 17.9971C23.5142 20.4568 22.2429 22.4466 22.2429 22.4466C23.117 21.2977 23.6411 20.4568 23.9745 19.5993C24.0384 19.3403 24.1014 19.0813 24.1337 18.8065C24.93 13.8872 21.6566 9.24356 16.8108 8.4508Z" fill="url(#paint3_linear_22_71)" style=""/>
<path d="M23.8337 17.2848C23.8337 22.0256 20.052 25.8765 15.3969 25.8765C10.7419 25.8765 6.94434 22.0256 6.94434 17.2848H23.8337Z" fill="url(#paint4_linear_22_71)" style=""/>
<g opacity="0.6">
<path opacity="0.6" d="M23.166 17.2848C23.166 21.9118 19.5749 25.698 15.0625 25.8765C15.1736 25.8765 15.2848 25.8765 15.3959 25.8765C20.0509 25.8765 23.8327 22.0256 23.8327 17.2848H23.166Z" fill="url(#paint5_linear_22_71)" style=""/>
</g>
<g opacity="0.7">
<path opacity="0.7" d="M8.1361 17.2848H6.94434C6.94434 22.0256 10.7261 25.8765 15.3812 25.8765C15.5877 25.8765 15.7784 25.8765 15.9692 25.8599C11.5994 25.5361 8.1361 21.8147 8.1361 17.2848Z" fill="url(#paint6_linear_22_71)" style=""/>
</g>
<path d="M23.818 17.3653C23.818 16.3783 22.1336 15.8121 19.8936 15.6179C18.2731 15.4884 16.6368 15.6503 14.7617 16.233C13.1411 16.7187 11.679 16.6373 10.615 16.5078C8.24722 16.233 6.94434 16.2006 6.94434 17.3653C6.94434 19.0479 10.3131 21.1514 15.3654 20.4234C17.9239 20.0516 19.2426 19.2912 20.752 18.7732C22.3882 18.2228 23.818 18.2394 23.818 17.3653Z" fill="url(#paint7_linear_22_71)" style=""/>
<path d="M18.161 13.2878C18.9511 13.2878 19.5907 12.6359 19.5907 11.8317C19.5907 11.0276 18.9502 10.3757 18.161 10.3757C17.3717 10.3757 16.7312 11.0276 16.7312 11.8317C16.7312 12.6359 17.3717 13.2878 18.161 13.2878Z" fill="white" style="fill:white;fill-opacity:1;"/>
<path d="M20.4973 14.372C20.8307 14.372 21.1011 14.0964 21.1011 13.7569C21.1011 13.4174 20.8307 13.1417 20.4973 13.1417C20.1639 13.1417 19.8936 13.4174 19.8936 13.7569C19.8936 14.0972 20.1639 14.372 20.4973 14.372Z" fill="white" style="fill:white;fill-opacity:1;"/>
<g opacity="0.6">
<path opacity="0.6" d="M22.6577 10.6672C22.642 10.6672 22.6262 10.6672 22.6262 10.6672C22.5308 10.6506 22.467 10.5543 22.4836 10.4405C22.6262 9.69592 23.23 8.98454 23.2623 8.95216C23.3262 8.87166 23.4531 8.87166 23.517 8.93553C23.5966 9.00029 23.5966 9.12979 23.5327 9.19454C23.517 9.21029 22.9605 9.87442 22.8336 10.521C22.817 10.6182 22.7373 10.6672 22.6577 10.6672Z" fill="url(#paint8_linear_22_71)" style=""/>
</g>
<path opacity="0.2" d="M14.8097 24.1126C15.0556 24.1126 15.2542 23.9096 15.2542 23.6593C15.2542 23.4091 15.0547 23.2061 14.8097 23.2061C14.5639 23.2061 14.3652 23.4091 14.3652 23.6593C14.3652 23.9096 14.5639 24.1126 14.8097 24.1126Z" fill="white" style="fill:white;fill-opacity:1;"/>
<g opacity="0.4">
<path opacity="0.6" d="M14.555 23.9515C14.38 23.7739 14.38 23.4825 14.555 23.304C14.5865 23.2716 14.6189 23.2559 14.6504 23.2235C14.5865 23.2401 14.5392 23.2716 14.4911 23.3206C14.3161 23.4983 14.3161 23.7896 14.4911 23.9681C14.6337 24.1134 14.8569 24.1458 15.031 24.0486C14.8726 24.1134 14.6819 24.081 14.555 23.9515Z" fill="url(#paint9_linear_22_71)" style=""/>
</g>
<path opacity="0.3" d="M14.9682 23.5297C15.0207 23.5297 15.0636 23.4859 15.0636 23.4326C15.0636 23.3792 15.0207 23.3354 14.9682 23.3354C14.9157 23.3354 14.8728 23.3792 14.8728 23.4326C14.8728 23.4868 14.9148 23.5297 14.9682 23.5297Z" fill="white" style="fill:white;fill-opacity:1;"/>
<path opacity="0.2" d="M17.1293 23.8859C17.3752 23.8859 17.5738 23.6829 17.5738 23.4326C17.5738 23.1824 17.3743 22.9794 17.1293 22.9794C16.8834 22.9794 16.6848 23.1824 16.6848 23.4326C16.6848 23.6829 16.8843 23.8859 17.1293 23.8859Z" fill="white" style="fill:white;fill-opacity:1;"/>
<g opacity="0.4">
<path opacity="0.6" d="M16.8748 23.7248C16.6998 23.5472 16.6998 23.2558 16.8748 23.0773C16.9063 23.045 16.9387 23.0292 16.9702 22.9968C16.9063 23.0135 16.8591 23.045 16.8109 23.094C16.6359 23.2716 16.6359 23.563 16.8109 23.7415C16.9536 23.8867 17.1767 23.9191 17.3508 23.822C17.1924 23.8867 17.0017 23.8543 16.8748 23.7248Z" fill="url(#paint10_linear_22_71)" style=""/>
</g>
<path opacity="0.3" d="M17.2878 23.304C17.3403 23.304 17.3831 23.2602 17.3831 23.2069C17.3831 23.1535 17.3403 23.1097 17.2878 23.1097C17.2353 23.1097 17.1924 23.1535 17.1924 23.2069C17.1924 23.2602 17.2353 23.304 17.2878 23.304Z" fill="white" style="fill:white;fill-opacity:1;"/>
<path opacity="0.2" d="M15.9847 24.9377C16.1694 24.9377 16.3181 24.7854 16.3181 24.5982C16.3181 24.4109 16.1685 24.2587 15.9847 24.2587C15.8001 24.2587 15.6514 24.4109 15.6514 24.5982C15.6514 24.7854 15.8001 24.9377 15.9847 24.9377Z" fill="white" style="fill:white;fill-opacity:1;"/>
<g opacity="0.4">
<path opacity="0.6" d="M15.794 24.809C15.6671 24.6795 15.6671 24.4529 15.794 24.3234C15.8098 24.3068 15.8413 24.291 15.8579 24.2744C15.8106 24.291 15.7783 24.3234 15.7468 24.3549C15.6199 24.4844 15.6199 24.711 15.7468 24.8405C15.8579 24.9534 16.0171 24.97 16.1598 24.8895C16.032 24.9385 15.8894 24.9062 15.794 24.809Z" fill="url(#paint11_linear_22_71)" style=""/>
</g>
<path opacity="0.3" d="M16.0959 24.4844C16.1309 24.4844 16.1597 24.4555 16.1597 24.4196C16.1597 24.3837 16.1309 24.3549 16.0959 24.3549C16.0609 24.3549 16.032 24.3837 16.032 24.4196C16.032 24.4555 16.0609 24.4844 16.0959 24.4844Z" fill="white" style="fill:white;fill-opacity:1;"/>
<path opacity="0.2" d="M18.0341 24.6952C18.2187 24.6952 18.3674 24.543 18.3674 24.3557C18.3674 24.1685 18.2178 24.0162 18.0341 24.0162C17.8503 24.0162 17.7007 24.1685 17.7007 24.3557C17.7007 24.543 17.8503 24.6952 18.0341 24.6952Z" fill="white" style="fill:white;fill-opacity:1;"/>
<g opacity="0.4">
<path opacity="0.6" d="M17.8443 24.5657C17.7174 24.4362 17.7174 24.2096 17.8443 24.0801C17.8601 24.0635 17.8916 24.0477 17.9082 24.032C17.8609 24.0486 17.8286 24.0801 17.7971 24.1125C17.6702 24.242 17.6702 24.4686 17.7971 24.5981C17.9082 24.711 18.0674 24.7276 18.2101 24.6462C18.0823 24.6952 17.9397 24.6629 17.8443 24.5657Z" fill="url(#paint12_linear_22_71)" style=""/>
</g>
<path opacity="0.3" d="M18.1452 24.2421C18.1802 24.2421 18.2091 24.2132 18.2091 24.1773C18.2091 24.1414 18.1802 24.1125 18.1452 24.1125C18.1102 24.1125 18.0813 24.1414 18.0813 24.1773C18.0822 24.2132 18.1102 24.2421 18.1452 24.2421Z" fill="white" style="fill:white;fill-opacity:1;"/>
<path opacity="0.2" d="M12.9179 23.9507C13.3213 23.9507 13.6485 23.6173 13.6485 23.2061C13.6485 22.7948 13.3213 22.4614 12.9179 22.4614C12.5145 22.4614 12.1873 22.7948 12.1873 23.2061C12.1873 23.6173 12.5145 23.9507 12.9179 23.9507Z" fill="white" style="fill:white;fill-opacity:1;"/>
<g opacity="0.4">
<path opacity="0.6" d="M12.5058 23.6759C12.2196 23.3845 12.2196 22.9155 12.5058 22.6241C12.553 22.576 12.6011 22.5436 12.665 22.5112C12.5696 22.5436 12.49 22.6084 12.4104 22.6731C12.1243 22.9645 12.1243 23.4335 12.4104 23.7249C12.6484 23.9672 13.0142 24.0162 13.3003 23.8377C13.0299 23.9506 12.7123 23.9025 12.5058 23.6759Z" fill="url(#paint13_linear_22_71)" style=""/>
</g>
<path opacity="0.3" d="M13.1727 22.9802C13.2602 22.9802 13.3319 22.9076 13.3319 22.8184C13.3319 22.7291 13.2611 22.6565 13.1727 22.6565C13.0852 22.6565 13.0134 22.7291 13.0134 22.8184C13.0134 22.9076 13.0843 22.9802 13.1727 22.9802Z" fill="white" style="fill:white;fill-opacity:1;"/>
<path opacity="0.2" d="M19.4489 22.1228C19.8523 22.1228 20.1795 21.7894 20.1795 21.3782C20.1795 20.9669 19.8523 20.6335 19.4489 20.6335C19.0455 20.6335 18.7183 20.9669 18.7183 21.3782C18.7183 21.7894 19.0446 22.1228 19.4489 22.1228Z" fill="white" style="fill:white;fill-opacity:1;"/>
<g opacity="0.4">
<path opacity="0.6" d="M19.0194 21.8471C18.7333 21.5558 18.7333 21.0867 19.0194 20.7954C19.0667 20.7464 19.1148 20.7149 19.1787 20.6825C19.0833 20.7149 19.0037 20.7796 18.9241 20.8444C18.6379 21.1357 18.6379 21.6048 18.9241 21.8961C19.1621 22.1385 19.5278 22.1875 19.814 22.009C19.5436 22.1228 19.2417 22.0738 19.0194 21.8471Z" fill="url(#paint14_linear_22_71)" style=""/>
</g>
<path opacity="0.3" d="M19.7027 21.1515C19.7902 21.1515 19.862 21.0789 19.862 20.9896C19.862 20.9004 19.7911 20.8278 19.7027 20.8278C19.6152 20.8278 19.5435 20.9004 19.5435 20.9896C19.5435 21.0789 19.6143 21.1515 19.7027 21.1515Z" fill="white" style="fill:white;fill-opacity:1;"/>
<defs>
<radialGradient id="paint0_radial_22_71" cx="0" cy="0" r="1" gradientUnits="userSpaceOnUse" gradientTransform="translate(25.2283 8.0463) scale(7.10146 7.23151)">
<stop stop-color="#F8EBF3" stop-opacity="0.6" style="stop-color:#F8EBF3;stop-color:color(display-p3 0.9725 0.9216 0.9529);stop-opacity:0.6;"/>
<stop offset="0.6807" stop-color="#9C88BB" style="stop-color:#9C88BB;stop-color:color(display-p3 0.6118 0.5333 0.7333);stop-opacity:1;"/>
<stop offset="1" stop-color="#16102C" style="stop-color:#16102C;stop-color:color(display-p3 0.0863 0.0627 0.1725);stop-opacity:1;"/>
</radialGradient>
<radialGradient id="paint1_radial_22_71" cx="0" cy="0" r="1" gradientUnits="userSpaceOnUse" gradientTransform="translate(21.2776 11.1294) scale(17.3747 17.6929)">
<stop stop-color="#F8EBF3" stop-opacity="0.6" style="stop-color:#F8EBF3;stop-color:color(display-p3 0.9725 0.9216 0.9529);stop-opacity:0.6;"/>
<stop offset="0.6807" stop-color="#9C88BB" style="stop-color:#9C88BB;stop-color:color(display-p3 0.6118 0.5333 0.7333);stop-opacity:1;"/>
<stop offset="1" stop-color="#16102C" style="stop-color:#16102C;stop-color:color(display-p3 0.0863 0.0627 0.1725);stop-opacity:1;"/>
</radialGradient>
<linearGradient id="paint2_linear_22_71" x1="13.9243" y1="26.2865" x2="16.8693" y2="8.44468" gradientUnits="userSpaceOnUse">
<stop stop-color="#A7D7E3" style="stop-color:#A7D7E3;stop-color:color(display-p3 0.6549 0.8431 0.8902);stop-opacity:1;"/>
<stop offset="0.6202" stop-color="white" stop-opacity="0" style="stop-color:none;stop-opacity:0;"/>
</linearGradient>
<linearGradient id="paint3_linear_22_71" x1="21.737" y1="11.3131" x2="14.2709" y2="18.0403" gradientUnits="userSpaceOnUse">
<stop offset="0.2888" stop-color="white" style="stop-color:white;stop-opacity:1;"/>
<stop offset="0.7796" stop-color="white" stop-opacity="0" style="stop-color:none;stop-opacity:0;"/>
</linearGradient>
<linearGradient id="paint4_linear_22_71" x1="6.94402" y1="21.5803" x2="23.8339" y2="21.5803" gradientUnits="userSpaceOnUse">
<stop stop-color="#3D4D9D" style="stop-color:#3D4D9D;stop-color:color(display-p3 0.2392 0.3020 0.6157);stop-opacity:1;"/>
<stop offset="0.9952" stop-color="#C55196" style="stop-color:#C55196;stop-color:color(display-p3 0.7725 0.3176 0.5882);stop-opacity:1;"/>
</linearGradient>
<linearGradient id="paint5_linear_22_71" x1="24.6755" y1="18.0892" x2="15.3314" y2="26.761" gradientUnits="userSpaceOnUse">
<stop offset="0.2888" stop-color="white" style="stop-color:white;stop-opacity:1;"/>
<stop offset="0.7796" stop-color="white" stop-opacity="0" style="stop-color:none;stop-opacity:0;"/>
</linearGradient>
<linearGradient id="paint6_linear_22_71" x1="6.94402" y1="21.5803" x2="15.9689" y2="21.5803" gradientUnits="userSpaceOnUse">
<stop stop-color="#2C2F7D" style="stop-color:#2C2F7D;stop-color:color(display-p3 0.1725 0.1843 0.4902);stop-opacity:1;"/>
<stop offset="0.9952" stop-color="#6B4595" style="stop-color:#6B4595;stop-color:color(display-p3 0.4196 0.2706 0.5843);stop-opacity:1;"/>
</linearGradient>
<linearGradient id="paint7_linear_22_71" x1="6.9625" y1="18.074" x2="23.8184" y2="18.074" gradientUnits="userSpaceOnUse">
<stop stop-color="#2C2F7D" style="stop-color:#2C2F7D;stop-color:color(display-p3 0.1725 0.1843 0.4902);stop-opacity:1;"/>
<stop offset="0.9952" stop-color="#964894" style="stop-color:#964894;stop-color:color(display-p3 0.5882 0.2824 0.5804);stop-opacity:1;"/>
</linearGradient>
<linearGradient id="paint8_linear_22_71" x1="23.564" y1="8.88709" x2="22.3204" y2="10.8716" gradientUnits="userSpaceOnUse">
<stop offset="0.2888" stop-color="white" style="stop-color:white;stop-opacity:1;"/>
<stop offset="0.7796" stop-color="white" stop-opacity="0" style="stop-color:none;stop-opacity:0;"/>
</linearGradient>
<linearGradient id="paint9_linear_22_71" x1="14.36" y1="23.6635" x2="15.0322" y2="23.6635" gradientUnits="userSpaceOnUse">
<stop offset="0.2888" stop-color="white" style="stop-color:white;stop-opacity:1;"/>
<stop offset="0.7796" stop-color="white" stop-opacity="0" style="stop-color:none;stop-opacity:0;"/>
</linearGradient>
<linearGradient id="paint10_linear_22_71" x1="16.6779" y1="23.4369" x2="17.3501" y2="23.4369" gradientUnits="userSpaceOnUse">
<stop offset="0.2888" stop-color="white" style="stop-color:white;stop-opacity:1;"/>
<stop offset="0.7796" stop-color="white" stop-opacity="0" style="stop-color:none;stop-opacity:0;"/>
</linearGradient>
<linearGradient id="paint11_linear_22_71" x1="15.6489" y1="24.6075" x2="16.1535" y2="24.6075" gradientUnits="userSpaceOnUse">
<stop offset="0.2888" stop-color="white" style="stop-color:white;stop-opacity:1;"/>
<stop offset="0.7796" stop-color="white" stop-opacity="0" style="stop-color:none;stop-opacity:0;"/>
</linearGradient>
<linearGradient id="paint12_linear_22_71" x1="17.692" y1="24.3648" x2="18.1966" y2="24.3648" gradientUnits="userSpaceOnUse">
<stop offset="0.2888" stop-color="white" style="stop-color:white;stop-opacity:1;"/>
<stop offset="0.7796" stop-color="white" stop-opacity="0" style="stop-color:none;stop-opacity:0;"/>
</linearGradient>
<linearGradient id="paint13_linear_22_71" x1="12.1883" y1="23.2276" x2="13.2861" y2="23.2276" gradientUnits="userSpaceOnUse">
<stop offset="0.2888" stop-color="white" style="stop-color:white;stop-opacity:1;"/>
<stop offset="0.7796" stop-color="white" stop-opacity="0" style="stop-color:none;stop-opacity:0;"/>
</linearGradient>
<linearGradient id="paint14_linear_22_71" x1="18.7084" y1="21.3993" x2="19.8063" y2="21.3993" gradientUnits="userSpaceOnUse">
<stop offset="0.2888" stop-color="white" style="stop-color:white;stop-opacity:1;"/>
<stop offset="0.7796" stop-color="white" stop-opacity="0" style="stop-color:none;stop-opacity:0;"/>
</linearGradient>
</defs>
</svg>
