<!-- Generated by IcoMoon.io -->
<svg version="1.1" xmlns="http://www.w3.org/2000/svg" width="24" height="24" viewBox="0 0 24 24"><title>PAXG</title>
<path fill="#fff" d="M12 0c6.627 0 12 5.373 12 12s-5.373 12-12 12c-6.627 0-12-5.373-12-12s5.373-12 12-12z"></path>
<path fill="#efe812" d="M7.844 5.459c0.36-0.405 0.683-0.75 0.998-1.043-5.274-0.173-3.743 3.646-5.469 7.517-1.98 4.463 0.233 6.166 3.533 6.699-0.458-0.548-0.84-1.163-1.118-1.823-2.13-2.693-1.268-7.592 2.055-11.35z"></path>
<path fill="#ede70a" d="M20.537 10.215c-0.623 1.628-1.523 3.143-2.663 4.463-0.915 1.11-2.010 2.063-3.233 2.806-1.395 0.885-3.023 1.358-4.681 1.358-0.030 0-0.067 0-0.098 0-0.053 0-0.113 0-0.173 0-0.93 0-1.86-0.068-2.783-0.21 0.54 0.645 1.215 1.17 1.973 1.545 4.771 2.31 5.071-1.973 10.12-4.148 2.836-1.223 2.843-3.608 1.53-5.806l0.008-0.008z"></path>
<path fill="#ede70a" d="M14.633 5.759c0.69 0.12 1.358 0.36 1.965 0.698 1.605 0.9 2.956 2.19 3.931 3.758 0.863-2.423 0.458-4.321-1.418-4.666-2.070-0.375-3.683-0.503-5.236-1.583-1.913-1.328-3.586-0.893-5.041 0.458l0.315 0.015c2.018 0.12 3.946 0.518 5.469 1.32l0.008 0.008 0.008-0.008z"></path>
<path fill="#dec21c" d="M7.844 5.459c-3.323 3.758-4.186 8.657-2.048 11.35-0.428-1.005-0.645-2.093-0.645-3.188 0-1.44 0.383-2.858 1.11-4.103 1.8-3.001 5.409-4.298 8.379-3.758-1.538-0.81-3.466-1.2-5.469-1.32l-0.315-0.015c-0.323 0.3-0.653 0.63-1.013 1.035z"></path>
<path fill="#e5cb22" d="M16.606 6.457c-0.615-0.338-1.283-0.57-1.965-0.69 2.018 1.065 3.361 2.866 3.361 5.716-0.023 2.445-1.29 4.711-3.361 6.009 1.23-0.743 2.325-1.695 3.241-2.806 1.14-1.32 2.040-2.828 2.663-4.463-0.975-1.56-2.325-2.858-3.931-3.758l-0.008-0.008z"></path>
<path fill="#cca727" d="M14.633 5.759c-2.963-0.548-6.579 0.758-8.379 3.743-0.728 1.245-1.11 2.671-1.11 4.111 0 1.095 0.225 2.183 0.653 3.196 0.278 0.66 0.653 1.275 1.118 1.823 0.915 0.135 1.845 0.21 2.776 0.21 0.053 0 0.113 0 0.173 0 0.030 0 0.067 0 0.098 0 1.658 0 3.278-0.473 4.681-1.358 2.070-1.298 3.338-3.563 3.361-6.009 0-2.851-1.343-4.651-3.361-5.716h-0.008zM14.303 16.127c-0.795 0.51-1.718 0.78-2.663 0.78-1.673 0-3.226-0.848-4.133-2.243-1.47-2.273-0.743-5.206 1.463-6.774 2.476-1.755 5.649-1.065 6.804 1.463 1.125 2.461 0.818 5.311-1.463 6.774h-0.008z"></path>
</svg>
