<!-- Generated by IcoMoon.io -->
<svg version="1.1" xmlns="http://www.w3.org/2000/svg" width="24" height="24" viewBox="0 0 24 24"><title>QNT</title>
<path fill="#fff" d="M12 0c6.627 0 12 5.373 12 12s-5.373 12-12 12c-6.627 0-12-5.373-12-12s5.373-12 12-12z"></path>
<path fill="#000" d="M8.082 4.592l4.286 5.022 2.877-1.692c0 0-3.471-4.642-4.397-4.314-0.87 0.332-2.766 0.984-2.766 0.984z"></path>
<path fill="#000" d="M15.352 7.922c0 0 0.653-1.147 0.977-2.677 0 0 3.257 1.309 2.007 4.587l-2.984-1.91z"></path>
<path fill="#000" d="M18.336 9.835l0.273 3.44 1.247-0.162c0 0 0.325-0.111 0.273-0.708-0.055-0.656-0.162-2.020-0.162-2.020s0.055-0.328-0.705-0.435c-0.926-0.169-0.926-0.114-0.926-0.114z"></path>
<path fill="#000" d="M18.606 13.275l-2.497 2.020 1.14 2.238c0 0 0.273 0.874 1.084-0.111 0.76-0.984 1.084-1.147 1.029-1.748-0.048-0.601-0.214-2.021-0.756-2.4z"></path>
<path fill="#000" d="M16.057 15.292l-3.419-1.53-2.984 6.061c0 0-0.218 0.435 0.542 0.49 0.76 0.11 2.007 0.383 2.659-0.273 0.653-0.598 3.202-4.749 3.202-4.749z"></path>
<path fill="#000" d="M12.638 13.71l-0.325-4.041-7.381 0.494c0 0-0.435 0.055-0.38 0.874 0.055 1.091 0.162 2.293 0.162 2.293s-0.055 0.49 0.922 0.546c0.977 0.052 6.894 0.052 7.001-0.166z"></path>
</svg>
