<!-- Generated by IcoMoon.io -->
<svg version="1.1" xmlns="http://www.w3.org/2000/svg" width="24" height="24" viewBox="0 0 24 24"><title>RNDR</title>
<path fill="#cf1011" d="M12 0c6.627 0 12 5.373 12 12s-5.373 12-12 12c-6.627 0-12-5.373-12-12s5.373-12 12-12z"></path>
<path fill="#fff" d="M12.086 4.603l0.009 0-0.009 0.854c0.787 0.010 1.565 0.163 2.294 0.442 0.72 0.278 1.392 0.682 1.978 1.2l0.019 0.019c1.354 1.2 2.093 2.842 2.198 4.522 0.106 1.67-0.432 3.379-1.622 4.733l-0.019 0.019c-1.2 1.354-2.842 2.093-4.522 2.198-1.68 0.096-3.398-0.442-4.752-1.642s-2.093-2.842-2.198-4.522c-0.087-1.52 0.345-3.071 1.316-4.355 0.291 0.191 0.638 0.304 1.017 0.304 0.509 0 0.979-0.211 1.315-0.547s0.547-0.797 0.547-1.315c0-0.509-0.211-0.979-0.547-1.315s-0.797-0.547-1.315-0.547c-0.509 0-0.979 0.211-1.315 0.547s-0.547 0.797-0.547 1.315c0 0.335 0.092 0.654 0.251 0.929-1.16 1.478-1.682 3.277-1.575 5.043 0.106 1.901 0.95 3.754 2.486 5.117 1.536 1.354 3.475 1.968 5.376 1.853 1.891-0.106 3.734-0.941 5.098-2.467l0.019-0.019c1.354-1.536 1.968-3.475 1.853-5.376-0.106-1.891-0.941-3.734-2.467-5.098l-0.019-0.019c-0.672-0.595-1.44-1.056-2.266-1.373-0.823-0.316-1.703-0.488-2.592-0.499l0-0.010-0.010 0.010zM7.795 5.515c0.278 0 0.528 0.115 0.71 0.298s0.298 0.432 0.298 0.71c0 0.278-0.115 0.528-0.298 0.71s-0.432 0.298-0.71 0.298c-0.278 0-0.528-0.115-0.71-0.298s-0.298-0.432-0.298-0.71c0-0.278 0.115-0.528 0.298-0.71s0.432-0.298 0.71-0.298z"></path>
<path fill="#fff" d="M12.019 9.192c1.565 0 2.842 1.267 2.842 2.842 0 1.565-1.267 2.842-2.842 2.842-1.565 0-2.842-1.267-2.842-2.842 0-1.565 1.267-2.842 2.842-2.842z"></path>
</svg>
