<!-- Generated by IcoMoon.io -->
<svg version="1.1" xmlns="http://www.w3.org/2000/svg" width="24" height="24" viewBox="0 0 24 24"><title>ROSE</title>
<path fill="#fff" d="M12 0c6.627 0 12 5.373 12 12s-5.373 12-12 12c-6.627 0-12-5.373-12-12s5.373-12 12-12z"></path>
<path fill="#0089db" d="M17.977 7.477c-1.137-1.453-2.801-2.379-4.641-2.379-3.562 0-6.176 3.316-6.176 6.902 0 2.496 1.664 4.371 3.504 4.371 0.176 0 0.34-0.012 0.516-0.047-1.242-0.902-2.027-2.543-2.027-4.324 0-2.836 1.922-5.051 4.184-5.051 2.473 0 4.184 2.449 4.184 5.051-0.012 1.922-0.691 3.832-1.898 5.238-1.055 1.23-2.414 2.004-3.914 2.25 0 0 0.129 0.012 0.293 0.012 4.137 0 7.5-3.363 7.5-7.5 0-1.699-0.563-3.27-1.523-4.523zM16.84 12c0-2.496-1.664-4.371-3.504-4.371-0.176 0-0.34 0.012-0.516 0.047 1.242 0.902 2.027 2.543 2.027 4.324 0 2.836-1.922 5.051-4.184 5.051-2.473 0-4.184-2.449-4.184-5.051 0.012-1.922 0.691-3.832 1.898-5.238 1.055-1.23 2.414-2.004 3.914-2.25 0 0-0.129-0.012-0.293-0.012-4.137 0-7.5 3.363-7.5 7.5 0 1.699 0.563 3.27 1.523 4.523 1.137 1.453 2.801 2.367 4.641 2.367 3.562 0.012 6.176-3.305 6.176-6.891z"></path>
</svg>
