<!-- Generated by IcoMoon.io -->
<svg version="1.1" xmlns="http://www.w3.org/2000/svg" width="24" height="24" viewBox="0 0 24 24"><title>RSR</title>
<path fill="#000" d="M12 0c6.627 0 12 5.373 12 12s-5.373 12-12 12c-6.627 0-12-5.373-12-12s5.373-12 12-12z"></path>
<path fill="#fff" d="M8.923 5.78h1.728c0.066 0 0.119 0.054 0.119 0.12v2.525c0 0.067 0.054 0.12 0.12 0.12h2.219c0.066 0 0.12-0.053 0.12-0.12v-2.525c0-0.066 0.053-0.12 0.12-0.12h1.727c0.066 0 0.12 0.054 0.12 0.12v2.525c0 0.067 0.053 0.12 0.12 0.12h2.112c0.067 0 0.12 0.054 0.12 0.12v1.723c0 0.067-0.053 0.12-0.12 0.12h-2.112c-0.067 0-0.12 0.054-0.12 0.12v2.682c0 0.066 0.053 0.12 0.12 0.12h2.112c0.067 0 0.12 0.053 0.12 0.12v1.723c0 0.066-0.053 0.12-0.12 0.12h-2.112c-0.067 0-0.12 0.054-0.12 0.12v2.525c0 0.066-0.054 0.12-0.12 0.12h-1.727c-0.067 0-0.12-0.054-0.12-0.12v-2.525c0-0.067-0.054-0.12-0.12-0.12h-2.218c-0.066 0-0.12 0.054-0.12 0.12v2.525c0 0.066-0.053 0.12-0.119 0.12h-1.728c-0.066 0-0.12-0.054-0.12-0.12v-2.525c0-0.067-0.053-0.12-0.12-0.12h-2.112c-0.067 0-0.12-0.054-0.12-0.12v-1.723c0-0.067 0.053-0.12 0.12-0.12h2.112c0.067 0 0.12-0.054 0.12-0.12v-2.682c0-0.066-0.053-0.12-0.12-0.12h-2.112c-0.067 0-0.12-0.053-0.12-0.12v-1.723c0-0.066 0.053-0.12 0.12-0.12h2.112c0.067 0 0.12-0.053 0.12-0.12v-2.525c-0.002-0.066 0.053-0.12 0.119-0.12zM13.229 13.311v-2.683c0-0.066-0.054-0.12-0.12-0.12h-2.219c-0.066 0-0.12 0.054-0.12 0.12v2.682c0 0.066 0.054 0.12 0.12 0.12h2.219c0.066 0.001 0.12-0.054 0.12-0.119z"></path>
</svg>
