<svg width="32" height="32" viewBox="0 0 32 32" fill="none" xmlns="http://www.w3.org/2000/svg">
<rect width="32" height="32" rx="16" fill="#48120E" style="fill:#48120E;fill:color(display-p3 0.2824 0.0706 0.0549);fill-opacity:1;"/>
<g clip-path="url(#clip0_25_83)">
<path d="M20.6441 7.75953C20.1236 8.27417 19.6467 8.83195 19.2229 9.42671L19.0889 9.38357C18.3159 9.13395 17.5149 8.97987 16.7077 8.92748C16.4646 8.90899 15.5576 8.90899 15.2615 8.92748C14.367 8.98603 13.6813 9.11854 12.9022 9.38665C12.871 9.39898 12.8429 9.40822 12.8149 9.41747C12.3754 8.82579 11.8861 8.27109 11.3469 7.76261C13.9338 6.4529 16.9601 6.29574 19.6686 7.3281C19.9584 7.43596 20.242 7.5623 20.5194 7.6979L20.6441 7.75953Z" fill="#DC3121" style="fill:#DC3121;fill:color(display-p3 0.8627 0.1922 0.1294);fill-opacity:1;"/>
<path d="M25.4688 19.4482C25.0761 20.5546 24.487 21.5808 23.7234 22.4744C23.3089 22.9552 22.8507 23.3959 22.3583 23.7965C21.2051 24.7148 19.8587 25.3712 18.4219 25.7164C16.8323 26.0954 15.1742 26.0954 13.5847 25.7164C12.1448 25.3712 10.8015 24.7148 9.6483 23.7965C9.15585 23.3959 8.6977 22.9552 8.28317 22.4744C6.08588 19.9074 5.4189 16.382 6.53781 13.2048C6.74974 12.6162 7.01467 12.0492 7.33257 11.5099C7.47906 11.2633 7.65983 10.986 7.7471 10.872C8.0463 12.1447 8.41407 13.2633 8.55121 13.667C8.54186 13.6886 8.52939 13.7133 8.51693 13.7348C7.79073 15.1894 7.39802 16.5915 7.30452 18.0831C7.30452 18.1016 7.3014 18.1231 7.3014 18.1416C7.27647 18.5885 7.28894 18.8011 7.36374 19.0815C7.59749 19.9598 8.31746 20.9274 9.44571 21.8766C11.2939 23.4298 13.7998 24.5515 15.6979 24.6809C17.677 24.8134 20.5973 23.6701 22.5422 21.9999C22.8476 21.7318 23.1343 21.4482 23.4024 21.1462C23.5956 20.9244 23.8824 20.5422 23.8605 20.5422C23.8543 20.5422 23.8605 20.5361 23.873 20.5299C23.8824 20.5237 23.8917 20.5145 23.8855 20.5083C23.8824 20.5053 23.8886 20.496 23.8979 20.4929C23.9073 20.4899 23.9135 20.4837 23.9104 20.4775C23.9073 20.4714 23.9104 20.4652 23.9229 20.4621C23.9322 20.459 23.9353 20.4498 23.9322 20.4436C23.9291 20.4375 23.9322 20.4313 23.9385 20.4313C23.9447 20.4313 23.9509 20.4221 23.9509 20.4159C23.9509 20.4097 23.9572 20.4005 23.9634 20.4005C23.9696 20.4005 23.9759 20.3943 23.9759 20.3882C23.9852 20.3635 24.0008 20.3388 24.0164 20.3173C24.0631 20.2464 24.2501 19.9167 24.2751 19.8612C24.4527 19.4637 24.5649 19.1093 24.6179 18.7549C24.6428 18.5854 24.6584 18.2741 24.646 18.2002C24.6428 18.1878 24.6428 18.1663 24.6397 18.1324C24.6335 18.0707 24.6304 17.9783 24.6241 17.8858C24.6179 17.7472 24.6054 17.553 24.5961 17.4575C24.4621 16.0584 24.1005 14.9151 23.4149 13.704C23.3868 13.6578 23.3619 13.6116 23.3463 13.5746C23.3401 13.5653 23.3369 13.5561 23.3338 13.5499C23.4304 13.2633 23.8263 12.0646 24.1411 10.6932L24.1473 10.6994L24.194 10.761C24.2751 10.8689 24.4901 11.1894 24.5867 11.3435C25.0262 12.0523 25.369 12.8134 25.6121 13.6085C26.1763 15.5222 26.1295 17.5623 25.4688 19.4482Z" fill="#DC3121" style="fill:#DC3121;fill:color(display-p3 0.8627 0.1922 0.1294);fill-opacity:1;"/>
<path d="M21.4233 15.7657C21.414 15.815 21.2675 15.9629 21.121 16.0708C20.6909 16.382 19.9211 16.6717 19.1388 16.8104C18.6931 16.8905 18.2474 16.9028 18.1134 16.8381C18.0261 16.795 18.0136 16.7611 18.0448 16.6501C18.1102 16.419 18.3222 16.1663 18.6526 15.929C18.8209 15.8088 19.5034 15.399 19.8213 15.2264C20.3449 14.9429 20.7688 14.7734 21.0555 14.7333C21.1459 14.721 21.255 14.7179 21.2893 14.7333C21.3454 14.7549 21.4077 14.9182 21.4327 15.1155C21.4451 15.2202 21.4389 15.6825 21.4233 15.7657Z" fill="black" style="fill:black;fill-opacity:1;"/>
<path d="M14.0802 16.7857C14.0615 16.8227 13.968 16.8627 13.862 16.8782C13.756 16.8936 13.4319 16.8843 13.248 16.8627C12.5872 16.7765 11.886 16.5761 11.3748 16.3296C11.0881 16.1909 10.8824 16.0523 10.7297 15.9013L10.6424 15.8119L10.6331 15.6948C10.6175 15.4914 10.6206 15.1709 10.6455 15.0569C10.6611 14.9614 10.6954 14.8689 10.7421 14.7857C10.7671 14.7549 10.7671 14.7549 10.8793 14.7549C11.0164 14.7549 11.1317 14.7765 11.3187 14.835C11.7021 14.9521 12.2725 15.2356 12.9675 15.6486C13.541 15.9875 13.756 16.154 13.9212 16.382C14.0334 16.5238 14.1082 16.7241 14.0802 16.7857Z" fill="black" style="fill:black;fill-opacity:1;"/>
<path d="M18.4935 21.0754C18.4935 21.0847 18.4561 21.2326 18.4094 21.4083C18.3626 21.5839 18.3252 21.7257 18.3252 21.7318C18.2909 21.7349 18.2598 21.738 18.2255 21.7349H18.1258L17.9886 22.0554C17.9138 22.2311 17.8453 22.3944 17.8359 22.4191L17.8172 22.4622L17.7518 22.3574L17.6863 22.2526V21.399L17.6614 21.4052C17.6084 21.4175 17.2313 21.4668 17.0661 21.4822C16.3835 21.55 15.6978 21.5346 15.0184 21.4391C14.9093 21.4237 14.8158 21.4113 14.8127 21.4144C14.8096 21.4175 14.8127 21.6147 14.8189 21.8582L14.8283 22.2958L14.7753 22.3759C14.7472 22.4191 14.7192 22.456 14.7192 22.4591C14.7098 22.4684 14.6787 22.4191 14.607 22.2773C14.5291 22.1294 14.473 21.9722 14.4324 21.8089L14.4106 21.7195L14.314 21.7257L14.2174 21.7349L14.1925 21.6209C14.18 21.5593 14.1644 21.4637 14.1582 21.4113L14.1488 21.3127L14.0678 21.2419C14.021 21.2018 13.9743 21.1617 13.9649 21.1556C13.9494 21.1432 13.9431 21.1217 13.9431 21.1032V21.0662L14.3327 21.0693L14.7223 21.0724L14.7348 21.1124L14.7472 21.1525L14.8813 21.1587C14.9561 21.1617 15.1929 21.1679 15.4049 21.1741L15.7944 21.1833L15.8942 21.0292L15.997 20.8751H16.1279L16.1248 20.5546L16.1217 20.2342L15.9503 20.1602C15.3986 19.9198 15.0745 19.6456 14.9529 19.3127C14.928 19.2449 14.928 19.2203 14.9218 18.9121C14.9187 18.607 14.9186 18.5793 14.9405 18.5115C14.9841 18.3574 15.1057 18.2372 15.2615 18.1972C15.3145 18.1818 15.4547 18.1818 16.1903 18.1818L17.0567 18.1848L17.1533 18.2311C17.2687 18.2865 17.3216 18.3266 17.3871 18.4129C17.4619 18.5115 17.4837 18.5885 17.4837 18.7765C17.4837 19.0446 17.465 19.2758 17.437 19.3682C17.3964 19.4946 17.3341 19.6147 17.2562 19.7226C17.1004 19.9198 16.8167 20.117 16.558 20.2064L16.4832 20.2342L16.4864 20.5577L16.4895 20.8813L16.558 20.8875L16.6266 20.8936L16.7201 21.0323L16.8105 21.171H17.2281C17.4588 21.171 17.6614 21.1741 17.6801 21.1771C17.7112 21.1833 17.7175 21.1802 17.7486 21.1278L17.786 21.0724H18.1445C18.4125 21.06 18.4935 21.0662 18.4935 21.0754Z" fill="black" style="fill:black;fill-opacity:1;"/>
<path d="M16.8479 21.9598C16.7887 21.9937 16.7482 22.0091 16.7389 22.003C16.7295 21.9999 16.6859 21.9629 16.6391 21.929L16.555 21.8612L16.4677 21.9537C16.2776 22.157 16.2713 22.1663 16.2152 22.1694C16.128 22.1786 16.1093 22.1632 16.0033 22.006C15.9472 21.9259 15.9036 21.8581 15.9036 21.8581C15.9036 21.8581 15.8631 21.852 15.8163 21.8489L15.729 21.8396L15.6885 21.9228L15.648 22.006L15.5763 21.9845C15.5202 21.966 15.4641 21.9444 15.4111 21.9198L15.3176 21.8735V21.6979L16.1467 21.701L16.9757 21.704L16.9788 21.7872C16.982 21.8859 16.9851 21.8828 16.8479 21.9598Z" fill="black" style="fill:black;fill-opacity:1;"/>
<path d="M24.6398 18.2002C24.6367 18.1879 24.6367 18.1663 24.6336 18.1324C23.8855 18.0523 21.7506 18.003 19.7684 19.6209C19.7684 19.6209 19.1294 16.7241 16.1374 16.7241C13.1453 16.7241 12.0358 19.6209 12.0358 19.6209C10.359 17.8366 8.11493 17.966 7.30458 18.0831C7.30458 18.1016 7.30146 18.1232 7.30146 18.1417C7.27653 18.5885 7.289 18.8012 7.3638 19.0816C7.59755 19.9599 8.31752 20.9275 9.44577 21.8767C11.294 23.4298 13.7998 24.5515 15.6979 24.681C17.677 24.8135 20.5974 23.6702 22.5422 21.9999C22.8477 21.7318 23.1344 21.4483 23.4024 21.1463C23.5957 20.9244 23.8824 20.5423 23.8606 20.5423C23.8544 20.5423 23.8606 20.5361 23.8731 20.53C23.8824 20.5238 23.8918 20.5146 23.8855 20.5084C23.8824 20.5053 23.8887 20.4961 23.898 20.493C23.9074 20.4899 23.9136 20.4838 23.9105 20.4776C23.9074 20.4714 23.9105 20.4653 23.9229 20.4622C23.9323 20.4591 23.9354 20.4499 23.9323 20.4437C23.9292 20.4375 23.9323 20.4314 23.9385 20.4314C23.9448 20.4314 23.951 20.4221 23.951 20.416C23.951 20.4098 23.9572 20.4005 23.9635 20.4005C23.9697 20.4005 23.9759 20.3944 23.9759 20.3882C23.9853 20.3636 24.0009 20.3389 24.0164 20.3173C24.0632 20.2465 24.2502 19.9167 24.2751 19.8613C24.4528 19.4637 24.565 19.1093 24.618 18.7549C24.6367 18.5854 24.6523 18.2742 24.6398 18.2002ZM16.848 21.9599C16.7888 21.9938 16.7482 22.0092 16.7389 22.003C16.7295 21.9999 16.6859 21.963 16.6392 21.9291L16.555 21.8613L16.4677 21.9537C16.2776 22.1571 16.2714 22.1663 16.2153 22.1694C16.128 22.1787 16.1093 22.1633 16.0034 22.0061C15.9473 21.926 15.9036 21.8582 15.9036 21.8582C15.9036 21.8582 15.8631 21.852 15.8163 21.8489L15.7291 21.8397L15.6886 21.9229L15.648 22.0061L15.5764 21.9845C15.5203 21.966 15.4642 21.9445 15.4112 21.9198L15.3177 21.8736V21.6979L16.1467 21.701L16.9758 21.7041L16.9789 21.7873C16.982 21.8859 16.9851 21.8828 16.848 21.9599ZM18.4063 21.4052C18.3596 21.5808 18.3222 21.7226 18.3222 21.7287C18.2879 21.7318 18.2567 21.7349 18.2225 21.7318H18.1227L17.9887 22.0554C17.9139 22.2311 17.8453 22.3944 17.836 22.419L17.8173 22.4622L17.7518 22.3574L17.6864 22.2526V21.399L17.6614 21.4052C17.6085 21.4175 17.2313 21.4668 17.0662 21.4822C16.3836 21.55 15.6979 21.5346 15.0185 21.4391C14.9094 21.4237 14.8159 21.4113 14.8128 21.4144C14.8096 21.4175 14.8128 21.6147 14.819 21.8582L14.8283 22.2958L14.7754 22.3759C14.7473 22.419 14.7193 22.456 14.7193 22.4591C14.7099 22.4683 14.6787 22.419 14.6071 22.2773C14.5291 22.1294 14.473 21.9722 14.4325 21.8089L14.4107 21.7195L14.3141 21.7257L14.2175 21.7349L14.1925 21.6209C14.1801 21.5593 14.1645 21.4637 14.1583 21.4113L14.1489 21.3127L14.0679 21.2418C14.0211 21.2018 13.9744 21.1617 13.965 21.1556C13.9494 21.1432 13.9432 21.1217 13.9432 21.1032V21.0662L14.3328 21.0693L14.7224 21.0723L14.7348 21.1124L14.7473 21.1525L14.8813 21.1586C14.9561 21.1617 15.193 21.1679 15.4049 21.174L15.7945 21.1833L15.8943 21.0292L15.9971 20.8751H16.128L16.1249 20.5546L16.1218 20.2341L15.9504 20.1602C15.3987 19.9198 15.0746 19.6455 14.953 19.3127C14.9281 19.2449 14.9281 19.2203 14.9218 18.9121C14.9187 18.607 14.9187 18.5793 14.9405 18.5115C14.9842 18.3574 15.1057 18.2372 15.2616 18.1972C15.3146 18.1817 15.4548 18.1817 16.1904 18.1817L17.0568 18.1848L17.1534 18.2311C17.2687 18.2865 17.3217 18.3266 17.3872 18.4129C17.462 18.5115 17.4838 18.5885 17.4838 18.7765C17.4838 19.0446 17.4651 19.2757 17.437 19.3682C17.3965 19.4945 17.3342 19.6147 17.2563 19.7226C17.1004 19.9198 16.8168 20.117 16.5581 20.2064L16.4833 20.2341L16.4864 20.5577L16.4896 20.8813L16.5581 20.8874L16.6267 20.8936L16.7202 21.0323L16.8106 21.171H17.2282C17.4589 21.171 17.6614 21.174 17.6801 21.1771C17.7113 21.1833 17.7176 21.1802 17.7487 21.1278L17.7861 21.0723H18.1445C18.4219 21.0723 18.503 21.0754 18.503 21.0847C18.4936 21.0816 18.4531 21.2326 18.4063 21.4052Z" fill="white" style="fill:white;fill-opacity:1;"/>
<path d="M24.6148 17.8858C24.6086 17.7471 24.5961 17.553 24.5868 17.4574C24.4528 16.0584 24.0912 14.9151 23.4056 13.704C23.3775 13.6577 23.3526 13.6115 23.337 13.5745C23.3308 13.5653 23.3276 13.5561 23.3245 13.5499C23.4211 13.2633 23.817 12.0645 24.1318 10.6932C24.5587 8.83186 24.8299 6.65621 24.0009 6.00289C24.0009 6.00289 22.5672 5.89812 20.6473 7.75944C20.1268 8.27408 19.6499 8.83186 19.226 9.42662L19.092 9.38348C18.3191 9.13386 17.5181 8.97978 16.7108 8.92739C16.4677 8.9089 15.5608 8.9089 15.2647 8.92739C14.3702 8.98594 13.6845 9.11845 12.9053 9.38656C12.8742 9.39889 12.8461 9.40813 12.8181 9.41738C12.3786 8.8257 11.8893 8.271 11.3501 7.76252C9.35226 5.89195 7.86558 5.99981 7.86558 5.99981C6.98667 6.67469 7.28587 8.94896 7.74091 10.8719C8.04012 12.1447 8.40789 13.2633 8.54503 13.667C8.53568 13.6886 8.52321 13.7132 8.51075 13.7348C7.78455 15.1893 7.39184 16.5915 7.29834 18.083C8.1118 17.9659 10.3527 17.8334 12.0326 19.6208C12.0326 19.6208 13.1422 16.724 16.1342 16.724C19.1263 16.724 19.7652 19.6208 19.7652 19.6208C21.7475 18.0029 23.8824 18.0553 24.6304 18.1323C24.6273 18.0707 24.6211 17.9782 24.6148 17.8858ZM9.13409 12.5052C9.13409 12.5052 7.96843 9.62385 8.26764 7.97824C8.31751 7.70089 8.41101 7.45744 8.5575 7.27254C8.5575 7.27254 9.87898 7.40197 12.0108 9.74403C12.0108 9.74403 11.6056 9.93818 11.0633 10.3511C11.0633 10.3511 11.0602 10.3542 11.0571 10.3542C10.468 10.801 9.7138 11.5098 9.13409 12.5052ZM14.0803 16.7856C14.0616 16.8226 13.9681 16.8627 13.8622 16.8781C13.7562 16.8935 13.432 16.8843 13.2482 16.8627C12.5874 16.7764 11.8862 16.5761 11.375 16.3296C11.0883 16.1909 10.8826 16.0522 10.7298 15.9012L10.6426 15.8118L10.6332 15.6947C10.6176 15.4913 10.6208 15.1708 10.6457 15.0568C10.6613 14.9613 10.6956 14.8688 10.7423 14.7856C10.7673 14.7548 10.7673 14.7548 10.8795 14.7548C11.0166 14.7548 11.1319 14.7764 11.3189 14.8349C11.7023 14.952 12.2726 15.2356 12.9677 15.6485C13.5411 15.9875 13.7562 16.1539 13.9214 16.3819C14.0336 16.5237 14.1084 16.724 14.0803 16.7856ZM21.4233 15.7656C21.414 15.8149 21.2675 15.9628 21.121 16.0707C20.6909 16.3819 19.9211 16.6716 19.1388 16.8103C18.6931 16.8904 18.2474 16.9027 18.1134 16.838C18.0261 16.7949 18.0136 16.761 18.0448 16.65C18.1102 16.4189 18.3222 16.1662 18.6526 15.9289C18.8209 15.8088 19.5034 15.3989 19.8213 15.2263C20.3449 14.9428 20.7688 14.7733 21.0555 14.7332C21.1459 14.7209 21.255 14.7178 21.2893 14.7332C21.3454 14.7548 21.4077 14.9181 21.4327 15.1154C21.4451 15.2202 21.4389 15.6824 21.4233 15.7656ZM20.9059 10.3511L20.8997 10.348C20.3761 9.9351 19.9834 9.74095 19.9834 9.74095C22.0435 7.39889 23.3183 7.26946 23.3183 7.26946C23.4585 7.45744 23.5489 7.69781 23.5988 7.97516C23.8886 9.62077 22.7635 12.5052 22.7635 12.5052C22.2929 11.6762 21.6602 10.9428 20.9059 10.3511Z" fill="#F2A83D" style="fill:#F2A83D;fill:color(display-p3 0.9490 0.6588 0.2392);fill-opacity:1;"/>
<path d="M23.6019 7.97523C23.3588 7.94442 22.2087 7.93825 20.9059 10.3512L20.8997 10.3481C20.3761 9.93517 19.9834 9.74103 19.9834 9.74103C22.0436 7.39896 23.3183 7.26953 23.3183 7.26953C23.4617 7.45751 23.552 7.69788 23.6019 7.97523Z" fill="#F09837" style="fill:#F09837;fill:color(display-p3 0.9412 0.5961 0.2157);fill-opacity:1;"/>
<path d="M22.7667 12.5053C22.2929 11.6732 21.6634 10.9429 20.906 10.3512C22.2088 7.93826 23.3557 7.94442 23.602 7.97524C23.8918 9.62393 22.7667 12.5053 22.7667 12.5053Z" fill="#EF8A33" style="fill:#EF8A33;fill:color(display-p3 0.9373 0.5412 0.2000);fill-opacity:1;"/>
<path d="M23.6486 7.98446C23.633 7.98138 23.6174 7.9783 23.6018 7.97522L23.6486 7.98446Z" fill="#EF8A33" style="fill:#EF8A33;fill:color(display-p3 0.9373 0.5412 0.2000);fill-opacity:1;"/>
<path d="M12.0107 9.74103C12.0107 9.74103 11.6055 9.93517 11.0632 10.3481C11.0632 10.3481 11.0601 10.3512 11.057 10.3512C9.70745 7.93517 8.51998 7.94442 8.2644 7.97523C8.31427 7.69788 8.40777 7.45443 8.55426 7.26953C8.55738 7.26953 9.87886 7.39896 12.0107 9.74103Z" fill="#F09837" style="fill:#F09837;fill:color(display-p3 0.9412 0.5961 0.2157);fill-opacity:1;"/>
<path d="M11.0602 10.3512C10.468 10.8011 9.71378 11.5068 9.13407 12.5053C9.13407 12.5053 7.96841 9.62393 8.26762 7.97524C8.52007 7.94442 9.71066 7.93826 11.0602 10.3512Z" fill="#EF8A33" style="fill:#EF8A33;fill:color(display-p3 0.9373 0.5412 0.2000);fill-opacity:1;"/>
<path d="M8.26764 7.97522C8.25206 7.9783 8.23336 7.98138 8.21777 7.98446L8.26764 7.97522Z" fill="#EF8A33" style="fill:#EF8A33;fill:color(display-p3 0.9373 0.5412 0.2000);fill-opacity:1;"/>
<path d="M19.6125 14.1047C19.6125 14.1047 18.6151 14.1663 18.7398 13.3959C18.8645 12.6255 19.6436 12.533 19.8618 12.5638C20.08 12.5946 20.9527 12.9028 20.7968 13.55C20.641 14.1971 20.4228 14.0738 20.2981 14.1047C20.1735 14.1355 19.6125 14.1047 19.6125 14.1047Z" fill="white" style="fill:white;fill-opacity:1;"/>
<path d="M12.257 14.1047C12.257 14.1047 11.2597 14.1663 11.3843 13.3959C11.509 12.6255 12.2882 12.533 12.5063 12.5638C12.7245 12.5946 13.5972 12.9028 13.4414 13.55C13.2855 14.1971 13.0673 14.0738 12.9427 14.1047C12.818 14.1355 12.257 14.1047 12.257 14.1047Z" fill="white" style="fill:white;fill-opacity:1;"/>
</g>
<defs>
<clipPath id="clip0_25_83">
<rect width="20" height="20" fill="white" style="fill:white;fill-opacity:1;" transform="translate(6 6)"/>
</clipPath>
</defs>
</svg>
