<svg width="32" height="32" viewBox="0 0 32 32" fill="none" xmlns="http://www.w3.org/2000/svg">
<rect x="1.25" y="1.25" width="29.5" height="29.5" rx="14.75" fill="#081521" style="fill:#081521;fill:color(display-p3 0.0314 0.0824 0.1294);fill-opacity:1;"/>
<rect x="1.25" y="1.25" width="29.5" height="29.5" rx="14.75" stroke="url(#paint0_linear_95_236)" style="" stroke-width="2.5" stroke-linejoin="round"/>
<path d="M14.757 22.2477C15.086 22.5766 15.5321 22.7613 15.9973 22.7613C16.4625 22.7613 16.9086 22.5766 17.2376 22.2477L22.2462 17.2395C22.5743 16.9104 22.7585 16.4647 22.7585 16C22.7585 15.5353 22.5743 15.0896 22.2462 14.7605L19.7666 12.2838L22.0567 9.99389L24.5403 12.4774C25.4751 13.4142 26 14.6835 26 16.0068C26 17.3301 25.4751 18.5994 24.5403 19.5363L19.5304 24.5445C19.0676 25.0084 18.5173 25.3759 17.9114 25.6258C17.3056 25.8756 16.6562 26.0028 16.0009 26L16.0006 26C15.3441 26.0023 14.6937 25.8742 14.0871 25.6232C13.4805 25.3722 12.9298 25.0032 12.467 24.5377L12.4669 24.5376L11.9413 24.012L14.2314 21.7221L14.757 22.2477Z" fill="url(#paint1_linear_95_236)" style=""/>
<path d="M19.5304 7.46234L20.0561 7.98794L17.766 10.2779L17.2403 9.75226C16.9113 9.42342 16.4652 9.23869 16 9.23869C15.5349 9.23869 15.0887 9.42342 14.7598 9.75226L9.75118 14.7605C9.58838 14.9232 9.45924 15.1165 9.37113 15.3292C9.28303 15.5418 9.23768 15.7698 9.23768 16C9.23768 16.2302 9.28303 16.4581 9.37113 16.6708C9.45924 16.8835 9.58838 17.0767 9.75118 17.2395L12.2348 19.723L9.9407 22.0129L7.46247 19.5294C6.99883 19.066 6.63102 18.5158 6.38008 17.9102C6.12915 17.3046 6 16.6555 6 16C6 15.3445 6.12915 14.6954 6.38008 14.0898C6.63102 13.4842 6.99881 12.934 7.46245 12.4706L12.471 7.46234C12.9345 6.99874 13.4848 6.63097 14.0904 6.38006C14.696 6.12914 15.3452 6 16.0007 6C16.6563 6 17.3054 6.12914 17.9111 6.38006C18.5167 6.63097 19.067 6.99874 19.5304 7.46234Z" fill="url(#paint2_linear_95_236)" style=""/>
<path d="M12.7809 15.3505L15.3536 12.778C15.7113 12.4203 16.2913 12.4203 16.6491 12.778L19.2218 15.3505C19.5795 15.7083 19.5795 16.2882 19.2218 16.6459L16.6491 19.2185C16.2913 19.5762 15.7113 19.5762 15.3536 19.2185L12.7809 16.6459C12.4231 16.2882 12.4231 15.7083 12.7809 15.3505Z" fill="url(#paint3_linear_95_236)" style=""/>
<defs>
<linearGradient id="paint0_linear_95_236" x1="32" y1="9.15065e-07" x2="13.5602" y2="38.0391" gradientUnits="userSpaceOnUse">
<stop stop-color="#6BD3F9" style="stop-color:#6BD3F9;stop-color:color(display-p3 0.4196 0.8275 0.9765);stop-opacity:1;"/>
<stop offset="1" stop-color="#26BAF5" style="stop-color:#26BAF5;stop-color:color(display-p3 0.1490 0.7294 0.9608);stop-opacity:1;"/>
<stop offset="1" stop-color="#0DA3DF" style="stop-color:#0DA3DF;stop-color:color(display-p3 0.0501 0.6398 0.8749);stop-opacity:1;"/>
</linearGradient>
<linearGradient id="paint1_linear_95_236" x1="26" y1="6" x2="14.4751" y2="29.7744" gradientUnits="userSpaceOnUse">
<stop stop-color="#6BD3F9" style="stop-color:#6BD3F9;stop-color:color(display-p3 0.4196 0.8275 0.9765);stop-opacity:1;"/>
<stop offset="1" stop-color="#26BAF5" style="stop-color:#26BAF5;stop-color:color(display-p3 0.1490 0.7294 0.9608);stop-opacity:1;"/>
<stop offset="1" stop-color="#0DA3DF" style="stop-color:#0DA3DF;stop-color:color(display-p3 0.0501 0.6398 0.8749);stop-opacity:1;"/>
</linearGradient>
<linearGradient id="paint2_linear_95_236" x1="26" y1="6" x2="14.4751" y2="29.7744" gradientUnits="userSpaceOnUse">
<stop stop-color="#6BD3F9" style="stop-color:#6BD3F9;stop-color:color(display-p3 0.4196 0.8275 0.9765);stop-opacity:1;"/>
<stop offset="1" stop-color="#26BAF5" style="stop-color:#26BAF5;stop-color:color(display-p3 0.1490 0.7294 0.9608);stop-opacity:1;"/>
<stop offset="1" stop-color="#0DA3DF" style="stop-color:#0DA3DF;stop-color:color(display-p3 0.0501 0.6398 0.8749);stop-opacity:1;"/>
</linearGradient>
<linearGradient id="paint3_linear_95_236" x1="26" y1="6" x2="14.4751" y2="29.7744" gradientUnits="userSpaceOnUse">
<stop stop-color="#6BD3F9" style="stop-color:#6BD3F9;stop-color:color(display-p3 0.4196 0.8275 0.9765);stop-opacity:1;"/>
<stop offset="1" stop-color="#26BAF5" style="stop-color:#26BAF5;stop-color:color(display-p3 0.1490 0.7294 0.9608);stop-opacity:1;"/>
<stop offset="1" stop-color="#0DA3DF" style="stop-color:#0DA3DF;stop-color:color(display-p3 0.0501 0.6398 0.8749);stop-opacity:1;"/>
</linearGradient>
</defs>
</svg>
