<!-- Generated by IcoMoon.io -->
<svg version="1.1" xmlns="http://www.w3.org/2000/svg" width="24" height="24" viewBox="0 0 24 24"><title>SNX</title>
<path fill="#000" d="M12 0c6.627 0 12 5.373 12 12s-5.373 12-12 12c-6.627 0-12-5.373-12-12s5.373-12 12-12z"></path>
<path fill="#00d1ff" d="M8.047 9.016c-0.096-0.119-0.241-0.185-0.397-0.185h-3.205c-0.026 0-0.050-0.010-0.069-0.026-0.017-0.017-0.026-0.036-0.026-0.060v-2.16c0-0.023 0.010-0.043 0.026-0.060 0.020-0.020 0.043-0.030 0.069-0.026h3.387c0.853 0 1.591 0.351 2.213 1.048l0.824 1.005-1.604 1.955-1.217-1.492zM13.967 7.537c0.618-0.691 1.359-1.039 2.222-1.039h3.377c0.023-0.003 0.046 0.007 0.063 0.020 0.016 0.017 0.023 0.040 0.020 0.066v2.16c0 0.023-0.007 0.043-0.020 0.060-0.017 0.020-0.040 0.030-0.063 0.026h-3.205c-0.152-0.003-0.298 0.066-0.397 0.185l-2.361 2.874 2.371 2.894c0.096 0.109 0.238 0.175 0.384 0.172h3.205c0.023-0.003 0.050 0.010 0.063 0.026 0.013 0.020 0.023 0.046 0.020 0.069v2.16c0 0.023-0.007 0.043-0.020 0.060-0.017 0.020-0.040 0.030-0.063 0.026h-3.373c-0.863 0-1.597-0.351-2.212-1.048l-1.965-2.398-1.964 2.398c-0.618 0.698-1.359 1.048-2.222 1.048h-3.38c-0.023 0.003-0.050-0.010-0.063-0.026-0.017-0.020-0.023-0.046-0.020-0.069v-2.16c0-0.023 0.007-0.043 0.020-0.060 0.017-0.020 0.040-0.030 0.063-0.026h3.205c0.152 0 0.298-0.069 0.397-0.185l5.92-7.233z"></path>
</svg>
