<svg width="32" height="32" viewBox="0 0 32 32" fill="none" xmlns="http://www.w3.org/2000/svg">
<rect width="32" height="32" rx="16" fill="#161411" style="fill:#161411;fill:color(display-p3 0.0863 0.0784 0.0667);fill-opacity:1;"/>
<mask id="mask0_25_128" style="mask-type:luminance" maskUnits="userSpaceOnUse" x="6" y="8" width="20" height="16">
<path d="M26 8.15002H6V23.8252H26V8.15002Z" fill="white" style="fill:white;fill-opacity:1;"/>
</mask>
<g mask="url(#mask0_25_128)">
<path d="M9.24872 20.1138C9.36941 19.9931 9.53537 19.9227 9.71138 19.9227H25.6732C25.9649 19.9227 26.1107 20.2748 25.9045 20.4809L22.7514 23.6341C22.6307 23.7548 22.4647 23.8252 22.2887 23.8252H6.32692C6.03524 23.8252 5.8894 23.4731 6.09559 23.267L9.24872 20.1138Z" fill="url(#paint0_linear_25_128)" style=""/>
<path d="M9.24847 8.34112C9.3742 8.22043 9.54015 8.15002 9.71113 8.15002H25.6729C25.9646 8.15002 26.1104 8.50205 25.9043 8.70823L22.7511 11.8614C22.6304 11.9821 22.4645 12.0525 22.2885 12.0525H6.32667C6.035 12.0525 5.88916 11.7004 6.09534 11.4943L9.24847 8.34112Z" fill="url(#paint1_linear_25_128)" style=""/>
<path d="M22.7514 14.1898C22.6307 14.0691 22.4647 13.9987 22.2887 13.9987H6.32692C6.03524 13.9987 5.8894 14.3507 6.09559 14.5569L9.24872 17.71C9.36941 17.8307 9.53537 17.9011 9.71138 17.9011H25.6732C25.9649 17.9011 26.1107 17.5491 25.9045 17.3429L22.7514 14.1898Z" fill="url(#paint2_linear_25_128)" style=""/>
</g>
<defs>
<linearGradient id="paint0_linear_25_128" x1="24.1484" y1="6.26644" x2="13.1015" y2="27.4256" gradientUnits="userSpaceOnUse">
<stop stop-color="#75FBAB" style="stop-color:#75FBAB;stop-color:color(display-p3 0.4588 0.9843 0.6706);stop-opacity:1;"/>
<stop offset="1" stop-color="#CA36F6" style="stop-color:#CA36F6;stop-color:color(display-p3 0.7922 0.2118 0.9647);stop-opacity:1;"/>
</linearGradient>
<linearGradient id="paint1_linear_25_128" x1="19.3178" y1="3.74462" x2="8.271" y2="24.9037" gradientUnits="userSpaceOnUse">
<stop stop-color="#75FBAB" style="stop-color:#75FBAB;stop-color:color(display-p3 0.4588 0.9843 0.6706);stop-opacity:1;"/>
<stop offset="1" stop-color="#CA36F6" style="stop-color:#CA36F6;stop-color:color(display-p3 0.7922 0.2118 0.9647);stop-opacity:1;"/>
</linearGradient>
<linearGradient id="paint2_linear_25_128" x1="21.7179" y1="4.99748" x2="10.671" y2="26.1566" gradientUnits="userSpaceOnUse">
<stop stop-color="#75FBAB" style="stop-color:#75FBAB;stop-color:color(display-p3 0.4588 0.9843 0.6706);stop-opacity:1;"/>
<stop offset="1" stop-color="#CA36F6" style="stop-color:#CA36F6;stop-color:color(display-p3 0.7922 0.2118 0.9647);stop-opacity:1;"/>
</linearGradient>
</defs>
</svg>
