<svg width="32" height="32" viewBox="0 0 32 32" fill="none" xmlns="http://www.w3.org/2000/svg">
<g clip-path="url(#clip0_25_44)">
<rect width="32" height="32" rx="16" fill="#D32D79" style="fill:#D32D79;fill:color(display-p3 0.8275 0.1765 0.4745);fill-opacity:1;"/>
<g clip-path="url(#clip1_25_44)">
<path d="M32 16C32 7.16344 24.8366 0 16 0C7.16344 0 0 7.16344 0 16C0 24.8366 7.16344 32 16 32C24.8366 32 32 24.8366 32 16Z" fill="#D32D79" style="fill:#D32D79;fill:color(display-p3 0.8275 0.1765 0.4745);fill-opacity:1;"/>
<path d="M23.0914 20.8925C21.395 20.8925 20.0223 19.5173 20.0223 17.8234V13.2276H23.9807V10.5544H20.0223V6.1333L16.9892 7.75265V10.5544H11.2367C7.22686 10.5544 6.173 15.3868 9.25748 17.186L12.3934 19.2937C13.0874 19.8078 12.8046 20.8874 11.8279 20.8874H7.56101V23.5862H11.8279C15.8634 23.5862 16.8916 18.754 13.8071 16.9546L10.6969 14.8469C10.0029 14.3329 10.2599 13.2276 11.2367 13.2276H16.9892V17.8594C16.9892 21.3552 19.4054 23.5889 23.0554 23.5889H23.9807V20.8925H23.0914Z" fill="white" style="fill:white;fill-opacity:1;"/>
</g>
</g>
<defs>
<clipPath id="clip0_25_44">
<rect width="32" height="32" rx="16" fill="white" style="fill:white;fill-opacity:1;"/>
</clipPath>
<clipPath id="clip1_25_44">
<rect width="32" height="32" fill="white" style="fill:white;fill-opacity:1;"/>
</clipPath>
</defs>
</svg>
