<!-- Generated by IcoMoon.io -->
<svg version="1.1" xmlns="http://www.w3.org/2000/svg" width="24" height="24" viewBox="0 0 24 24"><title>SUSHI</title>
<path fill="#fff" d="M12 0c6.627 0 12 5.373 12 12s-5.373 12-12 12c-6.627 0-12-5.373-12-12s5.373-12 12-12z"></path>
<path fill="#000" d="M7.076 5.175l13.109 8.951-3.242 4.792-13.109-9.021 3.242-4.722z"></path>
<path fill="#000" d="M20.185 14.125c-1.128 1.621-4.933 0.987-8.528-1.55-3.665-2.467-5.638-5.779-4.581-7.4 1.128-1.621 4.933-0.987 8.528 1.551 3.665 2.396 5.638 5.779 4.581 7.4z"></path>
<path fill="#000" d="M16.943 18.848c-1.128 1.621-4.933 0.987-8.528-1.55s-5.638-5.779-4.511-7.471c1.128-1.621 4.933-0.987 8.528 1.551s5.568 5.85 4.511 7.471z"></path>
<path fill="#0e0f23" d="M20.185 14.125l-3.242 4.793c-1.128 1.621-4.933 0.916-8.528-1.551-0.705-0.493-1.339-0.987-1.973-1.55 0.493-0.071 1.128-0.352 1.762-1.057 1.128-1.198 1.691-1.48 2.185-1.41 0.493 0 1.057 0.493 1.973 1.691s2.185 1.55 2.96 0.916c0.071-0.071 0.141-0.071 0.211-0.141 0.634-0.493 0.846-0.705 2.044-2.96 0.282-0.564 1.269-1.48 2.608-1.057 0.352 0.916 0.352 1.691 0 2.326z"></path>
<path fill="#fff" d="M19.691 13.843c0.916-1.41-1.057-4.37-4.37-6.695s-6.766-3.031-7.753-1.621c-0.987 1.41 0.987 4.37 4.37 6.695 3.313 2.326 6.766 3.031 7.753 1.621zM16.59 11.729c-0.493 0.705-2.185 0.352-3.876-0.775-1.621-1.128-2.608-2.608-2.114-3.312s2.185-0.352 3.876 0.775c1.621 1.128 2.608 2.608 2.114 3.312z"></path>
<path fill="#fff" d="M6.794 6.796c0-0.070-0.070-0.141-0.141-0.070s-0.141 0.070-0.141 0.141c0.070 0.211 0.141 0.352 0.141 0.493 0 0.070 0.070 0.141 0.141 0.070 0.070 0 0.141-0.070 0.070-0.141 0-0.141 0-0.282-0.070-0.493z"></path>
<path fill="#fff" d="M7.147 7.923c0-0.070-0.070-0.141-0.141-0.070s-0.070 0.070-0.070 0.141c0.775 1.762 2.396 3.665 4.511 5.074 0.070 0.070 0.141 0 0.211 0 0.070-0.070 0-0.141 0-0.211-2.185-1.41-3.735-3.242-4.511-4.934z"></path>
<path fill="#fff" d="M15.674 14.83c-0.071 0-0.141 0-0.141 0.070s0 0.141 0.071 0.141c0.211 0.071 0.493 0.141 0.705 0.211 0.071 0 0.141 0 0.141-0.070s0-0.141-0.071-0.141c-0.211-0.070-0.493-0.141-0.705-0.211z"></path>
<path fill="#fff" d="M16.943 15.112c-0.071 0-0.141 0.071-0.141 0.141s0.070 0.141 0.141 0.141c0.564 0.071 1.198 0.141 1.691 0.071 0.070 0 0.141-0.071 0.141-0.141s-0.071-0.141-0.141-0.141c-0.564 0.071-1.128 0-1.691-0.071z"></path>
</svg>
