<!-- Generated by IcoMoon.io -->
<svg version="1.1" xmlns="http://www.w3.org/2000/svg" width="24" height="24" viewBox="0 0 24 24"><title>SXP</title>
<path fill="#fff" d="M12 0c6.627 0 12 5.373 12 12s-5.373 12-12 12c-6.627 0-12-5.373-12-12s5.373-12 12-12z"></path>
<path fill="#f64a28" d="M9.323 7.378c0.423-0.244 0.852-0.464 1.288-0.658 0.053-0.035 0.081-0.096 0.074-0.159-0.008-0.062-0.050-0.115-0.11-0.136-0.245-0.054-0.488-0.1-0.726-0.137-0.099-0.019-0.181-0.087-0.218-0.18s-0.024-0.198 0.033-0.28c0.064-0.089 0.171-0.133 0.278-0.118 0.631 0.096 1.252 0.242 1.859 0.439 0.106 0.033 0.222 0.033 0.33 0 0.912-0.299 1.86-0.478 2.82-0.532l-0.018-0.024c-0.090-0.128-0.183-0.251-0.28-0.367l-0.026-0.036c-0.098-0.114-0.195-0.223-0.295-0.326l-0.055-0.056c-0.1-0.098-0.199-0.19-0.294-0.276l-0.056-0.045c-0.109-0.092-0.223-0.178-0.341-0.258h-0.021c-0.108-0.076-0.219-0.144-0.335-0.207l-0.047-0.023c-0.113-0.053-0.228-0.097-0.346-0.136l-0.068-0.021c-0.117-0.035-0.236-0.062-0.355-0.082h-0.059c-0.231-0.032-0.464-0.032-0.694 0h-0.082c-0.068 0-0.134 0.017-0.2 0.035-0.020 0.005-0.041 0.011-0.062 0.016h-0.047c-0.1 0.027-0.198 0.060-0.294 0.098l-0.071 0.030c-0.081 0.033-0.16 0.069-0.241 0.109l-0.062 0.028c-0.096 0.051-0.195 0.108-0.294 0.168l-0.045 0.030c-0.080 0.055-0.16 0.114-0.241 0.177l-0.055 0.044c-0.189 0.162-0.366 0.337-0.527 0.526l-0.041 0.047c-0.178 0.205-0.344 0.423-0.494 0.65l-0.021 0.030c-0.531 0.833-0.928 1.743-1.176 2.699 0.516-0.39 1.055-0.747 1.615-1.067z"></path>
<path fill="#f64a28" d="M12.005 6.82h-0.041c-0.816 0.286-1.604 0.649-2.353 1.081-1.696 0.939-3.143 2.271-4.219 3.883-0.068 0.109-0.068 0.249 0 0.358 0.402 0.64 0.875 1.232 1.409 1.765-0.083-0.645-0.124-1.294-0.123-1.944v-0.545c0.003-0.068 0.030-0.133 0.076-0.185 0.085-0.087 0.213-0.114 0.325-0.068s0.183 0.157 0.182 0.277v0.526c-0.001 0.797 0.067 1.592 0.203 2.377 0.023 0.132 0.094 0.251 0.196 0.337 0.613 0.507 1.269 0.961 1.959 1.356 1.607 0.962 3.412 1.543 5.278 1.7 0.254 0.010 0.49-0.131 0.603-0.358 0.236-0.482 0.432-0.981 0.588-1.495 0.019-0.060-0.004-0.126-0.055-0.162-0.053-0.035-0.121-0.033-0.171 0.005-0.402 0.294-0.816 0.567-1.244 0.818-0.121 0.069-0.244 0.134-0.368 0.2l-0.035 0.018c-0.067 0.035-0.144 0.044-0.217 0.023-0.11-0.037-0.189-0.136-0.199-0.251-0.012-0.115 0.047-0.227 0.149-0.284 0.13-0.069 0.258-0.141 0.385-0.216 0.697-0.402 1.356-0.863 1.973-1.379 0.091-0.076 0.153-0.18 0.177-0.294 0.133-0.794 0.198-1.598 0.194-2.403v-0.639c-0.001-0.11 0.059-0.212 0.157-0.263s0.214-0.044 0.305 0.019c0.063 0.053 0.101 0.13 0.105 0.212 0 0.108 0.004 0.216 0.008 0.325s0.008 0.22 0.008 0.331c0.035 1.994-0.396 3.968-1.258 5.765h0.064c0.136-0.014 0.268-0.031 0.396-0.050h0.068c0.141-0.024 0.277-0.056 0.412-0.091l0.094-0.024c0.13-0.035 0.255-0.076 0.377-0.123l0.082-0.032c0.123-0.050 0.244-0.103 0.359-0.162l0.037-0.021c0.109-0.059 0.214-0.122 0.316-0.191l0.046-0.029c0.103-0.072 0.201-0.149 0.295-0.232l0.053-0.050c0.087-0.083 0.171-0.172 0.246-0.266l0.038-0.046c0.16-0.2 0.29-0.423 0.382-0.662l0.023-0.056c0.044-0.114 0.078-0.231 0.107-0.35l0.014-0.067c0.026-0.118 0.045-0.237 0.056-0.357v-0.050c0.006-0.127 0.006-0.255 0-0.382v-0.030c-0.004-0.14-0.014-0.281-0.032-0.421v-0.071c-0.022-0.133-0.050-0.267-0.086-0.403l-0.026-0.067c-0.038-0.139-0.083-0.28-0.136-0.421v-0.036c-0.050-0.139-0.109-0.276-0.173-0.414l-0.018-0.039c-0.196 0.305-0.409 0.6-0.638 0.883-0.062 0.072-0.16 0.1-0.25 0.071-0.090-0.031-0.153-0.112-0.159-0.206v-0.196c-0.004-0.056 0.014-0.113 0.050-0.156 0.459-0.6 0.446-1.438-0.032-2.023-1.015-1.237-2.25-2.272-3.643-3.056-0.371-0.212-0.74-0.403-1.111-0.589 0.246-0.089 0.52-0.176 0.82-0.255 0.196 0.101 0.393 0.209 0.589 0.321 0.558 0.322 1.096 0.68 1.607 1.070-0.181-0.682-0.432-1.346-0.752-1.976-0.095-0.189-0.29-0.304-0.5-0.295-1.010 0.064-2.005 0.268-2.958 0.609l-0.012 0.047zM9.617 9.449l0.967 0.332c0.041 0.015 0.072 0.050 0.081 0.092 0.010 0.042-0.003 0.086-0.033 0.117l-0.635 0.635c-0.031 0.031-0.076 0.044-0.118 0.035-0.042-0.010-0.077-0.040-0.091-0.081l-0.339-0.969c-0.018-0.047-0.006-0.101 0.031-0.136 0.036-0.036 0.091-0.045 0.137-0.026zM8.52 12.081c-0.042-0.020-0.071-0.065-0.071-0.113s0.028-0.092 0.071-0.113l0.917-0.45c0.038-0.019 0.085-0.017 0.122 0.005 0.037 0.023 0.060 0.063 0.060 0.106v0.901c0 0.042-0.023 0.083-0.060 0.105-0.037 0.023-0.083 0.026-0.122 0.006l-0.917-0.448zM10.578 14.158l-0.961 0.33c-0.045 0.014-0.095 0.001-0.128-0.032s-0.045-0.082-0.031-0.127l0.332-0.967c0.014-0.041 0.049-0.072 0.091-0.082 0.042-0.009 0.087 0.004 0.118 0.035l0.635 0.635c0.031 0.032 0.042 0.077 0.031 0.121-0.012 0.042-0.045 0.076-0.087 0.088zM12.534 14.502l-0.45 0.917c-0.022 0.044-0.065 0.071-0.113 0.071-0.049 0-0.092-0.027-0.114-0.071l-0.449-0.917c-0.019-0.038-0.018-0.085 0.005-0.122s0.063-0.060 0.106-0.060h0.899c0.044 0 0.083 0.023 0.107 0.060s0.024 0.083 0.005 0.122h0.004zM14.33 14.502l-0.967-0.332c-0.041-0.014-0.072-0.049-0.081-0.091-0.010-0.042 0.003-0.087 0.033-0.118l0.635-0.635c0.031-0.031 0.076-0.044 0.118-0.035 0.042 0.010 0.077 0.041 0.091 0.082l0.33 0.944c0.024 0.047 0.014 0.106-0.023 0.145-0.038 0.038-0.096 0.049-0.145 0.026l0.009 0.014zM15.421 11.87c0.044 0.022 0.071 0.065 0.071 0.113 0 0.049-0.027 0.092-0.071 0.114l-0.917 0.449c-0.038 0.019-0.085 0.018-0.122-0.005s-0.059-0.063-0.060-0.106v-0.915c0.001-0.044 0.023-0.083 0.060-0.105 0.037-0.023 0.083-0.026 0.122-0.006l0.917 0.462zM13.363 9.793l0.958-0.344c0.045-0.014 0.095-0.003 0.128 0.031 0.033 0.035 0.045 0.083 0.031 0.128l-0.332 0.967c-0.014 0.041-0.049 0.072-0.091 0.082-0.042 0.009-0.087-0.004-0.118-0.035l-0.635-0.635c-0.030-0.032-0.040-0.077-0.028-0.118 0.012-0.042 0.044-0.076 0.085-0.088l0.003 0.012zM13.734 11.965c0 0.974-0.79 1.764-1.764 1.764-0.975 0-1.765-0.79-1.765-1.764 0-0.975 0.79-1.765 1.765-1.765 0.974 0 1.764 0.79 1.764 1.765zM12.081 8.52l0.449 0.917c0.019 0.038 0.018 0.085-0.005 0.122s-0.063 0.060-0.107 0.060h-0.899c-0.044 0-0.083-0.023-0.106-0.060s-0.024-0.083-0.005-0.122l0.449-0.917c0.023-0.042 0.065-0.068 0.113-0.068 0.046 0 0.090 0.026 0.112 0.068z"></path>
<path fill="#f64a28" d="M4.53 15.276c-0.027-0.122-0.045-0.246-0.056-0.371-0.003-0.026-0.003-0.041 0.012-0.062-0.006-0.127-0.006-0.255 0-0.382v-0.030c0.008-0.135 0.021-0.269 0.041-0.403v-0.071c0.022-0.133 0.050-0.268 0.086-0.403l0.021-0.071 0.014-0.048c0.035-0.119 0.074-0.252 0.121-0.376v-0.029c0.050-0.139 0.109-0.277 0.174-0.418l0.017-0.039c1.129 1.645 2.625 3.002 4.369 3.965 0.423 0.248 0.856 0.464 1.292 0.662 0.058 0.029 0.091 0.092 0.083 0.158-0.006 0.065-0.053 0.119-0.117 0.136-0.504 0.116-1.017 0.191-1.534 0.227-0.257 0.018-0.498-0.119-0.614-0.348-0.089-0.172-0.172-0.352-0.25-0.538-0.027-0.063-0.074-0.114-0.135-0.145-0.112-0.062-0.251-0.045-0.344 0.042-0.094 0.087-0.119 0.224-0.065 0.34 0.090 0.223 0.189 0.439 0.294 0.644h-0.064c-0.136-0.012-0.268-0.028-0.398-0.050h-0.071c-0.141-0.023-0.276-0.053-0.408-0.087l-0.098-0.024c-0.13-0.035-0.255-0.076-0.376-0.121l-0.082-0.032c-0.121-0.050-0.241-0.103-0.357-0.162l-0.038-0.020c-0.106-0.058-0.21-0.121-0.312-0.189l-0.046-0.032c-0.103-0.071-0.201-0.148-0.294-0.23l-0.054-0.050c-0.087-0.082-0.171-0.171-0.246-0.264l-0.038-0.047c-0.16-0.2-0.29-0.423-0.382-0.662l-0.023-0.055c-0.044-0.114-0.078-0.232-0.106-0.35l-0.014-0.068z"></path>
<path fill="#f64a28" d="M11.101 20.049c-0.124-0.040-0.246-0.088-0.364-0.144-0.711-0.367-1.315-0.912-1.752-1.583 0.949-0.055 1.887-0.233 2.79-0.529 0.124-0.040 0.258-0.040 0.382 0 0.903 0.293 1.84 0.47 2.788 0.523l-0.030 0.041c-0.082 0.118-0.167 0.23-0.255 0.339l-0.041 0.053c-0.1 0.112-0.198 0.217-0.295 0.317l-0.064 0.065c-0.094 0.097-0.192 0.189-0.294 0.273l-0.062 0.050c-0.105 0.083-0.214 0.163-0.327 0.235l-0.026 0.015c-0.108 0.068-0.218 0.13-0.332 0.185l-0.050 0.024c-0.113 0.051-0.23 0.098-0.348 0.135l-0.067 0.021c-0.117 0.036-0.236 0.063-0.357 0.082h-0.059c-0.254 0.040-0.513 0.040-0.767 0h-0.055c-0.123-0.021-0.244-0.049-0.362-0.085l-0.054-0.018z"></path>
<path fill="#f64a28" d="M4.504 9.976v-0.071c-0.017-0.141-0.027-0.282-0.030-0.425v-0.028c-0.006-0.128-0.006-0.255 0-0.384v-0.046c0.012-0.119 0.031-0.239 0.056-0.357l0.014-0.067c0.028-0.119 0.063-0.236 0.106-0.35l0.023-0.056c0.092-0.24 0.222-0.464 0.382-0.665l0.032-0.041c0.081-0.098 0.167-0.19 0.259-0.277l0.035-0.032c0.725-0.595 1.624-0.939 2.562-0.976-0.453 0.907-0.78 1.87-0.974 2.865-0.78 0.667-1.465 1.438-2.035 2.291l-0.018-0.038c-0.062-0.141-0.121-0.278-0.173-0.417v-0.030c-0.053-0.13-0.098-0.282-0.135-0.423l-0.021-0.070c-0.036-0.136-0.064-0.269-0.086-0.403z"></path>
<path fill="#f64a28" d="M18.98 11.353c-0.54-0.82-1.185-1.562-1.92-2.213-0.055-0.044-0.095-0.103-0.114-0.169-0.195-0.958-0.516-1.886-0.953-2.759h0.059c0.139 0.014 0.275 0.031 0.405 0.053h0.068c0.141 0.027 0.276 0.056 0.412 0.091l0.094 0.024c0.132 0.037 0.258 0.078 0.38 0.123l0.079 0.032c0.126 0.050 0.246 0.103 0.362 0.162l0.041 0.032c0.109 0.059 0.214 0.122 0.317 0.191l0.047 0.033c0.103 0.071 0.2 0.149 0.294 0.232l0.053 0.050c0.090 0.082 0.173 0.171 0.25 0.264l0.036 0.047c0.16 0.199 0.289 0.422 0.382 0.662l0.023 0.053c0.042 0.114 0.078 0.231 0.107 0.35v0.064c0.026 0.123 0.045 0.249 0.055 0.373v0.038c0.008 0.133 0.008 0.267 0 0.4-0.008 0.141-0.022 0.281-0.044 0.421v0.050c-0.024 0.139-0.054 0.28-0.091 0.423v0.044c-0.087 0.318-0.201 0.629-0.341 0.927z"></path>
</svg>
