<!-- Generated by IcoMoon.io -->
<svg version="1.1" xmlns="http://www.w3.org/2000/svg" width="24" height="24" viewBox="0 0 24 24"><title>TFUEL</title>
<path fill="#000" d="M12 0c6.627 0 12 5.373 12 12s-5.373 12-12 12c-6.627 0-12-5.373-12-12s5.373-12 12-12z"></path>
<path fill="#fff" d="M15.264 11.28c-0.77 0.151-2.335-0.36-1.68-1.872 2.016-4.279-2.448-7.056-2.448-7.056s0.259 1.67-0.504 3.336c-0.532 0.98-1.332 1.786-2.138 2.598-1.365 1.374-2.744 2.763-2.854 5.034-0.218 6.962 6.792 7.848 6.792 7.848 0.384-0.989 1.33-1.646 2.256-2.040 1.483-0.605 3.058-1.404 3.48-3.048 0.859-3.484-0.477-5.030-1.328-6.016-0.179-0.207-0.337-0.39-0.448-0.56-0.041 1.412-0.709 1.635-1.124 1.775l-0.004 0.001zM8.376 14.856v-2.328h7.272v2.328h-2.472v2.472h-2.328v-2.472h-2.472z"></path>
<path fill="#fff" d="M16.608 8.328c-0.053 0.063-0.087 0.154-0.118 0.239-0.058 0.157-0.109 0.296-0.266 0.217 0 0-1.687-0.646-0.648-2.544 0.063-0.099 0.127-0.177 0.188-0.251 0.207-0.254 0.374-0.458 0.34-1.285 0.050 0.077 0.123 0.168 0.208 0.275 0.352 0.443 0.914 1.149 0.968 2.149 0.052 0.638-0.23 0.85-0.474 1.034-0.073 0.055-0.142 0.106-0.198 0.166z"></path>
</svg>
