<!-- Generated by IcoMoon.io -->
<svg version="1.1" xmlns="http://www.w3.org/2000/svg" width="24" height="24" viewBox="0 0 24 24"><title>THETA</title>
<path fill="#2ab8e6" d="M12 0c6.627 0 12 5.373 12 12s-5.373 12-12 12c-6.627 0-12-5.373-12-12s5.373-12 12-12z"></path>
<path fill="#fff" d="M12.785 14.266h1.721v-1.553h-4.995v1.553h1.721v1.803h1.553v-1.803z"></path>
<path fill="#fff" d="M12.785 9.817h1.721v1.553h-4.995v-1.553h1.721v-1.803h1.553v1.803z"></path>
<path fill="#fff" d="M7.832 4.031l-0.792 0.792v14.354l0.792 0.792h8.31l0.792-0.792v-14.354l-0.792-0.792h-8.31zM8.624 18.386v-12.771h6.727v12.771h-6.727z"></path>
</svg>
