<!-- Generated by IcoMoon.io -->
<svg version="1.1" xmlns="http://www.w3.org/2000/svg" width="24" height="24" viewBox="0 0 24 24"><title>TON</title>
<path fill="#08c" d="M12 0c6.627 0 12 5.373 12 12s-5.373 12-12 12c-6.627 0-12-5.373-12-12s5.373-12 12-12z"></path>
<path fill="#fff" d="M7.513 6.281h8.988c0.343 0 0.63 0.057 0.973 0.229 0.401 0.172 0.63 0.458 0.744 0.687 0 0 0 0.057 0.057 0.057 0.172 0.286 0.286 0.63 0.286 1.031 0 0.344-0.057 0.687-0.286 1.030l-5.668 9.732c-0.114 0.229-0.343 0.343-0.63 0.343-0.229 0-0.458-0.114-0.63-0.343l-5.553-9.732c-0.114-0.229-0.343-0.515-0.343-0.973-0.057-0.401 0.057-0.744 0.229-1.088s0.458-0.63 0.859-0.744c0.344-0.229 0.744-0.229 0.973-0.229zM11.292 7.654h-3.778c-0.229 0-0.343 0-0.401 0.057-0.114 0.057-0.172 0.115-0.229 0.229-0.057 0.057-0.057 0.172-0.057 0.286 0 0.057 0.057 0.115 0.172 0.344l4.294 7.442v-8.358zM12.666 7.654v8.416l4.351-7.5c0.057-0.114 0.057-0.229 0.057-0.344s0-0.229-0.057-0.286c-0.057-0.057-0.057-0.115-0.114-0.115l-0.057-0.057c-0.114-0.057-0.229-0.057-0.401-0.057h-3.778v-0.057z"></path>
</svg>
