<!-- Generated by IcoMoon.io -->
<svg version="1.1" xmlns="http://www.w3.org/2000/svg" width="24" height="24" viewBox="0 0 24 24"><title>TRAC</title>
<path fill="#fff" d="M12 0c6.627 0 12 5.373 12 12s-5.373 12-12 12c-6.627 0-12-5.373-12-12s5.373-12 12-12z"></path>
<path fill="#6344df" d="M12.022 4.688v3.671c-2.013 0-3.671 1.658-3.671 3.671s1.658 3.671 3.671 3.671c1.066 0 2.132-0.474 2.783-1.303l2.783 2.368c-1.362 1.658-3.434 2.605-5.566 2.605-4.026 0-7.283-3.257-7.283-7.342s3.197-7.342 7.283-7.342zM15.456 13.273l3.434 1.243c-0.118 0.414-0.355 0.77-0.533 1.184l-3.138-1.836c0.059-0.178 0.178-0.355 0.237-0.592zM19.186 10.727c0.059 0.414 0.118 0.829 0.118 1.303h-3.612c0-0.237 0-0.414-0.059-0.651l3.553-0.651zM16.699 6.405c0.296 0.296 0.651 0.592 0.888 0.888l-2.783 2.368c-0.118-0.178-0.296-0.296-0.474-0.474l2.368-2.783z"></path>
</svg>
