<!-- Generated by IcoMoon.io -->
<svg version="1.1" xmlns="http://www.w3.org/2000/svg" width="24" height="24" viewBox="0 0 24 24"><title>TRX</title>
<path fill="#ff060a" d="M12 0c6.627 0 12 5.373 12 12s-5.373 12-12 12c-6.627 0-12-5.373-12-12s5.373-12 12-12z"></path>
<path fill="#fff" d="M20.26 9.958c-0.791-0.73-1.885-1.846-2.777-2.637l-0.053-0.037c-0.088-0.070-0.187-0.126-0.293-0.163-2.149-0.401-12.15-2.27-12.345-2.246-0.055 0.008-0.107 0.027-0.153 0.058l-0.050 0.040c-0.062 0.063-0.109 0.138-0.137 0.221l-0.013 0.034v0.216c1.126 3.135 5.571 13.405 6.447 15.815 0.053 0.163 0.153 0.475 0.34 0.49h0.042c0.1 0 0.527-0.564 0.527-0.564s7.636-9.26 8.408-10.246c0.1-0.121 0.188-0.252 0.264-0.39 0.019-0.108 0.010-0.219-0.026-0.323s-0.099-0.196-0.182-0.268zM13.755 11.037l3.259-2.703 1.912 1.761-5.171 0.941zM12.49 10.86l-5.611-4.598 9.078 1.674-3.467 2.924zM12.996 12.065l5.743-0.925-6.566 7.91 0.823-6.985zM6.117 6.721l5.904 5.010-0.854 7.325-5.049-12.335z"></path>
</svg>
