<!-- Generated by IcoMoon.io -->
<svg version="1.1" xmlns="http://www.w3.org/2000/svg" width="24" height="24" viewBox="0 0 24 24"><title>TUSD</title>
<path fill="#1b5afe" d="M12 0c6.627 0 12 5.373 12 12s-5.373 12-12 12c-6.627 0-12-5.373-12-12s5.373-12 12-12z"></path>
<path fill="#fff" d="M5.438 5.729v4.403c2.432 0 4.403-1.972 4.403-4.402l-4.403-0.001z"></path>
<path fill="#fff" d="M9.841 18.954v-8.864c0-0.037 0-0.074 0.001-0.112s0.002-0.074 0.004-0.112c0.002-0.037 0.004-0.074 0.007-0.111s0.006-0.073 0.010-0.11c0.004-0.036 0.008-0.073 0.012-0.11s0.009-0.072 0.016-0.109c0.005-0.036 0.011-0.072 0.018-0.107 0.006-0.036 0.013-0.071 0.021-0.106s0.014-0.070 0.023-0.105c0.008-0.035 0.016-0.070 0.026-0.104s0.019-0.069 0.028-0.103 0.020-0.068 0.031-0.102c0.010-0.034 0.022-0.068 0.033-0.101 0.011-0.034 0.023-0.067 0.035-0.1s0.025-0.066 0.038-0.099c0.013-0.033 0.027-0.065 0.040-0.098s0.028-0.065 0.042-0.097c0.014-0.032 0.030-0.064 0.044-0.096s0.031-0.063 0.048-0.095c0.017-0.031 0.033-0.062 0.050-0.093s0.034-0.062 0.052-0.092c0.018-0.030 0.035-0.061 0.054-0.091s0.037-0.060 0.056-0.089 0.038-0.059 0.058-0.088 0.039-0.058 0.060-0.086c0.021-0.029 0.041-0.057 0.062-0.085s0.042-0.056 0.064-0.083c0.022-0.028 0.043-0.055 0.066-0.082s0.044-0.054 0.068-0.080c0.023-0.026 0.047-0.053 0.069-0.079 0.024-0.026 0.048-0.052 0.071-0.077s0.049-0.051 0.073-0.074c0.025-0.025 0.050-0.050 0.074-0.073s0.051-0.048 0.076-0.071c0.026-0.024 0.052-0.047 0.079-0.069s0.053-0.045 0.080-0.067c0.027-0.023 0.054-0.044 0.082-0.066s0.055-0.043 0.084-0.064c0.028-0.021 0.056-0.041 0.085-0.062s0.057-0.040 0.086-0.060c0.029-0.020 0.058-0.039 0.088-0.058 0.029-0.019 0.059-0.037 0.089-0.056s0.060-0.036 0.091-0.054c0.030-0.018 0.061-0.035 0.092-0.052s0.062-0.033 0.093-0.050c0.031-0.017 0.063-0.032 0.095-0.048s0.064-0.030 0.096-0.044c0.032-0.014 0.064-0.029 0.097-0.042s0.065-0.027 0.098-0.040c0.033-0.013 0.066-0.026 0.099-0.038s0.067-0.024 0.1-0.035c0.033-0.011 0.067-0.023 0.101-0.033s0.068-0.021 0.102-0.031c0.034-0.010 0.069-0.020 0.103-0.028 0.035-0.009 0.069-0.018 0.104-0.026s0.070-0.016 0.105-0.023 0.071-0.014 0.106-0.021c0.035-0.006 0.071-0.012 0.107-0.018s0.072-0.010 0.109-0.016c0.036-0.005 0.072-0.009 0.11-0.012 0.036-0.004 0.073-0.007 0.11-0.010 0.037-0.003 0.073-0.005 0.111-0.007s0.074-0.003 0.112-0.004c0.037-0.001 0.074-0.001 0.112-0.001h4.364v4.361h-4.364v8.864l-4.358-0.005z"></path>
</svg>
