<!-- Generated by IcoMoon.io -->
<svg version="1.1" xmlns="http://www.w3.org/2000/svg" width="24" height="24" viewBox="0 0 24 24"><title>TWT</title>
<path fill="#3375bb" d="M12 0c6.627 0 12 5.373 12 12s-5.373 12-12 12c-6.627 0-12-5.373-12-12s5.373-12 12-12z"></path>
<path fill="#fff" d="M17.903 6.047c0.21 0 0.409 0.086 0.555 0.233 0.146 0.15 0.229 0.352 0.225 0.559-0.037 2.235-0.124 3.945-0.285 5.299-0.158 1.354-0.394 2.359-0.75 3.173-0.24 0.544-0.536 0.994-0.885 1.376-0.469 0.506-1.005 0.874-1.59 1.223-0.25 0.15-0.51 0.297-0.783 0.452-0.582 0.331-1.222 0.694-1.947 1.179-0.262 0.176-0.604 0.176-0.866 0-0.736-0.491-1.385-0.859-1.972-1.192-0.131-0.074-0.258-0.146-0.383-0.218-0.686-0.398-1.305-0.776-1.845-1.324-0.36-0.36-0.671-0.799-0.919-1.32-0.337-0.698-0.566-1.541-0.735-2.633-0.225-1.459-0.338-3.367-0.379-6.015-0.004-0.206 0.075-0.409 0.221-0.559 0.146-0.146 0.349-0.233 0.559-0.233h0.323c0.994 0.004 3.187-0.094 5.085-1.571 0.281-0.218 0.675-0.218 0.956 0 1.898 1.478 4.091 1.575 5.089 1.571h0.326zM16.159 14.811c0.244-0.503 0.446-1.196 0.6-2.194 0.184-1.193 0.296-2.813 0.349-5.018-1.17-0.034-3.18-0.259-5.096-1.549-1.916 1.286-3.926 1.511-5.092 1.549 0.041 1.822 0.124 3.24 0.255 4.354 0.15 1.268 0.364 2.126 0.63 2.73 0.176 0.401 0.371 0.69 0.604 0.945 0.311 0.341 0.705 0.623 1.241 0.945 0.222 0.133 0.468 0.272 0.735 0.423 0.476 0.269 1.020 0.577 1.628 0.964 0.596-0.38 1.133-0.685 1.603-0.953 0.142-0.081 0.277-0.158 0.407-0.232 0.66-0.379 1.148-0.694 1.511-1.061 0.244-0.251 0.443-0.525 0.626-0.904z"></path>
</svg>
