<!-- Generated by IcoMoon.io -->
<svg version="1.1" xmlns="http://www.w3.org/2000/svg" width="24" height="24" viewBox="0 0 24 24"><title>UNI</title>
<path fill="#fff" d="M12 0c6.627 0 12 5.373 12 12s-5.373 12-12 12c-6.627 0-12-5.373-12-12s5.373-12 12-12z"></path>
<path fill="#ff007a" d="M9.18 5.192c-0.208-0.032-0.216-0.035-0.118-0.050 0.188-0.029 0.63 0.010 0.934 0.082 0.711 0.168 1.358 0.599 2.050 1.364l0.183 0.203 0.263-0.042c1.107-0.177 2.231-0.036 3.173 0.395 0.26 0.119 0.668 0.356 0.718 0.416 0.018 0.020 0.048 0.144 0.066 0.277 0.071 0.462 0.036 0.814-0.106 1.078-0.077 0.144-0.082 0.189-0.030 0.313 0.025 0.051 0.063 0.094 0.111 0.124s0.104 0.046 0.16 0.046c0.234 0 0.486-0.376 0.602-0.899l0.046-0.209 0.092 0.104c0.505 0.568 0.9 1.341 0.968 1.891l0.018 0.144-0.084-0.13c-0.122-0.2-0.286-0.37-0.48-0.5-0.338-0.222-0.696-0.298-1.641-0.348-0.855-0.044-1.339-0.117-1.818-0.273-0.816-0.265-1.227-0.616-2.197-1.88-0.431-0.562-0.696-0.873-0.961-1.122-0.602-0.569-1.193-0.867-1.949-0.983v-0.001z"></path>
<path fill="#ff007a" d="M16.577 6.446c0.021-0.376 0.072-0.624 0.176-0.85 0.023-0.057 0.051-0.112 0.085-0.163 0.006 0-0.012 0.066-0.040 0.147-0.075 0.221-0.088 0.521-0.035 0.871 0.066 0.444 0.103 0.508 0.574 0.987 0.222 0.225 0.479 0.508 0.573 0.631l0.17 0.221-0.17-0.158c-0.208-0.193-0.685-0.571-0.791-0.625-0.071-0.035-0.082-0.035-0.125 0.008-0.041 0.040-0.049 0.099-0.055 0.382-0.008 0.441-0.068 0.723-0.214 1.005-0.078 0.155-0.091 0.121-0.020-0.052 0.053-0.128 0.059-0.186 0.059-0.612 0-0.856-0.104-1.062-0.704-1.414-0.181-0.104-0.367-0.2-0.557-0.287-0.094-0.038-0.184-0.082-0.272-0.133 0.017-0.017 0.602 0.154 0.837 0.243 0.351 0.135 0.409 0.151 0.452 0.136 0.028-0.011 0.042-0.094 0.055-0.337h0.001zM9.583 7.911c-0.421-0.577-0.683-1.461-0.625-2.123l0.017-0.204 0.096 0.017c0.181 0.033 0.491 0.148 0.637 0.236 0.399 0.241 0.572 0.558 0.748 1.373 0.052 0.239 0.119 0.508 0.15 0.601 0.050 0.147 0.24 0.49 0.393 0.713 0.11 0.161 0.038 0.237-0.208 0.215-0.374-0.033-0.881-0.381-1.208-0.828zM16.065 12.204c-1.97-0.787-2.664-1.472-2.664-2.626 0-0.17 0.005-0.309 0.013-0.309 0.007 0 0.083 0.055 0.169 0.125 0.4 0.318 0.847 0.454 2.086 0.634 0.729 0.106 1.138 0.191 1.516 0.316 1.204 0.396 1.947 1.201 2.125 2.297 0.051 0.318 0.022 0.914-0.063 1.229-0.066 0.249-0.267 0.696-0.32 0.713-0.015 0.006-0.030-0.051-0.033-0.128-0.020-0.411-0.23-0.812-0.581-1.112-0.4-0.341-0.937-0.614-2.249-1.139zM14.682 12.532c-0.023-0.14-0.055-0.278-0.095-0.414l-0.051-0.149 0.094 0.105c0.129 0.144 0.232 0.328 0.318 0.574 0.066 0.188 0.073 0.243 0.073 0.548 0 0.299-0.009 0.362-0.071 0.53-0.085 0.249-0.227 0.474-0.415 0.658-0.36 0.364-0.823 0.565-1.491 0.649-0.116 0.014-0.454 0.039-0.751 0.054-0.75 0.039-1.244 0.119-1.687 0.274-0.040 0.018-0.083 0.028-0.127 0.030-0.018-0.018 0.285-0.197 0.533-0.316 0.351-0.169 0.701-0.261 1.486-0.39 0.387-0.064 0.787-0.143 0.889-0.173 0.959-0.292 1.452-1.046 1.294-1.98z"></path>
<path fill="#ff007a" d="M15.585 14.127c-0.262-0.559-0.322-1.099-0.179-1.603 0.015-0.055 0.040-0.098 0.055-0.098 0.014 0 0.077 0.033 0.137 0.074 0.121 0.081 0.362 0.216 1.007 0.565 0.804 0.436 1.264 0.773 1.575 1.16 0.273 0.337 0.442 0.722 0.523 1.191 0.046 0.265 0.019 0.906-0.050 1.173-0.216 0.844-0.718 1.506-1.436 1.893-0.105 0.056-0.199 0.103-0.21 0.103-0.010 0 0.029-0.096 0.085-0.214 0.242-0.501 0.269-0.989 0.087-1.531-0.113-0.332-0.34-0.738-0.8-1.424-0.535-0.795-0.665-1.008-0.796-1.289zM8.183 17.146c0.732-0.614 1.641-1.049 2.471-1.184 0.427-0.055 0.861-0.038 1.282 0.050 0.53 0.135 1.005 0.437 1.251 0.796 0.241 0.352 0.345 0.658 0.453 1.341 0.042 0.268 0.088 0.539 0.102 0.6 0.081 0.353 0.239 0.636 0.433 0.778 0.309 0.225 0.844 0.24 1.368 0.036 0.054-0.025 0.112-0.043 0.171-0.053 0.019 0.019-0.245 0.194-0.431 0.287-0.22 0.117-0.466 0.176-0.716 0.172-0.48 0-0.879-0.243-1.213-0.738-0.122-0.209-0.232-0.426-0.327-0.649-0.351-0.796-0.525-1.038-0.932-1.304-0.356-0.232-0.814-0.273-1.159-0.105-0.453 0.221-0.579 0.795-0.254 1.16 0.152 0.157 0.35 0.26 0.566 0.294 0.085 0.012 0.173 0.005 0.255-0.020s0.159-0.067 0.224-0.124c0.065-0.057 0.117-0.127 0.152-0.206s0.053-0.164 0.053-0.25c0-0.24-0.093-0.376-0.326-0.482-0.319-0.143-0.66 0.024-0.659 0.321 0 0.127 0.056 0.207 0.184 0.265 0.082 0.036 0.084 0.039 0.017 0.025-0.292-0.061-0.36-0.411-0.126-0.643 0.283-0.278 0.866-0.156 1.066 0.225 0.084 0.16 0.094 0.478 0.021 0.67-0.166 0.431-0.643 0.657-1.129 0.533-0.331-0.084-0.465-0.175-0.864-0.582-0.692-0.709-0.961-0.847-1.959-1.002l-0.192-0.030 0.218-0.182z"></path>
<path fill="#ff007a" d="M4.934 4.455c2.313 2.79 3.906 3.941 4.083 4.184 0.146 0.201 0.091 0.382-0.159 0.524-0.177 0.089-0.371 0.143-0.569 0.158-0.162 0-0.219-0.062-0.219-0.062-0.094-0.088-0.147-0.073-0.63-0.924-0.41-0.639-0.826-1.274-1.246-1.906-0.035-0.033-0.034-0.033 1.178 2.124 0.195 0.449 0.039 0.614 0.039 0.678 0 0.13-0.036 0.199-0.198 0.379-0.269 0.298-0.39 0.634-0.477 1.329-0.097 0.779-0.371 1.329-1.131 2.271-0.444 0.551-0.517 0.652-0.63 0.875-0.141 0.279-0.18 0.436-0.195 0.789-0.017 0.374 0.015 0.615 0.13 0.972 0.099 0.314 0.205 0.519 0.474 0.932 0.232 0.357 0.364 0.622 0.364 0.726 0 0.082 0.015 0.082 0.376 0.001 0.857-0.192 1.554-0.53 1.946-0.947 0.243-0.257 0.299-0.399 0.302-0.751 0.001-0.23-0.007-0.278-0.070-0.411-0.102-0.215-0.287-0.395-0.696-0.674-0.537-0.364-0.766-0.657-0.828-1.060-0.053-0.331 0.008-0.564 0.304-1.182 0.307-0.641 0.383-0.913 0.435-1.557 0.033-0.416 0.078-0.581 0.199-0.713 0.126-0.137 0.239-0.183 0.55-0.225 0.507-0.070 0.828-0.199 1.093-0.442 0.106-0.088 0.192-0.198 0.251-0.322s0.090-0.26 0.091-0.398l0.011-0.232-0.129-0.148c-0.465-0.539-4.962-4.409-4.991-4.409-0.006 0 0.147 0.191 0.34 0.424zM6.012 15.296c0.051-0.089 0.066-0.195 0.042-0.295s-0.084-0.188-0.169-0.245c-0.166-0.11-0.425-0.057-0.425 0.085 0 0.044 0.024 0.076 0.080 0.104 0.093 0.048 0.099 0.101 0.027 0.21-0.074 0.109-0.067 0.205 0.017 0.272 0.136 0.105 0.328 0.047 0.43-0.13zM10.033 10.105c-0.237 0.072-0.468 0.322-0.541 0.585-0.043 0.16-0.018 0.442 0.047 0.528 0.106 0.14 0.208 0.177 0.485 0.176 0.541-0.003 1.012-0.234 1.067-0.524 0.044-0.236-0.162-0.563-0.447-0.708-0.194-0.079-0.406-0.099-0.611-0.057zM10.667 10.596c0.083-0.118 0.046-0.245-0.096-0.331-0.27-0.165-0.679-0.029-0.679 0.225 0 0.127 0.213 0.265 0.409 0.265 0.13 0 0.309-0.077 0.367-0.159z"></path>
</svg>
