<!-- Generated by IcoMoon.io -->
<svg version="1.1" xmlns="http://www.w3.org/2000/svg" width="24" height="24" viewBox="0 0 24 24"><title>USDD</title>
<path fill="#fff" d="M12 0c6.627 0 12 5.373 12 12s-5.373 12-12 12c-6.627 0-12-5.373-12-12s5.373-12 12-12z"></path>
<path fill="#216c58" d="M12 0.6c-6.296 0-11.4 5.104-11.4 11.4s5.104 11.4 11.4 11.4c6.296 0 11.4-5.104 11.4-11.4s-5.104-11.4-11.4-11.4z"></path>
<path fill="#fff" d="M22.057 12.571c-0.171 0-0.286 0.114-0.286 0.286-0.457 5.029-4.629 8.971-9.771 8.971s-9.314-3.943-9.771-8.971c0-0.171-0.171-0.286-0.286-0.286-0.171 0-0.286 0.171-0.286 0.343 0.457 5.314 4.914 9.486 10.343 9.486s9.886-4.171 10.343-9.486c0.057-0.171-0.114-0.343-0.286-0.343zM1.943 11.429c0.171 0 0.286-0.114 0.286-0.286 0.457-5.029 4.629-8.914 9.771-8.914s9.314 3.943 9.771 8.914c0 0.171 0.171 0.286 0.286 0.286 0.171 0 0.286-0.171 0.286-0.343-0.457-5.314-4.914-9.486-10.343-9.486s-9.886 4.171-10.343 9.486c-0.057 0.171 0.114 0.343 0.286 0.343z"></path>
<path fill="#fff" d="M8.572 4.571h7.6c0.229 0 0.4 0.229 0.4 0.4v0.229c0 0.229-0.171 0.4-0.4 0.4h-7.6c-0.229 0-0.4-0.171-0.4-0.4v-0.229c0-0.171 0.229-0.4 0.4-0.4z"></path>
<path fill="#fff" d="M12 19.6v-13.6h-1.029v13.6c0 0.229 0.171 0.4 0.4 0.4h0.229c0.229 0 0.4-0.171 0.4-0.4zM13.591 19.6v-13.6h-1.029v13.6c0 0.229 0.171 0.4 0.4 0.4h0.229c0.229 0 0.4-0.171 0.4-0.4z"></path>
<path fill="#fff" d="M11.143 9.372c0.286-0.114 0.629-0.171 1.086-0.171 0.629 0 1.086 0.114 1.429 0.343 0.229 0.171 0.4 0.343 0.514 0.629 0.114 0.229 0.286 0.457 0.629 0.457h1.829c0.343 0 0.629-0.286 0.571-0.629-0.057-0.571-0.286-1.029-0.629-1.486-0.4-0.571-1.029-0.971-1.771-1.257s-1.6-0.457-2.571-0.457c-0.971 0-1.829 0.171-2.571 0.457s-1.371 0.743-1.829 1.257c-0.457 0.571-0.686 1.2-0.686 1.943 0 0.914 0.343 1.657 1.029 2.171s1.543 0.914 2.629 1.143l1.429 0.286c0.457 0.114 0.857 0.229 1.143 0.343s0.514 0.229 0.686 0.4c0.114 0.114 0.229 0.286 0.229 0.514s-0.057 0.4-0.229 0.629c-0.171 0.171-0.4 0.343-0.743 0.457-0.286 0.114-0.686 0.171-1.143 0.171s-0.857-0.057-1.2-0.171c-0.343-0.114-0.629-0.286-0.8-0.514-0.114-0.171-0.229-0.343-0.286-0.514-0.057-0.286-0.286-0.514-0.629-0.514h-1.829c-0.343 0-0.629 0.286-0.571 0.628 0.057 0.686 0.286 1.257 0.686 1.771 0.457 0.571 1.086 1.029 1.886 1.314s1.714 0.457 2.8 0.457c1.086 0 2-0.114 2.743-0.457 0.8-0.286 1.371-0.686 1.771-1.257s0.629-1.2 0.629-1.943c0-0.514-0.114-0.971-0.343-1.371s-0.514-0.743-0.857-1.029c-0.343-0.286-0.8-0.514-1.257-0.743-0.457-0.171-1.029-0.343-1.6-0.457l-1.143-0.229c-0.286-0.057-0.514-0.114-0.743-0.171s-0.457-0.171-0.629-0.286-0.286-0.229-0.4-0.343c-0.057-0.114-0.114-0.229-0.114-0.4s0.057-0.4 0.171-0.514c0.229-0.229 0.4-0.343 0.686-0.457z"></path>
<path fill="#216c58" d="M9.586 7.070c0.766-0.295 1.648-0.47 2.643-0.47s1.877 0.176 2.643 0.47c0.762 0.293 1.43 0.712 1.862 1.326 0.355 0.473 0.602 0.962 0.665 1.577 0.076 0.482-0.327 0.855-0.77 0.855h-1.829c-0.461 0-0.684-0.32-0.807-0.568l-0.004-0.008-0.003-0.008c-0.095-0.237-0.234-0.381-0.444-0.539-0.298-0.197-0.71-0.306-1.313-0.306-0.441 0-0.757 0.055-1.011 0.157-0.259 0.104-0.408 0.202-0.619 0.413-0.025 0.025-0.055 0.076-0.079 0.153-0.023 0.074-0.034 0.154-0.034 0.22 0 0.11 0.031 0.184 0.079 0.282 0.105 0.105 0.203 0.2 0.346 0.295 0.157 0.105 0.365 0.208 0.566 0.258 0.229 0.057 0.453 0.113 0.734 0.169l1.143 0.229c0.583 0.117 1.165 0.291 1.631 0.466l0.010 0.004 0.022 0.011c0.448 0.224 0.922 0.461 1.283 0.762 0.362 0.302 0.663 0.663 0.903 1.083 0.248 0.434 0.369 0.926 0.369 1.471 0 0.788-0.244 1.456-0.665 2.058-0.428 0.611-1.035 1.032-1.86 1.328-0.781 0.358-1.727 0.472-2.818 0.472-1.108 0-2.045-0.175-2.867-0.469-0.833-0.298-1.493-0.776-1.975-1.378l-0.001-0.001-0.001-0.001c-0.422-0.543-0.665-1.149-0.726-1.87-0.075-0.481 0.327-0.853 0.77-0.853h1.829c0.442 0 0.743 0.298 0.822 0.661 0.048 0.137 0.142 0.28 0.256 0.451 0.138 0.182 0.38 0.334 0.7 0.44 0.318 0.106 0.696 0.161 1.137 0.161 0.445 0 0.816-0.056 1.069-0.157l0.005-0.002 0.006-0.002c0.302-0.101 0.502-0.249 0.655-0.399 0.142-0.192 0.18-0.321 0.18-0.497 0-0.157-0.078-0.28-0.17-0.373-0.141-0.141-0.337-0.243-0.619-0.356-0.271-0.109-0.659-0.22-1.112-0.333l-1.426-0.285c-1.112-0.234-1.996-0.645-2.707-1.179-0.742-0.556-1.109-1.361-1.109-2.331 0-0.79 0.245-1.462 0.73-2.068l0.003-0.004 0.003-0.004c0.478-0.537 1.133-1.013 1.906-1.311zM12.229 7c-0.948 0-1.78 0.167-2.5 0.444-0.71 0.273-1.311 0.71-1.747 1.199-0.427 0.536-0.639 1.119-0.639 1.814 0 0.859 0.319 1.539 0.949 2.011 0.66 0.495 1.49 0.884 2.549 1.107 0 0 0.001 0 0.001 0l1.436 0.287c0.458 0.115 0.869 0.232 1.169 0.351 0.29 0.116 0.551 0.242 0.753 0.444 0.136 0.136 0.287 0.355 0.287 0.656 0 0.278-0.075 0.49-0.269 0.749l-0.009 0.011-0.010 0.010c-0.188 0.188-0.441 0.378-0.815 0.504-0.318 0.126-0.745 0.184-1.212 0.184-0.473 0-0.895-0.059-1.263-0.182-0.364-0.121-0.692-0.311-0.897-0.584l-0.003-0.005-0.011-0.016c-0.109-0.163-0.235-0.353-0.301-0.55l-0.004-0.012-0.002-0.012c-0.040-0.202-0.194-0.353-0.432-0.353h-1.829c-0.24 0-0.408 0.195-0.374 0.396l0.001 0.008 0.001 0.008c0.054 0.647 0.268 1.181 0.643 1.664 0.433 0.541 1.030 0.976 1.796 1.25 0.777 0.278 1.669 0.445 2.733 0.445 1.076 0 1.955-0.114 2.659-0.439l0.008-0.004 0.008-0.003c0.771-0.275 1.304-0.654 1.675-1.183 0.379-0.542 0.592-1.131 0.592-1.828 0-0.484-0.107-0.906-0.317-1.272-0.217-0.38-0.488-0.704-0.812-0.974-0.319-0.266-0.75-0.483-1.209-0.713-0.446-0.167-1.003-0.333-1.559-0.445l-1.143-0.229c-0.29-0.058-0.523-0.116-0.751-0.173l-0.001-0c-0.256-0.064-0.505-0.19-0.691-0.313-0.188-0.125-0.314-0.251-0.428-0.365l-0.026-0.026-0.017-0.035c-0.058-0.115-0.133-0.265-0.133-0.484 0-0.106 0.017-0.226 0.052-0.337 0.034-0.109 0.089-0.229 0.178-0.318 0.247-0.247 0.441-0.377 0.753-0.501 0.317-0.127 0.687-0.186 1.16-0.186 0.651 0 1.152 0.118 1.54 0.376l0.005 0.003 0.004 0.003c0.243 0.182 0.444 0.379 0.577 0.706 0.104 0.206 0.224 0.34 0.446 0.34h1.829c0.241 0 0.408-0.195 0.374-0.396l-0.001-0.006-0.001-0.007c-0.052-0.524-0.261-0.947-0.59-1.386l-0.002-0.003-0.002-0.003c-0.369-0.527-0.957-0.907-1.679-1.185-0.719-0.277-1.552-0.444-2.5-0.444z"></path>
<path fill="#fff" d="M12 8.629h-1.029v1.371h1.029v-1.371z"></path>
<path fill="#fff" d="M12 13.6h-1.029v1.429h1.029v-1.429z"></path>
<path fill="#fff" d="M12 17.813h-1.031v1.594h1.031v-1.594z"></path>
<path fill="#fff" d="M13.594 8.625h-1.031v1.487l1.031 0.013v-1.5z"></path>
<path fill="#fff" d="M13.591 13.594h-1.029v1.429h1.029v-1.429z"></path>
<path fill="#fff" d="M13.591 18h-1.029v1.371h1.029v-1.371z"></path>
</svg>
