<!-- Generated by IcoMoon.io -->
<svg version="1.1" xmlns="http://www.w3.org/2000/svg" width="24" height="24" viewBox="0 0 24 24"><title>USDT</title>
<path fill="#eceff0" d="M12 0c6.627 0 12 5.373 12 12s-5.373 12-12 12c-6.627 0-12-5.373-12-12s5.373-12 12-12z"></path>
<path fill="#50af95" d="M5.464 3.932l-3.761 7.884c-0.014 0.029-0.019 0.062-0.013 0.095s0.022 0.061 0.046 0.084l10.157 9.713c0.029 0.028 0.067 0.043 0.107 0.043s0.078-0.015 0.107-0.043l10.157-9.713c0.024-0.022 0.040-0.052 0.046-0.084s0.001-0.065-0.013-0.095l-3.761-7.884c-0.012-0.026-0.032-0.049-0.056-0.065s-0.053-0.024-0.082-0.024h-12.794c-0.029-0-0.058 0.008-0.083 0.023s-0.045 0.038-0.057 0.065z"></path>
<path fill="#fff" d="M13.305 12.625c-0.073 0.005-0.45 0.028-1.29 0.028-0.668 0-1.143-0.020-1.309-0.028-2.583-0.113-4.511-0.562-4.511-1.099s1.928-0.985 4.511-1.101v1.753c0.169 0.012 0.653 0.041 1.321 0.041 0.802 0 1.204-0.033 1.276-0.040v-1.753c2.578 0.115 4.502 0.563 4.502 1.099s-1.923 0.985-4.502 1.099l0.002 0.001zM13.305 10.245v-1.569h3.597v-2.392h-9.794v2.392h3.597v1.568c-2.923 0.134-5.122 0.712-5.122 1.405s2.199 1.27 5.122 1.404v5.027h2.6v-5.029c2.917-0.134 5.112-0.711 5.112-1.403s-2.193-1.269-5.112-1.404l0.001 0.001z"></path>
</svg>
