<!-- Generated by IcoMoon.io -->
<svg version="1.1" xmlns="http://www.w3.org/2000/svg" width="24" height="24" viewBox="0 0 24 24"><title>VET</title>
<path fill="#fff" d="M12 0c6.627 0 12 5.373 12 12s-5.373 12-12 12c-6.627 0-12-5.373-12-12s5.373-12 12-12z"></path>
<path fill="#28008c" d="M18.561 5.44c-0.377 0.004-0.656 0.178-0.823 0.513-1.676 3.36-3.323 6.744-4.913 10.145-0.193 0.414-0.378 0.832-0.574 1.244-0.080 0.167-0.161 0.333-0.247 0.511-0.014-0.027-0.020-0.040-0.027-0.053-0.154-0.315-0.308-0.631-0.462-0.946-0.006-0.014-0.011-0.028-0.017-0.041-1.487-3.067-2.915-6.165-4.434-9.216-0.039-0.078-0.013-0.084 0.058-0.084 0.434 0.002 0.868-0.001 1.301 0.002 0.076 0 0.154 0.010 0.229 0.026 0.284 0.061 0.481 0.24 0.609 0.489 0.608 1.178 1.172 2.38 1.756 3.57 0.221 0.451 0.415 0.913 0.632 1.364 0.275 0.57 0.55 1.14 0.826 1.71 0.008 0.017 0.007 0.042 0.035 0.043 0.051-0.046 0.064-0.112 0.092-0.169 0.292-0.606 0.583-1.212 0.877-1.817 0.022-0.045 0.023-0.080 0.001-0.125-0.271-0.557-0.541-1.115-0.811-1.673-0.572-1.18-1.183-2.384-1.74-3.587-0.199-0.431-0.47-0.808-0.83-1.12-0.613-0.53-1.332-0.781-2.136-0.785-1.253-0.006-2.506-0.002-3.759-0.003-0.042 0-0.084 0-0.126 0-0.037 0-0.063-0.008-0.033 0.051 1.705 3.347 3.194 6.798 4.875 10.156 0.634 1.266 1.302 2.516 1.848 3.824 0.054 0.129 0.13 0.257 0.194 0.386 0.024 0.049 0.057 0.071 0.117 0.067 0.137-0.007 0.275-0.004 0.413-0.004 0.036 0.002 0.071 0.005 0.107 0.005 0.419 0 0.838 0 1.256-0.001 0.054 0 0.113 0.011 0.16-0.008 0.048-0.019 0.027-0.090 0.053-0.132 0.014-0.023 0.017-0.055 0.036-0.070 0.088-0.071 0.098-0.184 0.136-0.274 0.093-0.221 0.216-0.427 0.309-0.648 0.112-0.265 0.245-0.52 0.372-0.778 1.666-3.39 3.279-6.806 4.917-10.208 0.316-0.661 0.626-1.327 0.954-1.982 0.061-0.123 0.116-0.249 0.177-0.382-0.476 0-0.942-0.003-1.408 0.001l-0-0zM11.492 19.797c0-0.040-0.001-0.081-0.001-0.121 0.001 0.040 0.001 0.081 0.001 0.121z"></path>
</svg>
