<!-- Generated by IcoMoon.io -->
<svg version="1.1" xmlns="http://www.w3.org/2000/svg" width="24" height="24" viewBox="0 0 24 24"><title>WOO</title>
<path fill="#20252f" d="M12 0c6.627 0 12 5.373 12 12s-5.373 12-12 12c-6.627 0-12-5.373-12-12s5.373-12 12-12z"></path>
<path fill="#fff" d="M17.069 7.387h2.545l-1.208 3.833h-2.51l1.174-3.833z"></path>
<path fill="#fff" d="M13.792 11.032l1.254 2.964 0.47-1.498h2.5l-1.412 4.586c-0.055 0.176-0.166 0.331-0.314 0.44-0.149 0.11-0.329 0.169-0.514 0.169h-1.416c-0.174 0-0.342-0.052-0.486-0.149-0.144-0.096-0.256-0.233-0.32-0.394l-1.567-3.808-1.542 3.796c-0.065 0.161-0.178 0.299-0.323 0.396s-0.317 0.148-0.491 0.146h-1.439c-0.185 0-0.366-0.059-0.515-0.169-0.149-0.109-0.259-0.264-0.314-0.442l-2.975-9.68h2.504l1.991 6.599 1.304-2.983c0.143-0.36 0.391-0.67 0.712-0.887 0.32-0.218 0.7-0.334 1.087-0.334 0.392 0 0.775 0.119 1.097 0.342s0.569 0.538 0.709 0.904z"></path>
</svg>
