<!-- Generated by IcoMoon.io -->
<svg version="1.1" xmlns="http://www.w3.org/2000/svg" width="24" height="24" viewBox="0 0 24 24"><title>XDC</title>
<path fill="#fff" d="M12 0c6.627 0 12 5.373 12 12s-5.373 12-12 12c-6.627 0-12-5.373-12-12s5.373-12 12-12z"></path>
<path fill="#b7b5b1" d="M22.313 11.019c-2.368-13.728-20.295-11.072-20.617 0 1.031 0.536 1.683 0.866 1.683 0.866s-0.545 0.33-1.691 1.056c2.063 13.464 19.684 11.509 20.625-0.017-1.122-0.685-1.732-1.048-1.732-1.048s0.528-0.248 1.732-0.858zM13.493 15.812l-1.683-2.888-1.708 2.888-1.295-0.091 2.434-4.1-2.194-3.539 1.32-0.116 1.559 2.623 1.559-2.508 1.229 0.033-2.046 3.482 2.252 4.191-1.444 0.033 0.016-0.008z"></path>
<path fill="#244b81" d="M21.479 10.483c-3.209-12.202-17.936-8.902-18.942 0 2.046 1.147 2.508 1.419 2.508 1.419s-0.792 0.503-2.516 1.6c2.194 11.732 18.076 9.471 18.95-0.016-1.601-1.006-2.549-1.592-2.549-1.592s2.162-1.205 2.549-1.411zM13.493 15.82l-1.683-2.888-1.708 2.888-1.287-0.091 2.434-4.1-2.194-3.539 1.32-0.116 1.559 2.623 1.559-2.508 1.229 0.033-2.038 3.482 2.252 4.191-1.444 0.033v-0.008z"></path>
</svg>
