<!-- Generated by IcoMoon.io -->
<svg version="1.1" xmlns="http://www.w3.org/2000/svg" width="24" height="24" viewBox="0 0 24 24"><title>XEC</title>
<path fill="#000" d="M12 0c6.627 0 12 5.373 12 12s-5.373 12-12 12c-6.627 0-12-5.373-12-12s5.373-12 12-12z"></path>
<path fill="#fff" d="M13.603 9.358l-2.973 1.712c-0.038 0.022-0.069 0.053-0.091 0.091s-0.033 0.081-0.032 0.124v1.436c-0 0.042 0.011 0.084 0.032 0.121s0.053 0.066 0.090 0.086l1.245 0.718c0.035 0.023 0.077 0.034 0.119 0.034s0.083-0.012 0.119-0.034l5.138-2.959c0.872-0.504 0.872-1.957 0-2.462l-4.617-2.659c-0.193-0.116-0.413-0.178-0.638-0.178s-0.446 0.062-0.638 0.178l-4.616 2.66c-0.197 0.11-0.361 0.271-0.475 0.466s-0.173 0.417-0.171 0.643c0 1.781 0.008 3.554 0 5.327-0.002 0.225 0.057 0.447 0.17 0.642s0.276 0.356 0.473 0.467l4.616 2.667c0.194 0.113 0.414 0.172 0.638 0.172s0.445-0.059 0.638-0.172l4.621-2.667c0.196-0.111 0.358-0.272 0.47-0.467s0.169-0.417 0.165-0.642v-2.316l-5.496 3.18c-0.12 0.071-0.258 0.109-0.398 0.109s-0.277-0.038-0.397-0.109l-2.454-1.422c-0.122-0.068-0.223-0.168-0.293-0.29s-0.106-0.259-0.104-0.399v-2.835c-0.001-0.138 0.035-0.273 0.103-0.392s0.167-0.219 0.286-0.288c0.818-0.474 1.643-0.948 2.462-1.422 0.12-0.071 0.258-0.108 0.397-0.108s0.277 0.037 0.398 0.108l1.219 0.696c0.016 0.010 0.029 0.024 0.037 0.040s0.013 0.035 0.013 0.053c-0 0.019-0.006 0.037-0.015 0.053s-0.023 0.029-0.039 0.038z"></path>
</svg>
