<!-- Generated by IcoMoon.io -->
<svg version="1.1" xmlns="http://www.w3.org/2000/svg" width="24" height="24" viewBox="0 0 24 24"><title>XLM</title>
<path fill="#000" d="M12 0c6.627 0 12 5.373 12 12s-5.373 12-12 12c-6.627 0-12-5.373-12-12s5.373-12 12-12z"></path>
<path fill="#fff" d="M16.024 7.778l4.414-2.25v1.458l-16.875 8.599v-1.459l0.613-0.313c0.228-0.116 0.417-0.298 0.543-0.521s0.182-0.479 0.163-0.734c-0.014-0.18-0.021-0.361-0.021-0.543-0-1.316 0.364-2.607 1.051-3.73s1.672-2.033 2.845-2.631c1.173-0.598 2.488-0.86 3.801-0.757s2.571 0.566 3.636 1.34l-1.337 0.681c-0.889-0.497-1.892-0.752-2.911-0.742s-2.016 0.287-2.895 0.802c-0.879 0.515-1.607 1.25-2.114 2.133s-0.774 1.884-0.776 2.902c0 0.255 0.017 0.51 0.050 0.763l9.812-4.998zM7.117 15.227l13.321-6.783v1.454l-0.614 0.313c-0.228 0.116-0.417 0.298-0.542 0.521s-0.182 0.479-0.163 0.734c0.014 0.181 0.021 0.365 0.021 0.548-0 1.316-0.365 2.607-1.053 3.729s-1.673 2.032-2.845 2.63c-1.173 0.598-2.488 0.859-3.8 0.756s-2.57-0.567-3.636-1.34l1.261-0.643 0.071-0.038c0.889 0.499 1.893 0.756 2.913 0.746s2.019-0.285 2.899-0.8 1.61-1.251 2.117-2.135c0.507-0.884 0.775-1.886 0.775-2.905-0-0.257-0.017-0.514-0.050-0.768l-14.229 7.25v-1.457l3.554-1.812z"></path>
</svg>
