<!-- Generated by IcoMoon.io -->
<svg version="1.1" xmlns="http://www.w3.org/2000/svg" width="24" height="24" viewBox="0 0 24 24"><title>XMR</title>
<path fill="#fff" d="M12 0c6.627 0 12 5.373 12 12s-5.373 12-12 12c-6.627 0-12-5.373-12-12s5.373-12 12-12z"></path>
<path fill="#f26822" d="M12 0c-6.625 0-12.007 5.38-11.998 12 0.002 1.324 0.213 2.598 0.609 3.79h3.59v-10.095l7.799 7.799 7.799-7.799v10.095h3.591c0.397-1.192 0.607-2.465 0.609-3.79 0.011-6.626-5.373-11.998-11.999-11.998v-0.002z"></path>
<path fill="#4d4d4d" d="M10.207 15.287l-3.404-3.404v6.352l-5.058 0c2.106 3.456 5.913 5.767 10.255 5.767s8.149-2.312 10.255-5.768h-5.059v-6.352l-5.197 5.197-1.793-1.793z"></path>
</svg>
