<!-- Generated by IcoMoon.io -->
<svg version="1.1" xmlns="http://www.w3.org/2000/svg" width="24" height="24" viewBox="0 0 24 24"><title>XRP</title>
<path fill="#23292f" d="M12 0c6.627 0 12 5.373 12 12s-5.373 12-12 12c-6.627 0-12-5.373-12-12s5.373-12 12-12z"></path>
<path fill="#fcfcfd" d="M19.471 5.745h-2.168l-3.43 3.393c-0.499 0.492-1.172 0.768-1.874 0.768s-1.374-0.276-1.874-0.768l-3.428-3.393h-2.17l4.513 4.467c1.635 1.617 4.284 1.617 5.918 0l4.512-4.467z"></path>
<path fill="#fcfcfd" d="M4.5 18.167h2.169l3.458-3.421c0.499-0.492 1.172-0.768 1.874-0.768s1.374 0.276 1.874 0.768l3.457 3.421h2.168l-4.541-4.495c-1.635-1.617-4.284-1.617-5.918 0l-4.541 4.495z"></path>
</svg>
