<!-- Generated by IcoMoon.io -->
<svg version="1.1" xmlns="http://www.w3.org/2000/svg" width="24" height="24" viewBox="0 0 24 24"><title>XTZ</title>
<path fill="#0063ff" d="M12 0c6.627 0 12 5.373 12 12s-5.373 12-12 12c-6.627 0-12-5.373-12-12s5.373-12 12-12z"></path>
<path fill="#fff" d="M13.748 19.969c-1.137 0-1.967-0.274-2.49-0.822-0.484-0.464-0.766-1.1-0.782-1.771-0.006-0.204 0.041-0.405 0.137-0.585 0.089-0.155 0.218-0.284 0.373-0.374 0.181-0.090 0.38-0.137 0.581-0.137s0.401 0.047 0.581 0.137c0.155 0.089 0.283 0.218 0.371 0.374 0.098 0.179 0.147 0.381 0.142 0.585 0.010 0.244-0.060 0.484-0.199 0.685-0.116 0.164-0.282 0.285-0.473 0.346 0.187 0.238 0.451 0.403 0.747 0.466 0.331 0.096 0.674 0.146 1.018 0.147 0.456 0.004 0.903-0.13 1.283-0.383 0.393-0.278 0.687-0.675 0.837-1.133 0.19-0.545 0.283-1.119 0.274-1.696 0.015-0.601-0.086-1.2-0.299-1.763-0.16-0.45-0.464-0.835-0.864-1.096-0.372-0.236-0.804-0.359-1.245-0.356-0.384 0.033-0.754 0.158-1.078 0.366l-0.8 0.401v-0.401l3.593-4.821h-4.98v5.002c-0.014 0.361 0.081 0.718 0.274 1.023 0.093 0.133 0.219 0.24 0.366 0.31s0.309 0.101 0.471 0.091c0.3-0.006 0.589-0.108 0.827-0.291 0.269-0.197 0.503-0.438 0.692-0.712 0.017-0.048 0.048-0.090 0.090-0.119 0.033-0.029 0.076-0.045 0.12-0.045 0.087 0.008 0.168 0.043 0.234 0.1 0.083 0.093 0.129 0.214 0.127 0.339-0.010 0.084-0.025 0.167-0.045 0.249-0.177 0.428-0.473 0.796-0.854 1.061-0.354 0.239-0.771 0.366-1.198 0.364-1.078 0-1.825-0.212-2.241-0.638-0.214-0.235-0.378-0.51-0.484-0.809s-0.151-0.617-0.133-0.934v-4.99h-2.533v-0.929h2.545v-2.119l-0.583-0.583v-0.475h1.691l0.635 0.329v2.849l6.579-0.020 0.655 0.657-4.034 4.054c0.244-0.098 0.5-0.16 0.762-0.184 0.518 0.023 1.023 0.167 1.475 0.421 0.523 0.249 0.964 0.642 1.27 1.133 0.274 0.416 0.469 0.88 0.573 1.367 0.086 0.384 0.131 0.777 0.137 1.171 0.003 0.752-0.168 1.494-0.498 2.169-0.313 0.654-0.84 1.181-1.494 1.494-0.669 0.33-1.406 0.5-2.152 0.498z"></path>
</svg>
