<!-- Generated by IcoMoon.io -->
<svg version="1.1" xmlns="http://www.w3.org/2000/svg" width="24" height="24" viewBox="0 0 24 24"><title>YFI</title>
<path fill="#0666cb" d="M12 0c6.627 0 12 5.373 12 12s-5.373 12-12 12c-6.627 0-12-5.373-12-12s5.373-12 12-12z"></path>
<path fill="#fff" d="M10.68 11.688v-1.296c-0.984-0.48-1.68-1.512-1.68-2.688 0-1.656 1.344-3 3-3 1.872 0 3.216 1.344 3.216 3 0 0.408-0.096 0.816-0.288 1.296l-0.528-1.728-1.056 0.336 0.936 3.576 3.648-1.344-0.456-1.056-1.368 0.456c0.24-0.528 0.288-0.936 0.288-1.56 0-2.328-1.872-4.2-4.416-4.2-2.328 0-4.2 1.872-4.2 4.2 0.024 1.872 1.224 3.456 2.904 4.008z"></path>
<path fill="#fff" d="M11.376 6.576h1.248v10.848h-1.248v-10.848z"></path>
<path fill="#fff" d="M13.32 13.608v-1.296c1.68 0.552 2.88 2.136 2.904 4.008 0 2.328-1.872 4.2-4.2 4.2-2.544 0-4.416-1.872-4.416-4.2 0-0.624 0.048-1.032 0.288-1.56l-1.368 0.456-0.456-1.056 3.648-1.344 0.936 3.576-1.056 0.336-0.528-1.728c-0.192 0.48-0.288 0.888-0.288 1.296 0 1.656 1.344 3 3.216 3 1.656 0 3-1.344 3-3 0-1.176-0.696-2.208-1.68-2.688z"></path>
</svg>
