<!-- Generated by IcoMoon.io -->
<svg version="1.1" xmlns="http://www.w3.org/2000/svg" width="24" height="24" viewBox="0 0 24 24"><title>ZEC</title>
<path fill="#ecb244" d="M12 0c6.627 0 12 5.373 12 12s-5.373 12-12 12c-6.627 0-12-5.373-12-12s5.373-12 12-12z"></path>
<path fill="#fff" d="M11.279 14.988h5.2v2.6h-3.068v2.2h-2.668v-2.132h-3.2c0-0.868-0.132-1.732 0.068-2.532 0.068-0.4 0.532-0.8 0.868-1.2 1-1.2 2-2.4 3.068-3.6 0.4-0.468 0.8-0.868 1.268-1.4h-5v-2.6h2.932v-2.2h2.6v2.131h3.2c0 0.868 0.132 1.732-0.068 2.532-0.068 0.4-0.532 0.8-0.868 1.2-1 1.2-2 2.4-3.068 3.6-0.4 0.469-0.8 0.932-1.264 1.4z"></path>
</svg>
