<!-- Generated by IcoMoon.io -->
<svg version="1.1" xmlns="http://www.w3.org/2000/svg" width="24" height="24" viewBox="0 0 24 24"><title>ZIL</title>
<path fill="#49c1bf" d="M12 0c6.627 0 12 5.373 12 12s-5.373 12-12 12c-6.627 0-12-5.373-12-12s5.373-12 12-12z"></path>
<path fill="#80d4d2" d="M6 4.646l9.491 4.55 2.43-1.083-9.452-4.55-2.468 1.083z"></path>
<path fill="#bee9e8" d="M15.491 9.185l2.43-1.083v2.422l-2.43 1.083v-2.422z"></path>
<path fill="#fff" d="M6 4.648v2.449l6.57 3.157-6.57 3.223v2.414l9.491 4.542v-2.43l-6.446-3.103 6.446-3.281v-2.422l-9.491-4.55z"></path>
<path fill="#bfe9e8" d="M15.491 20.416l2.43-1.083v-7.568l-2.43 1.095v7.556z"></path>
</svg>
