<!-- Generated by IcoMoon.io -->
<svg version="1.1" xmlns="http://www.w3.org/2000/svg" width="24" height="24" viewBox="0 0 24 24"><title>ZRX</title>
<path fill="#000" d="M12 0c6.627 0 12 5.373 12 12s-5.373 12-12 12c-6.627 0-12-5.373-12-12s5.373-12 12-12z"></path>
<path fill="#fff" d="M16.723 15.034c0.61 0.82 1.239 1.658 1.868 2.497-1.258 1.487-2.821 2.44-4.708 2.84-2.097 0.438-4.079 0.114-6.004-0.953 1.715-1.277 3.393-2.535 5.089-3.793 0.381 0.362 0.743 0.724 1.105 1.067 0.4 0.381 0.248 0.4 0.762 0.114 0.705-0.4 1.296-0.953 1.753-1.62 0.019-0.038 0.057-0.076 0.076-0.114-0.019 0 0 0 0.057-0.038zM9.233 16.711c-0.477 0.362-0.915 0.686-1.353 1.029-0.324 0.248-0.648 0.476-0.972 0.724-0.133 0.114-0.229 0.114-0.381-0.019-1.449-1.296-2.364-2.897-2.707-4.803-0.343-1.925-0.038-3.755 0.877-5.489 0.019-0.038 0.057-0.095 0.076-0.133 0-0.019 0.019-0.019 0.057-0.038 1.258 1.658 2.535 3.316 3.793 4.975-0.038 0.057-0.057 0.095-0.095 0.133-0.381 0.4-0.762 0.801-1.163 1.182-0.114 0.114-0.133 0.21-0.057 0.343 0.4 0.762 0.953 1.391 1.639 1.906 0.095 0.057 0.172 0.114 0.286 0.191zM16.342 4.875c-0.61 0.438-1.22 0.877-1.83 1.296-1.048 0.743-2.097 1.506-3.126 2.249-0.133 0.095-0.229 0.114-0.343-0.019-0.343-0.362-0.705-0.686-1.048-1.048-0.095-0.095-0.191-0.114-0.324-0.057-0.82 0.419-1.468 1.010-2.001 1.754-0.038 0.038-0.076 0.095-0.114 0.152-0.305-0.4-0.591-0.762-0.877-1.144-0.305-0.4-0.591-0.801-0.877-1.182-0.095-0.133-0.114-0.229 0.019-0.362 1.468-1.62 3.278-2.573 5.451-2.802 1.715-0.191 3.355 0.152 4.879 0.972 0.057 0.038 0.114 0.057 0.172 0.095 0 0.057 0 0.076 0.019 0.095zM19.449 16.311c-0.4-0.515-0.762-0.991-1.125-1.468-0.839-1.105-1.677-2.23-2.535-3.336-0.114-0.153-0.114-0.248 0.019-0.381 0.362-0.362 0.705-0.724 1.067-1.086 0.095-0.095 0.133-0.191 0.057-0.324-0.419-0.8-0.991-1.468-1.735-2.001-0.057-0.038-0.114-0.095-0.191-0.133 0.057-0.057 0.114-0.095 0.152-0.133 0.724-0.553 1.449-1.086 2.173-1.639 0.114-0.095 0.21-0.133 0.343 0 1.811 1.639 2.783 3.679 2.878 6.137 0.038 1.429-0.286 2.783-0.934 4.060-0.057 0.076-0.114 0.172-0.172 0.305z"></path>
</svg>
