<svg xmlns="http://www.w3.org/2000/svg" fill="none" viewBox="0 0 24 24"><path fill="currentColor" d="M17 8a1 1 0 0 0 1-1V6h1a1 1 0 0 0 0-2h-1V3a1 1 0 0 0-2 0v1h-1a1 1 0 0 0 0 2h1v1a1 1 0 0 0 1 1m3 11a1 1 0 0 0-1-1h-1v-1a1 1 0 0 0-2 0v1h-1a1 1 0 0 0 0 2h1v1a1 1 0 0 0 2 0v-1h1a1 1 0 0 0 1-1M8.594 7.198c.255-1.6 2.557-1.6 2.813 0a4.09 4.09 0 0 0 3.395 3.395c1.6.255 1.6 2.558 0 2.813a4.09 4.09 0 0 0-3.394 3.395c-.255 1.6-2.558 1.6-2.813 0a4.09 4.09 0 0 0-3.394-3.395c-1.6-.255-1.6-2.558 0-2.813a4.09 4.09 0 0 0 3.394-3.395zM10 9.282A6.1 6.1 0 0 1 7.283 12 6.1 6.1 0 0 1 10 14.717 6.1 6.1 0 0 1 12.717 12 6.1 6.1 0 0 1 10 9.282"/></svg>