<svg xmlns="http://www.w3.org/2000/svg" fill="none" viewBox="0 0 24 24"><path fill="currentColor" fill-rule="evenodd" d="M12 1.44a3.84 3.84 0 0 0-.96 7.559v11.588a8.644 8.644 0 0 1-7.626-7.627H5.28a.96.96 0 1 0 0-1.92H2.4a.96.96 0 0 0-.96.96A10.563 10.563 0 0 0 12 22.56 10.557 10.557 0 0 0 22.56 12a.96.96 0 0 0-.96-.96h-2.88a.96.96 0 1 0 0 1.92h1.866a8.644 8.644 0 0 1-7.626 7.627V8.999a3.84 3.84 0 0 0-.96-7.56m-1.92 3.84a1.92 1.92 0 1 1 3.839-.001 1.92 1.92 0 0 1-3.84 0" clip-rule="evenodd"/></svg>