<svg xmlns="http://www.w3.org/2000/svg" fill="none" viewBox="0 0 24 24"><path fill="currentColor" d="M4 9a1 1 0 0 0-1 1v4a1 1 0 0 0 2 0v-4a1 1 0 0 0-1-1m16 0a1 1 0 0 0-1 1v4a1 1 0 0 0 2 0v-4a1 1 0 0 0-1-1M7 16v-4.5a.5.5 0 0 1 .5-.5h9a.5.5 0 0 1 .5.5V16a2 2 0 0 1-2 2v2a1 1 0 0 1-2 0v-2h-2v2a1 1 0 0 1-2 0v-2a2 2 0 0 1-2-2M9.895 3.553a1 1 0 1 0-1.789.895l.46.92a4.98 4.98 0 0 0-1.54 3.134c-.027.274.199.499.476.499h9c.276 0 .503-.224.476-.499a4.98 4.98 0 0 0-1.541-3.134l.46-.92a1 1 0 0 0-1.789-.895l-.377.754A5 5 0 0 0 12.002 4a5 5 0 0 0-1.729.307z"/></svg>