<svg xmlns="http://www.w3.org/2000/svg" fill="none" viewBox="0 0 24 24"><path fill="currentColor" d="M10.531 7.554C10.069 7.288 9.572 7 8.5 7 6.5 7 4 9 4 13s2.644 9 5 9c.75 0 1.125-.25 1.5-.5s.75-.5 1.5-.5 1.125.25 1.5.5.75.5 1.5.5c1.678 0 3.857-2.515 4.972-5.422.115-.3-.098-.619-.407-.704a3.501 3.501 0 0 1-.765-6.433c.304-.17.431-.575.187-.823C17.915 7.534 16.545 7 15.502 7c-.75 0-1.25.25-1.75.5s-1 .5-1.75.5c-.696 0-1.069-.215-1.469-.446zM12 5.555a3.557 3.557 0 0 1 3.556-3.556c.245 0 .445.199.445.445A3.557 3.557 0 0 1 12.445 6 .445.445 0 0 1 12 5.555"/></svg>