<svg xmlns="http://www.w3.org/2000/svg" fill="none" viewBox="0 0 24 24"><path fill="currentColor" d="M4 12a8 8 0 0 1 16 0c0 .244-.005 1.101-.261 1.871-.127.38-.293.668-.485.851-.168.16-.391.278-.755.278-.404 0-.598-.111-.73-.246-.167-.17-.344-.495-.482-1.1-.281-1.238-.287-3.101-.287-5.653a1 1 0 0 0-2 0 5 5 0 1 0 .751 7.306c.155.311.347.598.59.846.571.584 1.314.848 2.16.848.886 0 1.601-.32 2.136-.832.511-.488.814-1.107 1-1.664.364-1.092.364-2.222.364-2.495v-.009c0-5.523-4.477-10-10-10s-10 4.477-10 10 4.478 10 10 10a9.96 9.96 0 0 0 4.445-1.04 1.001 1.001 0 0 0-.889-1.791 7.96 7.96 0 0 1-3.555.831 8 8 0 0 1-8-8zm11 0a3 3 0 1 1-6 0 3 3 0 0 1 6 0"/></svg>