<svg xmlns="http://www.w3.org/2000/svg" fill="none" viewBox="0 0 24 24"><path fill="currentColor" d="M22 12c0 5.523-4.477 10-10 10S2 17.523 2 12 6.477 2 12 2s10 4.477 10 10m-3.979.023c.046-.062.097-.124.145-.184.058-.072.115-.142.16-.206 1.037-1.411 1.309-2.72.765-3.655-.595-1.054-2.108-1.394-4.029-1.088-.697-1.802-1.751-2.941-2.958-2.941S9.843 5.088 9.146 6.907c-.154-.031-.308-.047-.449-.063l-.045-.005c-1.751-.204-3.009.204-3.553 1.139-.595 1.054-.136 2.533 1.088 4.046q-.077.101-.153.196-.077.095-.153.195c-1.037 1.411-1.309 2.72-.765 3.655.459.799 1.462 1.19 2.771 1.19a7 7 0 0 0 1.275-.119c.68 1.819 1.734 2.958 2.941 2.958s2.261-1.139 2.958-2.958c.442.068.867.102 1.258.102 1.309 0 2.295-.391 2.771-1.19.544-.935.272-2.227-.765-3.655q-.076-.09-.153-.188-.076-.097-.153-.187zm-1.683-4.404c1.02 0 1.734.272 2.04.782.357.612.085 1.615-.731 2.72l-.204.255a16 16 0 0 0-1.666-1.479 16 16 0 0 0-.442-2.21l.056-.005c.337-.032.657-.063.947-.063m-2.754 6.953q-.765.434-1.479.765a21 21 0 0 1-1.479-.765 29 29 0 0 1-1.22-.769l-.174-.114a17 17 0 0 1-.085-1.666c0-.578.034-1.139.085-1.666a16.3 16.3 0 0 1 2.856-1.649q.74.332 1.479.765c.493.289.969.595 1.411.901.051.527.085 1.071.085 1.649s-.034 1.122-.085 1.649c-.442.306-.901.612-1.394.901zm1.241.222a10 10 0 0 1-.323 1.377 13 13 0 0 1-1.36-.408c.179-.085.352-.182.527-.28q.16-.091.323-.178c.289-.17.561-.34.833-.51zm-3.774.968c-.459.17-.918.306-1.343.408a23 23 0 0 1-.323-1.36c.255.17.527.34.816.493.272.17.562.323.851.459zm-2.72-2.771a12 12 0 0 1-1.037-.969c.306-.323.663-.663 1.037-.969-.017.323-.034.646-.034.969q.011.241.017.483.005.242.017.486m1.87-4.267c-.193.113-.37.226-.547.34l-.269.17c.085-.493.187-.952.306-1.36.442.102.884.238 1.343.408q-.264.133-.536.282l-.298.16zm2.941-.458c.476-.17.935-.306 1.36-.425.119.425.238.884.323 1.394-.272-.17-.544-.34-.833-.51-.271-.153-.559-.305-.848-.458zm2.737 2.805c.374.306.714.629 1.02.952-.306.323-.646.646-1.02.952.017-.306.034-.629.034-.952a19 19 0 0 1-.017-.475q-.006-.243-.017-.477m-3.774-6.274c.765 0 1.547.833 2.125 2.278-.68.17-1.394.408-2.125.714a14 14 0 0 0-2.108-.714c.561-1.445 1.343-2.278 2.108-2.278M5.832 8.402c.289-.51 1.003-.782 2.006-.782.206 0 .427.015.663.031l.051.004q.076.011.16.026c.055.01.112.017.163.026-.187.663-.34 1.394-.442 2.176-.629.476-1.207.969-1.7 1.496-.952-1.207-1.276-2.312-.901-2.975zm.017 7.224c-.357-.612-.085-1.615.731-2.72.051-.085.119-.17.187-.238.476.51 1.054 1.003 1.683 1.479.102.782.238 1.53.442 2.193-1.547.221-2.669-.051-3.043-.714m6.256 3.621c-.765 0-1.564-.85-2.125-2.278.68-.17 1.394-.408 2.125-.714.731.306 1.462.561 2.142.714-.595 1.445-1.377 2.278-2.142 2.278m6.256-3.621c-.374.663-1.496.918-3.026.697.204-.68.34-1.411.442-2.21.629-.476 1.19-.969 1.666-1.462.068.085.136.17.187.238.816 1.139 1.088 2.125.731 2.737m-8.262-3.603a2.01 2.01 0 0 1 2.006-2.006 2.01 2.01 0 0 1 2.006 2.006 2.01 2.01 0 0 1-2.006 2.006 2.01 2.01 0 0 1-2.006-2.006m1.377 0c0-.34.272-.629.629-.629a.323.323 0 1 0 0-.646c-.697 0-1.275.578-1.275 1.275a.323.323 0 1 0 .646 0"/></svg>