<svg xmlns="http://www.w3.org/2000/svg" fill="none" viewBox="0 0 24 24"><path fill="currentColor" d="M20.501 12.032c.144-.192.312-.384.432-.552 1.464-1.992 1.848-3.84 1.08-5.16-.84-1.488-2.976-1.968-5.688-1.536C15.341 2.24 13.853.632 12.149.632S8.957 2.24 7.973 4.808c-.24-.048-.48-.072-.696-.096C4.805 4.424 3.029 5 2.261 6.32c-.84 1.488-.192 3.576 1.536 5.712-.144.192-.288.36-.432.552-1.464 1.992-1.848 3.84-1.08 5.16.648 1.128 2.064 1.68 3.912 1.68.552 0 1.152-.048 1.8-.168.96 2.568 2.448 4.176 4.152 4.176s3.192-1.608 4.176-4.176a12 12 0 0 0 1.776.144c1.848 0 3.24-.552 3.912-1.68.768-1.32.384-3.144-1.08-5.16-.144-.168-.288-.36-.432-.528m-2.376-6.216c1.44 0 2.448.384 2.88 1.104.504.864.12 2.28-1.032 3.84l-.288.36a22 22 0 0 0-2.352-2.088 22.4 22.4 0 0 0-.624-3.12c.504-.048.984-.096 1.416-.096m-3.888 9.815q-1.08.612-2.088 1.08a29 29 0 0 1-2.088-1.08c-.696-.408-1.344-.84-1.968-1.248a24 24 0 0 1-.12-2.352c0-.816.048-1.608.12-2.352a23 23 0 0 1 1.968-1.272 24 24 0 0 1 2.064-1.056q1.044.468 2.088 1.08c.696.408 1.368.84 1.992 1.272.072.744.12 1.512.12 2.328s-.048 1.584-.12 2.328c-.624.432-1.272.864-1.968 1.272m1.752.313c-.12.696-.264 1.368-.456 1.944-.6-.144-1.248-.336-1.92-.576.408-.192.792-.432 1.2-.648.408-.24.792-.48 1.176-.72m-5.328 1.368c-.648.24-1.296.432-1.896.576a33 33 0 0 1-.456-1.92c.36.24.744.48 1.152.696.384.24.792.456 1.2.648m-3.84-3.913a16 16 0 0 1-1.464-1.368c.432-.456.936-.936 1.464-1.368-.024.456-.048.912-.048 1.368.024.456.024.912.048 1.368m2.64-6.023c-.408.24-.768.48-1.152.72.12-.696.264-1.344.432-1.92a15 15 0 0 1 1.896.576c-.384.192-.768.408-1.176.624m4.152-.648c.672-.24 1.32-.432 1.92-.6.168.6.336 1.248.456 1.968-.384-.24-.768-.48-1.176-.72a54 54 0 0 0-1.2-.648m3.864 3.96c.528.432 1.008.888 1.44 1.344-.432.456-.912.912-1.44 1.344.024-.432.048-.888.048-1.344-.024-.456-.024-.912-.048-1.344m-5.328-8.856c1.08 0 2.184 1.176 3 3.216a21 21 0 0 0-3 1.008 20 20 0 0 0-2.976-1.008c.792-2.04 1.896-3.216 2.976-3.216M3.293 6.92c.408-.72 1.416-1.104 2.832-1.104.312 0 .648.024 1.008.048.144.024.312.048.456.072a22 22 0 0 0-.624 3.072c-.888.672-1.704 1.368-2.4 2.112-1.344-1.704-1.8-3.264-1.272-4.2m.024 10.2c-.504-.864-.12-2.28 1.032-3.84.072-.12.168-.24.264-.336.672.72 1.488 1.416 2.376 2.088.144 1.104.336 2.16.624 3.096-2.184.312-3.768-.072-4.296-1.008m8.832 5.112c-1.08 0-2.208-1.2-3-3.216a21 21 0 0 0 3-1.008c1.032.432 2.064.792 3.024 1.008-.84 2.04-1.944 3.216-3.024 3.216m8.832-5.112c-.528.936-2.112 1.296-4.272.984.288-.96.48-1.992.624-3.12a20.3 20.3 0 0 0 2.352-2.064c.096.12.192.24.264.336 1.152 1.608 1.536 3 1.032 3.864"/><path fill="currentColor" d="M12.149 9.2a2.837 2.837 0 0 0-2.832 2.832 2.837 2.837 0 0 0 2.832 2.832 2.837 2.837 0 0 0 2.832-2.832A2.837 2.837 0 0 0 12.149 9.2m0 1.944a.886.886 0 0 0-.888.888.456.456 0 1 1-.912 0c0-.984.816-1.8 1.8-1.8a.456.456 0 1 1 0 .912"/></svg>