<svg xmlns="http://www.w3.org/2000/svg" fill="none" viewBox="0 0 24 24"><path fill="currentColor" d="M12 22c5.523 0 10-4.477 10-10S17.523 2 12 2 2 6.477 2 12s4.477 10 10 10m5.45-15.763-4.579 4.579a1.224 1.224 0 0 1-1.737 0L6.555 6.237 8.292 4.5l3.71 3.71 3.71-3.71zm-1.66 5.76 3.71 3.71-1.737 1.737-4.579-4.579a1.23 1.23 0 0 1 0-1.737l4.579-4.579L19.5 8.286zm-.083 7.503-3.71-3.71-3.71 3.71-1.737-1.737 4.579-4.579c.48-.48 1.257-.48 1.737 0l4.579 4.579zm-4.531-7.497c0 .326-.129.638-.36.869l-4.579 4.579L4.5 15.714l3.71-3.71-3.71-3.71 1.737-1.737 4.579 4.579c.23.23.36.543.36.869z"/></svg>