<svg xmlns="http://www.w3.org/2000/svg" fill="none" viewBox="0 0 24 24"><path fill="currentColor" d="m13.231 10.328 6.464-6.464-2.453-2.453-5.238 5.238-5.238-5.238-2.452 2.452 6.464 6.464a1.73 1.73 0 0 0 2.452 0zm9.357 6.906-5.238-5.238 5.238-5.238-2.453-2.452-6.464 6.464a1.734 1.734 0 0 0 0 2.452l6.464 6.464zm-10.593.117 5.238 5.238 2.453-2.453-6.464-6.464a1.734 1.734 0 0 0-2.452 0l-6.464 6.464 2.453 2.453 5.238-5.238zm-1.667-4.12a1.74 1.74 0 0 0 0-2.452L3.864 4.315 1.411 6.767l5.238 5.238-5.238 5.238 2.452 2.453z"/></svg>