<svg xmlns="http://www.w3.org/2000/svg" fill="none" viewBox="0 0 24 24"><path fill="currentColor" stroke="currentColor" d="m11.885 10.334.105-.107.108.106a1 1 0 0 0-.214.002h.001zm1.71 2.048a.97.97 0 0 0-.008-.78c.232.06.482.034.698-.084a.98.98 0 0 0-.002.963.98.98 0 0 0-.689-.099zm2.928-1.766a.976.976 0 0 0-1.179-.16.966.966 0 0 0-.165-1.175l-2.492-2.492a.963.963 0 0 0-1.385.001L8.82 9.282a.966.966 0 0 0-.164 1.174.976.976 0 0 0-1.179.16l-.69.69a.977.977 0 0 0 0 1.387l.69.69c.32.32.8.374 1.175.162a.96.96 0 0 0 .169 1.162l2.497 2.506a.983.983 0 0 0 1.377 0l.001-.001 2.489-2.499a.98.98 0 0 0 .166-1.167.975.975 0 0 0 1.174-.163l.69-.69a.975.975 0 0 0 0-1.387l-.69-.69.001-.001zm-6.811.897c.215.117.463.15.696.098a.98.98 0 0 0 0 .778.98.98 0 0 0-.689.086.98.98 0 0 0-.007-.962Zm2.293 2.255-.102-.101a1 1 0 0 0 .203-.001zM2.75 12c0-5.104 4.146-9.25 9.25-9.25s9.25 4.146 9.25 9.25c0 5.094-4.147 9.25-9.25 9.25S2.75 17.094 2.75 12Z"/></svg>