<svg xmlns="http://www.w3.org/2000/svg" fill="none" viewBox="0 0 24 24"><path fill="currentColor" d="M12 22c5.523 0 10-4.477 10-10S17.523 2 12 2 2 6.477 2 12s4.477 10 10 10m3.277-14.756c1.75.603 3.031 1.507 2.779 3.188-.182 1.231-.864 1.827-1.77 2.035 1.244.647 1.877 1.641 1.273 3.362-.748 2.138-2.526 2.319-4.89 1.871l-.574 2.299-1.386-.345.566-2.268q-.538-.134-1.106-.287l-.568 2.278-1.385-.345.574-2.303-.412-.107q-.285-.075-.575-.149l-1.804-.45.688-1.586s1.021.271 1.007.251c.393.097.567-.159.636-.329l.906-3.634.147.036a1 1 0 0 0-.145-.046l.646-2.595c.017-.296-.084-.667-.646-.807.022-.014-1.007-.25-1.007-.25L8.6 5.582l1.912.477-.002.007c.268.068.544.13.825.195l.061.014.568-2.277 1.386.346-.557 2.232.023.005c.365.083.731.167 1.087.257l.553-2.218 1.386.345-.568 2.278.001-.001zm-4.385 8.258c1.132.299 3.604.952 3.996-.628.404-1.614-1.993-2.153-3.163-2.415a12 12 0 0 1-.342-.08l-.762 3.052zm1.068-4.46c.943.252 2.999.801 3.357-.635.366-1.468-1.633-1.91-2.609-2.126l-.287-.065-.69 2.767.228.06z"/></svg>