<svg xmlns="http://www.w3.org/2000/svg" fill="none" viewBox="0 0 24 24"><path fill="currentColor" d="M20.075 9.243c.336-2.242-1.372-3.447-3.706-4.251l.757-3.037-1.848-.46-.738 2.956a67 67 0 0 0-1.481-.349l.743-2.976-1.848-.461-.757 3.036c-.402-.092-.798-.182-1.18-.278l.002-.01-2.549-.636-.492 1.974s1.372.314 1.343.334c.748.188.883.683.861 1.075L8.32 9.62q.079.018.193.061l-.196-.048-1.208 4.846c-.092.226-.324.568-.848.439.02.027-1.343-.335-1.343-.335l-.917 2.115 2.406.6c.447.113.886.23 1.316.34l-.764 3.071 1.847.46.757-3.037q.756.203 1.474.382l-.755 3.024 1.848.46.764-3.065c3.152.597 5.522.356 6.521-2.495.804-2.295-.04-3.62-1.698-4.483 1.208-.278 2.117-1.072 2.36-2.714v.002zm-4.224 5.923c-.57 2.296-4.435 1.055-5.689.743l1.016-4.069c1.253.314 5.271.932 4.673 3.326m.573-5.956c-.521 2.089-3.737 1.027-4.78.766l.919-3.689c1.043.26 4.405.744 3.861 2.923"/></svg>