<svg xmlns="http://www.w3.org/2000/svg" fill="none" viewBox="0 0 24 24"><path fill="currentColor" d="M2.807 8c-.283 0-.424 0-.534-.058a.52.52 0 0 1-.22-.229c-.052-.112-.046-.248-.035-.519.03-.693.107-1.162.308-1.556a3 3 0 0 1 1.311-1.311C4.279 4 5.119 4 6.799 4h10.4c1.68 0 2.52 0 3.162.327a3 3 0 0 1 1.311 1.311c.201.395.278.863.308 1.556.012.272.017.407-.035.519a.5.5 0 0 1-.22.229c-.11.058-.25.058-.534.058zM2 10.8c0-.28 0-.42.055-.527a.5.5 0 0 1 .218-.218C2.38 10 2.52 10 2.8 10h18.4c.28 0 .42 0 .527.055a.5.5 0 0 1 .218.218c.055.107.055.247.055.527v4.4c0 1.68 0 2.52-.327 3.162a3 3 0 0 1-1.311 1.311C19.72 20 18.88 20 17.2 20H6.8c-1.68 0-2.52 0-3.162-.327a3 3 0 0 1-1.311-1.311C2 17.72 2 16.88 2 15.2zM7 14a1 1 0 0 0 0 2h4a1 1 0 0 0 0-2z"/></svg>