<svg xmlns="http://www.w3.org/2000/svg" fill="none" viewBox="0 0 24 24"><path fill="currentColor" d="M2.218 9.092c-.14.276-.191.607-.208 1.108-.01.271-.014.406.039.517a.5.5 0 0 0 .219.227c.109.057.25.057.533.057h14.398c.283 0 .424 0 .533-.057a.5.5 0 0 0 .219-.227c.053-.111.048-.246.038-.517-.018-.501-.067-.832-.208-1.108a2 2 0 0 0-.874-.874C16.48 8 15.919 8 14.799 8h-9.6c-1.12 0-1.68 0-2.108.218a2 2 0 0 0-.873.874M18 13.8c0-.28 0-.42-.055-.527a.5.5 0 0 0-.218-.218C17.62 13 17.48 13 17.2 13H2.8c-.28 0-.42 0-.527.055a.5.5 0 0 0-.218.218C2 13.38 2 13.52 2 13.8v3c0 1.12 0 1.68.218 2.108.192.377.498.683.874.874C3.52 20 4.08 20 5.2 20h9.6c1.12 0 1.68 0 2.108-.218a2 2 0 0 0 .874-.874C18 18.481 18 17.92 18 16.8z"/><path fill="currentColor" d="M6 5a1 1 0 0 1 1-1h12a3 3 0 0 1 3 3v8a1 1 0 0 1-2 0V7a1 1 0 0 0-1-1H7a1 1 0 0 1-1-1"/></svg>