<svg xmlns="http://www.w3.org/2000/svg" fill="none" viewBox="0 0 24 24"><path fill="currentColor" d="M4.319 3.359a.96.96 0 1 0-1.92 0v15.775c0 .242 0 .478.016.678.018.22.06.48.195.74v.002c.184.357.474.652.84.837.26.132.517.175.737.193.2.016.436.016.678.016H20.64a.96.96 0 0 0 0-1.92H4.896c-.285 0-.44 0-.552-.01l-.014-.001-.001-.014a8 8 0 0 1-.01-.552z"/><path fill="currentColor" d="M7.9 7.504a.96.96 0 1 0-1.401 1.312l3.761 4.015.027.03c.098.107.302.33.575.455.231.106.48.146.723.126l.01-.001c.294-.028.558-.169.687-.238l.037-.019 2.997-1.557 3.664 3.91a.96.96 0 1 0 1.4-1.313l-3.761-4.015-.002-.002-.028-.03c-.098-.107-.3-.327-.566-.45l-.003-.002a1.44 1.44 0 0 0-.726-.127l-.01.001c-.294.029-.558.169-.687.238l-.036.02-2.998 1.556z"/></svg>