<svg xmlns="http://www.w3.org/2000/svg" fill="none" viewBox="0 0 24 24"><path fill="currentColor" d="M4.319 3.359a.96.96 0 1 0-1.92 0v15.775c0 .242 0 .478.016.678.018.22.06.48.195.74v.002c.184.357.474.652.839.837.26.132.518.175.738.193.2.016.436.016.678.016H20.64a.96.96 0 1 0 0-1.92H4.896c-.285 0-.44 0-.552-.01l-.014-.001-.001-.014a8 8 0 0 1-.01-.552z"/><path fill="currentColor" fill-rule="evenodd" d="M20.38 8.816a.96.96 0 0 0-1.4-1.312l-3.664 3.91-2.998-1.558-.036-.02c-.13-.068-.393-.209-.687-.237h-.01c-.242-.021-.492.02-.723.125-.273.124-.477.348-.575.456l-.027.03-3.762 4.014A.96.96 0 1 0 7.9 15.536l3.663-3.909 2.998 1.557.036.02c.13.068.393.209.687.237h.01c.243.021.494-.02.726-.126l.003-.002c.266-.123.468-.343.566-.45l.028-.03zm-9.518.908.002-.001.397.874-.402-.872z" clip-rule="evenodd"/></svg>