<svg xmlns="http://www.w3.org/2000/svg" fill="none" viewBox="0 0 24 24"><path fill="currentColor" d="M20.61 19.19a6.95 6.95 0 0 0 1.389-4.186 7 7 0 0 0-4.086-6.367l-.043-.018c-.677-3.791-3.947-6.63-7.882-6.63a8 8 0 0 0-6.295 12.937l-.013-.017-1.39 1.38a1 1 0 0 0-.207 1.096l-.002-.007c.153.365.507.618.92.62h5.69c1.148 2.38 3.54 3.994 6.309 4h6.001a1 1 0 0 0 .917-.614l.002-.007a1 1 0 0 0-.21-1.091l-1.099-1.099zM8 15q.004.532.085 1.038L8.08 16H5.41l.35-.34a.997.997 0 0 0-.001-1.42 5.9 5.9 0 0 1-1.76-4.216v-.025.002a6 6 0 0 1 6-6h.036a5.94 5.94 0 0 1 5.602 3.959l.013.041H15a7 7 0 0 0-7 7zm10.54 5 .05.05H15a5 5 0 1 1 3.541-1.46 1 1 0 0 0-.3.699c.001.278.115.53.3.71z"/></svg>