<svg xmlns="http://www.w3.org/2000/svg" fill="none" viewBox="0 0 24 24"><path fill="currentColor" d="M12.367 4.069a1 1 0 0 0-.733 0l-6 2.362A1 1 0 0 0 5 7.362v3.64a9 9 0 0 0 4.762 7.94l1.767.944a1 1 0 0 0 .942 0l1.767-.944A9 9 0 0 0 19 11.002v-3.64a1 1 0 0 0-.634-.931zm-1.466-1.861a3 3 0 0 1 2.198 0l6 2.363A3 3 0 0 1 21 7.362v3.64c0 4.061-2.237 7.792-5.82 9.704l-1.767.944a3 3 0 0 1-2.825 0l-1.767-.944a11 11 0 0 1-5.82-9.704v-3.64a3 3 0 0 1 1.901-2.791z"/><path fill="currentColor" d="M15.707 9.293a1 1 0 0 1 0 1.414l-4 4a1 1 0 0 1-1.415 0l-2-2a1 1 0 1 1 1.415-1.415L11 12.585l3.293-3.293a1 1 0 0 1 1.414 0z"/></svg>