<svg xmlns="http://www.w3.org/2000/svg" fill="none" viewBox="0 0 24 24"><path fill="currentColor" d="M18.42 6.72c-1.106-2.497-3.563-4.207-6.418-4.207a7 7 0 0 0-6.937 6.06l-.004.037a4.01 4.01 0 0 0-3.053 3.887 4 4 0 0 0 2.645 3.765l.028.009c.095.03.205.049.319.05a1.014 1.014 0 0 0 .327-1.999l-.006-.001a2 2 0 0 1-1.32-1.816v-.003a2 2 0 0 1 2-2 1 1 0 0 0 1-1 5 5 0 0 1 9.719-1.645l.011.035c.118.347.413.605.774.669h.006a3.004 3.004 0 0 1 2.466 2.953 3 3 0 0 1-1.452 2.57l-.014.008a1.003 1.003 0 1 0 1.005 1.738l-.005.002c1.499-.882 2.49-2.488 2.49-4.324v-.006a5.005 5.005 0 0 0-3.544-4.771l-.035-.01zm-3.42 9V14.5a3 3 0 1 0-6 0v1.18a3.01 3.01 0 0 0-1.977 2.82 3 3 0 0 0 2.975 3h4.001a3 3 0 0 0 1.021-5.813l-.021-.007zm-4-1.22a1 1 0 0 1 2 0v1h-2zm3 5h-4a1 1 0 0 1 0-2h4a1 1 0 0 1 0 2"/></svg>