<svg xmlns="http://www.w3.org/2000/svg" fill="none" viewBox="0 0 24 24"><path fill="currentColor" d="M7.483 18.01h-.482v-.33h.5zm0 0-.009.169a9 9 0 0 1-.472-.037zm.018-.33-.018.33H7.5zm0 0A8.66 8.66 0 0 1 3.5 16.455l4.318 2.99A3.3 3.3 0 0 1 7.5 18.01zm-.499.462a9.2 9.2 0 0 1-3.503-1.109c.01.628.431 1.182 1.291 1.629.658.342 1.513.584 2.456.717a3.8 3.8 0 0 1-.244-1.237M3.5 13.296A9 9 0 0 0 7 14.402v1.203c-.945-.157-1.783-.424-2.404-.79-.728-.428-1.085-.94-1.096-1.519m.016-3.551a10.3 10.3 0 0 0 5.355 1.242 6.8 6.8 0 0 0-1.024.975c-1.19-.101-2.282-.37-3.077-.788-.758-.398-1.169-.882-1.254-1.429M3.5 5.99c0-.696.518-1.314 1.578-1.784C6.121 3.744 7.546 3.5 9 3.5s2.88.244 3.923.706c1.06.47 1.577 1.088 1.577 1.784 0 .707-.519 1.325-1.576 1.791-1.042.46-2.468.699-3.923.699s-2.881-.239-3.923-.699C4.02 7.315 3.502 6.696 3.502 5.99zm17 11.943v.077c0 .696-.518 1.314-1.577 1.784-1.043.462-2.468.706-3.923.706s-2.88-.244-3.922-.706c-1.06-.47-1.577-1.088-1.577-1.784v-.077a10.3 10.3 0 0 0 5.5 1.328 10.3 10.3 0 0 0 5.499-1.328m-11-3.663c0-.533.448-1.151 1.482-1.667 1.004-.5 2.424-.824 4.018-.824s3.015.324 4.018.824c1.034.515 1.482 1.134 1.482 1.667s-.448 1.151-1.482 1.667c-1.003.5-2.424.823-4.018.823s-3.015-.324-4.018-.823C9.948 15.422 9.5 14.803 9.5 14.27"/><path stroke="currentColor" d="M7.483 18.01h-.482v-.33h.5m-.018.33H7.5m-.017 0-.009.169a9 9 0 0 1-.472-.037m.481-.132-.481.132m.481-.132.018-.33m0 0-.001.33m.001-.33A8.66 8.66 0 0 1 3.5 16.455l4.318 2.99A3.3 3.3 0 0 1 7.5 18.01m-.498.132a9.2 9.2 0 0 1-3.503-1.109c.01.628.431 1.182 1.291 1.629.658.342 1.513.584 2.456.717a3.8 3.8 0 0 1-.244-1.237ZM3.5 13.296A9 9 0 0 0 7 14.402v1.203c-.945-.157-1.783-.424-2.404-.79-.728-.428-1.085-.94-1.096-1.519Zm.016-3.551a10.3 10.3 0 0 0 5.355 1.242 6.8 6.8 0 0 0-1.024.975c-1.19-.101-2.282-.37-3.077-.788-.758-.398-1.169-.882-1.254-1.429ZM3.5 5.99c0-.696.518-1.314 1.578-1.784C6.121 3.744 7.546 3.5 9 3.5s2.88.244 3.923.706c1.06.47 1.577 1.088 1.577 1.784 0 .707-.519 1.325-1.576 1.791-1.042.46-2.468.699-3.923.699s-2.881-.239-3.923-.699C4.02 7.315 3.502 6.696 3.502 5.99zm17 11.943v.077c0 .696-.518 1.314-1.577 1.784-1.043.462-2.468.706-3.923.706s-2.88-.244-3.922-.706c-1.06-.47-1.577-1.088-1.577-1.784v-.077a10.3 10.3 0 0 0 5.5 1.328 10.3 10.3 0 0 0 5.499-1.328Zm-11-3.663c0-.533.448-1.151 1.482-1.667 1.004-.5 2.424-.824 4.018-.824s3.015.324 4.018.824c1.034.515 1.482 1.134 1.482 1.667s-.448 1.151-1.482 1.667c-1.003.5-2.424.823-4.018.823s-3.015-.324-4.018-.823C9.948 15.422 9.5 14.803 9.5 14.27Z"/></svg>