<svg xmlns="http://www.w3.org/2000/svg" fill="none" viewBox="0 0 24 24"><path fill="currentColor" stroke="currentColor" d="M5.754 17.389C4.273 16.683 3.5 15.7 3.5 14.501v-.774a9.5 9.5 0 0 0 2.254 1.197zm4.996 1.067a17 17 0 0 1-2.5-.298v-2.516q1.24.247 2.5.317zm5-.29q-1.239.24-2.5.298v-2.497a18 18 0 0 0 2.5-.317zm4.75-4.44v.773c0 1.199-.773 2.182-2.25 2.888v-2.465a9.5 9.5 0 0 0 2.25-1.196ZM12 13.5c-2.425 0-4.595-.493-6.14-1.265-1.576-.787-2.359-1.784-2.359-2.735s.784-1.947 2.359-2.735C7.406 5.993 9.576 5.5 12 5.5s4.595.493 6.14 1.265c1.576.788 2.36 1.784 2.36 2.735s-.784 1.947-2.36 2.735c-1.546.773-3.716 1.265-6.14 1.265Z"/></svg>