<svg xmlns="http://www.w3.org/2000/svg" fill="none" viewBox="0 0 24 24"><path fill="currentColor" fill-rule="evenodd" d="M11.52 1.44c1.216 0 2.313.502 3.097 1.308a4.32 4.32 0 1 1-1.395 6.983A4.32 4.32 0 1 1 11.52 1.44m-2.4 4.32a2.4 2.4 0 0 1 3.923-1.855A4.3 4.3 0 0 0 12 6.72c0 .467.074.918.211 1.34a2.402 2.402 0 0 1-3.091-2.3m5.808-.995-.009.006a2.4 2.4 0 1 0 .009-.006m-9.514 7.25C5.214 12 4.978 12 4.736 12h-.83c-.242 0-.478 0-.678.016-.22.018-.478.06-.738.193-.365.185-.656.48-.839.837v.001c-.134.261-.177.521-.195.74-.016.2-.016.437-.016.68v5.629c0 .242 0 .478.016.678.018.22.06.478.193.738.186.365.48.655.837.839h.001c.261.134.521.177.74.195.2.016.437.016.68.016h.829c.242 0 .478 0 .678-.016.22-.018.478-.06.738-.193.365-.186.655-.48.839-.837v-.001a1.9 1.9 0 0 0 .198-.79h1.557q.375 0 .739.09h.002l2.648.643c.709.172 1.448.19 2.164.05l2.929-.57a5 5 0 0 0 2.527-1.317l2.071-2.015a2.404 2.404 0 0 0 0-3.459 2.506 2.506 0 0 0-3.213-.224l-1.423 1.039c-.053-1.083-.828-1.986-1.876-2.242l-2.29-.557h-.002a5.8 5.8 0 0 0-1.363-.163c-.648 0-1.442.25-1.973.44a15 15 0 0 0-.943.375l-.018.008-.043.02-.01.004-1.528.639a1.7 1.7 0 0 0-.151-.436 1.92 1.92 0 0 0-.837-.839h-.001a1.9 1.9 0 0 0-.74-.195m-.134 7.749q0-.032.002-.062v-4.75a1 1 0 0 1 0-.098v-.358c0-.285 0-.44-.01-.552l-.001-.014-.014-.001a8 8 0 0 0-.552-.01h-.768c-.285 0-.44 0-.552.01l-.014.001-.001.014c-.01.111-.01.267-.01.552v5.568c0 .285 0 .44.01.552l.001.014.014.001c.111.01.267.01.552.01h.768c.285 0 .44 0 .552-.01l.014-.001.001-.014c.01-.111.01-.267.01-.552v-.238zm4.662-.816a5 5 0 0 0-1.196-.144H7.202v-3.262l2.224-.93.008-.003.021-.01h.002l.011-.006.048-.021a12 12 0 0 1 .818-.326c.54-.193 1.047-.327 1.325-.327q.462 0 .913.11l2.288.556c.26.063.413.28.413.495v.295c0 .259-.223.513-.554.513a.96.96 0 0 0 0 1.92h.847c.634 0 1.253-.2 1.766-.574l2.413-1.76a.586.586 0 0 1 .742.049.485.485 0 0 1 0 .706l-2.07 2.015c-.421.41-.964.693-1.557.809l-2.927.57a3.15 3.15 0 0 1-1.344-.032l-2.646-.642m-6.584-5.027.002-.001-.855-.436z" clip-rule="evenodd"/></svg>