<svg xmlns="http://www.w3.org/2000/svg" fill="none" viewBox="0 0 24 24"><path fill="currentColor" fill-rule="evenodd" d="M15.791 7.33c-.35-.123-.676-.06-.85-.018-.18.042-.392.112-.598.181l-4.318 1.44h-.002l-.026.008a1.8 1.8 0 0 0-.464.213 1.4 1.4 0 0 0-.374.372l-.005.008c-.117.172-.18.367-.212.463l-.009.026-1.442 4.327a7 7 0 0 0-.18.59c-.04.174-.105.504.021.856v.001c.145.4.46.724.873.87.352.126.681.061.854.02a7 7 0 0 0 .592-.18l4.323-1.44.002-.001.026-.009c.091-.03.29-.094.464-.212.156-.106.28-.237.374-.372l.005-.008c.117-.172.18-.367.212-.463l.01-.027 1.441-4.326c.068-.203.138-.412.18-.59.04-.174.105-.504-.021-.856v-.001a1.44 1.44 0 0 0-.876-.871m-5.068 3.393 3.829-1.276-1.276 3.829-3.829 1.276z" clip-rule="evenodd"/><path fill="currentColor" fill-rule="evenodd" d="M12 1.44C6.168 1.44 1.44 6.168 1.44 12S6.168 22.56 12 22.56 22.56 17.832 22.56 12 17.832 1.44 12 1.44M3.36 12a8.64 8.64 0 1 1 17.28 0 8.64 8.64 0 0 1-17.28 0" clip-rule="evenodd"/></svg>