<svg xmlns="http://www.w3.org/2000/svg" fill="none" viewBox="0 0 24 24"><path fill="currentColor" d="M21 8.94a1.3 1.3 0 0 0-.063-.279l.003.009v-.09a1.1 1.1 0 0 0-.191-.281L14.75 2.3a1 1 0 0 0-.274-.188l-.007-.003a.3.3 0 0 0-.092.001h.002a.9.9 0 0 0-.326-.11l-.005-.001h-4.05a3 3 0 0 0-3 3v1h-1a3 3 0 0 0-3 3v10a3 3 0 0 0 3 3h8a3 3 0 0 0 3-3v-1h1a3 3 0 0 0 3-3v-6.06zm-6-3.53L17.59 8H16a1 1 0 0 1-1-1zM15 19a1 1 0 0 1-1 1H6a1 1 0 0 1-1-1V9a1 1 0 0 1 1-1h1v7a3 3 0 0 0 3 3h5zm4-4a1 1 0 0 1-1 1h-8a1 1 0 0 1-1-1V5a1 1 0 0 1 1-1h3v3a3 3 0 0 0 3 3h3z"/></svg>