<svg xmlns="http://www.w3.org/2000/svg" fill="none" viewBox="0 0 24 24"><path fill="currentColor" d="M6.24 2.4a.96.96 0 0 0 0 1.92h2.88c1.34 0 2.274.493 2.883 1.178.42.472.708 1.063.851 1.702H6.24a.96.96 0 0 0 0 1.92h6.614a3.8 3.8 0 0 1-.851 1.702C11.393 11.507 10.46 12 9.12 12H6.24a.96.96 0 0 0-.658 1.66l8.16 7.68a.96.96 0 1 0 1.316-1.399L8.661 13.92h.459c1.86 0 3.326-.707 4.318-1.822.753-.848 1.203-1.897 1.369-2.978h2.953a.96.96 0 1 0 0-1.92h-2.953c-.16-1.04-.582-2.05-1.285-2.88h4.238a.96.96 0 1 0 0-1.92z"/></svg>