<svg xmlns="http://www.w3.org/2000/svg" fill="none" viewBox="0 0 24 24"><path fill="currentColor" d="M13.44 2.88a9.12 9.12 0 0 0-8.656 6.24H3.36a.96.96 0 0 0 0 1.92h1.01a9.2 9.2 0 0 0 0 1.92H3.36a.96.96 0 1 0 0 1.92h1.424a9.123 9.123 0 0 0 14.558 4.074.96.96 0 1 0-1.244-1.464 7.17 7.17 0 0 1-4.658 1.71 7.2 7.2 0 0 1-6.601-4.32h6.121a.96.96 0 1 0 0-1.92H6.303a7.3 7.3 0 0 1 0-1.92h6.657a.96.96 0 1 0 0-1.92H6.839A7.2 7.2 0 0 1 13.44 4.8c1.778 0 3.403.643 4.658 1.71a.96.96 0 0 0 1.244-1.464A9.1 9.1 0 0 0 13.44 2.88"/></svg>