<svg xmlns="http://www.w3.org/2000/svg" fill="none" viewBox="0 0 24 24"><path fill="currentColor" fill-rule="evenodd" d="M12.96 2.4a.96.96 0 1 0-1.92 0v.96h-.96a4.8 4.8 0 1 0 0 9.6h.96v5.76h-.96a2.88 2.88 0 0 1-2.88-2.88.96.96 0 1 0-1.92 0 4.8 4.8 0 0 0 4.8 4.8h.96v.96a.96.96 0 1 0 1.92 0v-.96h.96a4.8 4.8 0 1 0 0-9.6h-.96V5.28h.96a2.88 2.88 0 0 1 2.88 2.88.96.96 0 1 0 1.92 0 4.8 4.8 0 0 0-4.8-4.8h-.96zM7.2 8.16a2.88 2.88 0 0 1 2.88-2.88h.96v5.76h-.96A2.88 2.88 0 0 1 7.2 8.16m9.6 7.68a2.88 2.88 0 0 1-2.88 2.88h-.96v-5.76h.96a2.88 2.88 0 0 1 2.88 2.88" clip-rule="evenodd"/></svg>