<svg xmlns="http://www.w3.org/2000/svg" fill="none" viewBox="0 0 24 24"><path fill="currentColor" d="M9.626 5.62c-.347.376-.616.955-.618 1.867.012.811.35 1.391.858 2.26l.038.066c.41.704.881 1.543 1.06 2.667h3.916a.96.96 0 1 1 0 1.92h-3.895c-.215 1.867-1.025 3.4-1.805 4.487q-.117.163-.233.313h8.333a.96.96 0 1 1 0 1.92H6.72a.96.96 0 0 1-.596-1.713h.001l.02-.017.087-.074c.079-.069.195-.175.338-.316.285-.282.667-.7 1.05-1.233.626-.872 1.226-2.019 1.428-3.367H6.72a.96.96 0 1 1 0-1.92h2.289c-.15-.613-.432-1.132-.763-1.7l-.095-.16c-.466-.794-1.046-1.78-1.063-3.115v-.012c0-1.324.405-2.393 1.127-3.175.71-.77 1.654-1.181 2.598-1.347 1.83-.322 3.97.233 5.162 1.366a.96.96 0 1 1-1.322 1.392c-.681-.647-2.174-1.101-3.508-.867-.638.112-1.16.37-1.519.758"/></svg>