<svg xmlns="http://www.w3.org/2000/svg" fill="none" viewBox="0 0 24 24"><path fill="currentColor" fill-rule="evenodd" d="M12 1.44c-2.46 0-4.728.33-6.413.893-.838.279-1.585.632-2.142 1.072C2.898 3.835 2.4 4.462 2.4 5.28v13.44c0 .815.493 1.442 1.039 1.875.555.44 1.3.794 2.137 1.073 1.683.562 3.95.892 6.424.892s4.741-.33 6.424-.892c.836-.279 1.582-.633 2.137-1.073.546-.433 1.039-1.06 1.039-1.875V5.28c0-.818-.498-1.444-1.045-1.875-.557-.44-1.304-.793-2.142-1.072C16.728 1.77 14.46 1.44 12 1.44M4.323 5.265l-.003.015q0 0 .003.015.003.016.03.063c.041.067.125.167.28.29.317.249.835.516 1.561.758 1.442.48 3.494.794 5.806.794s4.364-.314 5.806-.794c.726-.242 1.244-.509 1.56-.759.156-.123.24-.222.28-.289a.3.3 0 0 0 .031-.063l.003-.015-.003-.015a.3.3 0 0 0-.03-.063 1.2 1.2 0 0 0-.28-.29c-.317-.25-.835-.516-1.561-.758-1.442-.48-3.494-.794-5.806-.794s-4.364.314-5.806.794c-.726.242-1.244.509-1.56.759a1.2 1.2 0 0 0-.28.289.3.3 0 0 0-.031.063m0 6.752Q4.32 12.001 4.32 12V7.706c.385.197.813.37 1.267.521C7.272 8.79 9.54 9.12 12 9.12s4.728-.33 6.413-.893a9 9 0 0 0 1.267-.521V12q0 .001-.003.017a.3.3 0 0 1-.031.065c-.04.066-.123.166-.277.288-.314.25-.83.516-1.553.757-1.437.48-3.49.793-5.816.793s-4.379-.313-5.816-.793c-.724-.242-1.238-.508-1.553-.757a1.2 1.2 0 0 1-.277-.288.3.3 0 0 1-.03-.065m14.101 2.931c.45-.15.874-.322 1.256-.517v4.289q0 .001-.003.017a.3.3 0 0 1-.031.065c-.04.066-.123.166-.277.288-.314.25-.83.515-1.553.757-1.437.48-3.49.793-5.816.793s-4.379-.313-5.816-.793c-.724-.242-1.238-.508-1.553-.757a1.2 1.2 0 0 1-.277-.288.3.3 0 0 1-.03-.065l-.004-.017v-4.29c.382.196.806.368 1.256.518 1.683.562 3.95.892 6.424.892s4.741-.33 6.424-.892" clip-rule="evenodd"/></svg>