<svg xmlns="http://www.w3.org/2000/svg" fill="none" viewBox="0 0 24 24"><path fill="currentColor" d="M20.52 3.87c-.824-1.694-2.534-2.841-4.51-2.841a5 5 0 0 0-4.557 2.94L11.44 4H7a3 3 0 0 0-3 3v4a1 1 0 0 0 2 0V7a1 1 0 0 1 1-1h2.78A3 3 0 0 0 9 8a3 3 0 0 0 3 3h7.356a3.66 3.66 0 0 0 1.189-7.123zM19.33 9H12a1 1 0 0 1 0-2 1 1 0 0 0 1-1v-.034a3 3 0 0 1 5.834-.987l.007.021c.118.347.413.605.774.67h.006c.788.134 1.38.812 1.38 1.627v.034-.002A1.67 1.67 0 0 1 19.331 9zM19 13a1 1 0 0 0-1 1v3a1 1 0 0 1-1 1h-2.26a3.69 3.69 0 0 0-2.195-2.123l-.025-.008C11.701 14.16 9.984 13 7.997 13a5 5 0 0 0-4.922 4.118l-.005.03a3.01 3.01 0 0 0-2.063 2.85 3 3 0 0 0 2.993 3h7.33a3.66 3.66 0 0 0 3.596-2.977l.004-.023H17a3 3 0 0 0 3-3v-3a1 1 0 0 0-1-1l-.002.001zm-7.67 8H4a1 1 0 0 1 0-2 1 1 0 0 0 1-1v-.034a3 3 0 0 1 5.834-.987l.006.021c.118.347.412.605.774.67h.006c.788.134 1.38.811 1.38 1.627v.034-.002c0 .922-.748 1.671-1.67 1.671"/></svg>