<svg xmlns="http://www.w3.org/2000/svg" fill="none" viewBox="0 0 24 24"><path fill="currentColor" fill-rule="evenodd" d="M3.146 1.44c-.115 0-.251 0-.371.01-.14.01-.338.04-.546.145-.277.14-.496.364-.632.63l-.002.004a1.5 1.5 0 0 0-.145.546c-.01.12-.01.256-.01.37v2.35c0 .114 0 .25.01.37.011.14.04.338.145.546.14.277.364.496.63.632l.004.002c.208.105.407.134.546.145.12.01.256.01.37.01h2.35c.114 0 .25 0 .37-.01.14-.011.338-.04.546-.145.277-.14.496-.364.632-.63l.002-.004c.105-.208.134-.407.145-.546.01-.12.01-.256.01-.37v-2.35c0-.114 0-.25-.01-.37a1.5 1.5 0 0 0-.145-.546 1.44 1.44 0 0 0-.63-.632l-.004-.002a1.5 1.5 0 0 0-.546-.145c-.12-.01-.256-.01-.37-.01zm.214 3.84V3.36h1.92v1.92zm7.466 0c-.115 0-.251 0-.371.01-.14.01-.338.04-.546.145-.277.14-.496.364-.632.63l-.002.004a1.5 1.5 0 0 0-.145.546c-.01.12-.01.256-.01.37v2.35c0 .114 0 .25.01.37.011.14.04.338.145.546.14.277.364.496.63.632l.004.002c.208.105.407.134.546.145.12.01.256.01.37.01h2.35c.114 0 .25 0 .37-.01.14-.011.338-.04.546-.145.277-.14.496-.364.632-.63l.002-.004c.105-.208.134-.407.145-.546.01-.12.01-.256.01-.37v-2.35c0-.114 0-.25-.01-.37a1.5 1.5 0 0 0-.145-.546 1.44 1.44 0 0 0-.63-.632l-.004-.002a1.5 1.5 0 0 0-.546-.145c-.12-.01-.256-.01-.37-.01zm.214 3.84V7.2h1.92v1.92zm10.185.01c-.12-.01-.256-.01-.37-.01h-2.35c-.114 0-.25 0-.37.01-.14.01-.338.04-.546.145l-.004.002a1.44 1.44 0 0 0-.63.632 1.5 1.5 0 0 0-.145.546c-.01.12-.01.256-.01.37v2.135h-2.134c-.115 0-.251 0-.371.01a1.5 1.5 0 0 0-.546.145l-.004.002a1.44 1.44 0 0 0-.63.632 1.5 1.5 0 0 0-.145.546c-.01.12-.01.256-.01.37V16.8h-2.134c-.115 0-.251 0-.371.01a1.5 1.5 0 0 0-.546.145l-.004.002a1.44 1.44 0 0 0-.63.632 1.5 1.5 0 0 0-.145.546c-.01.12-.01.256-.01.37v2.35c0 .114 0 .25.01.37.011.14.04.337.145.546l.002.004c.136.266.355.49.632.63.208.105.407.134.546.145.12.01.256.01.37.01h10.03c.114 0 .25 0 .37-.01.14-.011.338-.04.546-.145l.004-.002a1.44 1.44 0 0 0 .63-.632c.105-.209.134-.407.145-.546.01-.12.01-.256.01-.37v-10.03c0-.114 0-.25-.01-.37a1.5 1.5 0 0 0-.145-.546l-.002-.004a1.44 1.44 0 0 0-.632-.63 1.5 1.5 0 0 0-.546-.145m-2.505 4.044V11.04h1.92v9.6h-9.6v-1.92h2.134c.115 0 .251 0 .371-.01.14-.011.338-.04.546-.145.277-.14.496-.364.632-.63l.002-.004c.105-.209.134-.407.145-.546.01-.12.01-.256.01-.37V14.88h2.134c.115 0 .25 0 .371-.01.14-.011.338-.04.546-.145.277-.14.496-.364.632-.63l.002-.004c.105-.208.134-.407.145-.546.01-.12.01-.256.01-.37M4.106 11.04c-.115 0-.251 0-.371.01-.14.01-.338.04-.546.145a1.44 1.44 0 0 0-.632.63l-.002.004a1.5 1.5 0 0 0-.145.546c-.01.12-.01.256-.01.37v2.35c0 .114 0 .25.01.37.011.14.04.338.145.546.14.277.364.496.63.632l.004.002c.208.105.407.134.546.145.12.01.256.01.37.01h2.35c.114 0 .25 0 .37-.01.14-.011.338-.04.546-.145a1.44 1.44 0 0 0 .632-.63l.002-.004c.105-.208.134-.407.145-.546.01-.12.01-.256.01-.37v-2.35c0-.114 0-.25-.01-.37a1.5 1.5 0 0 0-.145-.546 1.44 1.44 0 0 0-.63-.632l-.004-.002a1.5 1.5 0 0 0-.546-.145c-.12-.01-.256-.01-.37-.01zm.214 3.84v-1.92h1.92v1.92z" clip-rule="evenodd"/></svg>