<svg xmlns="http://www.w3.org/2000/svg" fill="none" viewBox="0 0 24 24"><path fill="currentColor" d="M10.08 5.28a1.92 1.92 0 1 0 0 3.84 1.92 1.92 0 0 0 0-3.84m5.76.96a1.92 1.92 0 1 0 0 3.84 1.92 1.92 0 0 0 0-3.84M7.2 10.08a1.92 1.92 0 1 0 0 3.84 1.92 1.92 0 0 0 0-3.84"/><path fill="currentColor" fill-rule="evenodd" d="M12 1.44C6.168 1.44 1.44 6.168 1.44 12S6.168 22.56 12 22.56a3.84 3.84 0 0 0 3.84-3.84v-.48c0-.477.002-.621.017-.729v-.002a1.92 1.92 0 0 1 1.652-1.652h.002c.108-.015.252-.017.73-.017h.48A3.84 3.84 0 0 0 22.56 12c0-5.832-4.729-10.56-10.56-10.56M3.36 12a8.64 8.64 0 1 1 17.28 0c0 1.06-.86 1.92-1.92 1.92h-.547c-.38 0-.664 0-.915.033a3.84 3.84 0 0 0-3.305 3.305c-.033.252-.033.535-.033.915v.547c0 1.06-.86 1.92-1.92 1.92A8.64 8.64 0 0 1 3.36 12" clip-rule="evenodd"/></svg>