<svg xmlns="http://www.w3.org/2000/svg" fill="none" viewBox="0 0 24 24"><path fill="currentColor" d="M14.241 2H9.758c-.805 0-1.469 0-2.011.044-.562.046-1.078.145-1.564.391a4 4 0 0 0-1.748 1.748c-.247.485-.346 1.002-.391 1.565C4 6.289 4 6.953 4 7.759v8.482c0 .805 0 1.469.044 2.011.046.562.145 1.078.391 1.564a4 4 0 0 0 1.748 1.748c.485.247 1.002.346 1.564.391.541.044 1.205.044 2.011.044h4.483c.805 0 1.469 0 2.011-.044.562-.046 1.078-.145 1.564-.391a4 4 0 0 0 1.748-1.748c.247-.485.346-1.002.391-1.564.044-.541.044-1.205.044-2.011V7.759c0-.805 0-1.469-.044-2.011-.046-.562-.145-1.078-.391-1.564a4 4 0 0 0-1.748-1.748c-.485-.248-1.002-.346-1.564-.391C15.71 2.001 15.047 2 14.241 2M7.092 4.218c.157-.08.38-.145.819-.181.293-.024.644-.033 1.089-.036v.998a1 1 0 0 0 1 1h4a1 1 0 0 0 1-1v-.998c.445.003.796.012 1.089.036.439.036.662.101.819.181.377.192.683.498.874.874.08.157.145.38.181.819.037.45.038 1.032.038 1.889v8.4c0 .856-.001 1.439-.038 1.889-.036.439-.101.662-.181.819a2 2 0 0 1-.874.874c-.157.08-.38.145-.819.181-.45.037-1.033.037-1.889.037H9.8c-.857 0-1.439-.001-1.889-.037-.439-.036-.662-.101-.819-.181a2 2 0 0 1-.874-.874c-.079-.157-.145-.38-.181-.819C6 17.639 6 17.056 6 16.2V7.8c0-.856.001-1.438.037-1.889.036-.439.101-.662.181-.819.192-.377.498-.683.874-.874"/></svg>