<svg xmlns="http://www.w3.org/2000/svg" fill="none" viewBox="0 0 24 24"><path fill="currentColor" d="M9.759 2h4.483c.805 0 1.469 0 2.011.044.562.046 1.078.145 1.564.391a4 4 0 0 1 1.748 1.748c.247.485.346 1.002.392 1.565.044.541.044 1.205.044 2.011v8.482c0 .805 0 1.469-.044 2.011-.046.562-.145 1.078-.392 1.564a4 4 0 0 1-1.748 1.748c-.485.247-1.002.346-1.564.391-.542.044-1.205.044-2.011.044H9.759c-.805 0-1.469 0-2.011-.044-.562-.046-1.079-.145-1.564-.391a4 4 0 0 1-1.748-1.748c-.247-.485-.346-1.002-.391-1.564-.044-.541-.044-1.205-.044-2.011V7.759c0-.805 0-1.469.044-2.011.046-.562.145-1.078.391-1.564a4 4 0 0 1 1.748-1.748c.485-.248 1.002-.346 1.564-.391C8.289 2.001 8.953 2 9.759 2M7.911 4.037c-.439.036-.662.101-.819.181a2 2 0 0 0-.874.874c-.08.157-.145.38-.181.819-.037.45-.038 1.033-.038 1.889v8.4c0 .856.001 1.439.038 1.889.036.439.101.662.181.819.192.377.498.683.874.874.157.08.38.145.819.181C8.361 20 8.944 20 9.8 20h4.4c.856 0 1.439-.001 1.889-.037.439-.036.662-.101.819-.181.377-.192.683-.498.874-.874.08-.157.145-.38.181-.819.037-.45.037-1.033.037-1.889V7.8c0-.856-.001-1.438-.037-1.889-.036-.439-.101-.662-.181-.819a2 2 0 0 0-.874-.874c-.157-.079-.38-.145-.819-.181C15.639 4 15.056 4 14.2 4H9.8c-.856 0-1.438.001-1.889.037"/><path fill="currentColor" d="M13 17a1 1 0 1 1-2 0 1 1 0 0 1 2 0"/></svg>