<svg xmlns="http://www.w3.org/2000/svg" fill="none" viewBox="0 0 24 24"><path fill="currentColor" d="M15 17a1 1 0 1 0 0 2 1 1 0 0 0 0-2m-4 0H9a1 1 0 0 0 0 2h2a1 1 0 0 0 0-2m0-6H9a1 1 0 0 0 0 2h2a1 1 0 0 0 0-2m4 0a1 1 0 1 0 0 2 1 1 0 0 0 0-2m8-3a3 3 0 0 0-3-3h-1a3 3 0 0 0-3-3H8a3 3 0 0 0-3 3H4a3 3 0 0 0-3 3v2c.004.772.3 1.474.782 2.002L1.78 12A2.98 2.98 0 0 0 1 13.999V16a3 3 0 0 0 3 3h1a3 3 0 0 0 3 3h8a3 3 0 0 0 3-3h1a3 3 0 0 0 3-3v-2a3 3 0 0 0-.782-2.002l.002.002c.48-.527.776-1.229.78-1.999zM5 17H4a1 1 0 0 1-1-1v-2a1 1 0 0 1 1-1h1c.005.772.3 1.474.782 2.003l-.002-.002A3 3 0 0 0 5 17m0-6H4a1 1 0 0 1-1-1V8a1 1 0 0 1 1-1h1c.005.772.3 1.474.782 2.003l-.002-.002A3 3 0 0 0 5 11m12 8a1 1 0 0 1-1 1H8a1 1 0 0 1-1-1v-2a1 1 0 0 1 1-1h8a1 1 0 0 1 1 1zm0-6a1 1 0 0 1-1 1H8a1 1 0 0 1-1-1v-2a1 1 0 0 1 1-1h8a1 1 0 0 1 1 1zm0-6a1 1 0 0 1-1 1H8a1 1 0 0 1-1-1V5a1 1 0 0 1 1-1h8a1 1 0 0 1 1 1zm4 9a1 1 0 0 1-1 1h-1a3 3 0 0 0-.782-2.003l.002.002c.48-.526.776-1.228.78-1.999l1-.001a1 1 0 0 1 1 1zm0-6a1 1 0 0 1-1 1h-1a3 3 0 0 0-.782-2.003l.002.002c.48-.526.776-1.228.78-1.999l1-.001a1 1 0 0 1 1 1zm-6-5a1 1 0 1 0 0 2 1 1 0 0 0 0-2m-4 0H9a1 1 0 0 0 0 2h2a1 1 0 0 0 0-2"/></svg>