<svg xmlns="http://www.w3.org/2000/svg" fill="none" viewBox="0 0 24 24"><path fill="currentColor" d="M11 5a1 1 0 1 0 0-2zm10 8a1 1 0 0 0-2 0zM9 15H8a1 1 0 0 0 1 1zm7.8 4H7.2v2h9.6zM5 16.8V7.2H3v9.6zM7.2 5H11V3H7.2zM19 13v3.8h2V13zM7.2 19c-.577 0-.949 0-1.232-.024-.272-.022-.373-.06-.422-.085l-.908 1.782c.378.193.772.264 1.167.296.384.032.851.03 1.395.03zM3 16.8c0 .543 0 1.011.03 1.395.033.395.104.788.297 1.167l1.782-.908c-.025-.05-.063-.15-.085-.422C5 17.75 5 17.377 5 16.8zm2.546 2.09a1 1 0 0 1-.437-.436l-1.782.908a3 3 0 0 0 1.311 1.311zM16.8 21c.544 0 1.011 0 1.395-.03.395-.033.789-.104 1.167-.297l-.908-1.782c-.05.025-.15.063-.422.085-.283.023-.655.024-1.232.024zm2.2-4.2c0 .576 0 .949-.024 1.232-.022.272-.06.372-.085.422l1.782.908c.193-.378.264-.772.296-1.167.032-.384.031-.852.031-1.395zm.362 3.873a3 3 0 0 0 1.311-1.311l-1.782-.908a1 1 0 0 1-.437.437zM5 7.2c0-.577 0-.949.024-1.232.022-.272.06-.373.085-.422l-1.782-.908c-.193.378-.264.772-.296 1.167C2.999 6.189 3 6.656 3 7.2zM7.2 3c-.544 0-1.011 0-1.395.03-.395.033-.789.104-1.167.297l.908 1.782c.05-.025.15-.063.422-.085C6.25 5 6.623 5 7.2 5zM5.109 5.546a1 1 0 0 1 .437-.437l-.908-1.782a3 3 0 0 0-1.311 1.311zM8 12.414V15h2v-2.586zM9 16h2.586v-2H9zm1-3.586 8.043-8.043-1.414-1.414L8.586 11zm9.457-8.043.172.172 1.414-1.414-.172-.172zm.172 1.586L11.586 14 13 15.414l8.043-8.043zm0-1.414a1 1 0 0 1 0 1.414l1.414 1.414a3 3 0 0 0 0-4.242zm-1.586-.172a1 1 0 0 1 1.414 0l1.414-1.414a3 3 0 0 0-4.242 0zM11.586 16A2 2 0 0 0 13 15.414L11.586 14zM10 12.414 8.586 11A2 2 0 0 0 8 12.414z"/></svg>