<svg xmlns="http://www.w3.org/2000/svg" fill="none" viewBox="0 0 24 24"><path fill="currentColor" d="m14.093 6.135-.681-.919a3 3 0 0 0-5.385 1.371l-.149 1.09-1 .457A1.501 1.501 0 0 0 7.5 11H8a1 1 0 0 1 0 2h-.5a3.5 3.5 0 0 1-1.453-6.684 5.002 5.002 0 0 1 8.973-2.291q.237-.024.481-.025a4.5 4.5 0 0 1 .5 8.972c-.549.061-1-.42-1-.973s.459-.94 1-1.05a2.5 2.5 0 0 0-.769-4.936l-1.137.121-.001.002z"/><path fill="currentColor" d="M12.447 12.106a1 1 0 0 1 .447 1.342l-1.277 2.553h2.382c.346 0 .668.179.851.474a1 1 0 0 1 .043.973l-2 4a1 1 0 0 1-1.789-.895L12.381 18H9.999a1 1 0 0 1-.894-1.447l2-4a1 1 0 0 1 1.342-.447"/></svg>