<svg xmlns="http://www.w3.org/2000/svg" fill="none" viewBox="0 0 24 24"><path fill="currentColor" d="m14.093 6.135-.681-.919a3 3 0 0 0-5.385 1.371l-.149 1.09-1.001.457A1.501 1.501 0 0 0 7.499 11h8a2.5 2.5 0 1 0-.269-4.986zM7.5 13a3.5 3.5 0 0 1-1.453-6.684 5.002 5.002 0 0 1 8.973-2.291q.237-.024.481-.025a4.5 4.5 0 0 1 4.5 4.5 4.5 4.5 0 0 1-4.5 4.5l-8 .001zm.394 3.448a1 1 0 1 0-1.789-.895l-1 2a1.001 1.001 0 0 0 1.789.895zm8.001 0a1 1 0 1 0-1.789-.895l-1.5 3a1.001 1.001 0 0 0 1.789.895zm2.052 1.658a1 1 0 0 1 .447 1.342l-1 2a1 1 0 0 1-1.789-.895l1-2a1 1 0 0 1 1.342-.447m-6.552-.659a1 1 0 1 0-1.789-.895l-2 4a1.001 1.001 0 0 0 1.789.895z"/></svg>