<svg xmlns="http://www.w3.org/2000/svg" fill="none" viewBox="0 0 24 24"><path fill="currentColor" d="M12 22c5.523 0 10-4.477 10-10S17.523 2 12 2 2 6.477 2 12s4.477 10 10 10M6.975 11.157c.532-1.344 1.202-3.039 3.248-3.826a4.95 4.95 0 0 1 4.142.27.23.23 0 0 1 .061.358.23.23 0 0 1-.249.058 3.9 3.9 0 0 0-2.84-.009 3.94 3.94 0 0 0-2.524 3.703 47 47 0 0 1 2.661-1.115 45 45 0 0 1 2.899-1.009 37 37 0 0 1 1.407-.407l.278-.073c.53-.136 1.022-.245 1.466-.326 1.396-.256 2.317-.236 2.455.123s-.532.991-1.742 1.737q-.488.301-1.085.622a.177.177 0 0 1-.259-.127 5 5 0 0 0-.215-.819l-.014-.04-.031-.086-.001-.002a.15.15 0 0 0-.176-.091l-.056.014-.047.012q-.726.183-1.604.451a46 46 0 0 0-2.9 1.008A45 45 0 0 0 8.971 12.8a4 4 0 0 0 .223.584 3.932 3.932 0 0 0 7.062.07.23.23 0 0 1 .224-.124.23.23 0 0 1 .194.308 4.96 4.96 0 0 1-2.898 2.977c-2.046.787-3.677-.023-4.97-.666-.454-.226-.867-.431-1.241-.538-.679-.195-1.441-.146-2.086-.105-.739.047-1.327.085-1.461-.265s.327-.716.909-1.177c.508-.402 1.106-.877 1.481-1.476.206-.331.376-.76.563-1.232v.002z"/></svg>