<svg xmlns="http://www.w3.org/2000/svg" fill="none" viewBox="0 0 24 24"><path fill="currentColor" d="M9.493 5.409C5.589 6.91 5.231 10.754 4.112 12.55 2.98 14.367.384 15.369.739 16.295s2.953-.069 5.008.522c2.031.583 4.865 3.201 8.768 1.7a7 7 0 0 0 4.091-4.203.325.325 0 0 0-.273-.434.32.32 0 0 0-.316.175 5.546 5.546 0 0 1-10.285-.923 63 63 0 0 1 4.062-1.718 64 64 0 0 1 4.094-1.424 47 47 0 0 1 2.264-.637l.146-.037a.21.21 0 0 1 .247.129l.001.002q.033.089.063.178.203.576.303 1.157a.25.25 0 0 0 .366.18c.56-.301 1.073-.596 1.531-.878 1.707-1.053 2.654-1.946 2.459-2.452s-1.494-.535-3.466-.174c-.627.115-1.322.269-2.07.46q-.194.05-.393.103-.946.251-1.987.574a65 65 0 0 0-4.094 1.426 67 67 0 0 0-3.757 1.574 5.56 5.56 0 0 1 3.563-5.228 5.52 5.52 0 0 1 4.009.012.32.32 0 0 0 .352-.082.324.324 0 0 0-.087-.505 6.99 6.99 0 0 0-5.848-.381z"/></svg>