<svg xmlns="http://www.w3.org/2000/svg" fill="none" viewBox="0 0 24 24"><path fill="currentColor" d="M12 6c-4.856 0-7.11 3.773-7.903 5.554a1.1 1.1 0 0 0 0 .893c.793 1.78 3.048 5.554 7.903 5.554s7.11-3.773 7.903-5.554a1.09 1.09 0 0 0 0-.893C19.11 9.774 16.856 6 12 6m-9.73 4.74C3.139 8.788 5.892 4 12.001 4s8.861 4.788 9.73 6.74a3.1 3.1 0 0 1 0 2.52c-.869 1.952-3.621 6.74-9.73 6.74S3.14 15.213 2.27 13.26a3.1 3.1 0 0 1 0-2.52"/><path fill="currentColor" d="M12 8a4 4 0 1 0 0 8 4 4 0 0 0 0-8m-.085 2.002q.042-.003.085-.002a2 2 0 1 1-2 2l.002-.085q.235.084.498.085a1.5 1.5 0 0 0 1.415-1.998"/></svg>