<svg xmlns="http://www.w3.org/2000/svg" fill="none" viewBox="0 0 24 24"><path fill="currentColor" d="M5.971 5.971c-2.054 1.545-3.186 3.614-3.7 4.77a3.09 3.09 0 0 0 0 2.519C3.14 15.212 5.893 20 12.002 20c2.542 0 4.525-.839 6.029-1.97l-1.432-1.432C15.436 17.411 13.936 18 12.001 18c-4.856 0-7.11-3.773-7.904-5.554a1.09 1.09 0 0 1 0-.893c.461-1.035 1.458-2.822 3.212-4.085a1 1 0 0 0 .089-.072L5.971 5.97z"/><path fill="currentColor" d="M9.172 9.172a4 4 0 1 0 5.657 5.656l-1.415-1.414a2 2 0 1 1-2.828-2.829zM12 4c6.109 0 8.861 4.788 9.73 6.74a3.08 3.08 0 0 1 0 2.52c-.155.35-.364.775-.634 1.241a1 1 0 1 1-1.73-1.002c.229-.397.407-.758.538-1.052a1.09 1.09 0 0 0 0-.893C19.111 9.773 16.857 6 12.001 6h-1a1 1 0 0 1 0-2z"/><path fill="currentColor" d="M2.293 2.293a1 1 0 0 1 1.414 0l18 18a1 1 0 1 1-1.415 1.415l-18-18a1 1 0 0 1 .001-1.415"/></svg>