<svg xmlns="http://www.w3.org/2000/svg" fill="none" viewBox="0 0 24 24"><path fill="currentColor" d="M12 20a8 8 0 1 1 0-16 8 8 0 0 1 0 16m0 2c5.523 0 10-4.477 10-10S17.523 2 12 2 2 6.477 2 12s4.477 10 10 10"/><path fill="currentColor" d="M10 9.5a1.5 1.5 0 1 1-2.999.001A1.5 1.5 0 0 1 10 9.5m7 0a1.5 1.5 0 1 1-2.999.001A1.5 1.5 0 0 1 17 9.5m-9.6 7.3a1 1 0 0 0 1.397-.196l.005-.006.034-.041a4.98 4.98 0 0 1 .815-.749C10.228 15.388 11.026 15 12 15s1.772.389 2.349.808a5 5 0 0 1 .815.749l.034.041.005.006A1 1 0 0 0 16.8 15.4l-.104-.129s-.142-.164-.248-.275a7 7 0 0 0-.923-.804c-.798-.581-2-1.191-3.526-1.191s-2.728.611-3.526 1.191a7 7 0 0 0-1.171 1.079q-.053.062-.102.128a1.01 1.01 0 0 0 .2 1.401"/></svg>