<svg xmlns="http://www.w3.org/2000/svg" fill="none" viewBox="0 0 24 24"><path fill="currentColor" d="M12 20a8 8 0 1 1 0-16 8 8 0 0 1 0 16m0 2c5.523 0 10-4.477 10-10S17.523 2 12 2 2 6.477 2 12s4.477 10 10 10"/><path fill="currentColor" d="M10 9.5a1.5 1.5 0 1 1-2.999.001A1.5 1.5 0 0 1 10 9.5m7 0a1.5 1.5 0 1 1-2.999.001A1.5 1.5 0 0 1 17 9.5m-9.6 3.7a1 1 0 0 1 1.397.196l.005.006.034.041a4.98 4.98 0 0 0 .815.749c.577.42 1.375.808 2.349.808s1.772-.389 2.349-.808a5 5 0 0 0 .815-.749l.034-.041.005-.006a1 1 0 1 1 1.571 1.238l-.008.01c-.027.034-.04.051-.07.085q-.088.107-.248.275a7 7 0 0 1-.923.804c-.798.581-2 1.191-3.526 1.191s-2.728-.611-3.526-1.191a7 7 0 0 1-1.171-1.079l-.07-.085-.021-.027-.008-.01-.003-.004-.002-.002-.001-.001a1 1 0 0 1 .2-1.4z"/></svg>