<svg xmlns="http://www.w3.org/2000/svg" fill="none" viewBox="0 0 24 24"><path fill="currentColor" d="M9 3h-.116c-.817 0-1.375 0-1.86.096a5 5 0 0 0-3.929 3.928c-.097.485-.096 1.042-.096 1.86V9a1 1 0 0 0 2 0c0-.977.005-1.32.058-1.586a3 3 0 0 1 2.357-2.357c.265-.053.608-.058 1.586-.058A1 1 0 0 0 9 3m6 0h.116c.817 0 1.375 0 1.86.096a5 5 0 0 1 3.928 3.928c.097.485.096 1.042.096 1.86V9a1 1 0 0 1-2 0c0-.977-.005-1.32-.058-1.586a3 3 0 0 0-2.357-2.357c-.265-.053-.608-.058-1.585-.058A1 1 0 0 1 15 3M8.884 21H9a1 1 0 0 0 0-2c-.977 0-1.32-.005-1.586-.058a3 3 0 0 1-2.357-2.357c-.053-.265-.058-.608-.058-1.585a1 1 0 0 0-2 0v.116c0 .817 0 1.375.096 1.86a5 5 0 0 0 3.929 3.928c.485.097 1.042.096 1.86.096M15 21h.116c.817 0 1.375 0 1.86-.096a5 5 0 0 0 3.928-3.928c.097-.485.096-1.042.096-1.86V15a1 1 0 0 0-2 0c0 .977-.005 1.32-.058 1.585a3 3 0 0 1-2.357 2.357c-.265.053-.608.058-1.585.058a1 1 0 0 0 0 2M8 9a1 1 0 0 1 2 0v2a1 1 0 0 1-2 0zm6 0a1 1 0 0 1 2 0v2a1 1 0 0 1-2 0zm-5.707 5.293a1 1 0 0 1 1.405-.01l.008.008q.02.019.082.066c.082.062.22.154.41.25.378.189.976.395 1.805.395s1.427-.206 1.804-.395a2.6 2.6 0 0 0 .492-.316l.008-.008a1 1 0 0 1 1.405.01 1.01 1.01 0 0 1-.002 1.417l-.005.005-.029.028q-.024.023-.061.055a3 3 0 0 1-.199.16 4.7 4.7 0 0 1-.716.439c-.623.311-1.526.606-2.7.606s-2.077-.295-2.7-.606a4.7 4.7 0 0 1-.916-.599l-.061-.055-.021-.02-.013-.013a1.01 1.01 0 0 1-.001-1.417z"/></svg>