<svg xmlns="http://www.w3.org/2000/svg" fill="none" viewBox="0 0 24 24"><path fill="currentColor" fill-rule="evenodd" d="M19.4 3.651a6.72 6.72 0 0 0-9.038 0 12 12 0 0 0-.397.386l-.082.082L5.05 8.95l-.035.035c-.128.128-.291.29-.413.489a2 2 0 0 0-.228.547v.002c-.056.228-.056.46-.055.643v6.548c0 .242 0 .478.016.678.01.111.025.233.055.36l-2.67 2.67a.96.96 0 1 0 1.358 1.357l2.67-2.67q.19.043.358.055c.2.016.436.016.678.016h6.548c.182 0 .413.001.64-.054h.002c.187-.046.374-.12.551-.23.2-.12.361-.284.49-.412l.034-.035 4.852-4.853c.207-.206.338-.337.447-.458a6.72 6.72 0 0 0 0-9.037 12 12 0 0 0-.386-.397l-.082-.082a13 13 0 0 0-.482-.47m-5.883 14.107a6 6 0 0 1-.233.002H7.598l1.92-1.92h5.925l-1.75 1.751a6 6 0 0 1-.168.164l-.003.002zM6.242 10.48a6 6 0 0 0-.002.234v5.687l8.921-8.92a.96.96 0 1 1 1.358 1.357l-5.081 5.081h5.925l1.16-1.159c.237-.237.33-.33.401-.41l.003-.003a4.8 4.8 0 0 0 0-6.457l-.003-.003c-.063-.07-.142-.149-.326-.334l-.077-.078c-.234-.235-.33-.329-.409-.4l-.003-.003a4.8 4.8 0 0 0-6.457 0l-.003.003c-.07.063-.149.142-.334.326l-.078.077-4.828 4.829a6 6 0 0 0-.164.167l-.002.003z" clip-rule="evenodd"/></svg>