<svg xmlns="http://www.w3.org/2000/svg" fill="none" viewBox="0 0 24 24"><path fill="currentColor" d="M22 1h-7.01a2.44 2.44 0 0 0-2.398 1.985L12.59 3l-.92 5.05a2.432 2.432 0 0 0 .533 2.004l-.003-.004a2.47 2.47 0 0 0 1.88.88h2.921l-.25.66A3.26 3.26 0 0 0 19.748 16h.011a1 1 0 0 0 .91-.583l.002-.006 2.24-5.06a1 1 0 0 0 .09-.346V2.002a1 1 0 0 0-1-1h-.002zm-1 8.73-1.83 4.13a1.3 1.3 0 0 1-.447-.396l-.003-.004a1.22 1.22 0 0 1-.138-1.168l-.003.008.38-1a1.672 1.672 0 0 0-.204-1.585l.004.005A1.7 1.7 0 0 0 17.37 9h-3.313a.45.45 0 0 1-.348-.16l-.001-.001a.5.5 0 0 1-.09-.373v.003l.92-5-.001-.031a.44.44 0 0 1 .462-.439h5.999l-.001 6.73zM9.94 13.05H7.05l.25-.66A3.26 3.26 0 0 0 4.25 8h-.009c-.403 0-.751.239-.91.583l-.002.006-2.24 5.06a1 1 0 0 0-.09.399v8.001a1 1 0 0 0 1 1h7.01a2.44 2.44 0 0 0 2.398-1.985l.002-.015.92-5a2.432 2.432 0 0 0-.533-2.004l.003.004a2.47 2.47 0 0 0-1.854-1h-.006zm-.48 7.58a.44.44 0 0 1-.434.37l-.027-.001H3v-6.73l1.83-4.13c.181.1.332.235.447.396l.003.004a1.22 1.22 0 0 1 .138 1.168l.003-.008-.38 1a1.672 1.672 0 0 0 .203 1.586l-.004-.005c.311.449.823.74 1.403.74h3.299c.139 0 .264.061.348.16l.001.001a.5.5 0 0 1 .09.373l.001-.003-.921 5.081z"/></svg>