<svg xmlns="http://www.w3.org/2000/svg" fill="none" viewBox="0 0 24 24"><path fill="currentColor" d="M22 12c0-5.523-4.477-10-10-10S2 6.478 2 12s4.477 10 10 10 10-4.477 10-10m-9.102-1.201-.307 1.641 2.923.41-.205.769-2.872-.41c-.206.667-.308 1.384-.564 2-.257.718-.513 1.436-.82 2.103-.41.872-1.128 1.487-2.103 1.641-.564.103-1.18.051-1.641-.308-.154-.103-.308-.308-.308-.461 0-.206.103-.461.256-.564.103-.051.359 0 .513.051.154.154.307.359.41.564.308.41.718.461 1.128.154.461-.41.718-.974.872-1.538.308-1.231.616-2.411.872-3.641v-.206l-2.718-.41.103-.769 2.821.41.359-1.59-2.924-.461.103-.82 3.025.41c.103-.308.154-.564.256-.821.256-.923.513-1.846 1.128-2.667s1.333-1.333 2.41-1.282c.461 0 .923.154 1.231.513.051.051.154.154.154.256 0 .205 0 .461-.154.616-.206.154-.461.103-.667-.103-.154-.154-.256-.308-.41-.461-.307-.41-.769-.461-1.128-.103a3.3 3.3 0 0 0-.667.974c-.359 1.077-.616 2.205-.974 3.334l2.821.41-.206.769-2.72-.411z"/></svg>