<svg xmlns="http://www.w3.org/2000/svg" fill="none" viewBox="0 0 24 24"><path fill="currentColor" stroke="currentColor" stroke-width="1.059" d="m13.267 10.304-.434 2.317 4.127.579-.29 1.086-4.054-.579c-.29.941-.434 1.955-.796 2.824-.362 1.014-.724 2.027-1.159 2.968-.579 1.231-1.593 2.1-2.969 2.317-.796.145-1.665.072-2.317-.434-.218-.145-.434-.434-.434-.652 0-.29.145-.652.362-.797.145-.073.507 0 .724.073.217.217.434.507.579.796.434.579 1.013.652 1.593.218.652-.579 1.014-1.375 1.231-2.172.434-1.738.868-3.403 1.231-5.14v-.29l-3.838-.579.145-1.086 3.982.579.507-2.245-4.127-.652.145-1.159 4.272.579c.145-.434.217-.796.362-1.159.362-1.303.724-2.606 1.593-3.765s1.882-1.882 3.403-1.81c.652 0 1.303.217 1.738.724.073.073.217.217.217.362 0 .29 0 .652-.217.869-.29.217-.652.145-.941-.145-.218-.218-.362-.434-.579-.652-.434-.579-1.086-.652-1.593-.145a4.6 4.6 0 0 0-.941 1.376c-.507 1.52-.869 3.113-1.376 4.706l3.982.579-.29 1.086-3.839-.578z"/></svg>