<svg xmlns="http://www.w3.org/2000/svg" fill="none" viewBox="0 0 24 24"><path fill="currentColor" d="m20 15.093-2.177-1.419c-.396-.259-.793-.519-1.242-.619a2.5 2.5 0 0 0-1.186.025c-.445.119-.83.395-1.215.671l-.093.067-2.506 1.789c-.479.342-.538.37-.579.382a.5.5 0 0 1-.212.018c-.042-.005-.105-.023-.635-.28l-.611-.298c-.349-.17-.699-.342-1.081-.4a2.5 2.5 0 0 0-.999.05c-.373.096-.705.302-1.035.507l-2.426 1.501c.004.439.014.827.042 1.166.03.367.083.714.184 1.046l3.174-1.963c.465-.287.521-.31.56-.319a.5.5 0 0 1 .2-.01c.04.006.098.023.589.262l.618.301c.374.183.751.367 1.159.421a2.5 2.5 0 0 0 1.061-.089c.394-.121.734-.365 1.072-.608l2.587-1.847c.547-.39.616-.421.662-.433a.5.5 0 0 1 .237-.005c.046.011.117.038.68.404l3.166 2.063q.01-.552.008-1.234v-1.148zM12 11a2 2 0 1 1-4 0 2 2 0 0 1 4 0"/><path fill="currentColor" d="M14.691 2.111c.408.098.799.26 1.157.479.406.249.745.588 1.193 1.037l1.332 1.332c.449.449.788.788 1.037 1.193.219.358.381.748.479 1.157.111.463.111.943.11 1.577v7.355c0 .805 0 1.469-.044 2.011-.046.562-.145 1.078-.392 1.564a4 4 0 0 1-1.748 1.748c-.485.248-1.002.346-1.564.392-.542.044-1.205.044-2.011.044H9.757c-.805 0-1.469 0-2.011-.044-.562-.046-1.079-.145-1.565-.392a4 4 0 0 1-1.748-1.748c-.248-.485-.346-1.002-.392-1.564-.044-.542-.044-1.205-.044-2.011V7.759c0-.805 0-1.469.044-2.011.046-.562.145-1.079.392-1.565a4 4 0 0 1 1.748-1.748c.485-.248 1.002-.346 1.565-.391C8.287 2 8.951 2 9.757 2h3.355c.635 0 1.114-.001 1.577.11zM13 4H9.8c-.856 0-1.438.001-1.889.037-.439.036-.662.101-.819.181a2 2 0 0 0-.874.874c-.08.157-.145.38-.181.819C6 6.361 6 6.943 6 7.8v8.4c0 .857.001 1.438.037 1.889.036.439.101.662.181.819.192.377.498.683.874.874.157.08.38.145.819.181C8.361 20 8.944 20 9.8 20h4.4c.856 0 1.439-.001 1.889-.037.439-.036.662-.101.819-.181.377-.192.683-.498.874-.874.079-.157.145-.38.181-.819.037-.45.038-1.033.038-1.889V9h-2a3 3 0 0 1-3-3zm4.56 3c-.12-.142-.312-.338-.673-.699l-1.188-1.188A13 13 0 0 0 15 4.44V6a1 1 0 0 0 1 1z"/></svg>