<svg xmlns="http://www.w3.org/2000/svg" fill="none" viewBox="0 0 24 24"><path fill="currentColor" d="M14.69 2.111c.409.098.8.26 1.158.479.406.249.745.588 1.193 1.037l1.332 1.332c.449.449.788.788 1.037 1.193.219.358.38.748.479 1.157.11.463.11.943.11 1.577v7.355c0 .805 0 1.469-.044 2.011-.046.562-.145 1.078-.392 1.564a4 4 0 0 1-1.748 1.748c-.485.248-1.002.346-1.564.392-.542.044-1.205.044-2.011.044H9.757c-.805 0-1.469 0-2.011-.044-.562-.046-1.08-.145-1.565-.392a4 4 0 0 1-1.748-1.748c-.248-.485-.346-1.002-.392-1.564-.044-.542-.044-1.205-.044-2.011V7.759c0-.805 0-1.469.044-2.011.046-.562.145-1.079.392-1.565a4 4 0 0 1 1.748-1.748c.485-.248 1.002-.346 1.565-.391C8.286 2 8.95 2 9.756 2h3.356c.635 0 1.114-.001 1.577.11zM13 4H9.8c-.856 0-1.438.001-1.89.037-.438.036-.661.101-.818.181a2 2 0 0 0-.874.874c-.08.157-.145.38-.181.819C6 6.361 6 6.943 6 7.8v8.4c0 .857 0 1.438.037 1.889.036.439.101.662.181.819.192.377.498.683.874.874.157.08.38.145.819.181C8.36 20 8.944 20 9.8 20h4.4c.856 0 1.439-.001 1.889-.037.439-.036.662-.101.819-.181.377-.192.683-.498.874-.874.079-.157.145-.38.18-.819.038-.45.039-1.033.039-1.889V9h-2a3 3 0 0 1-3-3zm4.56 3c-.12-.142-.312-.338-.673-.699l-1.188-1.188a13 13 0 0 0-.7-.673V6a1 1 0 0 0 1 1z"/><path fill="currentColor" d="M15.707 13.293a1 1 0 0 1 0 1.414l-1 1a1.001 1.001 0 0 1-1.414-1.415l.293-.293-.293-.293a1 1 0 1 1 1.414-1.415l1 1zm-7.414 0a1 1 0 0 0 0 1.414l1 1a1 1 0 1 0 1.415-1.415L10.415 14l.293-.293a1 1 0 1 0-1.415-1.415l-1 1z"/></svg>