<svg xmlns="http://www.w3.org/2000/svg" fill="none" viewBox="0 0 24 24"><path fill="currentColor" d="M12.001 1.44c-3.55 0-6.733 1.567-8.906 4.035a.96.96 0 1 0 1.442 1.268A9.92 9.92 0 0 1 12 3.36a9.91 9.91 0 0 1 7.463 3.383.96.96 0 1 0 1.442-1.268A11.83 11.83 0 0 0 12 1.44"/><path fill="currentColor" d="M2.248 14.13c0-5.389 4.367-9.757 9.754-9.757 5.388 0 9.754 4.368 9.754 9.757a3.892 3.892 0 1 1-7.783 0 1.972 1.972 0 1 0-3.943 0 7.83 7.83 0 0 0 3.697 6.655.96.96 0 1 1-1.016 1.63A9.75 9.75 0 0 1 8.11 14.13a3.893 3.893 0 1 1 7.783 0 1.972 1.972 0 1 0 3.943 0 7.835 7.835 0 1 0-15.668 0c0 1.011.113 1.997.322 2.948a.96.96 0 0 1-1.876.412 15.7 15.7 0 0 1-.366-3.36"/><path fill="currentColor" d="M7.097 14.13a4.904 4.904 0 0 1 4.902-4.905 4.904 4.904 0 0 1 4.902 4.905.96.96 0 0 0 1.92 0 6.824 6.824 0 0 0-6.822-6.825 6.824 6.824 0 0 0-6.822 6.825c0 2.705.85 5.213 2.293 7.273A.96.96 0 0 0 9.042 20.3a10.7 10.7 0 0 1-1.945-6.17"/><path fill="currentColor" d="M12.001 13.17c.53 0 .96.43.96.96a4.904 4.904 0 0 0 4.902 4.905c.038 0 .065-.002.106-.004l.018-.002.138-.008a.96.96 0 1 1 .06 1.92c-.077.005-.21.014-.322.014a6.823 6.823 0 0 1-6.822-6.825c0-.53.43-.96.96-.96"/></svg>