<svg xmlns="http://www.w3.org/2000/svg" fill="none" viewBox="0 0 24 24"><path fill="currentColor" d="M10.224 6.056C10.021 6.006 9.793 6 9.011 6H7.799c-.856 0-1.438 0-1.889.038-.439.036-.662.101-.819.181a2 2 0 0 0-.874.874c-.079.157-.145.38-.181.819-.037.45-.037 1.033-.037 1.889v4.4c0 .856.001 1.438.037 1.889.036.439.101.662.181.819.192.377.498.683.874.874.157.08.38.145.819.18.45.038 1.033.038 1.889.038h8.4c.857 0 1.439-.001 1.889-.037.439-.036.662-.101.819-.181.377-.192.683-.498.874-.874.08-.157.145-.38.181-.82.037-.45.038-1.032.038-1.888v-2.4c0-.856-.001-1.44-.038-1.89-.036-.438-.101-.661-.181-.818a2 2 0 0 0-.874-.874c-.157-.079-.38-.145-.819-.181C17.638 8 17.055 8 16.199 8h-3.2a1 1 0 0 1-.707-.293l-.594-.594c-.553-.553-.718-.709-.896-.818a2 2 0 0 0-.578-.24M9.114 4c.635 0 1.115-.001 1.577.11a4 4 0 0 1 1.156.479c.406.249.745.588 1.193 1.037l.072.072.302.3h2.827c.805 0 1.469 0 2.011.045.562.046 1.078.145 1.564.391a4 4 0 0 1 1.748 1.748c.247.485.346 1.002.391 1.565.044.54.044 1.205.044 2.01v2.483c0 .805 0 1.469-.044 2.01-.046.563-.145 1.079-.391 1.565a4 4 0 0 1-1.748 1.748c-.485.247-1.002.346-1.564.39-.542.045-1.205.045-2.011.045H7.759c-.805 0-1.469 0-2.011-.044-.562-.046-1.078-.145-1.564-.391a4 4 0 0 1-1.748-1.748c-.248-.485-.346-1.002-.391-1.564-.044-.541-.044-1.205-.044-2.011V9.757c0-.805 0-1.469.044-2.011.046-.562.145-1.08.392-1.565a4 4 0 0 1 1.748-1.748c.485-.248 1.002-.346 1.564-.392.542-.044 1.205-.044 2.011-.044h1.355z"/><path fill="currentColor" d="M11.5 11a1.5 1.5 0 1 0-.001 2.999A1.5 1.5 0 0 0 11.5 11M8 12.5a3.5 3.5 0 1 1 6.579 1.665l1.128 1.128a1 1 0 1 1-1.414 1.415l-1.128-1.128A3.5 3.5 0 0 1 8 12.501z"/></svg>