<svg xmlns="http://www.w3.org/2000/svg" fill="none" viewBox="0 0 24 24"><path fill="currentColor" d="M18 18v1h2v-1a1 1 0 0 0-2 0m4 1a1 1 0 0 1 1 1v2a1 1 0 0 1-1 1h-6a1 1 0 0 1-1-1v-2a1 1 0 0 1 1-1v-1a3 3 0 1 1 6 0z"/><path fill="currentColor" d="M10.224 6.056C10.021 6.007 9.793 6 9.011 6H7.799c-.856 0-1.438.001-1.889.038-.439.036-.662.101-.819.181a2 2 0 0 0-.874.874c-.08.157-.145.38-.181.819-.037.45-.038 1.033-.038 1.889v4.4c0 .856.001 1.438.038 1.889.036.439.101.662.181.819.192.377.498.683.874.874.157.08.38.145.819.181.45.037 1.033.037 1.889.037h4.2a1 1 0 0 1 0 2H7.758c-.805 0-1.469 0-2.011-.044-.562-.046-1.078-.145-1.564-.391a4 4 0 0 1-1.748-1.748c-.248-.485-.346-1.002-.391-1.564C2 15.713 2 15.049 2 14.243V9.76c0-.805 0-1.469.044-2.011.046-.562.145-1.079.391-1.565a4 4 0 0 1 1.748-1.748c.485-.248 1.002-.346 1.564-.392C6.289 4 6.952 4 7.758 4h1.355c.635 0 1.114-.001 1.577.11a4 4 0 0 1 1.156.479c.406.249.745.588 1.193 1.037l.072.072.302.301h2.827c.805 0 1.469 0 2.011.044.562.046 1.079.145 1.564.392a4 4 0 0 1 1.748 1.748c.248.485.346 1.002.392 1.564.044.541.044 1.205.044 2.011V12a1 1 0 0 1-2 0v-.2c0-.857-.001-1.439-.038-1.889-.036-.439-.101-.662-.181-.819a2 2 0 0 0-.874-.874c-.157-.079-.38-.145-.819-.181C17.637 8 17.054 8 16.198 8h-3.2a1 1 0 0 1-.707-.293l-.594-.594c-.553-.553-.718-.709-.896-.818a2 2 0 0 0-.578-.239z"/></svg>