<svg xmlns="http://www.w3.org/2000/svg" fill="none" viewBox="0 0 24 24"><path fill="currentColor" stroke="currentColor" d="M11.46 16.91a.4.4 0 0 1-.257-.09c-.058-.05-.073-.101-.073-.14v-.002l.001-.008.005-.029a1 1 0 0 1 .03-.102 2.4 2.4 0 0 1 .145-.312q.064-.117.146-.245.08.126.143.243.099.183.145.313a1 1 0 0 1 .035.132l.001.008v.002c0 .04-.018.091-.074.142a.37.37 0 0 1-.246.088zM9.44 9.72V7.08h4.03v2.64z"/><path fill="currentColor" stroke="currentColor" d="M18.24 5.51v.215l2.867 2.708c.25.236.393.566.393.906v5.74c0 .689-.581 1.28-1.34 1.28h-1.92v4.64h1.92c.144 0 .25.106.25.25 0 .138-.11.25-.25.25H2.75a.256.256 0 0 1-.25-.25c0-.14.112-.25.25-.25h1.93V4.859a2.36 2.36 0 0 1 2.36-2.36h8.83a2.37 2.37 0 0 1 2.37 2.36v.651Zm0 9.85v.5h1.92c.379 0 .84-.274.84-.78v-2.83h-2.76zm2.26-3.61h.5V9.34a.75.75 0 0 0-.227-.533L18.24 6.409v5.341zM8.63 16.68c0 1.526 1.284 2.73 2.83 2.73 1.537 0 2.82-1.205 2.82-2.73 0-.766-.389-1.538-.771-2.126a9.6 9.6 0 0 0-1.046-1.318 1.39 1.39 0 0 0-1.008-.418c-.354 0-.733.128-1.007.418a9.5 9.5 0 0 0-1.047 1.318c-.382.588-.771 1.361-.771 2.126Zm5.03-4.46a2.31 2.31 0 0 0 2.31-2.31V6.89a2.31 2.31 0 0 0-2.31-2.31H9.25a2.31 2.31 0 0 0-2.31 2.31v3.02a2.31 2.31 0 0 0 2.31 2.31z"/></svg>