<svg xmlns="http://www.w3.org/2000/svg" fill="none" viewBox="0 0 24 24"><path fill="currentColor" fill-rule="evenodd" d="M5.761 4.32c0 .33.056.654.162.959H3.906c-.242 0-.478 0-.678.016-.22.018-.478.06-.738.193-.365.186-.656.48-.839.837v.001c-.134.261-.177.521-.195.74-.016.2-.016.437-.016.68v1.789c0 .242 0 .478.016.678.018.22.06.478.193.738.186.365.48.655.837.839h.001c.261.134.521.177.74.195l.133.008v6.572c0 .506 0 .943.03 1.302.03.38.1.758.284 1.12.276.542.717.984 1.259 1.26.363.184.74.253 1.12.284.36.029.796.029 1.302.029h9.29c.506 0 .943 0 1.303-.03.379-.03.757-.1 1.12-.284a2.9 2.9 0 0 0 1.259-1.259c.184-.363.253-.74.284-1.12.029-.36.029-.796.029-1.302v-6.572l.134-.008c.22-.018.478-.06.738-.193.365-.186.656-.48.839-.837v-.001c.134-.261.177-.521.195-.74.016-.2.016-.437.016-.68V7.746c0-.242 0-.478-.016-.678a1.9 1.9 0 0 0-.193-.738 1.92 1.92 0 0 0-.837-.839h-.001a1.9 1.9 0 0 0-.74-.195c-.2-.016-.437-.016-.68-.016h-2.018a2.91 2.91 0 0 0-.665-2.99 2.83 2.83 0 0 0-2.018-.85c-1.723 0-2.792 1.17-3.394 2.182-.602-1.012-1.671-2.181-3.394-2.181-.76 0-1.486.307-2.018.85a2.9 2.9 0 0 0-.827 2.03m2.197-.686a.9.9 0 0 1 .648-.274c.777 0 1.376.553 1.842 1.416q.136.255.24.503H8.565a.9.9 0 0 1-.606-.273.98.98 0 0 1-.277-.686c0-.26.102-.507.277-.686M4.32 10.08h6.72V7.2H8.606l-.075-.001H3.937c-.285 0-.44 0-.552.01l-.014.001-.001.013c-.01.112-.01.268-.01.553v1.728c0 .285 0 .44.01.552l.001.014.014.001c.111.01.267.01.552.01h.339zm.983 9.631c-.022-.272-.023-.63-.023-1.183V12h5.76v8.639H7.392c-.553 0-.91 0-1.183-.023-.26-.021-.358-.057-.406-.082a.96.96 0 0 1-.418-.419c-.025-.047-.06-.145-.082-.405m12.488.906c-.272.022-.63.023-1.183.023H12.96V12h5.76v6.528c0 .553 0 .91-.023 1.183-.021.26-.057.358-.082.406a.96.96 0 0 1-.418.418c-.049.025-.146.06-.406.082m1.895-10.537h.379c.285 0 .44 0 .552-.009l.014-.001.001-.014c.01-.111.01-.267.01-.552V7.776c0-.285 0-.44-.01-.552l-.001-.014-.014-.001a8 8 0 0 0-.552-.01H12.96v2.882h6.676zm-3.644-5.074a.9.9 0 0 1-.606.273h-2.124q.104-.248.24-.503c.466-.863 1.065-1.416 1.842-1.416.24 0 .472.096.648.274a.98.98 0 0 1 .277.686.98.98 0 0 1-.277.686M3.358 7.2 3.36 7.2l-.855-.436z" clip-rule="evenodd"/></svg>