<svg xmlns="http://www.w3.org/2000/svg" fill="none" viewBox="0 0 24 24"><path fill="currentColor" fill-rule="evenodd" d="M19.579 1.97a.96.96 0 0 0-1.538-.249l-2.88 2.88a.96.96 0 0 0-.281.679v2.482l-3.559 3.56a.96.96 0 0 0 1.358 1.357l3.559-3.56h2.482a.96.96 0 0 0 .679-.28l2.88-2.88a.96.96 0 0 0-.25-1.538l-1.634-.817zm.4 3.573L18.322 7.2H16.8V5.678l1.657-1.657.364.728a.96.96 0 0 0 .43.43z" clip-rule="evenodd"/><path fill="currentColor" d="M3.36 12A8.64 8.64 0 0 1 12 3.36a.96.96 0 1 0 0-1.92C6.168 1.44 1.44 6.168 1.44 12S6.168 22.56 12 22.56 22.56 17.832 22.56 12a.96.96 0 1 0-1.92 0 8.64 8.64 0 1 1-17.28 0"/><path fill="currentColor" d="M8.16 12A3.84 3.84 0 0 1 12 8.16a.96.96 0 1 0 0-1.92A5.76 5.76 0 1 0 17.76 12a.96.96 0 1 0-1.92 0 3.84 3.84 0 1 1-7.68 0"/></svg>