<svg xmlns="http://www.w3.org/2000/svg" fill="none" viewBox="0 0 24 24"><path fill="currentColor" d="M22 9q-.002.825-.107 1.586a.485.485 0 0 1-.485.414h-4.249l-1.241-2.894a1.001 1.001 0 0 0-1.838 0l-2.081 4.856-.581-1.355a1 1 0 0 0-.919-.606H2.591a.486.486 0 0 1-.485-.414 12 12 0 0 1-.107-1.586 6 6 0 0 1 10-4.472 6 6 0 0 1 10 4.472zM3.46 13c-.351 0-.592.353-.443.671 1.964 4.208 6.246 6.381 8.099 7.154a2.28 2.28 0 0 0 1.768 0c1.853-.773 6.136-2.945 8.099-7.154A.475.475 0 0 0 20.54 13H16.5c-.4 0-.761-.239-.919-.606L15 11.039l-2.081 4.856a1.001 1.001 0 0 1-1.838 0L9.84 13.001z"/></svg>