<svg xmlns="http://www.w3.org/2000/svg" fill="none" viewBox="0 0 24 24"><path fill="currentColor" d="M22 12c0-5.523-4.477-10-10-10S2 6.478 2 12s4.477 10 10 10 10-4.477 10-10m-4.733-2.52-.941-1.601 1.823.001c.049 0 .106.031.132.073l.355.56c.213.336.467.738.614.967zm-3.372 9.694c-.044.076-.101.076-.12.076h-.745l-1.12-.001 2.897-4.979a.26.26 0 0 0-.107-.363.3.3 0 0 0-.135-.034l-4.937.006-.982-1.627h7.196l.011-.001.048-.006q.018-.004.034-.011l.018-.007a.27.27 0 0 0 .132-.115l1.185-2.099h1.958zm-2.467-.189-.234-.368c-.299-.473-.683-1.079-.727-1.146-.014-.023-.021-.077.01-.13l1.7-2.932 1.915-.002zm-3.265-3.116-.952-1.619.959-1.721.962 1.595c-.298.539-.766 1.379-.969 1.745m-1.277.251H5.849a.17.17 0 0 1-.131-.073l-.31-.489-.659-1.039h1.982l.941 1.601h-.788zm3.219-11.293c.044-.077.101-.077.119-.077h1.873L9.192 9.729l-.006.014q-.007.012-.011.026l-.008.026-.006.024-.003.03-.002.014.002.01q0 .014.003.029.001.012.005.024l.008.025.01.024.012.022.014.022.017.02.018.019.02.016.024.016.009.006q.005.001.01.005a.2.2 0 0 0 .045.017l.017.005q.03.008.063.008h.126l4.813-.006c.128.212.365.611.568.95l.385.646H8.163l-.01.002a.28.28 0 0 0-.241.14l-1.186 2.128H4.772l5.332-9.16zm2.47.195.174.274.782 1.234c.014.022.021.077-.01.13l-1.7 2.93-1.914.002 2.667-4.571zm3.26 3.108.952 1.619-.971 1.718-.395-.661-.571-.955.984-1.722z"/></svg>