<svg xmlns="http://www.w3.org/2000/svg" fill="none" viewBox="0 0 24 24"><path fill="currentColor" d="m19.436 8.443-1.328-2.26 2.574.001c.068 0 .149.044.186.103l.502.79.866 1.365zm-4.761 13.685c-.062.107-.143.107-.17.107h-1.052l-1.581-.001 4.09-7.03a.367.367 0 0 0-.152-.512.4.4 0 0 0-.191-.048l-6.97.009-1.387-2.298h10.159l.016-.002a.4.4 0 0 0 .117-.024l.025-.01a.38.38 0 0 0 .186-.162l1.673-2.963h2.764l-7.529 12.934zm-3.483-.268-.331-.521c-.423-.668-.964-1.524-1.025-1.618-.02-.032-.03-.109.014-.183l2.4-4.139 2.703-.003zm-4.608-4.398L5.24 15.177l1.354-2.43 1.358 2.251c-.421.761-1.08 1.947-1.368 2.464m-1.804.355H3.317a.24.24 0 0 1-.185-.103l-.437-.69-.93-1.467h2.798l1.328 2.26zM9.324 1.873c.062-.108.143-.108.169-.108h2.644l-4.101 7.03-.008.019-.016.036-.011.036-.008.034q-.003.021-.004.042l-.002.019.002.014q0 .021.004.041l.006.034.011.035.014.034.017.032q.009.015.02.03l.025.029.025.026.029.022q.016.012.034.022l.012.009q.006.003.014.006.03.015.064.025l.023.007q.042.01.089.01h.177l6.795-.009c.18.299.516.863.802 1.342l.544.911H6.582l-.014.002a.39.39 0 0 0-.34.197l-1.675 3.004H1.794C2.999 12.732 9.241 2.008 9.322 1.871h.002zm3.488.276.246.387 1.104 1.742c.02.031.03.109-.014.183l-2.399 4.137-2.702.003zm4.603 4.387 1.344 2.286-1.37 2.425-.556-.933c-.377-.631-.651-1.091-.806-1.348.294-.512 1.066-1.867 1.389-2.431z"/></svg>