<svg xmlns="http://www.w3.org/2000/svg" fill="none" viewBox="0 0 24 24"><path fill="currentColor" d="M12 15a1 1 0 0 0-1 1v4a1 1 0 0 1-2 0v-4a3 3 0 1 1 6 0v4a1 1 0 0 1-2 0v-4a1 1 0 0 0-1-1"/><path fill="currentColor" d="M12.489 5.06a2 2 0 0 0-.978 0c-.319.08-.642.29-1.711 1.049L6.6 8.381c-.789.56-1.014.731-1.171.931s-.276.429-.348.674C5.009 10.23 5 10.512 5 11.48v3.722c0 .856.001 1.439.038 1.889.036.439.101.663.181.819.192.377.498.683.874.874.157.08.38.145.819.181.45.037 1.033.037 1.889.037h6.4c.856 0 1.439-.001 1.889-.037.439-.036.662-.101.819-.181.377-.192.683-.498.874-.874.08-.157.145-.38.181-.819.037-.45.037-1.032.037-1.889V11.48c0-.967-.01-1.25-.081-1.494a2 2 0 0 0-.348-.674c-.158-.201-.382-.37-1.171-.931l-3.2-2.272c-1.069-.759-1.392-.968-1.712-1.049m-1.467-1.94a4 4 0 0 1 1.955 0c.73.185 1.378.644 2.237 1.255l.143.101 3.2 2.272.104.074c.639.453 1.122.796 1.481 1.25.316.401.552.858.696 1.347.163.556.163 1.147.163 1.931v3.89c0 .805 0 1.469-.044 2.011-.046.562-.145 1.079-.391 1.564a4 4 0 0 1-1.748 1.748c-.485.247-1.002.346-1.564.392-.542.044-1.205.044-2.011.044H8.761c-.805 0-1.469 0-2.011-.044-.562-.046-1.079-.145-1.564-.392a4 4 0 0 1-1.748-1.748c-.248-.485-.346-1.002-.392-1.564-.044-.541-.044-1.205-.044-2.011v-3.89c-.001-.784-.001-1.376.163-1.931.144-.489.38-.947.696-1.347.358-.454.841-.797 1.481-1.25l.103-.074 3.2-2.272.143-.101c.859-.611 1.506-1.071 2.237-1.255z"/></svg>