<svg xmlns="http://www.w3.org/2000/svg" fill="none" viewBox="0 0 24 24"><path fill="currentColor" d="M3.204 17.313a7 7 0 0 1-.146-1.004c-.03-.363-.044-.769-.051-1.226l2.422-1.498c.33-.205.661-.41 1.035-.507.326-.084.666-.101.999-.05.381.058.732.229 1.081.4l.611.298c.53.257.593.274.635.28q.107.015.212-.018c.04-.013.1-.04.579-.382l2.599-1.856c.384-.275.77-.552 1.215-.671a2.5 2.5 0 0 1 1.186-.026c.449.1.847.36 1.242.619l.096.063 4.082 2.659a26 26 0 0 1-.057 1.913q-.017.209-.042.41l-5.074-3.307c-.563-.367-.633-.395-.679-.404a.5.5 0 0 0-.237.005c-.046.012-.115.043-.662.433l-2.587 1.847c-.339.243-.679.487-1.072.608a2.5 2.5 0 0 1-1.061.089c-.408-.054-.784-.238-1.159-.421l-.618-.301c-.491-.239-.55-.256-.589-.262a.5.5 0 0 0-.2.01c-.039.01-.095.032-.56.319l-3.198 1.978zM11 9a2 2 0 1 1-4 0 2 2 0 0 1 4 0"/><path fill="currentColor" d="M10.357 3h3.286c1.084 0 1.958 0 2.665.058.729.059 1.369.185 1.961.488a5 5 0 0 1 2.185 2.185c.302.592.427 1.232.487 1.961.058.708.058 1.582.058 2.666v3.286c0 1.084 0 1.958-.058 2.665-.059.729-.185 1.369-.487 1.961a5 5 0 0 1-2.185 2.185c-.592.302-1.232.428-1.961.488-.708.058-1.582.058-2.665.058h-3.286c-1.084 0-1.958 0-2.665-.058-.729-.059-1.369-.185-1.961-.488a5 5 0 0 1-2.185-2.185c-.301-.592-.428-1.232-.488-1.961C3 15.601 3 14.727 3 13.644v-3.286c0-1.084 0-1.958.058-2.666.059-.729.185-1.369.488-1.961a5 5 0 0 1 2.185-2.185c.592-.301 1.232-.428 1.961-.488C8.4 3 9.274 3 10.357 3M7.854 5.051c-.605.049-.953.142-1.217.276a3 3 0 0 0-1.311 1.311c-.134.263-.226.611-.276 1.216-.05.616-.051 1.409-.051 2.545v3.2c0 1.136.001 1.929.051 2.546.05.605.142.952.276 1.216a3 3 0 0 0 1.311 1.311c.263.134.611.226 1.217.276.616.05 1.409.051 2.545.051h3.2c1.136 0 1.929-.001 2.546-.051.605-.05.953-.142 1.216-.276a3 3 0 0 0 1.311-1.311c.134-.263.227-.611.276-1.216.05-.617.051-1.409.051-2.546v-3.2c0-1.136-.001-1.929-.051-2.545-.049-.605-.142-.953-.276-1.216a3 3 0 0 0-1.311-1.311c-.263-.134-.611-.226-1.216-.276C15.528 5.001 14.736 5 13.6 5h-3.2c-1.136 0-1.929.001-2.546.051"/></svg>