<svg xmlns="http://www.w3.org/2000/svg" fill="none" viewBox="0 0 24 24"><path fill="currentColor" d="M3 15.241V12a1 1 0 0 1 2 0v3.2c0 .857.001 1.439.037 1.889.036.439.101.662.181.819.192.377.498.683.874.874.157.08.38.145.819.181C7.361 19 7.944 19 8.8 19h6.4c.856 0 1.439-.001 1.889-.037.439-.036.662-.101.819-.181.377-.192.683-.498.874-.874.08-.157.145-.38.181-.819.037-.45.037-1.033.037-1.889V12a1 1 0 0 1 2 0v3.241c0 .805 0 1.469-.044 2.011-.046.562-.145 1.079-.391 1.564a4 4 0 0 1-1.748 1.748c-.485.248-1.002.346-1.564.392-.542.044-1.205.044-2.011.044H8.76c-.805 0-1.469 0-2.011-.044-.562-.046-1.078-.145-1.564-.392a4 4 0 0 1-1.748-1.748c-.248-.485-.346-1.002-.392-1.564C3.001 16.711 3 16.047 3 15.241"/><path fill="currentColor" d="M8.293 12.707a1 1 0 1 1 1.415-1.415l1.293 1.293V3.999a1 1 0 0 1 2 0v8.586l1.293-1.293a1 1 0 1 1 1.415 1.415l-3 3a1 1 0 0 1-1.415 0z"/></svg>