<svg xmlns="http://www.w3.org/2000/svg" fill="none" viewBox="0 0 24 24"><path fill="currentColor" fill-rule="evenodd" d="M5.702 7.2c-1.416 0-2.517.633-3.239 1.577C1.762 9.695 1.44 10.871 1.44 12s.322 2.305 1.023 3.223c.722.944 1.823 1.577 3.239 1.577 2.753 0 4.705-1.72 6.296-3.39.665.71 1.373 1.42 2.137 1.997 1.06.799 2.299 1.393 3.796 1.393 1.5 0 2.686-.6 3.483-1.539.78-.918 1.146-2.108 1.146-3.261s-.366-2.343-1.145-3.261c-.798-.94-1.985-1.54-3.484-1.54-1.497.001-2.735.595-3.796 1.394-.764.576-1.472 1.288-2.137 1.997-1.59-1.67-3.543-3.39-6.296-3.39m0 1.92c1.957 0 3.405 1.222 4.984 2.88-1.578 1.658-3.026 2.88-4.984 2.88-.785 0-1.335-.327-1.713-.823-.4-.522-.629-1.266-.629-2.057s.23-1.535.629-2.057c.378-.496.928-.823 1.713-.823m9.589 4.753c-.674-.508-1.31-1.153-1.982-1.873.672-.72 1.308-1.366 1.982-1.873.85-.641 1.691-1.007 2.64-1.007.947 0 1.595.36 2.02.861.443.522.689 1.252.689 2.019s-.246 1.497-.689 2.018c-.425.502-1.073.862-2.02.862-.949 0-1.79-.366-2.64-1.007" clip-rule="evenodd"/></svg>