<svg xmlns="http://www.w3.org/2000/svg" fill="none" viewBox="0 0 24 24"><path fill="currentColor" fill-rule="evenodd" d="M14.4 2.4a.96.96 0 1 0 0 1.92h1.44v15.36H14.4a.96.96 0 1 0 0 1.92h4.8a.96.96 0 1 0 0-1.92h-1.44v-1.92h.805c.506 0 .943 0 1.302-.03.38-.03.758-.099 1.12-.284a2.9 2.9 0 0 0 1.26-1.259c.184-.363.253-.74.284-1.12.029-.36.029-.796.029-1.302v-3.53c0-.506 0-.943-.03-1.302-.03-.38-.1-.758-.284-1.12a2.9 2.9 0 0 0-1.259-1.26c-.363-.184-.74-.253-1.12-.284-.36-.029-.796-.029-1.302-.029h-.805V4.32h1.44a.96.96 0 1 0 0-1.92zm5.311 13.417c-.272.022-.63.023-1.183.023h-.768V8.16h.768c.553 0 .91 0 1.183.023.26.021.358.057.406.082.18.091.326.238.418.418.025.048.06.145.082.406.022.272.023.63.023 1.183v3.456c0 .553 0 .91-.023 1.183-.021.26-.057.357-.082.406a.96.96 0 0 1-.418.418c-.048.025-.145.06-.406.082" clip-rule="evenodd"/><path fill="currentColor" d="M12.96 6.24H5.435c-.506 0-.942 0-1.302.03-.38.03-.758.099-1.12.284a2.9 2.9 0 0 0-1.26 1.259c-.184.363-.253.74-.284 1.12-.029.36-.029.796-.029 1.302v3.53c0 .506 0 .942.03 1.302.03.38.099.758.284 1.121.276.542.717.983 1.259 1.259.363.184.74.253 1.12.284.359.03.796.029 1.302.029h7.525a.96.96 0 1 0 0-1.92H5.472c-.554 0-.911 0-1.183-.023-.26-.021-.358-.057-.406-.082a.96.96 0 0 1-.419-.419c-.024-.048-.06-.145-.081-.405a16 16 0 0 1-.023-1.183v-3.456c0-.554 0-.911.023-1.183.021-.26.057-.357.082-.406a.96.96 0 0 1 .419-.418c.048-.025.145-.06.405-.082.272-.022.63-.023 1.183-.023h7.488a.96.96 0 1 0 0-1.92"/></svg>