<svg xmlns="http://www.w3.org/2000/svg" fill="none" viewBox="0 0 24 24"><path fill="currentColor" d="m18 14.5-.447.894c.139.07.292.106.447.106zm-2-1 .447-.894a1 1 0 0 0-.894 0zm-2 1v1a1 1 0 0 0 .447-.106zM6.5 12a.5.5 0 0 1 .5-.5v2A1.5 1.5 0 0 0 8.5 12zm.5-.5a.5.5 0 0 1 .5.5h-2A1.5 1.5 0 0 0 7 13.5zm.5.5a.5.5 0 0 1-.5.5v-2A1.5 1.5 0 0 0 5.5 12zm-.5.5a.5.5 0 0 1-.5-.5h2A1.5 1.5 0 0 0 7 10.5zm-.5.5h1v-2h-1zm.5 3a4 4 0 0 1-4-4H1a6 6 0 0 0 6 6zm-4-4a4 4 0 0 1 4-4V6a6 6 0 0 0-6 6zm17.02-1.5 1.2 1.5 1.561-1.25-1.2-1.5zm1.2 1.5-1.2 1.5 1.561 1.25 1.2-1.5zm-1.2 1.5H18v2h2.02zm-1.573.106-2-1-.894 1.788 2 1zm-2.894-1-2 1 .894 1.788 2-1zM11.908 10.5h8.111v-2h-8.111zM7 8c1.315 0 2.481.633 3.212 1.615l1.604-1.193A6 6 0 0 0 7 6zm7 5.5h-2.092v2H14zm-3.788.885A4 4 0 0 1 7 16v2a6 6 0 0 0 4.817-2.421zm1.696-.885c-.733 0-1.333.397-1.696.885l1.604 1.194a.3.3 0 0 1 .077-.072c.018-.01.022-.007.015-.007zm8.111 0v2a2 2 0 0 0 1.562-.75zm-8.111-5c.007 0 .003.002-.015-.007a.3.3 0 0 1-.077-.071l-1.604 1.193c.363.488.963.885 1.696.885zm9.311 3.5 1.562 1.25a2 2 0 0 0 0-2.5zm.362-2.75a2 2 0 0 0-1.562-.75v2z"/></svg>