<svg xmlns="http://www.w3.org/2000/svg" fill="none" viewBox="0 0 24 24"><path fill="currentColor" d="M6.024 6.967A17 17 0 0 0 6 8.199v5.8h12v-5.8c0-.577-.001-.949-.024-1.232-.023-.271-.06-.373-.085-.421a1 1 0 0 0-.437-.437c-.049-.026-.15-.063-.422-.085C16.749 6.001 16.377 6 15.8 6H8.2c-.577 0-.949.001-1.232.024-.272.022-.372.06-.421.085a1 1 0 0 0-.437.437c-.026.05-.064.15-.086.421M4.03 6.805c.032-.395.103-.788.296-1.167a3 3 0 0 1 1.311-1.311c.379-.193.772-.264 1.167-.296C7.178 4 7.634 4 8.161 4h7.677c.527 0 .982 0 1.357.031.395.032.788.104 1.167.296a3 3 0 0 1 1.311 1.311c.193.379.264.772.296 1.167.031.374.031.829.031 1.357V16H4V8.162c0-.527-.001-.982.03-1.357"/><path fill="currentColor" d="M4.003 16.014C4 16.079 4 16.169 4 16.333c0 .684.008.83.034.926a1 1 0 0 0 .707.707c.095.026.242.034.926.034h12.667c.685 0 .83-.008.925-.034a1 1 0 0 0 .707-.707c.025-.095.034-.242.034-.926 0-.164 0-.253-.003-.319l-.001-.01-.01-.001C19.921 16 19.831 16 19.667 16H4.334c-.164 0-.253 0-.319.003l-.011.001zm-2.004.252c-.001-.235-.001-.523.068-.784a2 2 0 0 1 1.414-1.415c.261-.07.548-.069.784-.068h15.467c.235-.001.523-.002.784.068.69.185 1.229.724 1.415 1.415.07.261.069.548.068.784v.179c.001.508.001.946-.102 1.331a3 3 0 0 1-2.122 2.121c-.386.104-.823.103-1.331.102H5.553c-.508.001-.946.001-1.331-.102a3 3 0 0 1-2.121-2.121c-.103-.386-.103-.823-.102-1.331v-.179"/></svg>