<svg xmlns="http://www.w3.org/2000/svg" fill="none" viewBox="0 0 24 24"><path fill="currentColor" d="M3.106 16.553a1 1 0 0 1 1.342-.447l7.553 3.776 7.553-3.776a1 1 0 0 1 .895 1.789l-8 4a1 1 0 0 1-.895 0l-8-4a1 1 0 0 1-.446-1.342z"/><path fill="currentColor" d="M3.106 11.553a1 1 0 0 1 1.342-.447l7.553 3.776 7.553-3.776a1.001 1.001 0 0 1 .895 1.789l-8 4a1 1 0 0 1-.895 0l-8-4a1 1 0 0 1-.446-1.342z"/><path fill="currentColor" d="M11.553 2.105a1 1 0 0 1 .895 0l8 4a1.001 1.001 0 0 1 0 1.79l-8 4a1 1 0 0 1-.895 0l-8-4a1.001 1.001 0 0 1 0-1.79zM6.236 7 12 9.882 17.764 7 12 4.118z"/></svg>