<svg xmlns="http://www.w3.org/2000/svg" fill="none" viewBox="0 0 24 24"><path fill="currentColor" d="M12.066 4.527a5.24 5.24 0 0 1 7.402 7.419l-1.762 1.762a.999.999 0 1 1-1.414-1.414l1.762-1.762a3.24 3.24 0 0 0-4.577-4.587L11.705 7.71a1 1 0 1 1-1.412-1.417zm-4.361 5.764c.391.39.393 1.023.003 1.415l-1.765 1.772a3.24 3.24 0 0 0 4.587 4.577l1.762-1.762a1.001 1.001 0 0 1 1.414 1.415l-1.762 1.762a5.241 5.241 0 0 1-7.419-7.402l1.765-1.772a1 1 0 0 1 1.414-.004z"/><path fill="currentColor" d="M14.707 9.293a1 1 0 0 1 0 1.414l-4 4a1.001 1.001 0 0 1-1.414-1.415l4-4a1 1 0 0 1 1.414 0z"/></svg>