<svg xmlns="http://www.w3.org/2000/svg" fill="none" viewBox="0 0 24 24"><path fill="currentColor" d="M10.08 2.4a.96.96 0 1 0-1.92 0v1.92a.96.96 0 1 0 1.92 0zm10.066 1.454a4.8 4.8 0 0 0-6.789 0L11.321 5.89a.96.96 0 1 0 1.358 1.358l2.036-2.036a2.88 2.88 0 1 1 4.073 4.073l-2.036 2.036a.96.96 0 1 0 1.358 1.358l2.036-2.036a4.8 4.8 0 0 0 0-6.789M4.519 3.161A.96.96 0 0 0 3.16 4.52L4.52 5.877a.96.96 0 1 0 1.358-1.358zM2.399 8.16a.96.96 0 0 0 0 1.92h1.92a.96.96 0 1 0 0-1.92zm4.849 4.519A.96.96 0 1 0 5.89 11.32l-2.036 2.036a4.8 4.8 0 1 0 6.789 6.789l2.036-2.036a.96.96 0 1 0-1.358-1.358l-2.036 2.036a2.88 2.88 0 1 1-4.073-4.073zM19.68 13.92a.96.96 0 1 0 0 1.92h1.92a.96.96 0 1 0 0-1.92zm-.2 4.203a.96.96 0 0 0-1.357 1.358l1.358 1.358a.96.96 0 0 0 1.358-1.358zm-3.64 1.557a.96.96 0 1 0-1.92 0v1.92a.96.96 0 1 0 1.92 0z"/></svg>