<svg xmlns="http://www.w3.org/2000/svg" fill="none" viewBox="0 0 24 24"><path fill="currentColor" d="M11 20a1 1 0 0 1 1-1h3.2c.857 0 1.439-.001 1.889-.038.439-.036.662-.101.819-.181.377-.192.683-.498.874-.874.08-.157.145-.38.181-.819.037-.45.037-1.033.037-1.889v-6.4c0-.857-.001-1.439-.037-1.889-.036-.439-.101-.662-.181-.819a2 2 0 0 0-.874-.874c-.157-.08-.38-.145-.819-.181-.45-.037-1.033-.037-1.889-.037H12a1 1 0 0 1 0-2h3.241c.805 0 1.469 0 2.011.044.562.046 1.078.145 1.564.391a4 4 0 0 1 1.748 1.748c.247.485.346 1.002.391 1.564.044.541.044 1.205.044 2.011v6.482c0 .805 0 1.469-.044 2.011-.046.562-.145 1.079-.391 1.565a4 4 0 0 1-1.748 1.748c-.485.247-1.002.346-1.564.391-.542.044-1.205.044-2.011.044H12a1 1 0 0 1-1-1z"/><path fill="currentColor" d="M4 13a1 1 0 0 1 0-2h8.586l-1.293-1.293a1 1 0 1 1 1.415-1.415l3 3a1 1 0 0 1 0 1.415l-3 3a1 1 0 1 1-1.415-1.415l1.293-1.293z"/></svg>