<svg xmlns="http://www.w3.org/2000/svg" fill="none" viewBox="0 0 24 24"><path fill="currentColor" fill-rule="evenodd" d="M1.44 12c0-2.318.747-4.461 2.013-6.203a1 1 0 0 1 .1-.136A10.54 10.54 0 0 1 12 1.44a10.56 10.56 0 0 1 9.705 6.39c.55 1.28.855 2.69.855 4.17 0 5.832-4.728 10.56-10.56 10.56a11 11 0 0 1-1.24-.072C5.512 21.874 1.44 17.413 1.44 12m1.92 0c0-1.373.32-2.67.89-3.823l3.497 6.051a4.8 4.8 0 0 0 4.825 2.538l-2.152 3.73A8.64 8.64 0 0 1 3.36 12m4.226-1.888L5.432 6.386A8.62 8.62 0 0 1 12 3.36a8.63 8.63 0 0 1 7.185 3.84H12c-1.98 0-3.681 1.2-4.414 2.912M16.8 12a4.78 4.78 0 0 0-.96-2.88h4.308a8.64 8.64 0 0 1-7.584 11.502l3.496-6.06c.469-.741.74-1.62.74-2.562m-1.92 0c0 .499-.127.968-.35 1.377l-.04.063-.07.12A2.88 2.88 0 0 1 12 14.88c-1.04 0-1.95-.55-2.457-1.377l-.034-.063-.073-.127A2.88 2.88 0 1 1 14.88 12" clip-rule="evenodd"/></svg>