<svg xmlns="http://www.w3.org/2000/svg" fill="none" viewBox="0 0 24 24"><path fill="currentColor" d="M7.759 4h8.482c.805 0 1.469 0 2.011.044.562.046 1.078.145 1.564.392a4 4 0 0 1 1.748 1.748c.247.485.346 1.002.391 1.564.044.541.044 1.205.044 2.011v4.483c0 .805 0 1.469-.044 2.011-.046.562-.145 1.078-.391 1.564a4 4 0 0 1-1.748 1.748c-.485.247-1.002.346-1.564.391-.542.044-1.205.044-2.011.044H7.759c-.805 0-1.469 0-2.011-.044-.562-.046-1.078-.145-1.564-.391a4 4 0 0 1-1.748-1.748c-.248-.485-.346-1.002-.391-1.564-.044-.542-.044-1.205-.044-2.011V9.759c0-.805 0-1.469.044-2.011.046-.562.145-1.078.392-1.564a4 4 0 0 1 1.748-1.748c.485-.247 1.002-.346 1.564-.391.542-.044 1.205-.044 2.011-.044zM5.911 6.038c-.439.036-.662.101-.819.181a2 2 0 0 0-.874.874c-.08.157-.145.38-.181.819-.037.45-.038 1.033-.038 1.889v4.4c0 .857.001 1.439.038 1.889.036.439.101.662.181.819.192.376.498.682.874.874.157.079.38.145.819.181.45.037 1.033.038 1.889.038h8.4c.856 0 1.439-.001 1.889-.038.439-.036.662-.101.819-.181.377-.192.683-.498.874-.874.08-.157.145-.38.181-.819.037-.45.037-1.033.037-1.889v-4.4c0-.857-.001-1.439-.037-1.889-.036-.439-.101-.662-.181-.819a2 2 0 0 0-.874-.874c-.157-.079-.38-.145-.819-.181C17.639 6.001 17.056 6 16.2 6H7.8c-.856 0-1.438.001-1.889.038"/><path fill="currentColor" d="M6.176 8.434a1 1 0 0 1 1.39-.259l3.869 2.654a1 1 0 0 0 1.132 0l3.869-2.654a.999.999 0 1 1 1.131 1.649l-3.869 2.654a3 3 0 0 1-3.395 0L6.435 9.824a1 1 0 0 1-.259-1.39"/></svg>