<svg xmlns="http://www.w3.org/2000/svg" fill="none" viewBox="0 0 24 24"><path fill="currentColor" d="M17.491 4a.5.5 0 0 1 .429.757l-2.486 4.142c.59.333 1.126.748 1.594 1.231l2.606-4.344c1-1.667-.2-3.786-2.144-3.786h-2.382a3 3 0 0 0-2.544 1.41L11.41 5.257l1.179 1.887L14.26 4.47a1 1 0 0 1 .848-.47z"/><path fill="currentColor" d="M6.07 4.757A.5.5 0 0 1 6.5 4h2.392a1 1 0 0 1 .848.47L11.947 8h.055c.926 0 1.81.18 2.62.507L11.436 3.41A3 3 0 0 0 8.892 2H6.5C4.557 2 3.357 4.12 4.356 5.786l2.61 4.351a7 7 0 0 1 1.592-1.233zM14 15a2 2 0 1 1-4 0 2 2 0 0 1 4 0"/><path fill="currentColor" d="M19 15a7 7 0 1 0-14 0 7 7 0 0 0 14 0m-2 0a5 5 0 1 1-10.001-.001A5 5 0 0 1 17 15"/></svg>