<svg xmlns="http://www.w3.org/2000/svg" fill="none" viewBox="0 0 24 24"><path fill="currentColor" d="M20 8a1 1 0 0 1 0 2h-1v4h1a1 1 0 0 1 0 2h-1.018l-.013.195c-.032.395-.104.788-.296 1.167a3 3 0 0 1-1.311 1.311c-.379.193-.772.264-1.167.296q-.095.008-.195.013V20a1 1 0 0 1-2 0v-1h-4v1a1 1 0 0 1-2 0v-1.018l-.195-.013c-.395-.032-.788-.104-1.167-.296a3 3 0 0 1-1.311-1.311c-.193-.379-.264-.772-.296-1.167L5.018 16H4a1 1 0 0 1 0-2h1v-4H4a1 1 0 0 1 0-2h1.018l.013-.195c.032-.395.104-.788.296-1.167a3 3 0 0 1 1.311-1.311c.379-.193.772-.264 1.167-.296q.094-.008.195-.013V4a1 1 0 0 1 2 0v1h4V4a1 1 0 0 1 2 0v1.018l.195.013c.395.032.788.104 1.167.296a3 3 0 0 1 1.311 1.311c.193.379.264.772.296 1.167q.008.094.013.195zM7.968 7.024c-.271.022-.372.06-.421.085a1 1 0 0 0-.437.437c-.026.05-.063.15-.085.421a17 17 0 0 0-.024 1.232v5.6c0 .577.001.949.024 1.232.022.271.06.372.085.422.096.188.249.341.437.437.05.026.15.063.421.085.284.023.655.024 1.232.024h5.6c.577 0 .949-.001 1.232-.024.271-.023.372-.06.422-.085.188-.096.341-.249.437-.437.025-.049.063-.15.085-.422.023-.283.024-.655.024-1.232v-5.6c0-.577-.001-.949-.024-1.232-.023-.271-.06-.372-.085-.421a1 1 0 0 0-.437-.437c-.05-.026-.15-.063-.422-.085A17 17 0 0 0 14.8 7H9.2c-.577 0-.949.001-1.232.024"/><path fill="currentColor" d="M10 11a1 1 0 0 1 1-1h2a1 1 0 0 1 1 1v2a1 1 0 0 1-1 1h-2a1 1 0 0 1-1-1z"/></svg>