<svg xmlns="http://www.w3.org/2000/svg" fill="none" viewBox="0 0 24 24"><path fill="currentColor" d="M12 22c5.523 0 10-4.477 10-10S17.523 2 12 2 2 6.477 2 12s4.477 10 10 10m5.728-6.671a4.4 4.4 0 0 0 .336-1.697V7.1a1.16 1.16 0 0 0-.425-.901 1.16 1.16 0 0 0-1.076-.214 1.17 1.17 0 0 0-.738.668 1.2 1.2 0 0 0-.088.445v6.533a2.1 2.1 0 0 1-4.203-.001v-3.266a1.16 1.16 0 0 0-.719-1.076 1.16 1.16 0 0 0-.89-.001 1.16 1.16 0 0 0-.631.631 1.2 1.2 0 0 0-.089.446v3.267a4.46 4.46 0 0 0 1.798 3.571 4.44 4.44 0 0 0 2.614.859h.022a4.4 4.4 0 0 0 1.692-.337 4.42 4.42 0 0 0 2.399-2.398zM8.425 9.563c.106-.255.261-.487.457-.681a2.1 2.1 0 0 1 1.485-.616 2.106 2.106 0 0 1 2.114 2.101v.31l.001 2.958c0 .23.068.455.197.646s.31.34.522.429a.3.3 0 0 0 .05.015l.034.01v.006a1.121 1.121 0 0 0 .348.054l.016.002v-.002q.224-.002.434-.086a1.17 1.17 0 0 0 .719-1.075v-3.265a4.4 4.4 0 0 0-.175-1.225l-.018-.06a4.4 4.4 0 0 0-.953-1.682l-.006-.023-.007.007a4.43 4.43 0 0 0-3.335-1.443 4.443 4.443 0 0 0-3.294 1.534 4.43 4.43 0 0 0-1.077 2.893v6.531a1.168 1.168 0 0 0 .341.824c.44.44 1.207.44 1.648 0a1.16 1.16 0 0 0 .341-.823V10.37a2.1 2.1 0 0 1 .16-.805l-.002.002zm9.278-4.403a2.11 2.11 0 0 1 1.298 1.94v6.534a5.34 5.34 0 0 1-.986 3.097 5.35 5.35 0 0 1-6.045 2.004 5.38 5.38 0 0 1-2.766-2.07v.234a2.08 2.08 0 0 1-.616 1.486 2.08 2.08 0 0 1-1.486.616 2.08 2.08 0 0 1-1.486-.616A2.1 2.1 0 0 1 5 16.899v-6.532a5.35 5.35 0 0 1 .986-3.098 5.35 5.35 0 0 1 2.592-1.963 5.37 5.37 0 0 1 3.456-.041 5.4 5.4 0 0 1 2.767 2.072v-.236c0-.275.054-.548.159-.803s.26-.486.455-.68A2.08 2.08 0 0 1 16.898 5c.276 0 .55.054.805.16"/></svg>