<svg xmlns="http://www.w3.org/2000/svg" fill="none" viewBox="0 0 24 24"><path fill="currentColor" d="M12 22c5.523 0 10-4.477 10-10S17.523 2 12 2 2 6.477 2 12s4.477 10 10 10m.887-15.871a6.22 6.22 0 0 1 3.771 2.455 28.5 28.5 0 0 0-3.472 1.238c-3.272 1.457-5.847 3.392-7.004 5.069a5.9 5.9 0 0 1-.439-4.43 6.1 6.1 0 0 1 2.714-3.572 6.14 6.14 0 0 1 4.43-.758zm2.714 3.292c.878-.38 1.756-.738 2.674-1.018l-1.197.818a6.26 6.26 0 0 1 .798 3.791 6.2 6.2 0 0 1-1.616 3.532 6.1 6.1 0 0 1-3.392 1.856 6 6 0 0 1-3.812-.559 1.8 1.8 0 0 1-.838-.838c-.878-1.936 2.434-5.328 7.383-7.582"/></svg>