<svg xmlns="http://www.w3.org/2000/svg" fill="none" viewBox="0 0 24 24"><path fill="currentColor" d="M20.858 6.923c-1.296.395-2.536.902-3.775 1.437-6.986 3.183-11.662 7.973-10.423 10.705.253.507.648.93 1.183 1.183a8.47 8.47 0 0 0 5.38.789c1.83-.338 3.521-1.24 4.789-2.62s2.084-3.127 2.282-4.986a8.85 8.85 0 0 0-1.127-5.353z"/><path fill="currentColor" d="M18.576 7.177a8.78 8.78 0 0 0-5.324-3.465 8.68 8.68 0 0 0-6.254 1.07 8.6 8.6 0 0 0-3.831 5.042 8.33 8.33 0 0 0 .619 6.254c1.634-2.366 5.268-5.099 9.888-7.156a41 41 0 0 1 4.902-1.747z"/></svg>