<svg xmlns="http://www.w3.org/2000/svg" fill="none" viewBox="0 0 24 24"><g clip-path="url(#a)"><path fill="currentColor" d="M19.361 18.227c1.391-2.802.87-6.2-1.315-8.813l1.993-4.013 1.825.907.806-1.624L11.712-.758 10.906.866l1.826.907-1.993 4.012c-3.402-.161-6.424 1.477-7.816 4.279-2 4.027.06 9.142 4.589 11.391s9.848.8 11.849-3.228m-4.167-6.12c-1.524-.757-2.608-.616-3.47-.509-.754.093-1.301.165-2.213-.287-.914-.454-1.188-.934-1.559-1.583-.225-.375-.459-.795-.833-1.213 1.21-.695 2.685-1.006 4.247-.826l.669.076 2.524-5.084 3.653 1.814-2.525 5.084.466.485c1.414 1.483 2.081 3.352 1.945 5.137a7 7 0 0 1-.411-.638c-.436-.755-.979-1.703-2.494-2.456z"/></g><defs><clipPath id="a"><path fill="currentColor" d="M0 0h24v24H0z"/></clipPath></defs></svg>