<svg xmlns="http://www.w3.org/2000/svg" fill="none" viewBox="0 0 24 24"><path fill="currentColor" d="M12 22c5.523 0 10-4.477 10-10S17.523 2 12 2 2 6.477 2 12s4.477 10 10 10m4.283-11.832c1.547 1.851 1.917 4.258.931 6.243-1.417 2.853-5.185 3.879-8.393 2.286s-4.667-5.215-3.25-8.068c.986-1.985 3.127-3.146 5.536-3.031l1.412-2.843-1.293-.642.572-1.15 7.762 3.855-.571 1.15-1.293-.642-1.412 2.843-.002-.001zm-4.47 1.547c.609-.077 1.375-.173 2.449.361 1.069.531 1.455 1.199 1.763 1.733l.004.007c.101.171.189.316.292.452.097-1.264-.376-2.588-1.378-3.639l-.33-.344 1.789-3.601-2.588-1.286-1.789 3.601-.474-.054c-1.106-.128-2.152.093-3.008.585.236.264.394.529.538.772l.053.088.001.001c.263.46.457.8 1.104 1.12.641.319 1.028.271 1.556.205l.02-.002z"/></svg>