<svg xmlns="http://www.w3.org/2000/svg" fill="none" viewBox="0 0 24 24"><path fill="currentColor" d="M3 16.125v2.813c0 .517.42.937.938.937h10.75c.517 0 .937-.42.937-.937v-2.813c-3.281-2.812 0-3.75-3.75-3.75H6.75A3.75 3.75 0 0 0 3 16.125M13.75 6.75a3.75 3.75 0 1 1-7.5 0 3.75 3.75 0 0 1 7.5 0"/><path fill="currentColor" fill-rule="evenodd" d="M21.7 12.676C21.7 10.646 20.088 9 18.1 9s-3.6 1.646-3.6 3.676c0 1.36.724 2.549 1.8 3.184v3.302a.62.62 0 0 0 .176.434l1.2 1.224c.234.24.614.24.848 0l1.2-1.225a.62.62 0 0 0 .176-.433V15.86a3.69 3.69 0 0 0 1.8-3.184m-3.6-1.225c.663 0 1.2.548 1.2 1.225s-.537 1.225-1.2 1.225-1.2-.548-1.2-1.225.537-1.225 1.2-1.225" clip-rule="evenodd"/></svg>