<svg xmlns="http://www.w3.org/2000/svg" fill="none" viewBox="0 0 24 24"><path fill="currentColor" fill-rule="evenodd" d="M14.657 1.694a1.92 1.92 0 0 0-1.435.277c-.318.21-.508.502-.64.747-.128.235-.256.533-.393.855L11.15 5.997l-.028.063-.01.024-.008.016-.077.077L9.53 7.675l-.122.12-.001.002h-.004l-.168.036-3.563.713c-.42.084-.798.16-1.094.247-.298.089-.683.234-.975.563-.373.42-.542.982-.466 1.536v.001c.06.435.3.77.499 1.01.199.239.473.512.777.816l2.752 2.753-4.753 4.752a.96.96 0 1 0 1.358 1.358l4.753-4.753 2.75 2.751c.305.305.579.578.818.777.238.199.574.439 1.009.499h.001a1.92 1.92 0 0 0 1.535-.465l.001-.001c.329-.292.474-.677.563-.975.088-.296.163-.674.247-1.094l.713-3.564.035-.167.001-.003.002-.002c.02-.021.046-.049.097-.1l.023-.022 1.498-1.498.015-.015.062-.062h.001l.005-.003.098-.043h.001l2.422-1.038c.322-.138.62-.265.855-.392.245-.133.538-.324.748-.643a1.92 1.92 0 0 0 .276-1.433v-.002c-.077-.374-.278-.659-.456-.872-.17-.204-.398-.432-.643-.678L16.2 2.786c-.242-.243-.468-.468-.67-.636-.212-.177-.498-.38-.872-.456zm-3.544 4.39 2.11-4.113-2.116 4.127v-.001zm3.219-2.554s-.018.02-.054.045l.189-.94-.192.94c-.043-.008-.068-.022-.068-.022s.023.013.075.056l-.012.021c-.079.147-.172.362-.328.728l-1.027 2.395-.012.028a1.955 1.955 0 0 1-.501.737l-1.514 1.515-.025.025c-.096.096-.215.215-.356.314l-.004.003c-.117.081-.25.155-.4.213-.16.061-.324.094-.454.12l-3.555.711a13 13 0 0 0-1.006.226l.024.03c.135.162.345.373.688.716l6.802 6.802a13 13 0 0 0 .746.712l.007-.024.004-.012c.06-.203.12-.494.215-.97l.704-3.518.006-.034c.027-.133.06-.298.122-.459q.085-.216.212-.398l.002-.004c.1-.141.22-.26.315-.356l.025-.025 1.514-1.514c.061-.061.139-.139.228-.209q.109-.087.24-.162l.005-.004c.096-.053.191-.094.277-.132l.016-.006 2.395-1.026c.366-.157.58-.25.727-.33l.023-.012-.016-.02a10 10 0 0 0-.554-.575L14.88 4.178a11 11 0 0 0-.577-.553l-.02-.016a1 1 0 0 1 .05-.08" clip-rule="evenodd"/></svg>