<svg xmlns="http://www.w3.org/2000/svg" fill="none" viewBox="0 0 24 24"><path stroke="currentColor" stroke-linecap="round" stroke-linejoin="round" stroke-width="1.92" d="M6.72 6.72h.01m10.55 0h.01M6.72 17.28h.01m6.23-4.32h.01m4.31 4.32h.01m-.49 3.36h3.84V16.8m-6.72-.48v4.32m6.72-6.72h-4.32m-.864-3.84h3.648c.538 0 .806 0 1.012-.105a.96.96 0 0 0 .42-.42c.105-.205.105-.474.105-1.012V4.895c0-.538 0-.806-.105-1.012a.96.96 0 0 0-.42-.42c-.205-.105-.474-.105-1.012-.105h-3.648c-.538 0-.806 0-1.012.105a.96.96 0 0 0-.42.42c-.105.205-.105.474-.105 1.012v3.648c0 .538 0 .806.105 1.012a.96.96 0 0 0 .42.42c.205.105.474.105 1.012.105m-10.56 0h3.648c.538 0 .806 0 1.012-.105a.96.96 0 0 0 .42-.42c.105-.205.105-.474.105-1.012V4.895c0-.538 0-.806-.105-1.012a.96.96 0 0 0-.42-.42c-.205-.105-.474-.105-1.012-.105H4.896c-.538 0-.806 0-1.012.105a.96.96 0 0 0-.42.42c-.105.205-.105.474-.105 1.012v3.648c0 .538 0 .806.105 1.012a.96.96 0 0 0 .42.42c.205.105.474.105 1.012.105m0 10.56h3.648c.538 0 .806 0 1.012-.105a.96.96 0 0 0 .42-.42c.105-.205.105-.474.105-1.012v-3.648c0-.538 0-.806-.105-1.012a.96.96 0 0 0-.42-.42c-.205-.105-.474-.105-1.012-.105H4.896c-.538 0-.806 0-1.012.105a.96.96 0 0 0-.42.42c-.105.205-.105.474-.105 1.012v3.648c0 .538 0 .806.105 1.012a.96.96 0 0 0 .42.42c.205.105.474.105 1.012.105"/></svg>