<svg xmlns="http://www.w3.org/2000/svg" fill="none" viewBox="0 0 24 24"><path fill="currentColor" d="M12 4a8 8 0 1 0 0 16 8 8 0 0 0 0-16M2 12C2 6.477 6.478 2 12 2s10 4.478 10 10-4.477 10-10 10S2 17.523 2 12"/><path fill="currentColor" d="M11.133 9.501a1.001 1.001 0 0 1-1.732-1.002A3 3 0 0 1 14.999 10c0 1.098-.674 1.994-1.5 2.5-.664.407-.25 1.5-1.502 1.5a1 1 0 0 1-.995-1.104c.028-.529.263-.959.521-1.272.271-.331.628-.6.9-.762 1.516-.902-.333-2.747-1.29-1.361M11.998 15a1 1 0 1 0 0 2 1 1 0 0 0 0-2"/></svg>