<svg xmlns="http://www.w3.org/2000/svg" fill="none" viewBox="0 0 24 24"><path fill="currentColor" stroke="currentColor" d="M8.3 21.15a.5.5 0 0 1-.6 0l-1.716-1.287-1.663 1.386a.5.5 0 0 1-.82-.384V3.135a.5.5 0 0 1 .82-.384l1.663 1.386L7.7 2.85a.5.5 0 0 1 .6 0L10 4.125l1.7-1.275a.5.5 0 0 1 .6 0L14 4.125l1.7-1.275a.5.5 0 0 1 .6 0l1.716 1.287 1.663-1.386a.5.5 0 0 1 .82.384v17.73a.5.5 0 0 1-.82.384l-1.663-1.386L16.3 21.15a.5.5 0 0 1-.6 0L14 19.875l-1.7 1.275a.5.5 0 0 1-.6 0L10 19.875zM8 8.5a1.5 1.5 0 1 0 0 3h8a1.5 1.5 0 1 0 0-3zm0 4a1.5 1.5 0 1 0 0 3h4a1.5 1.5 0 1 0 0-3z"/></svg>