<svg xmlns="http://www.w3.org/2000/svg" fill="none" viewBox="0 0 24 24"><path fill="currentColor" d="M6.57 6.57a7.68 7.68 0 0 1 12.92 3.723.96.96 0 1 0 1.872-.426 9.57 9.57 0 0 0-2.573-4.655c-3.75-3.749-9.827-3.749-13.577 0A49 49 0 0 0 3.36 7.156V4.32a.96.96 0 1 0-1.92 0v5.76c0 .53.43.96.96.96h5.76a.96.96 0 1 0 0-1.92H4.2c.491-.592 1.238-1.42 2.37-2.55m-2.06 7.137a.96.96 0 0 0-1.872.426 9.57 9.57 0 0 0 2.573 4.655c3.75 3.749 9.827 3.749 13.577 0a49 49 0 0 0 1.852-1.944v2.836a.96.96 0 1 0 1.92 0v-5.76a.96.96 0 0 0-.96-.96h-5.76a.96.96 0 1 0 0 1.92h3.96c-.491.592-1.238 1.42-2.37 2.55a7.68 7.68 0 0 1-12.92-3.723"/></svg>