<svg xmlns="http://www.w3.org/2000/svg" fill="none" viewBox="0 0 24 24"><path fill="currentColor" fill-rule="evenodd" d="m21.424 9.736.785-4.709c.325-1.95-1.366-3.639-3.314-3.315l-.05.01-4.66.776A3.3 3.3 0 0 0 12.317 3.5L9.084 6.955l-2.176-.726a1.92 1.92 0 0 0-1.849.357l-2.742 2.32c-1.125.951-.802 2.759.576 3.268l1.739.64a5.43 5.43 0 0 0 .874 4.323L3.16 19.48A.96.96 0 0 0 4.52 20.84l2.358-2.358a5.43 5.43 0 0 0 4.232.809l.641 1.739c.508 1.38 2.318 1.7 3.268.576l2.322-2.744c.43-.51.567-1.21.355-1.846l-.726-2.178 3.452-3.23a3.3 3.3 0 0 0 1.003-1.871M7.641 8.497l1.443-1.542.584.194a.96.96 0 0 1-.608 1.822zm-4.084 1.875 1.818.67a5.5 5.5 0 0 1 .592-.756l1.674-1.789-1.34-.446zm0-.002-.001.001h-.003l.002.001-.001.003.002-.002-.331.9.332-.899v-.006m16.758-5.657a.96.96 0 0 0-1.103-1.104l-3.263.544a23 23 0 0 1 3.821 3.828zm-3.714 2.586a21 21 0 0 0-2.926-2.439l-6.306 6.74a3.51 3.51 0 0 0-.476 4.151l5.388-5.388a.96.96 0 1 1 1.358 1.358l-5.366 5.365a3.51 3.51 0 0 0 4.051-.531l6.735-6.3a21 21 0 0 0-2.458-2.956m-3.05 13.068-.67-1.819a5.5 5.5 0 0 0 .755-.591l1.79-1.675.447 1.341v.002z" clip-rule="evenodd"/></svg>