<svg xmlns="http://www.w3.org/2000/svg" fill="none" viewBox="0 0 24 24"><path fill="currentColor" d="M3.327 4.638a3 3 0 0 1 1.311-1.311C5.28 3 6.12 3 7.8 3h8.4c1.68 0 2.52 0 3.162.327a3 3 0 0 1 1.311 1.311C21 5.28 21 6.12 21 7.8v6.4c0 1.68 0 2.52-.327 3.162a3 3 0 0 1-1.311 1.311c-.356.181-.774.263-1.362.299v1.029a1 1 0 0 1-2 0v-1H8v1a1 1 0 0 1-2 0v-1.029c-.588-.036-1.006-.117-1.362-.299a3 3 0 0 1-1.311-1.311C3 16.72 3 15.88 3 14.2V7.8c0-1.68 0-2.52.327-3.162M13 11a1 1 0 1 1-2 0 1 1 0 0 1 2 0m-3.829 1A3 3 0 0 0 11 13.829V15a1 1 0 0 0 2 0v-1.171A3 3 0 0 0 14.829 12H16a1 1 0 0 0 0-2h-1.171A3 3 0 0 0 13 8.171V7a1 1 0 0 0-2 0v1.171A3 3 0 0 0 9.171 10H8a1 1 0 0 0 0 2z"/></svg>