<svg xmlns="http://www.w3.org/2000/svg" fill="none" viewBox="0 0 24 24"><path fill="currentColor" d="M16.519 7.481a.96.96 0 0 0-1.358 0l-7.68 7.68A.96.96 0 1 0 8.84 16.52l7.68-7.68a.96.96 0 0 0 0-1.358M9.12 7.68a1.44 1.44 0 1 0 0 2.88 1.44 1.44 0 0 0 0-2.88m5.76 5.76a1.44 1.44 0 1 0 0 2.88 1.44 1.44 0 0 0 0-2.88"/><path fill="currentColor" fill-rule="evenodd" d="M15.009 2.548a4.64 4.64 0 0 0-6.017 0 2.73 2.73 0 0 1-1.548.641 4.64 4.64 0 0 0-4.255 4.255 2.7 2.7 0 0 1-.64 1.546 4.64 4.64 0 0 0 0 6.018c.37.435.594.975.64 1.546a4.64 4.64 0 0 0 4.255 4.255c.57.045 1.112.27 1.547.64a4.64 4.64 0 0 0 6.018 0c.434-.37.975-.594 1.546-.64a4.64 4.64 0 0 0 4.255-4.255c.045-.57.27-1.11.64-1.546a4.64 4.64 0 0 0 0-6.018 2.72 2.72 0 0 1-.64-1.546 4.64 4.64 0 0 0-4.255-4.255 2.7 2.7 0 0 1-1.546-.64M10.237 4.01a2.72 2.72 0 0 1 3.526 0 4.64 4.64 0 0 0 2.64 1.093 2.72 2.72 0 0 1 2.493 2.494 4.64 4.64 0 0 0 1.093 2.639 2.72 2.72 0 0 1 0 3.526 4.64 4.64 0 0 0-1.093 2.64 2.72 2.72 0 0 1-2.494 2.493 4.64 4.64 0 0 0-2.639 1.093 2.72 2.72 0 0 1-3.526 0 4.64 4.64 0 0 0-2.641-1.093 2.72 2.72 0 0 1-2.493-2.494 4.64 4.64 0 0 0-1.093-2.639 2.72 2.72 0 0 1 0-3.526 4.64 4.64 0 0 0 1.093-2.64 2.72 2.72 0 0 1 2.494-2.493 4.65 4.65 0 0 0 2.64-1.093" clip-rule="evenodd"/></svg>