<svg xmlns="http://www.w3.org/2000/svg" fill="none" viewBox="0 0 24 24"><path fill="currentColor" fill-rule="evenodd" d="M11.52 2.4a4.32 4.32 0 0 1 4.272 3.676L17.5 5.59c.144-.042.307-.088.45-.116.16-.03.405-.061.68.016l.006.001c.34.098.638.318.829.628.15.244.188.49.202.65.013.145.013.313.013.462v1.026a6.7 6.7 0 0 1 1.273 1.823c.088 0 .182.002.269.009.133.01.323.037.524.134.296.143.53.379.67.67.099.202.126.393.136.527.01.115.009.245.009.354v3.321c0 .115 0 .251-.01.371-.011.14-.04.338-.145.546-.14.277-.364.496-.63.632l-.004.002a1.5 1.5 0 0 1-.546.145c-.12.01-.256.01-.37.01h-.461a6.74 6.74 0 0 1-2.635 2.233v.861c0 .115 0 .251-.01.371-.011.14-.04.338-.145.546-.14.277-.364.496-.63.632l-.004.002a1.5 1.5 0 0 1-.546.145c-.12.01-.256.01-.37.01h-1.87c-.114 0-.25 0-.37-.01a1.5 1.5 0 0 1-.546-.145l-.004-.002a1.44 1.44 0 0 1-.628-.628l-.002-.004a1.5 1.5 0 0 1-.145-.546c-.01-.12-.01-.256-.01-.37v-.215h-.96v.214c0 .115 0 .251-.01.371-.011.14-.04.338-.145.546-.14.277-.364.496-.63.632l-.004.002a1.5 1.5 0 0 1-.546.145c-.12.01-.256.01-.37.01h-1.87c-.114 0-.25 0-.37-.01a1.5 1.5 0 0 1-.546-.145 1.44 1.44 0 0 1-.632-.63l-.002-.004a1.5 1.5 0 0 1-.145-.546c-.01-.12-.01-.256-.01-.37v-2.232a6.7 6.7 0 0 1-1.852-3.743H4.32a2.88 2.88 0 0 1-1.44-5.374.96.96 0 0 1 .96 1.662A.96.96 0 0 0 4.32 12h.068a6.72 6.72 0 0 1 2.866-4.593A4.32 4.32 0 0 1 11.52 2.4m-2.4 4.32a2.4 2.4 0 1 1 4.787.25 1 1 0 0 0-.026.183A2.4 2.4 0 0 1 9.12 6.72m6.545 1.39-.058.014a4.321 4.321 0 0 1-7.598 1.114A4.79 4.79 0 0 0 6.24 12.96c0 1.318.53 2.511 1.391 3.38l.016.015c.076.076.204.203.297.352l.006.01c.083.136.134.267.168.404l.003.012c.041.172.04.35.04.439l-.001.025v2.083H9.6v-.214c0-.115 0-.25.01-.371.011-.14.04-.337.145-.546l.002-.004c.138-.27.358-.49.628-.628l.004-.002c.208-.105.407-.134.546-.145.12-.01.256-.01.37-.01h1.39c.114 0 .25 0 .37.01.14.011.338.04.546.145l.004.002c.266.136.49.355.63.632.105.208.134.407.145.546.01.12.01.256.01.37v.215h1.44v-.783c-.002-.132-.005-.401.082-.647l-.001.002.907.314-.903-.324-.003.008a1.4 1.4 0 0 1 .7-.8c.078-.041.172-.085.256-.124l.02-.01a4.8 4.8 0 0 0 1.943-1.645l.002-.003.013-.019c.042-.06.09-.13.134-.188a1.395 1.395 0 0 1 .746-.522l.27.921-.275-.92c.212-.063.44-.061.55-.06h.36v-2.882a1.7 1.7 0 0 1-.452-.073l-.003-.001a1.4 1.4 0 0 1-.818-.71 6 6 0 0 1-.117-.242l-.011-.024a4.8 4.8 0 0 0-.951-1.369l-.016-.015c-.076-.076-.204-.203-.297-.352l-.006-.01a1.4 1.4 0 0 1-.168-.404l-.003-.012c-.041-.172-.04-.351-.04-.44l.001-.024v-.811l-2.033.581-.027.008zM21 10.232l-.003-.003-.014-.088.006.011.08.168.002.005-.004-.007-.005-.007a1 1 0 0 0-.062-.079" clip-rule="evenodd"/></svg>