<svg xmlns="http://www.w3.org/2000/svg" fill="none" viewBox="0 0 24 24"><path stroke="currentColor" stroke-linecap="round" stroke-linejoin="round" stroke-width="2" d="M12 3v17m0 0H7m5 0h5M3 6h4.528a2 2 0 0 0 .894-.211l1.156-.578A2 2 0 0 1 10.472 5h3.056a2 2 0 0 1 .894.211l1.156.578a2 2 0 0 0 .894.211H21M5.5 6l-2.48 7.439c-.302.907.07 1.944.985 2.218 1.007.3 1.983.3 2.99 0 .916-.274 1.287-1.311.985-2.218zm13 0-2.48 7.439c-.302.907.07 1.944.985 2.218 1.007.3 1.983.3 2.99 0 .916-.274 1.287-1.311.985-2.218z"/></svg>