<svg xmlns="http://www.w3.org/2000/svg" fill="none" viewBox="0 0 24 24"><path fill="currentColor" d="M3 12a1 1 0 0 1 1-1h16a1 1 0 0 1 0 2H4a1 1 0 0 1-1-1m5-9h-.137c-.796-.001-1.386-.001-1.897.136a4 4 0 0 0-2.828 2.828c-.137.512-.137 1.103-.137 1.897v.137a1 1 0 0 0 2 0c0-.994.008-1.295.068-1.518a2 2 0 0 1 1.415-1.414c.222-.059.524-.068 1.518-.068a1 1 0 0 0 0-2l-.001.001zm8 18h.137c.796.001 1.386.001 1.898-.136a4 4 0 0 0 2.828-2.828c.137-.512.137-1.102.137-1.898v-.137a1 1 0 0 0-2 0c0 .995-.008 1.295-.068 1.517a2 2 0 0 1-1.414 1.415c-.222.059-.524.068-1.517.068a1 1 0 0 0 0 2zM3 16.138v-.137a1 1 0 0 1 2 0c0 .995.008 1.295.068 1.517.185.69.724 1.229 1.415 1.415.222.059.524.068 1.518.068a1 1 0 0 1 0 2h-.137c-.795.001-1.386.001-1.897-.136a4 4 0 0 1-2.828-2.828c-.137-.511-.137-1.102-.137-1.898zM21 8v-.138c.001-.795.001-1.386-.136-1.897a4 4 0 0 0-2.828-2.828c-.512-.137-1.102-.136-1.898-.136h-.137a1 1 0 0 0 0 2c.995 0 1.295.008 1.517.068.69.185 1.229.724 1.415 1.414.059.222.068.524.068 1.518a1 1 0 0 0 2 0z"/></svg>