<svg xmlns="http://www.w3.org/2000/svg" fill="none" viewBox="0 0 24 24"><path fill="currentColor" d="M11.5 2h1A1.5 1.5 0 0 1 14 3.5v.365c0 .228.155.426.373.494q.707.22 1.352.561a.52.52 0 0 0 .613-.085l.258-.258a1.5 1.5 0 0 1 2.121 0l.707.707a1.5 1.5 0 0 1 0 2.121l-.258.258a.52.52 0 0 0-.085.613q.341.645.561 1.353a.52.52 0 0 0 .494.373h.365a1.5 1.5 0 0 1 1.5 1.5v1a1.5 1.5 0 0 1-1.5 1.5h-.365a.52.52 0 0 0-.494.373 8 8 0 0 1-.561 1.352.52.52 0 0 0 .085.613l.258.258a1.5 1.5 0 0 1 0 2.121l-.707.707a1.5 1.5 0 0 1-2.121 0l-.258-.258a.52.52 0 0 0-.613-.085 8 8 0 0 1-1.352.561.52.52 0 0 0-.373.494v.364a1.5 1.5 0 0 1-1.5 1.5h-1a1.5 1.5 0 0 1-1.5-1.5v-.364a.52.52 0 0 0-.373-.494 8 8 0 0 1-1.353-.561.52.52 0 0 0-.613.085l-.258.258a1.5 1.5 0 0 1-2.12 0l-.708-.707a1.5 1.5 0 0 1 0-2.121l.258-.258a.52.52 0 0 0 .085-.613 8 8 0 0 1-.561-1.352.52.52 0 0 0-.494-.373h-.365a1.5 1.5 0 0 1-1.5-1.5v-1a1.5 1.5 0 0 1 1.5-1.5h.365a.52.52 0 0 0 .494-.373q.22-.707.561-1.353a.52.52 0 0 0-.085-.613l-.258-.258a1.5 1.5 0 0 1 0-2.121l.707-.707a1.5 1.5 0 0 1 2.121 0l.258.258a.52.52 0 0 0 .613.085 8 8 0 0 1 1.353-.561.52.52 0 0 0 .373-.494V3.5A1.5 1.5 0 0 1 11.5 2m.5 13a3 3 0 1 0 0-6 3 3 0 0 0 0 6"/></svg>