<svg width="25" height="25" viewBox="0 0 25 25" fill="none" xmlns="http://www.w3.org/2000/svg">
<path d="M3.50391 14.8398H2.51953V13.8555H3.50391V14.8398Z" fill="black"/>
<path d="M9.10156 13.75C9.10156 13.987 9.04818 14.1797 8.94141 14.3281C8.83464 14.4766 8.69661 14.5964 8.52734 14.6875C8.36068 14.7786 8.17318 14.8411 7.96484 14.875C7.75911 14.9115 7.55729 14.9297 7.35938 14.9297C7.02865 14.9297 6.69922 14.8815 6.37109 14.7852C6.04297 14.6888 5.75911 14.5625 5.51953 14.4062L5.85547 13.7422C6.14193 13.9089 6.40365 14.0273 6.64062 14.0977C6.88021 14.1654 7.11979 14.1992 7.35938 14.1992C7.6849 14.1992 7.92188 14.1654 8.07031 14.0977C8.21875 14.0273 8.29297 13.931 8.29297 13.8086C8.29297 13.7487 8.27214 13.6992 8.23047 13.6602C8.1888 13.6211 8.11979 13.5859 8.02344 13.5547C7.92708 13.5208 7.79948 13.4883 7.64062 13.457C7.48438 13.4232 7.28906 13.388 7.05469 13.3516C6.86719 13.3203 6.6888 13.2826 6.51953 13.2383C6.35286 13.1914 6.20573 13.1263 6.07812 13.043C5.95052 12.9596 5.84766 12.8542 5.76953 12.7266C5.69401 12.599 5.65625 12.4388 5.65625 12.2461C5.65625 12.0508 5.70573 11.8815 5.80469 11.7383C5.90625 11.5924 6.03776 11.4727 6.19922 11.3789C6.36328 11.2852 6.54688 11.2174 6.75 11.1758C6.95312 11.1341 7.15625 11.1133 7.35938 11.1133C7.64583 11.1133 7.92318 11.151 8.19141 11.2266C8.46224 11.2995 8.69922 11.4049 8.90234 11.543L8.58203 12.168C8.37891 12.0404 8.18099 11.9544 7.98828 11.9102C7.79818 11.8633 7.58854 11.8398 7.35938 11.8398C7.26302 11.8398 7.16276 11.8451 7.05859 11.8555C6.95443 11.8659 6.85807 11.8867 6.76953 11.918C6.68099 11.9466 6.60677 11.987 6.54688 12.0391C6.48958 12.0885 6.46094 12.1497 6.46094 12.2227C6.46094 12.319 6.54557 12.3984 6.71484 12.4609C6.88672 12.5208 7.17839 12.5807 7.58984 12.6406C7.8138 12.6719 8.01823 12.7122 8.20312 12.7617C8.38802 12.8086 8.54688 12.8737 8.67969 12.957C8.8125 13.0378 8.91536 13.1432 8.98828 13.2734C9.0638 13.401 9.10156 13.5599 9.10156 13.75Z" fill="black"/>
<path d="M13.375 14.8398H12.5664V12.5938C12.5664 12.3099 12.513 12.1133 12.4062 12.0039C12.2995 11.8945 12.1445 11.8398 11.9414 11.8398C11.6419 11.8398 11.3971 11.9609 11.207 12.2031C11.0195 12.4453 10.9258 12.7799 10.9258 13.207V14.8398H10.1172V11.1992H10.9258V12.1133C11.0065 11.7982 11.1562 11.5534 11.375 11.3789C11.5938 11.2018 11.8633 11.1133 12.1836 11.1133C12.556 11.1133 12.8477 11.2344 13.0586 11.4766C13.2695 11.7188 13.375 12.0911 13.375 12.5938V14.8398Z" fill="black"/>
<path d="M17.8438 12.0625C17.7474 12.0156 17.6484 11.9805 17.5469 11.957C17.4479 11.931 17.3333 11.918 17.2031 11.918C17.0234 11.918 16.8542 11.9453 16.6953 12C16.5391 12.0521 16.4036 12.1315 16.2891 12.2383C16.1745 12.3451 16.0846 12.4792 16.0195 12.6406C15.957 12.7995 15.9258 12.9883 15.9258 13.207V14.1133H16.7422V14.8398H14.293V14.1133H15.1172V11.9297H14.293V11.1992H15.9258V12.1133C16.0586 11.7487 16.2539 11.4909 16.5117 11.3398C16.7721 11.1888 17.0807 11.1133 17.4375 11.1133C17.5495 11.1133 17.6667 11.125 17.7891 11.1484C17.9115 11.1719 18.0312 11.2135 18.1484 11.2734L17.8438 12.0625Z" fill="black"/>
<path d="M21.6992 9.50391L22.3008 9.80078L19.3086 15.8242L18.707 15.5273L21.6992 9.50391Z" fill="black"/>
</svg>
