<svg xmlns="http://www.w3.org/2000/svg" fill="none" viewBox="0 0 24 24"><path fill="currentColor" d="M12 2.247c-5.523 0-10 4.477-10 10.001 0 4.391 2.831 8.122 6.767 9.466l.07.021c.5.088.688-.212.688-.475 0-.238-.013-1.025-.013-1.862-2.513.463-3.163-.613-3.362-1.175a3.66 3.66 0 0 0-1.02-1.409l-.005-.005c-.35-.188-.85-.65-.013-.662a2 2 0 0 1 1.532 1.015l.005.011a2.14 2.14 0 0 0 2.922.82l-.011.005c.046-.529.281-.995.637-1.337l.001-.001c-2.225-.25-4.55-1.112-4.55-4.937l-.001-.055c0-1.016.39-1.942 1.028-2.636l-.002.003a3.591 3.591 0 0 1 .109-2.673l-.009.022s.838-.262 2.75 1.025a9.2 9.2 0 0 1 2.5-.337c.89 0 1.751.123 2.567.353l-.067-.016c1.913-1.3 2.75-1.025 2.75-1.025a3.595 3.595 0 0 1 .092 2.675l.008-.025a3.85 3.85 0 0 1 1.025 2.623l-.001.068v-.004c0 3.838-2.338 4.688-4.562 4.937a2.36 2.36 0 0 1 .675 1.858l.001-.008c0 1.337-.013 2.413-.013 2.75 0 .262.188.575.688.475 3.994-1.374 6.812-5.099 6.812-9.482 0-5.524-4.477-10.002-10-10.005v-.002z"/></svg>