<svg xmlns="http://www.w3.org/2000/svg" fill="none" viewBox="0 0 24 24"><path fill="currentColor" d="M20.47 2H3.51a1.45 1.45 0 0 0-1.45 1.429v17.14a1.45 1.45 0 0 0 1.45 1.43h16.981c.793 0 1.438-.638 1.45-1.429V3.43A1.45 1.45 0 0 0 20.491 2h-.021M8.09 18.74h-3v-9h3zM6.59 8.48a1.56 1.56 0 1 1 0-3.12 1.57 1.57 0 1 1-.008 3.12zm12.32 10.26h-3v-4.83c0-1.21-.43-2-1.52-2a1.65 1.65 0 0 0-1.536 1.079L12.85 13a2 2 0 0 0-.101.734v-.005 5h-3v-9h3v1.27a3 3 0 0 1 2.715-1.5h-.005c2 0 3.45 1.29 3.45 4.06z"/></svg>