<svg xmlns="http://www.w3.org/2000/svg" fill="none" viewBox="0 0 24 24"><path fill="currentColor" d="M2.88 16.88A3 3 0 0 0 2.002 19c0 .828.335 1.577.878 2.12a3 3 0 0 0 2.12.878c.828 0 1.577-.335 2.12-.878a3 3 0 0 0-4.242-4.238zl-.001-.001zm2.83 2.83a1.005 1.005 0 1 1-1.42-1.422 1.005 1.005 0 0 1 1.42 1.422M5 12a1 1 0 0 0 0 2 5 5 0 0 1 5 5 1 1 0 0 0 2 0 7 7 0 0 0-7-7m0-4a1 1 0 0 0 0 2 9 9 0 0 1 9 9 1 1 0 0 0 2 0 11.04 11.04 0 0 0-3.221-7.78l.001.001a11.05 11.05 0 0 0-7.778-3.22zm10.61.39A15.06 15.06 0 0 0 5.002 4H5a1 1 0 0 0 0 2c7.18 0 13 5.82 13 13a1 1 0 0 0 2 0 15.07 15.07 0 0 0-4.39-10.611l.002.002z"/></svg>