<svg xmlns="http://www.w3.org/2000/svg" fill="none" viewBox="0 0 24 24"><path fill="currentColor" d="M12 2a9 9 0 0 0-.35-.006C6.321 1.994 2 6.315 2 11.644v.059-.003l-.001.118a9.48 9.48 0 0 0 3.133 7.054l.008.008a.8.8 0 0 1 .27.558v1.782a.81.81 0 0 0 1.135.708l-.005.002 2-.87a.757.757 0 0 1 .535.002l-.005-.002c.859.242 1.847.38 2.867.38h.035-.002.015c5.368 0 9.72-4.352 9.72-9.72 0-5.363-4.343-9.712-9.704-9.72L12 1.998zm6 7.46-2.93 4.66a1.5 1.5 0 0 1-2.174.397l.004.003-2.34-1.75a.595.595 0 0 0-.721.001l.002-.001-3.16 2.4a.47.47 0 0 1-.679-.631l-.001.002 2.93-4.66a1.5 1.5 0 0 1 2.174-.397l-.004-.003 2.34 1.75a.595.595 0 0 0 .721-.001l-.001.001 3.16-2.4a.47.47 0 0 1 .679.632l.001-.002z"/></svg>