<svg xmlns="http://www.w3.org/2000/svg" fill="none" viewBox="0 0 24 24"><path fill="currentColor" d="M5.59 4.21A96 96 0 0 1 12 4.001c2.599 0 4.786.099 6.41.209 1.861.126 3.298 1.607 3.418 3.469.091 1.39.171 3.001.171 4.322s-.081 2.932-.171 4.322c-.121 1.861-1.558 3.343-3.418 3.469-1.625.11-3.811.209-6.41.209s-4.786-.099-6.41-.209c-1.862-.126-3.298-1.607-3.418-3.469-.09-1.39-.171-3.001-.171-4.322s.081-2.932.171-4.322C2.293 5.817 3.73 4.336 5.59 4.21m5.962 4.958a1 1 0 0 0-1.552.834v3.997a1 1 0 0 0 1.552.834l2.993-1.982a1.02 1.02 0 0 0 0-1.701z"/></svg>