<svg xmlns="http://www.w3.org/2000/svg" fill="none" viewBox="0 0 24 24"><path fill="currentColor" d="M12 22c5.523 0 10-4.477 10-10S17.523 2 12 2 2 6.477 2 12s4.477 10 10 10M6.937 6.143A.5.5 0 0 1 7.284 6h11.97c.219 0 .328.264.173.418l-2.365 2.365a.5.5 0 0 1-.347.143H4.745a.244.244 0 0 1-.173-.418zm.001 8.828a.5.5 0 0 1 .347-.143h11.97c.219 0 .328.264.173.418l-2.365 2.365a.5.5 0 0 1-.347.143H4.746a.244.244 0 0 1-.173-.418zm9.778-4.585c.132 0 .256.053.347.143l2.365 2.365a.245.245 0 0 1-.173.418H7.285a.5.5 0 0 1-.347-.143l-2.365-2.365a.245.245 0 0 1 .173-.418z"/></svg>