<svg xmlns="http://www.w3.org/2000/svg" fill="none" viewBox="0 0 24 24"><path fill="currentColor" d="m15.601 3.292.536.536-2.336 2.335-.536-.536a1.79 1.79 0 0 0-2.53 0l-5.109 5.109a1.79 1.79 0 0 0 0 2.528l2.534 2.533-2.34 2.336L3.291 15.6a5.09 5.09 0 0 1 0-7.2L8.4 3.292a5.09 5.09 0 0 1 7.201 0m-4.869 15.08a1.79 1.79 0 0 0 2.53 0l5.11-5.108a1.79 1.79 0 0 0 0-2.528l-2.53-2.527 2.336-2.335 2.533 2.533a5.097 5.097 0 0 1 0 7.2l-5.11 5.108a5.06 5.06 0 0 1-3.6 1.485 5.06 5.06 0 0 1-3.605-1.492l-.536-.536 2.336-2.335z"/><path fill="currentColor" d="m11.34 8.714-2.624 2.624a.934.934 0 0 0 0 1.32l2.625 2.625a.934.934 0 0 0 1.321 0l2.624-2.624a.934.934 0 0 0 0-1.322l-2.624-2.623a.934.934 0 0 0-1.321 0"/></svg>