<svg xmlns="http://www.w3.org/2000/svg" fill="none" viewBox="0 0 24 24"><path fill="currentColor" d="M9.699 3.518c.863-2.03 3.739-2.03 4.602 0l1.558 3.667 3.848.322c2.177.182 3.089 2.874 1.472 4.343l-2.943 2.671.963 4.436c.487 2.241-2.05 3.9-3.908 2.557L12 19.134l-3.291 2.38c-1.858 1.344-4.394-.315-3.908-2.557l.963-4.436-2.943-2.671c-1.618-1.469-.706-4.16 1.472-4.342l3.848-.322zh.002zm2.761.783a.5.5 0 0 0-.92 0L9.865 8.245c-.217.512-.7.862-1.255.908L4.461 9.5a.5.5 0 0 0-.294.868l3.157 2.865c.397.36.571.905.457 1.429L6.757 19.38a.5.5 0 0 0 .781.512l3.584-2.591a1.5 1.5 0 0 1 1.758 0l3.584 2.591a.5.5 0 0 0 .782-.511l-1.025-4.718a1.5 1.5 0 0 1 .458-1.429l3.157-2.865a.5.5 0 0 0-.294-.868l-4.149-.347a1.5 1.5 0 0 1-1.255-.908l-1.675-3.944z"/></svg>