<svg xmlns="http://www.w3.org/2000/svg" fill="none" viewBox="0 0 24 24"><path fill="currentColor" d="M10.609 2.938c.505-1.252 2.277-1.252 2.782 0l1.937 4.802a.5.5 0 0 0 .423.311l4.866.397c1.319.108 1.863 1.747.869 2.621l-3.692 3.247a.5.5 0 0 0-.158.483l1.181 5.367c.295 1.341-1.216 2.341-2.335 1.544l-4.191-2.984a.5.5 0 0 0-.58 0L7.52 21.71c-1.118.797-2.63-.203-2.335-1.544l1.181-5.367a.5.5 0 0 0-.158-.483l-3.693-3.248c-.994-.874-.451-2.514.869-2.621L8.25 8.05a.5.5 0 0 0 .423-.311l1.938-4.802z"/></svg>