<svg xmlns="http://www.w3.org/2000/svg" fill="none" viewBox="0 0 24 24"><path fill="currentColor" d="M6.519 1.321A.96.96 0 1 0 5.16 2.68l.296.296A4.8 4.8 0 0 0 1.04 7.76a.96.96 0 0 0 1.92 0 2.88 2.88 0 0 1 2.45-2.848l-.249.25A.96.96 0 1 0 6.52 6.518l1.92-1.92a.96.96 0 0 0 0-1.358z"/><path fill="currentColor" fill-rule="evenodd" d="M15.44 1.04A6.72 6.72 0 0 0 8.8 8.8a6.72 6.72 0 1 0 5.6 5.6q.51.08 1.04.08a6.72 6.72 0 0 0 0-13.44m-1.78 11.18a6.75 6.75 0 0 0-2.68-2.68 4.8 4.8 0 1 1 2.679 2.679m-10.7 3.22a4.8 4.8 0 1 1 9.6 0 4.8 4.8 0 0 1-9.6 0" clip-rule="evenodd"/><path fill="currentColor" d="M22.16 15.44a.96.96 0 1 0-1.92 0 2.88 2.88 0 0 1-2.45 2.848l.249-.25a.96.96 0 1 0-1.358-1.357l-1.92 1.92a.96.96 0 0 0 0 1.358l1.92 1.92a.96.96 0 0 0 1.358-1.358l-.296-.296a4.8 4.8 0 0 0 4.417-4.785"/></svg>