<svg xmlns="http://www.w3.org/2000/svg" fill="none" viewBox="0 0 24 24"><path fill="currentColor" d="M8 7.54a3.54 3.54 0 0 1 3.541-3.541H12a4 4 0 0 1 4 4 1 1 0 0 0 2 0 6 6 0 0 0-6-6h-.459A5.54 5.54 0 0 0 6 7.54a4.63 4.63 0 0 0 2.912 4.301l2.895 1.158h4.642a4.7 4.7 0 0 0-1.361-.842L9.655 9.984c-1-.4-1.654-1.368-1.654-2.444l.001.001zm9.864 7.806a.47.47 0 0 0-.461-.346h-.911c-.399 0-.655.463-.563.852q.07.296.071.607A3.54 3.54 0 0 1 12.459 20H12a4 4 0 0 1-4-4 1 1 0 0 0-2 0 6 6 0 0 0 6 6h.459A5.54 5.54 0 0 0 18 16.459q-.001-.573-.136-1.113"/><path fill="currentColor" d="M4 12a1 1 0 0 1 1-1h14a1 1 0 0 1 0 2H5a1 1 0 0 1-1-1"/></svg>