<svg xmlns="http://www.w3.org/2000/svg" fill="none" viewBox="0 0 24 24"><path fill="currentColor" d="M17 12a5 5 0 1 1-10.001-.001A5 5 0 0 1 17 12m-6-9a1 1 0 0 1 2 0v1a1 1 0 0 1-2 0zM5.636 7.051a1 1 0 1 0 1.415-1.415l-.707-.707a1 1 0 1 0-1.415 1.415zM19.071 4.93a1 1 0 0 0-1.415 0l-.707.707a1.001 1.001 0 0 0 1.415 1.414l.707-.707a1 1 0 0 0 0-1.414M7.05 16.949a1 1 0 0 0-1.415 0l-.707.707a1 1 0 1 0 1.414 1.415l.707-.707a1 1 0 0 0 0-1.415zm12.021 2.121a1 1 0 0 1-1.415 0l-.707-.707a1 1 0 1 1 1.415-1.415l.707.707a1 1 0 0 1 0 1.415M12 19a1 1 0 0 0-1 1v1a1 1 0 0 0 2 0v-1a1 1 0 0 0-1-1m9-8a1 1 0 0 1 0 2h-1a1 1 0 0 1 0-2zM5 12a1 1 0 0 0-1-1H3a1 1 0 0 0 0 2h1a1 1 0 0 0 1-1"/></svg>