<svg xmlns="http://www.w3.org/2000/svg" fill="none" viewBox="0 0 24 24"><path fill="currentColor" d="M21.002 11a3 3 0 0 1-3 3h-3V3h3a3 3 0 0 1 3 3zm-3 1a1 1 0 0 0 1-1V6a1 1 0 0 0-1-1h-1v7z"/><path fill="currentColor" d="M13.153 19.773a2.5 2.5 0 0 1-3.499.832l-.329-.21a2.5 2.5 0 0 1-1.104-2.596L8.781 15H6a3 3 0 0 1-2.966-3.454l.918-6A3 3 0 0 1 6.918 3h10.083v9.452c0 .538-.145 1.066-.418 1.528l-3.43 5.792zm-2.421-.853a.5.5 0 0 0 .7-.166l3.43-5.792c.091-.155.139-.33.139-.509V5.001H6.918c-.494 0-.913.361-.989.849l-.918 6a1 1 0 0 0 .988 1.151H9.39a1.5 1.5 0 0 1 1.471 1.794l-.679 3.397a.5.5 0 0 0 .22.519l.329.211z"/></svg>