<svg xmlns="http://www.w3.org/2000/svg" fill="none" viewBox="0 0 24 24"><path fill="currentColor" d="M3 13a3 3 0 0 1 3-3h3v11H6a3 3 0 0 1-3-3zm3-1a1 1 0 0 0-1 1v5a1 1 0 0 0 1 1h1v-7z"/><path fill="currentColor" d="M10.848 4.227a2.5 2.5 0 0 1 3.499-.832l.329.21a2.5 2.5 0 0 1 1.104 2.596L15.221 9h2.781a3 3 0 0 1 2.965 3.454l-.918 6A3 3 0 0 1 17.084 21H7.001v-9.452c0-.538.145-1.066.418-1.529zm2.421.852a.5.5 0 0 0-.7.167l-3.43 5.792c-.091.154-.139.33-.139.509v7.452h8.083c.494 0 .913-.361.989-.849l.918-6a1 1 0 0 0-.989-1.151H14.61a1.5 1.5 0 0 1-1.471-1.794l.68-3.397a.5.5 0 0 0-.221-.519z"/></svg>