<svg xmlns="http://www.w3.org/2000/svg" fill="none" viewBox="0 0 24 24"><path fill="currentColor" d="M7 20a1 1 0 0 1 1-1h8a1 1 0 0 1 0 2H8a1 1 0 0 1-1-1m.162-17h9.677c.527 0 .982 0 1.357.031.395.032.788.103 1.167.296a3 3 0 0 1 1.311 1.311c.193.379.264.772.296 1.167.031.374.031.83.031 1.357v5.678c0 .527 0 .982-.031 1.357-.032.395-.104.788-.296 1.167a3 3 0 0 1-1.311 1.311c-.379.193-.772.264-1.167.296-.374.031-.83.031-1.357.031H7.162c-.527 0-.982 0-1.357-.031-.395-.032-.788-.104-1.167-.296a3 3 0 0 1-1.311-1.311c-.193-.379-.264-.772-.296-1.167C3 13.823 3 13.367 3 12.84V7.163c0-.527 0-.982.031-1.357.032-.395.103-.788.296-1.167a3 3 0 0 1 1.311-1.311c.379-.193.772-.264 1.167-.296C6.179 3.001 6.634 3 7.162 3M5.968 5.024c-.271.022-.373.06-.421.085a1 1 0 0 0-.437.437c-.026.05-.063.15-.085.421a17 17 0 0 0-.024 1.232v5.6c0 .577.001.949.024 1.232.022.271.06.372.085.421.096.188.249.341.437.437.05.026.15.063.421.085.283.023.655.024 1.232.024h9.6c.577 0 .949-.001 1.232-.024.271-.023.372-.06.422-.085.188-.096.341-.249.437-.437.026-.049.063-.15.085-.421.023-.284.024-.655.024-1.232v-5.6c0-.577-.001-.949-.024-1.232-.023-.272-.06-.373-.085-.422a1 1 0 0 0-.437-.437c-.049-.026-.15-.063-.422-.085-.283-.023-.655-.024-1.232-.024H7.2c-.577 0-.949.001-1.232.024z"/></svg>