<svg xmlns="http://www.w3.org/2000/svg" fill="none" viewBox="0 0 24 24"><path fill="currentColor" d="M22 12c0 5.523-4.477 10-10 10S2 17.523 2 12 6.477 2 12 2s10 4.477 10 10m-7.075 1.719c0-1.551-.931-2.084-2.792-2.305-1.33-.177-1.596-.532-1.596-1.153s.443-1.019 1.33-1.019c.798 0 1.241.266 1.463.931a.33.33 0 0 0 .311.221h.709a.304.304 0 0 0 .311-.31v-.044a2.21 2.21 0 0 0-1.994-1.817V7.16c0-.177-.133-.311-.355-.355h-.664c-.177 0-.311.133-.355.355v1.019c-1.33.177-2.172 1.063-2.172 2.172 0 1.463.886 2.039 2.748 2.26 1.241.221 1.64.488 1.64 1.197s-.62 1.197-1.463 1.197c-1.153 0-1.552-.488-1.684-1.153-.044-.177-.177-.266-.31-.266h-.754a.303.303 0 0 0-.31.311v.044c.177 1.108.886 1.906 2.349 2.128v1.063c0 .177.133.311.355.355h.665c.177 0 .311-.133.355-.355v-1.063c1.33-.222 2.217-1.153 2.217-2.349zm-9.13-3.856c-1.285 3.413.487 7.269 3.945 8.51.133.088.266.266.266.399v.62c0 .088 0 .133-.044.177-.044.177-.221.266-.399.177a7.97 7.97 0 0 1-5.186-5.186c-1.33-4.21.975-8.687 5.186-10.017.044-.044.133-.044.177-.044.177.044.266.177.266.355v.62c0 .222-.088.355-.266.443a6.56 6.56 0 0 0-3.945 3.946m8.244-5.142c.044-.177.221-.266.399-.177a8.04 8.04 0 0 1 5.186 5.231c1.33 4.21-.975 8.687-5.186 10.017-.044.044-.133.044-.177.044-.177-.044-.266-.177-.266-.355v-.62c0-.222.088-.355.266-.443 1.817-.665 3.28-2.083 3.945-3.945 1.285-3.413-.487-7.269-3.945-8.51-.133-.089-.266-.266-.266-.443V4.9c0-.089 0-.135.044-.179"/></svg>