<svg xmlns="http://www.w3.org/2000/svg" fill="none" viewBox="0 0 24 24"><path fill="currentColor" fill-rule="evenodd" d="M9.6 2.4a4.8 4.8 0 1 0 0 9.6 4.8 4.8 0 0 0 0-9.6M6.72 7.2a2.88 2.88 0 1 1 5.76 0 2.88 2.88 0 0 1-5.76 0" clip-rule="evenodd"/><path fill="currentColor" d="M15.72 2.75A.96.96 0 0 0 15 4.528 2.88 2.88 0 0 1 16.8 7.2a.96.96 0 1 0 1.92 0 4.8 4.8 0 0 0-3-4.45"/><path fill="currentColor" fill-rule="evenodd" d="M21.799 11.321a2.32 2.32 0 0 0-3.278 0l-6.39 6.391-.026.025c-.096.096-.215.215-.315.357l-.002.003c-.081.117-.155.25-.213.4-.061.16-.094.324-.12.454l-.396 1.98a.96.96 0 0 0 1.13 1.13l1.98-.396c.13-.026.296-.059.456-.121q.216-.085.398-.212l.004-.003c.141-.099.26-.218.356-.314l.025-.025 6.39-6.391a2.32 2.32 0 0 0 0-3.278m-1.92 1.358a.398.398 0 0 1 .562.562l-6.39 6.391-.123.12-.001.002h-.004l-.168.036-.531.106.106-.53c.018-.092.028-.136.035-.169l.001-.004.002-.001.12-.122z" clip-rule="evenodd"/><path fill="currentColor" d="M12 14.88a.96.96 0 0 0-.96-.96H8.126c-.866 0-1.564 0-2.132.039-.585.04-1.102.124-1.592.326a4.8 4.8 0 0 0-2.597 2.598c-.202.49-.286 1.006-.326 1.59-.039.568-.039 1.266-.039 2.132v.034a.96.96 0 1 0 1.92 0c0-.908 0-1.54.034-2.035.033-.487.095-.77.185-.987a2.88 2.88 0 0 1 1.558-1.558c.217-.09.5-.152.987-.185.496-.034 1.128-.034 2.036-.034h2.88c.53 0 .96-.43.96-.96"/></svg>