<svg xmlns="http://www.w3.org/2000/svg" fill="none" viewBox="0 0 24 24"><path fill="currentColor" fill-rule="evenodd" d="M12 4.8a4.8 4.8 0 1 0 0 9.6 4.8 4.8 0 0 0 0-9.6M9.12 9.6a2.88 2.88 0 1 1 5.76 0 2.88 2.88 0 0 1-5.76 0" clip-rule="evenodd"/><path fill="currentColor" fill-rule="evenodd" d="M22.56 12a10.53 10.53 0 0 1-3.512 7.864A10.52 10.52 0 0 1 12 22.56a10.52 10.52 0 0 1-7.068-2.714A10.53 10.53 0 0 1 1.44 12C1.44 6.168 6.168 1.44 12 1.44S22.56 6.168 22.56 12m-19.2 0a8.64 8.64 0 1 1 17.28 0 8.6 8.6 0 0 1-2.053 5.591 4.79 4.79 0 0 0-3.707-1.751H9.12a4.79 4.79 0 0 0-3.707 1.751A8.6 8.6 0 0 1 3.36 12m11.52 5.76c.941 0 1.778.452 2.304 1.152A8.6 8.6 0 0 1 12 20.64a8.6 8.6 0 0 1-5.184-1.728A2.88 2.88 0 0 1 9.12 17.76z" clip-rule="evenodd"/></svg>