<svg xmlns="http://www.w3.org/2000/svg" fill="none" viewBox="0 0 24 24"><path fill="currentColor" d="M7 8a2 2 0 0 1 2-2 1 1 0 0 0 0-2 4 4 0 0 0 0 8 1 1 0 0 0 0-2 2 2 0 0 1-2-2m-3 9.667C4 16.747 4.746 16 5.667 16H6a1 1 0 0 0 0-2h-.333A3.667 3.667 0 0 0 2 17.667 2.334 2.334 0 0 0 4.333 20h1.666a1 1 0 0 0 0-2H4.333A.333.333 0 0 1 4 17.667M15 4a4 4 0 1 0 0 8 4 4 0 0 0 0-8m-2 4a2 2 0 1 1 3.999-.001A2 2 0 0 1 13 8m-1.333 6A3.667 3.667 0 0 0 8 17.667 2.334 2.334 0 0 0 10.333 20h9.334A2.334 2.334 0 0 0 22 17.667 3.667 3.667 0 0 0 18.333 14zM10 17.667c0-.92.746-1.667 1.666-1.667h6.667c.92 0 1.667.746 1.667 1.667a.333.333 0 0 1-.333.333h-9.334a.333.333 0 0 1-.333-.333"/></svg>