<svg xmlns="http://www.w3.org/2000/svg" fill="none" viewBox="0 0 24 24"><path fill="currentColor" stroke="currentColor" d="M12 13.83a1.835 1.835 0 0 1 0-3.67c1.011 0 1.83.823 1.83 1.84 0 1.005-.817 1.83-1.83 1.83Z"/><path fill="currentColor" stroke="currentColor" d="M3.5 5.5H3v3.91h1.23c.566 0 1.02-.454 1.02-1.02V6.51c0-.563-.46-1.01-1.02-1.01zm0 9.08H3v3.92h1.23c.572 0 1.02-.47 1.02-1.02V15.6c0-.566-.454-1.02-1.02-1.02zM5.75 2.5h12.42a3.337 3.337 0 0 1 3.33 3.33v12.33a3.34 3.34 0 0 1-3.33 3.34H5.75a3.26 3.26 0 0 1-3.25-3.25V5.75A3.25 3.25 0 0 1 5.75 2.5Zm7.5 13.64a4.34 4.34 0 0 0 2.9-2.89A1.25 1.25 0 0 0 17.36 12c0-.683-.533-1.229-1.209-1.25a4.34 4.34 0 0 0-2.901-2.901A1.255 1.255 0 0 0 12 6.63c-.676 0-1.234.548-1.25 1.219a4.34 4.34 0 0 0-2.901 2.901A1.24 1.24 0 0 0 6.64 12a1.25 1.25 0 0 0 1.21 1.25 4.34 4.34 0 0 0 2.9 2.89c.017.673.574 1.22 1.25 1.22s1.234-.547 1.25-1.22Z"/></svg>