<svg xmlns="http://www.w3.org/2000/svg" fill="none" viewBox="0 0 24 24"><path fill="currentColor" d="M4.327 7.638a3 3 0 0 1 1.311-1.311C6.28 6 7.12 6 8.8 6h6.4c1.68 0 2.52 0 3.162.327a3 3 0 0 1 1.311 1.311C20 8.28 20 9.12 20 10.8v6.4c0 1.68 0 2.52-.327 3.162a3 3 0 0 1-1.311 1.311C17.72 22 16.88 22 15.2 22H8.8c-1.68 0-2.52 0-3.162-.327a3 3 0 0 1-1.311-1.311C4 19.72 4 18.88 4 17.2v-6.4c0-1.68 0-2.52.327-3.162m7.226 3.532a1 1 0 0 0-1.553.833v3.994a1 1 0 0 0 1.553.833l2.998-1.988a1.01 1.01 0 0 0 0-1.684zM6 3a1 1 0 0 0 1 1h10a1 1 0 0 0 0-2H7a1 1 0 0 0-1 1"/></svg>