<svg xmlns="http://www.w3.org/2000/svg" fill="none" viewBox="0 0 24 24"><path fill="currentColor" d="M20.362 4.327a3 3 0 0 1 1.311 1.311C22 6.28 22 7.12 22 8.8v6.4c0 1.68 0 2.52-.327 3.162a3 3 0 0 1-1.311 1.311C19.72 20 18.88 20 17.2 20H6.8c-1.68 0-2.52 0-3.162-.327a3 3 0 0 1-1.311-1.311C2 17.72 2 16.88 2 15.2V8.8c0-1.68 0-2.52.327-3.162a3 3 0 0 1 1.311-1.311C4.28 4 5.12 4 6.8 4h10.4c1.68 0 2.52 0 3.162.327m-9.848 3.818A1 1 0 0 0 9 9.003v5.993a1 1 0 0 0 1.514.858l4.997-2.988a1.01 1.01 0 0 0 0-1.734z"/></svg>