<svg xmlns="http://www.w3.org/2000/svg" fill="none" viewBox="0 0 24 24"><path fill="currentColor" d="M16.32 12.96a1.44 1.44 0 1 0 0 2.88 1.44 1.44 0 0 0 0-2.88"/><path fill="currentColor" fill-rule="evenodd" d="M15.203 2.008c-.39-.067-.742.027-1.012.123-.261.093-.57.235-.904.39L4.742 6.464l-.103.047c-.54.249-1.012.465-1.372.817l-.002.002a2.9 2.9 0 0 0-.7 1.094c-.168.472-.167.99-.166 1.577v4.878l.001.044v2.682c0 .506 0 .942.03 1.302.03.38.099.758.284 1.121.276.542.717.983 1.259 1.259.363.184.74.253 1.12.284.359.029.796.029 1.302.029h11.21c.506 0 .942 0 1.302-.03.38-.03.758-.099 1.12-.284a2.9 2.9 0 0 0 1.26-1.259c.184-.363.253-.74.284-1.12.029-.359.029-.796.029-1.302v-6.41c0-.506 0-.942-.03-1.302-.03-.38-.099-.758-.284-1.12a2.9 2.9 0 0 0-1.259-1.26c-.363-.184-.74-.253-1.12-.284-.36-.029-.796-.029-1.302-.029H16.8V4.762c0-.365 0-.702-.025-.977-.026-.284-.088-.644-.312-.97a1.93 1.93 0 0 0-1.26-.807M2.565 8.424l2.177-1.96 9.45-4.333zm1.778 1.625c.021-.26.057-.357.082-.406a.96.96 0 0 1 .419-.418c.048-.025.145-.06.405-.082.272-.022.63-.023 1.183-.023h11.136c.554 0 .911 0 1.183.023.26.021.357.057.405.081.18.092.327.24.42.42.024.047.06.144.081.405.022.272.023.63.023 1.183v6.336c0 .554 0 .911-.023 1.183-.021.26-.057.358-.082.406a.96.96 0 0 1-.418.419c-.049.024-.146.06-.406.081-.272.022-.63.023-1.183.023H6.432c-.554 0-.911 0-1.183-.023-.26-.021-.358-.057-.406-.081a.96.96 0 0 1-.418-.42c-.025-.047-.06-.145-.082-.405a16 16 0 0 1-.023-1.183v-6.336c0-.554 0-.911.023-1.183m9.72-5.771L7.73 7.2h7.15V4.801c0-.418-.001-.665-.017-.842l-.003-.028-.026.01c-.167.058-.393.162-.772.337" clip-rule="evenodd"/></svg>