<svg xmlns="http://www.w3.org/2000/svg" fill="none" viewBox="0 0 24 24"><path fill="currentColor" d="M12 7a1 1 0 0 1 1 1v4a1 1 0 0 1-2 0V8a1 1 0 0 1 1-1m-1 9a1 1 0 1 1 2 0 1 1 0 0 1-2 0"/><path fill="currentColor" fill-rule="evenodd" d="M8.42 5.211c1.474-2.951 5.686-2.951 7.159 0l4.993 10.004c1.328 2.659-.607 5.786-3.58 5.786H7.008c-2.972 0-4.906-3.126-3.579-5.786zM16.994 19c1.485 0 2.453-1.563 1.789-2.893L13.789 6.103c-.736-1.476-2.843-1.476-3.58 0L5.218 16.107A2 2 0 0 0 7.007 19z" clip-rule="evenodd"/></svg>