<svg xmlns="http://www.w3.org/2000/svg" fill="none" viewBox="0 0 24 24"><path fill="currentColor" d="M12 7a1 1 0 0 1 1 1v4a1 1 0 0 1-2 0V8a1 1 0 0 1 1-1m-1 9a1 1 0 1 1 2 0 1 1 0 0 1-2 0"/><path fill="currentColor" fill-rule="evenodd" d="M16.308 3.058C15.601 3 14.727 3 13.643 3h-3.286C9.274 3 8.4 3 7.692 3.058c-.729.06-1.369.187-1.961.488a5 5 0 0 0-2.185 2.185c-.303.592-.429 1.232-.488 1.961C3 8.4 3 9.274 3 10.358v3.286c0 1.083 0 1.957.058 2.665.06.729.187 1.369.488 1.961a5 5 0 0 0 2.185 2.185c.592.303 1.232.429 1.961.488.707.058 1.58.058 2.665.058h3.286c1.083 0 1.957 0 2.665-.058.729-.06 1.369-.186 1.961-.488a5 5 0 0 0 2.185-2.185c.302-.592.428-1.232.487-1.961.058-.707.058-1.581.058-2.665v-3.286c0-1.084 0-1.958-.058-2.666-.06-.729-.185-1.369-.487-1.961a5 5 0 0 0-2.185-2.185c-.592-.303-1.232-.429-1.961-.488M6.637 5.327c.264-.134.612-.227 1.217-.276C8.471 5.001 9.264 5 10.4 5h3.2c1.136 0 1.928.001 2.545.051.605.05.953.142 1.216.276a3 3 0 0 1 1.311 1.311c.134.263.227.611.276 1.216.05.616.051 1.409.051 2.545v3.2c0 1.137-.001 1.929-.051 2.546-.049.605-.142.953-.276 1.216a3 3 0 0 1-1.311 1.311c-.263.134-.611.226-1.216.276-.617.05-1.41.051-2.546.051h-3.2c-1.136 0-1.929-.001-2.545-.051-.606-.05-.954-.142-1.217-.276a3 3 0 0 1-1.311-1.311c-.134-.264-.226-.611-.276-1.216-.05-.617-.051-1.41-.051-2.546v-3.2c0-1.136.001-1.929.051-2.545.05-.605.142-.953.276-1.216a3 3 0 0 1 1.311-1.311" clip-rule="evenodd"/></svg>