<svg xmlns="http://www.w3.org/2000/svg" fill="none" viewBox="0 0 24 24"><path fill="currentColor" fill-rule="evenodd" d="M12.285 4.843a.96.96 0 0 1 .675.917V9.6h2.893c.208 0 .424 0 .603.016.178.016.497.06.784.278l.004.003c.334.256.54.647.562 1.071.018.362-.128.65-.215.805-.088.157-.21.335-.328.507l-4.472 6.504a.96.96 0 0 1-1.75-.544V14.4H8.146c-.207 0-.423 0-.603-.016-.177-.016-.496-.059-.784-.278l-.004-.003a1.44 1.44 0 0 1-.562-1.071c-.018-.362.128-.65.215-.805a7 7 0 0 1 .328-.507l4.472-6.504a.96.96 0 0 1 1.076-.373m-3.74 7.637 2.495-3.63v1.71c0 .53.43.96.96.96h3.455l-2.495 3.63v-1.71a.96.96 0 0 0-.96-.96z" clip-rule="evenodd"/><path fill="currentColor" fill-rule="evenodd" d="M1.44 12C1.44 6.168 6.168 1.44 12 1.44S22.56 6.168 22.56 12 17.832 22.56 12 22.56 1.44 17.832 1.44 12M12 3.36a8.64 8.64 0 1 0 0 17.28 8.64 8.64 0 0 0 0-17.28" clip-rule="evenodd"/></svg>